<?xml version="1.0" encoding="utf-8"?>
<!-- Generator: Adobe Illustrator 16.0.0, SVG Export Plug-In . SVG Version: 6.00 Build 0)  -->
<!DOCTYPE svg PUBLIC "-//W3C//DTD SVG 1.1//EN" "http://www.w3.org/Graphics/SVG/1.1/DTD/svg11.dtd">
<svg version="1.1" id="Layer_4" xmlns="http://www.w3.org/2000/svg" xmlns:xlink="http://www.w3.org/1999/xlink" x="0px" y="0px"
	 width="244.668px" height="253.333px" viewBox="0 0 244.668 253.333" enable-background="new 0 0 244.668 253.333"
	 xml:space="preserve">
<g>
	<g>
		<g>
			<g>
				<g>
					<g>
						<path fill="#FFFFFF" stroke="#FFFFFF" stroke-width="2" stroke-miterlimit="10" d="M211.75,50.495
							c-1-1.312-1.825-2.497-1.416-2.027c-2.151-2.59-2.135-2.697-2.549-2.922c-1.438-1.609-2.849-3.435-1.197-1.613
							c-1.366-1.563-2.766-3.096-4.196-4.598c0.834,0.92,1.651,1.852,2.461,2.793c-0.392-0.334-1.362-1.455-2.377-2.572
							c-1.01-1.117-2.062-2.226-2.533-2.588c1.562,1.612,3.08,3.262,4.563,4.944l-0.264-0.22c1.062,1.105,2.965,3.398,3.596,4.223
							c-0.123-0.109-0.09-0.005-0.848-0.916c2.569,3.141,2.926,3.561,3.225,3.803c0.281,0.254,0.496,0.344,2.521,3.045
							L211.75,50.495z"/>
						<path fill="#FFFFFF" stroke="#FFFFFF" stroke-width="2" stroke-miterlimit="10" d="M215.443,56.34
							c0.582,0.746,1.158,1.498,1.727,2.254c0.85,1.34,1.674,2.694,2.477,4.061c0.096,0.007,1.895,2.971,0.76,0.916l-1.104-1.787
							c0.203,0.188,1.037,1.532,1.727,2.686c0.688,1.151,1.236,2.105,0.961,1.459c-1.9-3.254-2.195-3.754-3.516-5.664
							c-1.824-2.93-3.229-5.021-4.109-6.371c-0.607-0.825-0.768-0.893-1.547-1.936l0.523,0.715l-0.1,0.241
							c0.672,0.854,1.24,1.707,1.926,2.696c-1.113-1.484-2.264-2.945-3.436-4.381c0.453,0.777,1.504,2.254,2.561,3.787
							c1.059,1.529,2.113,3.119,2.668,4.06C215.631,56.711,218.23,60.82,215.443,56.34z"/>
						<path fill="#FFFFFF" stroke="#FFFFFF" stroke-width="2" stroke-miterlimit="10" d="M212.814,51.957l-0.08-0.109
							L212.814,51.957z"/>
						<path fill="#FFFFFF" stroke="#FFFFFF" stroke-width="2" stroke-miterlimit="10" d="M6.638,174.774
							c-0.392-1.133-0.543-1.453-0.623-1.609c1.387,4.281,3.066,8.467,5.014,12.521c-0.148-0.4-1.687-3.965-0.582-1.617
							c-0.444-1.068-1.863-4.293-2.107-4.746l0.447,0.873c-1.277-2.836-1.75-4.922-1.003-3.041l-0.093-0.244
							c-1.127-2.633-2.143-5.32-3.037-8.057c0.408,1.529,0.625,2.102,0.863,2.75C5.761,172.249,6.02,172.975,6.638,174.774z"/>
						<path fill="#FFFFFF" stroke="#FFFFFF" stroke-width="2" stroke-miterlimit="10" d="M169.004,2.57
							c-1.726-0.258-1.938-0.258-1.748-0.21L169.004,2.57z"/>
						<path fill="#FFFFFF" stroke="#FFFFFF" stroke-width="2" stroke-miterlimit="10" d="M4.043,166.928
							c-0.264-0.863-0.516-1.732-0.754-2.604C3.559,165.377,3.832,166.29,4.043,166.928z"/>
						<path fill="#FFFFFF" stroke="#FFFFFF" stroke-width="2" stroke-miterlimit="10" d="M12.157,183.688
							c0.008,0,0.025,0.025,0.006-0.043l-0.557-1.053l0.013,0.023L12.157,183.688z"/>
						<path fill="#FFFFFF" stroke="#FFFFFF" stroke-width="2" stroke-miterlimit="10" d="M7.556,106.498l0.293-0.838L7.556,106.498z
							"/>
						<path fill="#FFFFFF" stroke="#FFFFFF" stroke-width="2" stroke-miterlimit="10" d="M33.085,212.512
							c-1.396-1.367-2.751-2.773-4.071-4.213c0.557,0.551-1.309-1.574-0.447-0.689c-0.303-0.328-1.666-1.916-1.322-1.459
							l0.773,0.912c-1.067-1.121-1.303-1.324-1.701-1.721c-0.394-0.402-0.963-0.988-2.57-2.992c1.846,2.604,2.834,3.611,3.98,4.852
							l1.023,1.148c1.135,1.172,2.292,2.316,3.477,3.434L33.085,212.512z"/>
						<path fill="#FFFFFF" stroke="#FFFFFF" stroke-width="2" stroke-miterlimit="10" d="M88.732,17.121l-0.053,0.042
							C88.732,17.131,88.741,17.122,88.732,17.121z"/>
						<path fill="#FFFFFF" stroke="#FFFFFF" stroke-width="2" stroke-miterlimit="10" d="M88.477,17.331l0.203-0.169
							C88.411,17.331,87.341,17.92,88.477,17.331z"/>
						<path fill="#FFFFFF" stroke="#FFFFFF" stroke-width="2" stroke-miterlimit="10" d="M4.402,167.86
							c-0.053-0.068-0.182-0.393-0.358-0.932c0.198,0.645,0.397,1.287,0.608,1.926L4.402,167.86z"/>
						<path fill="#FFFFFF" stroke="#FFFFFF" stroke-width="2" stroke-miterlimit="10" d="M6.041,172.149
							c0.509,1.602,1.06,3.188,1.651,4.76l0.746,1.701C7.705,176.829,6.908,174.721,6.041,172.149z"/>
						<path fill="#FFFFFF" stroke="#FFFFFF" stroke-width="2" stroke-miterlimit="10" d="M4.962,114.076
							c3.111-10.031-0.588,2.52,0.905-2.07c0.859-2.781,1.109-3.783,1.688-5.508c-1.34,3.941-1.287,3.662-1.295,3.373
							c0.018-0.283-0.031-0.578-1.248,3.449c0.086-0.598,0.481-2.064,1.008-3.709c0.522-1.646,1.179-3.465,1.697-4.797
							c0.649-1.482,0.43-0.811,0.04,0.326c-0.389,1.137-0.918,2.75-0.954,3.123c1.088-3.191,0.875-2.637,1.277-4.019
							c1.884-4.948,3.986-10.226,5.594-12.965c1.654-3.457,1.488-3.259,2.424-5.259c0.021-0.237-0.674,1.011-1.439,2.482
							c-0.771,1.471-1.605,3.172-1.975,3.783c0.14-0.26,0.416-0.764,0.369-0.604c-0.49,0.994-0.97,1.992-1.438,2.994
							c1.375-2.838-0.028,0.471-0.68,2.021c-0.494,1.123-1.418,3.377-1.336,3.049l0.68-1.728c-0.994,2.175-1.877,4.925-2.838,7.256
							c-0.086,0.109,0.227-0.793,0.254-0.938c-0.863,2.695-1.785,5.266-2.909,9.299l0.542-2.375l-1.924,7.133
							c-0.754,2.89-1.45,6.039-1.938,8.64c0.127-0.571,0.338-1.606,0.262-0.979c-0.5,3.062-0.888,5.377-0.805,3.937
							c-0.134,1.515-0.512,4.38-0.721,7.405c-0.221,3.021-0.266,6.199-0.112,8.266c0.457,6.336,1.537,12.596,3.204,18.656
							c-0.176-0.686-0.352-1.418-0.509-2.182c-0.16-1.717-0.353-2.611,0.36,0.301c-0.33-1.436-0.455-1.873-0.612-2.494
							c-0.146-0.625-0.334-1.43-0.644-3.621c0.16,0.854,0.309,1.381,0.336,1.172c0.031-0.211-0.07-1.15-0.304-3.254
							c-0.667-5.244-0.925-9.646-0.957-13.975c-0.013-4.326,0.203-8.584,0.923-13.513c0.094-0.17,0.455-2.184,0.996-4.594
							c0.53-2.414,1.274-5.221,1.818-7.025c-0.271,1.418-0.99,4.139-1.583,6.994c0.39-1.787,1.167-4.846,1.832-7.074L4.962,114.076z
							"/>
						<path fill="#FFFFFF" stroke="#FFFFFF" stroke-width="2" stroke-miterlimit="10" d="M1.08,138.375l0.069-0.82
							C1.129,137.704,1.107,137.95,1.08,138.375z"/>
						<path fill="#FFFFFF" stroke="#FFFFFF" stroke-width="2" stroke-miterlimit="10" d="M2.925,123.002
							c-0.003,0.035,0.004,0.023,0.006,0.039l0.186-0.906L2.925,123.002z"/>
						<path fill="#FFFFFF" stroke="#FFFFFF" stroke-width="2" stroke-miterlimit="10" d="M4.081,165.391
							c0.18,0.602,0.297,1.049,0.486,1.646l-0.353-1.287C4.097,165.323,4.032,165.12,4.081,165.391z"/>
						<path fill="#FFFFFF" stroke="#FFFFFF" stroke-width="2" stroke-miterlimit="10" d="M4.371,167.493l-0.132-0.311l0.162,0.68
							C4.449,167.924,4.449,167.842,4.371,167.493z"/>
						<path fill="#FFFFFF" stroke="#FFFFFF" stroke-width="2" stroke-miterlimit="10" d="M22.292,78.155l0.5-0.864
							C22.477,77.802,22.352,78.029,22.292,78.155z"/>
						<path fill="#FFFFFF" stroke="#FFFFFF" stroke-width="2" stroke-miterlimit="10" d="M8.941,103.08
							c-0.648,1.705-0.633,1.828-0.696,2.121c-0.056,0.297-0.203,0.762-1.044,3.197l0.509-1.424
							c-0.583,1.756-1.386,4.174-2.142,6.699c-0.76,2.521-1.478,5.155-1.969,7.305c0.03-0.504-0.672,2.59-0.67,2.062
							c-0.602,2.957-1.029,5.918-1.109,7.475c-0.295,1.844-0.484,4.678-0.672,7.043c0.066-0.498,0.074,0.35,0.1,0.598
							c0.036,0.25,0.038-0.098,0.227-2.977c-0.029,0.465,0.01,0.178-0.018,0.635c0.416-3.689,0.454-5.188,0.948-8.349
							c0.196-0.938,0.087-0.161-0.013,0.627c-0.103,0.789-0.203,1.591-0.055,0.701c0.26-1.98,0.846-5.062,1.438-7.591
							c0.58-2.53,1.119-4.528,0.959-4.438c0.767-2.799,0.959-3.16,1.252-3.973c0.533-2.236,1.914-6.271,3.273-9.689
							c1.344-3.424,2.616-6.25,2.443-6.303c-0.663,1.541-1.73,4.057-2.542,6.379L8.941,103.08z"/>
						<path fill="#FFFFFF" stroke="#FFFFFF" stroke-width="2" stroke-miterlimit="10" d="M2.854,159.413l-0.112-0.697L2.854,159.413
							z"/>
						<path fill="#FFFFFF" stroke="#FFFFFF" stroke-width="2" stroke-miterlimit="10" d="M19.688,201.903l-1.073-1.123
							c-2.511-3.584-4.034-6.152-5.429-8.629c-1.377-2.486-2.627-4.891-4.209-8.379c-0.211-0.547,0.188,0.293,0.395,0.715
							c-1.141-2.438-2.417-5.549-3.473-8.545c-1.067-2.994-1.91-5.871-2.459-7.754c-0.467-1.652-1.336-6.07-0.905-4.42
							c-0.194-0.812-0.405-1.742-0.57-2.688c0.029-0.264,0.429,2.104,0.515,2.145c-0.149-0.744-0.188-1.039-0.246-1.205
							c0.158,0.621,0.162,0.283,0.271,0.52c0.119,0.232,0.3,1.053,0.992,3.939c0.183,1.141-0.077,0.143-0.349-0.975
							c-0.271-1.117-0.541-2.354-0.502-1.668c0.422,1.93,0.465,1.686,0.524,1.844c0.586,2.445,0.543,2.391,0.454,2.271
							c0.293,0.92,1.076,3.99,1.596,5.223c1.566,4.637-0.25-0.195,0.786,2.828l0.834,1.654c0.606,1.662,1.261,3.309,1.953,4.938
							c1.601,3.492,1.612,3.184,1.63,3.02c0.016-0.084,0.047-0.137,0.318,0.322c0.271,0.457,0.777,1.428,1.82,3.348
							c-0.625-0.971,0.781,2.262,2.871,5.77c-0.639-1.039-1.552-2.521-2.455-4.109c-0.906-1.59-1.797-3.291-2.451-4.727
							c0.906,2.033,0.213,0.67-0.564-0.955c-0.777-1.623-1.598-3.523-1.229-2.424c0.957,1.986,2.556,5.291,3.89,7.82l-0.462-0.814
							c1.424,2.691,2.75,4.588,4.951,8.152c1.156,1.736,0.896,1.439,0.646,1.166C18.768,200.614,19.725,201.87,19.688,201.903z
							 M17.085,198.176c-0.502-0.781-0.996-1.572-1.481-2.367C15.923,196.393,16.477,197.274,17.085,198.176z"/>
						<path fill="#FFFFFF" stroke="#FFFFFF" stroke-width="2" stroke-miterlimit="10" d="M232.375,90.47l-0.25-0.793
							C232.175,89.853,232.271,90.151,232.375,90.47z"/>
						<path fill="#FFFFFF" stroke="#FFFFFF" stroke-width="2" stroke-miterlimit="10" d="M105.936,248.125l1.572,0.145
							L105.936,248.125z"/>
						<path fill="#FFFFFF" stroke="#FFFFFF" stroke-width="2" stroke-miterlimit="10" d="M141.062,245.534l2.23-0.529
							L141.062,245.534z"/>
						<polygon fill="#FFFFFF" stroke="#FFFFFF" stroke-width="2" stroke-miterlimit="10" points="237.117,108.713 237.131,108.792 
							237.209,109.147 						"/>
						<path fill="#FFFFFF" stroke="#FFFFFF" stroke-width="2" stroke-miterlimit="10" d="M204.265,215.364
							c0.271-0.225,0.563-0.479,0.969-0.842C205.168,214.549,204.812,214.868,204.265,215.364z"/>
						<polygon fill="#FFFFFF" stroke="#FFFFFF" stroke-width="2" stroke-miterlimit="10" points="140.65,245.627 140.789,245.604 
							141.062,245.534 						"/>
						<path fill="#FFFFFF" stroke="#FFFFFF" stroke-width="2" stroke-miterlimit="10" d="M90.675,245l-0.984-0.209
							C90.152,244.899,90.438,244.954,90.675,245z"/>
						<path fill="#FFFFFF" stroke="#FFFFFF" stroke-width="2" stroke-miterlimit="10" d="M92.71,246.079l-0.965-0.186L92.71,246.079
							z"/>
						<path fill="#FFFFFF" stroke="#FFFFFF" stroke-width="2" stroke-miterlimit="10" d="M43.917,222.84l-1.672-1.303
							C43.056,222.196,43.552,222.571,43.917,222.84z"/>
						<path fill="#FFFFFF" stroke="#FFFFFF" stroke-width="2" stroke-miterlimit="10" d="M87.27,244.651l-0.326-0.057
							C87.229,244.663,87.368,244.686,87.27,244.651z"/>
						<polygon fill="#FFFFFF" stroke="#FFFFFF" stroke-width="2" stroke-miterlimit="10" points="228.041,77.599 228.097,77.715 
							228.141,77.756 						"/>
						<path fill="#FFFFFF" stroke="#FFFFFF" stroke-width="2" stroke-miterlimit="10" d="M225.545,73.028l-0.854-1.671
							L225.545,73.028z"/>
						<path fill="#FFFFFF" stroke="#FFFFFF" stroke-width="2" stroke-miterlimit="10" d="M223.843,191.659
							c0.312-0.467,1.006-1.596,0.729-1.043C225.064,189.657,224.943,189.67,223.843,191.659z"/>
						<path fill="#FFFFFF" stroke="#FFFFFF" stroke-width="2" stroke-miterlimit="10" d="M233.224,86.812
							c-0.146-0.314-0.312-0.709-0.479-1.105C233.047,86.447,233.309,87.097,233.224,86.812z"/>
						<path fill="#FFFFFF" stroke="#FFFFFF" stroke-width="2" stroke-miterlimit="10" d="M232.74,85.708l-0.459-1.078L232.74,85.708
							z"/>
						<path fill="#FFFFFF" stroke="#FFFFFF" stroke-width="2" stroke-miterlimit="10" d="M217.152,204.579
							c-0.1,0.105-0.246,0.271-0.438,0.5C216.793,205.028,216.949,204.846,217.152,204.579z"/>
						<path fill="#FFFFFF" stroke="#FFFFFF" stroke-width="2" stroke-miterlimit="10" d="M224.025,69.993
							c-0.166-0.296-4.213-7.374-0.932-1.354c-0.254-0.164-2.178-3.819-3.162-5.359c0.643,1.162-0.424-0.516-0.271-0.139
							c0.48,0.768,1.068,1.67,1.793,2.979c0.273,0.635-0.879-1.32-1.766-2.854c1.043,1.918-1.527-2.311-0.002,0.373
							c3.395,5.656,5.508,9.815,7.641,13.949c-1.57-3.425-3.52-7.162-4.955-9.898l0.74,1.076c1.531,3.143,2.568,5.035,3.994,8.162
							c-1.043-2.353-2.154-4.674-3.326-6.967c-1.604-3.246-0.416-1.138,0.908,1.395C224.373,70.73,224.088,70.162,224.025,69.993z"
							/>
						<polygon fill="#FFFFFF" stroke="#FFFFFF" stroke-width="2" stroke-miterlimit="10" points="227.455,74.131 227.402,74.013 
							227.248,73.722 						"/>
						<path fill="#FFFFFF" stroke="#FFFFFF" stroke-width="2" stroke-miterlimit="10" d="M42.493,225.299l-0.564-0.377
							C42.386,225.254,42.534,225.346,42.493,225.299z"/>
						<path fill="#FFFFFF" stroke="#FFFFFF" stroke-width="2" stroke-miterlimit="10" d="M228.771,78.633l-0.002-0.004
							C228.791,78.677,228.797,78.688,228.771,78.633z"/>
						<path fill="#FFFFFF" stroke="#FFFFFF" stroke-width="2" stroke-miterlimit="10" d="M56.39,234.692l-0.082-0.033
							C56.359,234.686,56.362,234.682,56.39,234.692z"/>
						<path fill="#FFFFFF" stroke="#FFFFFF" stroke-width="2" stroke-miterlimit="10" d="M61.722,234.217
							c-0.025-0.021-0.029-0.029-0.09-0.066C61.321,233.989,61.466,234.075,61.722,234.217z"/>
						<path fill="#FFFFFF" stroke="#FFFFFF" stroke-width="2" stroke-miterlimit="10" d="M56.408,234.688
							c-0.003,0.006,0.005,0.012-0.019,0.006C56.402,234.696,56.431,234.706,56.408,234.688z"/>
						<path fill="#FFFFFF" stroke="#FFFFFF" stroke-width="2" stroke-miterlimit="10" d="M135.009,249.219l-0.66,0.049
							C134.193,249.301,134.352,249.297,135.009,249.219z"/>
						<path fill="#FFFFFF" stroke="#FFFFFF" stroke-width="2" stroke-miterlimit="10" d="M119.023,250.311l-0.293-0.01
							L119.023,250.311z"/>
						<path fill="#FFFFFF" stroke="#FFFFFF" stroke-width="2" stroke-miterlimit="10" d="M221.354,194.504l-1.006,1.557
							C220.664,195.59,221,195.075,221.354,194.504z"/>
						<path fill="#FFFFFF" stroke="#FFFFFF" stroke-width="2" stroke-miterlimit="10" d="M56.307,234.657
							c-0.154-0.07-0.367-0.18-0.719-0.361C55.975,234.497,56.181,234.602,56.307,234.657z"/>
						<polygon fill="#FFFFFF" stroke="#FFFFFF" stroke-width="2" stroke-miterlimit="10" points="158.541,242.905 158.078,243.067 
							158.357,242.987 						"/>
						<path fill="#FFFFFF" stroke="#FFFFFF" stroke-width="2" stroke-miterlimit="10" d="M166.432,240.249
							c-0.262,0.117-0.377,0.18-0.521,0.248c1.381-0.553,3.34-1.332,5.01-2.057c1.672-0.717,3.049-1.379,3.312-1.58
							c-0.457,0.213-1.885,0.84-3.111,1.326c-1.229,0.488-2.25,0.855-1.854,0.646c-1.896,0.83-4.797,1.811-5.838,2.199
							c3.213-1.098,0.396,0.014-1.762,0.803c-1.988,0.629,0.334-0.232-1.375,0.312c-1.523,0.512-3.061,1-4.6,1.461
							c1.346-0.393,2.688-0.801,4.02-1.23l-1.172,0.525l0.404-0.145c3.371-1.139,3.521-1.17,3.699-1.174
							C162.822,241.567,163.037,241.584,166.432,240.249z"/>
						<path fill="#FFFFFF" stroke="#FFFFFF" stroke-width="2" stroke-miterlimit="10" d="M165.912,240.497l-1.059,0.436
							C165.482,240.694,165.724,240.59,165.912,240.497z"/>
						<path fill="#FFFFFF" stroke="#FFFFFF" stroke-width="2" stroke-miterlimit="10" d="M191.877,227.405l1.029-0.732
							L191.877,227.405z"/>
						<path fill="#FFFFFF" stroke="#FFFFFF" stroke-width="2" stroke-miterlimit="10" d="M9.777,181.928
							c0.005,0.062,0.402,1.059,0.826,2.016c0.422,0.957,0.877,1.873,0.908,1.816c-0.527-1.117-1.037-2.248-1.527-3.396
							L9.777,181.928z"/>
						<path fill="#FFFFFF" stroke="#FFFFFF" stroke-width="2" stroke-miterlimit="10" d="M236.261,163.813l-0.363,1.336
							l-0.055,0.266C235.934,165.147,236.154,164.262,236.261,163.813z"/>
						<path fill="#FFFFFF" stroke="#FFFFFF" stroke-width="2" stroke-miterlimit="10" d="M170.429,238.295
							c-0.692,0.312-1.002,0.451-1.162,0.539C169.718,238.641,170.131,238.452,170.429,238.295z"/>
						<path fill="#FFFFFF" stroke="#FFFFFF" stroke-width="2" stroke-miterlimit="10" d="M236.578,163.627
							c0.184-0.562,0.438-1.395,0.508-1.504c0.287-1.17,0.428-2.008,0.67-3.207C237.474,160.272,237.099,161.829,236.578,163.627z"
							/>
						<path fill="#FFFFFF" stroke="#FFFFFF" stroke-width="2" stroke-miterlimit="10" d="M237.771,158.819l-0.02,0.098
							L237.771,158.819z"/>
						<path fill="#FFFFFF" stroke="#FFFFFF" stroke-width="2" stroke-miterlimit="10" d="M8.868,179.629l-0.43-1.02l0.238,0.521
							c-0.342-0.893-0.671-1.781-0.986-2.682c-0.123-0.32-0.26-0.67-0.414-1.104c0.063,0.174,0.123,0.307,0.164,0.387l-0.293-0.869
							c-0.426-1.057-1.094-2.928-1.662-4.746c-0.572-1.818-1.051-3.582-1.271-4.371c-0.559-2.094-1.098-4.691-1.359-6.338
							c0.246,1.521,0.683,3.521,0.623,2.908c-0.272-1.541-0.414-2.693-0.604-4.125l-0.765-5.818c0.099,1.051,0.217,2.1,0.351,3.145
							c-0.38-2.344-0.673-4.699-0.877-7.07c-0.007-1.25,0.056-0.361,0.164,0.957c0.106,1.32,0.292,3.072,0.388,3.559
							c-0.675-5.51-0.306-10.125-0.43-12.688c0.152-0.355,0.326-0.957,0.582-4.566c-0.348,2.594,0.084-2.172-0.241-0.051
							c0.017-1.258,0.445-4.02,0.39-4.236l0.01,0.344l1.052-6.684c0.239-1.596,0.39-2.762,0.64-4.066
							c0.828-3.625,1.617-6.221,2.375-8.641c0.772-2.418,1.543-4.654,2.59-7.492c0.162-0.195,0.947-1.658,1.852-3.904
							c0.158-0.543,0.75-2.084,1.339-3.549c0.587-1.465,1.177-2.854,1.228-3.139c-1.849,3.928-1.344,3.289-2.326,5.691
							c-0.959,1.943-0.225,0.119-1.401,2.832c0.46-1.102,1.442-3.613,2.54-6.105c1.088-2.496,2.286-4.977,2.93-6.115l-0.388,0.838
							c0.954-1.854,1.619-2.907,2.419-4.276c0.807-1.369,1.739-3.06,3.383-6.112c0.529-0.969,1.068-1.932,1.617-2.89
							c-0.072,0.144-0.064,0.168-0.1,0.247c1.418-2.309,1.998-3.107,2.59-3.98c0.6-0.867,1.205-1.813,2.846-4.313
							c-0.253,0.387-0.074,0.157-0.333,0.548c1.989-2.766,3.896-5.627,5.444-7.689c1.059-1.17-0.139,0.365-0.651,1.195
							c3.636-4.761,7.705-9.791,10.132-12.626c0.889-0.933,1.789-1.858,2.697-2.772c-1.557,1.687-3.343,3.849-2.818,3.381
							c1.422-1.578,1.092-1.324,3.185-3.483c-0.3,0.423-1.12,1.382-2.009,2.481c2.164-2.223,2.373-2.504,2.408-2.627
							c0.041-0.117-0.078-0.069,1.531-1.532c1.375-1.382,2.113-2.248,2.202-2.464c0.875-0.791,1.757-1.573,2.647-2.346
							c0.199-0.363,3.414-3.318,5.596-5.17c0.23-0.269-1.836,1.398-2.613,2.161c0.096-0.215,2.358-2.258,3.874-3.504
							c0.353-0.137,2.819-2.187,5.063-3.905c2.24-1.728,4.234-3.148,3.382-2.352c3.524-2.631,7.905-5.6,12.114-8.141
							c4.203-2.555,8.217-4.689,10.803-6.019c1.742-0.799,5.295-2.417,3.221-1.332c3.212-1.487,5.662-2.58,8.138-3.612
							c2.476-1.024,4.972-1.992,8.332-3.037c0.562-0.16-3.021,0.994-2.754,1.004c2.159-0.791,4.162-1.402,6.481-2.045
							c2.32-0.637,4.961-1.313,8.437-2.117c-1.171,0.265-1.5,0.396-1.652,0.459c-0.135-0.018,2.824-0.741,4.633-1.125
							c1.021-0.18-1.352,0.297-0.771,0.217c6.764-1.294,12.793-2.057,18.844-2.432c6.049-0.356,12.131-0.332,18.957,0.39
							c-3.9-0.403-5.395-0.276-5.438-0.226c1.271,0.08,2.547,0.179,3.82,0.299c1.479,0.05,4.34,0.367,6.729,0.671
							c0.287,0.075,1.438,0.284,0.254,0.142c3.729,0.657,6.641,1.17,9.748,1.809c3.104,0.65,6.416,1.427,10.814,2.924
							c-3.596-1.076-7.232-1.994-10.9-2.744c0.895,0.249,1.779,0.508,2.668,0.777c-1.604-0.364-3.215-0.694-4.828-0.992
							c2.854,0.71,5.377,1.168,5.688,1.382c-0.606-0.131-2.06-0.507-2.121-0.453c2.724,0.742,2.957,0.724,5.007,1.285
							c-2.72-0.671-6.736-1.655-10.839-2.42c-4.098-0.779-8.271-1.332-11.201-1.591c-0.926-0.075,0.796,0.019,0.961,0.015
							c-2.391-0.245-3.823-0.458-6.85-0.586c-1.881,0.015,1.43,0.142,2.912,0.28c-0.211,0.08-0.957,0.011-2.613-0.07
							c-0.178-0.072-2.449-0.214-4.949-0.262c-2.499-0.059-5.225-0.004-6.295-0.036c-2.219,0.097-3.233,0.2-3.647,0.256
							c-0.415,0.06-0.229,0.084-0.036,0.106c0.192,0.021,0.393,0.041,0.002,0.086c-0.39,0.049-1.365,0.109-3.521,0.301
							c-0.863,0.035-1.724,0.078-2.586,0.132c-4.981,0.671-11.361,1.92-16.865,3.317l1.159-0.295
							c0.761-0.248-0.528,0.026-1.103,0.142c-4.185,1-7.813,2.335-10.322,3.042c-2.295,0.861-5.34,2.052-8.414,3.395
							c-3.076,1.334-6.182,2.818-8.668,4.096c-0.718,0.255,0.892-0.607,2.972-1.608c2.074-1.01,4.625-2.131,5.684-2.627
							c-1.57,0.651-3.129,1.332-4.678,2.038c2.871-1.305,3.996-1.839,5.707-2.656c-2.08,0.826-3.432,1.454-4.744,2.084
							c-1.312,0.639-2.59,1.28-4.481,2.229c0.274-0.188-0.252,0.021-1.999,0.902l-0.438,0.363c-0.037,0.01-0.234,0.096-0.773,0.369
							c-2.219,1.182-4.407,2.417-6.565,3.705c1.412-0.756,1.528-0.703,3.229-1.646c-0.643,0.274,0.789-0.549,2.514-1.455
							c-1.473,0.867,1.713-0.824,1.711-0.735c-3.482,1.76-7.634,4.167-9.793,5.536l-0.77,0.336
							c-3.188,1.921-6.408,4.177-8.482,5.611l0.614-0.508c-3.681,2.533-7.125,5.274-10.255,7.709
							c-3.001,2.627-6.66,6.059-8.907,8.411c-0.577,0.653-2.715,2.64-5.003,4.962c-2.296,2.314-4.734,4.977-6.12,6.743
							c-0.215,0.214,1.938-2.396,2.94-3.556c-2.034,2.187-3.434,4.115-4.158,4.725c4.423-5.031-0.338,0.184,1.609-2.123
							c-2.073,2.357-4.146,4.941-5.059,6.184c3.193-3.949-0.979,1.525,2.221-2.496c-2.451,3.141-5.724,7.469-8.468,11.332
							c-0.026-0.073-0.394,0.381-1.411,1.828l-0.715,1.237c-1.249,1.835,2.292-3.629-0.224,0.063
							c-1.205,1.959-3.081,4.867-4.676,7.57c-1.6,2.698-2.924,5.184-3.258,6.145c-0.869,1.52-0.127,0.029,0.532-1.256
							c0.663-1.283,1.224-2.373-0.116-0.094c1.354-2.765,3.637-6.345,4.043-7.285c-1.523,2.605-0.685,0.873-1.679,2.547
							c-0.541,0.982-1.071,1.971-1.589,2.967l0.371-0.646c-1.328,2.492-3.031,5.713-4.695,9.174
							c-1.67,3.457-3.291,7.152-4.594,10.51c-1.042,2.865-1.816,5.322-2.6,7.928c-0.772,2.607-1.571,5.373-2.473,8.893
							c0.221-1.051-0.181,0.404-0.482,1.574c-0.299,1.168-0.541,2.041-0.11-0.213c-0.862,3.266-1.304,6.574-1.247,6.647
							c0.533-2.916,0.188-1.024,0.693-3.47l-0.588,3.565l-0.549,3.501c0.102-0.729,0.051-0.453,0.047-0.617
							c-0.486,3.504-0.135,1.689-0.357,4.232c-0.091,0.396-0.223,1.801-0.307,3.396c-0.09,1.6-0.125,3.391-0.159,4.557
							c0.05,1.127,0.118,2.252,0.207,3.377c-0.076-0.926-0.074-0.117-0.037,0.992c0.032,1.105,0.12,2.512,0.091,2.777
							c0.26,2.414,0.572,4.422,1.105,8.066c-0.145-0.748-0.041,0.088,0.107,1.117c0.146,1.031,0.352,2.252,0.307,2.293
							c0.561,3.113,1.277,5.643,2.055,8.096c0.785,2.455,1.63,4.84,2.623,7.66c-0.09-0.162-0.588-1.268,0.011,0.377
							c0.521,1.277,1.435,3.514,2.058,4.854l-0.022-0.041l0.034,0.066c0.302,0.658,0.507,1.062,0.539,1.068
							c0.582,1.123,1.047,1.959,1.66,3.061c0.619,1.102,1.379,2.469,2.648,4.598c-0.035-0.188-0.586-1.184-1.211-2.342
							c-0.629-1.158-1.33-2.48-1.746-3.285l-0.792-1.354c-0.483-1.424-1.871-4.062-2.231-5.146c0.66,1.336,1.824,3.975,3.26,6.773
							c1.425,2.811,3.128,5.775,4.533,7.922c-0.744-1.375-1.967-3.531-3.256-6.047c-1.297-2.512-2.651-5.385-3.795-8.107
							c0.312,0.812,0.633,1.617,0.965,2.424c-0.422-0.943-0.83-1.895-1.223-2.85c0.338,0.939,0.691,1.879,1.057,2.812
							c-1.17-2.695-2.133-5.047-3.004-7.557c1.043,2.93,1.363,4.105,0.744,2.457c-0.557-1.645-0.865-2.488-1.158-3.236
							c-0.287-0.75-0.559-1.396-0.947-2.666c0.422,1.416,1.039,3.232,0.578,2.084c-0.748-2.512-1.183-4.113-1.584-5.664
							c-0.393-1.549-0.752-3.055-1.151-5.396c-0.042,0.311-0.353-1.145-0.633-2.77c-0.283-1.623-0.524-3.418-0.65-3.76
							c0.089,0.729,0.188,1.459,0.293,2.188c-0.276-1.537-0.522-3.08-0.725-4.633c-0.242-4.318,0.517,3.789,0.047-2.766
							c-0.204-3.021-0.269-4.496-0.347-5.812c-0.062-1.312-0.133-2.469-0.053-4.854c0.053,1.576,0.08,5.357,0.313,9.193
							c-0.026-0.775-0.041-1.551-0.05-2.326c0.056,0.613,0.135,2.248,0.281,4.055c0.14,1.809,0.354,3.783,0.529,5.1
							c-0.345-2.162-0.287-1.652-0.137-0.355c0.154,1.305,0.479,3.385,0.604,4.375c0.18,0.34-0.326-2.424,0.35,0.826
							c-0.285-1.527-0.424-2.408-0.569-3.395c-0.142-0.986-0.292-2.078-0.479-4.047c0.438,4.252,0.927,6.125,1.338,7.855
							l1.748,6.928c-0.93-3.299,0.131,1.203,0.213,1.613c0.447,1.553,1.502,4.658,2.003,5.912l-0.245-1.207
							c0.75,2.033,1.213,3.418,1.738,4.871c0.533,1.449,1.125,2.975,2.283,5.197c0.187,0.271-0.283-0.723-0.728-1.695
							c-0.446-0.973-0.862-1.924-0.677-1.514c1.423,3.115,2.441,5.211,3.423,7.219c0.993,2.002,1.959,3.92,3.526,6.541
							c0.232,0.264,0.273,0.154,1.519,1.887c-0.453-0.506,0.364,0.85-1.009-1.123c1.062,1.744,2.501,3.693,3.599,5.119
							c-2.433-3.479,1.12,1.334,1.677,1.893c1.332,1.746-0.502-0.457-1.322-1.535c1.021,1.438,2.201,3.186,2.955,3.863
							c-0.018,0.062-0.857-0.85-1.912-2.125c-1.061-1.27-2.32-2.922-3.262-4.268c0.414,0.609,0.834,1.217,1.26,1.818
							c-0.93-1.209-1.088-1.447-2.301-3.279c1.131,1.83,0.947,1.703,0.594,1.334c-0.146-0.242,0.111,0.117-0.029-0.117
							c-0.979-1.479-1.729-2.607-1.557-2.23c-0.992-1.262,1.258,2.117,1.906,3.135c0.527,0.74,1.064,1.479,1.6,2.188
							c1.951,2.387,3.994,4.686,6.129,6.889c2.641,2.904,3.798,4.24,5.846,6.373l0.669,0.475c2.447,2.389,4.878,4.518,3.122,3.189
							c-0.062-0.115-0.408-0.406-0.953-0.912c-0.084-0.057-0.22-0.16-0.385-0.303l-0.139-0.1c2.727,2.457,4.527,3.873,4.688,4.01
							c-4.864-3.895-0.394-0.02-1.329-0.523c1.619,1.344,3.275,2.643,4.965,3.895c-2.981-2.395,0-0.115,1.113,0.66
							c0.113,0.162,1.133,0.922,2.366,1.771c1.233,0.854,2.683,1.797,3.608,2.4l-0.151-0.064c1.685,1.166,4.758,3.025,7.011,4.229
							c-0.084-0.084,2.883,1.312,4.344,1.896c-3.854-2.053-1.526-0.908-1.805-1.133c0.395,0.219,1.115,0.594,1.206,0.623
							c0.569,0.254-0.731-0.434-0.819-0.527c-4.14-2.088-8.191-4.609-9.863-5.51c1.152,0.844,2.082,1.252,3.418,2.125
							c-2.026-1.098-4.528-2.703-7.661-4.955l-0.962-0.828c-1.053-0.75-2.094-1.52-3.121-2.303c0.654,0.479,0.808,0.543,1.201,0.799
							c0.395,0.254,1.021,0.705,2.674,1.893c-0.368-0.375-3.266-2.367-5.167-3.979l-1.073-0.701c0.413,0.27-3.621-3.209-0.677-0.826
							c1.587,1.295,3.214,2.549,4.868,3.76l-1.293-1.117c1.369,1.061,2.761,2.09,4.175,3.086l-1.035-0.654
							c3.415,2.396,3.923,2.744,4.399,3.152c0.494,0.379,0.963,0.82,4.605,2.93c2.355,1.188,4.803,2.604,9.418,4.891
							c-3.363-1.604-0.396-0.057-1.699-0.59c3.385,1.75,4.635,2.117,6.469,2.844c0.859,0.457,1.459,0.812-1.656-0.559
							c-0.232-0.002,0.792,0.447,1.91,0.914c1.119,0.469,2.332,0.941,2.441,1.09c2.625,1.039,4.506,1.648,6.02,2.104
							c1.517,0.451,2.672,0.738,3.885,1.039l4.243,1.037c1.764,0.432,4.019,0.994,7.234,1.684l-0.5-0.02
							c4.108,0.758,7.373,1.209,10.568,1.555c3.197,0.336,6.333,0.562,10.197,0.607c2.029,0.105,4.061,0.152,6.096,0.15
							c-1.359,0.094-5.031,0.252-3.316,0.338c-2.973-0.186-6.125-0.211-9.308-0.555c-0.331,0.025,0.966,0.158,1.532,0.225
							c-1.93-0.127-2.889-0.285-5.426-0.512c0.117,0.061,2.883,0.377,0.793,0.197c-1.148-0.156-2.291-0.328-3.435-0.52
							c-2.304-0.275-2.879-0.311-3.553-0.354c-0.673-0.055-1.451-0.115-4.125-0.66c1.019,0.09,3.08,0.314,5.169,0.605
							c-1.229-0.201-0.405-0.092,0.443,0.016c0.851,0.104,1.729,0.195,0.609,0.008c-1.783-0.178-3.099-0.385-4.551-0.648
							c-1.453-0.27-3.046-0.582-5.381-1.064c0.551,0.102,0.701,0.105,1.85,0.348c-2.25-0.506-4.484-1.076-6.699-1.715
							c0.812,0.271-0.574-0.068-2.08-0.482c-1.507-0.41-3.132-0.9-2.848-0.734c3.508,1.146,4.779,1.451,6.162,1.824
							c1.389,0.35,2.893,0.775,7.006,1.658c-2.345-0.426-5.365-1.006-6.795-1.248c-0.07-0.023-0.186-0.062-0.438-0.129
							c-1.282-0.197-0.021,0.178-0.107,0.406c3.782,0.801,6.27,1.518,10.773,2.197c0.865,0.016-2.574-0.598-4.789-1.047
							c1.312,0.246,2.629,0.475,3.947,0.676l-0.787-0.08c3.332,0.625,6.688,1.111,10.063,1.449
							c-1.918-0.184-2.576-0.189-3.582-0.256l3.968,0.514c-0.277-0.152-0.087-0.225,1.188-0.109
							c6.521,0.543,10.171,0.547,12.593,0.658l0.765-0.031c-0.552-0.051,0.61-0.133,2.159-0.268c1.55-0.133,3.482-0.332,4.484-0.488
							c-0.086,0.152,3.365-0.227,5.244-0.42c0.975-0.291-0.381-0.303-2.67-0.18c-2.184,0.307-2.801,0.373-3.119,0.447
							c-0.324,0.068-0.354,0.123-1.393,0.301c-2.354,0.211-4.719,0.354-7.084,0.42l1.584-0.148c-3.539,0.039-6.942,0.066-6.68-0.082
							c1.87-0.037,4.957,0.039,6.809-0.123c-0.777-0.002-1.559-0.008-2.338-0.023c2.061-0.094,2.588-0.086,3.229-0.057
							c0.639,0.018,1.387,0.059,3.875-0.15c-1.844-0.029,0.453-0.018,2.574-0.299c-0.855,0.031-3.047,0.209-4.84,0.277
							c-1.793,0.074-3.187,0.072-2.438-0.062c1.293-0.082,3.474-0.098,5.756-0.219c2.281-0.111,4.666-0.338,6.354-0.672
							l-0.162,0.049c2.513-0.311,4.194-0.613,5.481-0.879c1.286-0.27,2.179-0.49,3.099-0.723c2.137-0.346,4.971-1.119,7.268-1.734
							l-0.04,0.078c1.091-0.273,2.142-0.555,3.204-0.846c-0.746,0.264-1.672,0.502-2.781,0.762l-3.736,0.896l0.373,0.041
							c-3.205,0.607-5.289,1.244-7.768,1.783c1.807-0.361,4.359-0.852,6.549-1.365c1.096-0.256,2.102-0.512,2.877-0.732
							c0.787-0.229,1.354-0.412,1.551-0.521l2.256-0.438l1.043-0.322c1.66-0.363,0.047,0.271-3.172,1.096
							c-0.57,0.105-0.854,0.166-0.69,0.098c-1.491,0.438-2.812,0.9-6.445,1.637l1.92-0.479c-4.502,1.002-8.646,1.65-10.194,1.977
							c3.308-0.414,6.565-0.975,9.75-1.66c1.592-0.342,3.155-0.713,4.717-1.117c1.574-0.396,3.109-0.771,4.621-1.188
							c1.715-0.758,3.766-1.529,4.584-2.062c1.994-0.637,4.33-1.432,6.58-2.252c2.252-0.816,4.422-1.662,6.115-2.318l-0.287,0.18
							c1.646-0.654,3.137-1.33,4.359-1.928c1.729-0.723-1.105,0.662,0.098,0.152c1.803-0.863,3.59-1.764,5.346-2.711
							c-0.137,0.139-1.324,0.787-2.762,1.506c-1.438,0.719-3.127,1.5-4.227,1.984c0.41-0.189,1.232-0.586,0.961-0.479
							c-1.277,0.553-3.095,1.385-4.756,2.074c-1.66,0.699-3.16,1.271-3.762,1.4c-1.268,0.496,2.545-1.07-1.775,0.5
							c-2.924,0.967-3.838,1.393-4.125,1.549c-0.016,0.037,1.145-0.311,2.104-0.605c0.959-0.303,1.723-0.539,0.934-0.227
							c2.266-0.801,3.133-1.205,6.014-2.27c-2.201,0.896-5.197,2.121-6.438,2.424c-2.205,0.82-3.143,1.213-3.247,1.354
							c-0.106,0.135,0.61,0,1.673-0.34c-0.268,0.039,1.77-0.666,3.117-1.186c1.348-0.521,2.029-0.797-0.904,0.174
							c2.588-1.012,7.316-2.834,10.586-4.402l-0.141,0.09c1.365-0.617,2.723-1.262,4.064-1.928
							c-0.555,0.312-1.771,0.922-1.783,0.998c1.857-0.934,3.692-1.912,5.496-2.938c-3.05,1.734,1.975-0.916,3.368-1.695
							c0.53-0.416,2.589-1.711,0.546-0.586c-2.312,1.23-1.293,0.811-3.384,1.957c0.968-0.58,1.925-1.172,2.87-1.775l0.259-0.131
							l1.683-1.141c1.965-1.184,1.572-0.865,1.315-0.633c-0.265,0.223-0.377,0.375,2.069-1.26l-0.742,0.26
							c2.878-1.809,6.102-3.984,8.988-6.191c2.896-2.195,5.467-4.412,7.193-6.078c-0.902,0.975-1.229,1.49,0.188,0.33
							c-1.532,1.402-4.688,4.146-7.041,5.98c-0.465,0.332,2.812-2.453,5.232-4.592c-0.684,0.412-2.186,1.777-3.617,3.002
							c-1.436,1.227-2.793,2.312-3.035,2.307l-5.688,4.146c-1.119,0.809-2.104,1.553-5.156,3.271
							c-0.012,0.168-1.687,1.062-1.948,1.344c0.959-0.414,2.993-1.588,5.224-3.029c2.233-1.436,4.649-3.15,6.502-4.475
							c-0.353,0.271-1.066,0.812-1.195,0.938c2.662-1.875,3.697-2.738,5.438-4.201l-0.231,0.168
							c1.498-1.305,1.976-1.691,2.317-1.918c0.345-0.229,0.55-0.309,1.447-1.057c0.678-0.605,3.082-2.797,2.629-2.516
							c1.056-0.938,2.094-1.896,3.11-2.877l-0.25,0.039c1.654-1.719,2.082-2.035,3.466-3.703l-0.031-0.164
							c-1.326,1.463-2.69,2.891-4.094,4.277c2.062-2.182,0.508-0.676,2.739-3.094c-1.196,1.396-0.739,0.936,0.06,0.1
							s1.905-2.078,2.069-2.176c0.513-0.629,1.019-1.256,1.515-1.895l-0.369,0.498c1.269-1.418,1.41-1.773,2.787-3.512
							c-1.67,2.018-2.813,3.291-4.955,5.848c0.783-0.93,1.938-2.322,2.957-3.623c1.021-1.299,1.916-2.5,2.271-2.973
							c1.49-2.061,2.599-3.453,3.937-5.424c-1.252,1.912-0.955,1.629-0.979,1.822c-0.049,0.178-0.354,0.883-3.18,4.508
							c0.084-0.15,0.541-0.736,0.727-0.957c-0.436,0.438-1.271,1.529-2.17,2.695c-0.896,1.166-1.866,2.398-2.5,3.174
							c0.408-0.328-0.93,1.275,1.414-1.375c-0.797,0.846,1.774-2.4,3.826-5.064l-0.185,0.605c0.989-1.303,1.948-2.631,2.879-3.977
							l-0.252,0.387c1.168-1.441,2.894-4.369,4.644-7.264c0.584-1.07,2.006-3.656,2.935-5.592c0.935-1.932,1.448-3.156,0.485-1.391
							c1.437-2.674,2.353-5.186,3.521-8.27c-0.522,1.27-1.065,2.527-1.633,3.777c0.883-2.268,1.17-3.084,1.42-3.783
							c0.241-0.701,0.438-1.297,0.978-3.164c0.185-0.354,0.517-1.152,0.312-0.391c1.086-3.08,2.241-6.877,3.09-10.404
							c0.856-3.525,1.422-6.771,1.646-8.68l0.854-5.127c0.229-1.547,0.479-3.332,0.649-6.562c0.047-1.359-0.233,1.049,0.033-3.227
							c0.03-0.285-0.027,4.127,0.164-0.639c-0.033-3.395,0.198-7.98-0.228-12.392c-0.065-2.334-0.517-6.361-0.306-5.537
							c0.185,1.844,0.369,4.068,0.488,5.936c0.123,1.867,0.19,3.377,0.233,3.774c-0.091-0.508-0.007,2.631-0.142-0.094
							c0.03,2.797,0.028,3.701,0.058,4.537c0.015,0.836,0.051,1.6-0.067,4.104c0.045,0.35,0.229-2.572,0.18-3.652
							c0.095-0.01,0.088,2.469,0.022,4.389c-0.062,1.918-0.122,3.285,0.11,1.062c0.142-2.686,0.076-4.432,0.021-6.082
							c-0.064-1.652-0.125-3.209-0.121-5.537c0.188,1.861,0.146,4.779,0.287,7.15c0.045-1.275,0.067-2.553,0.073-3.83
							c-0.056-0.926-0.121-1.853-0.196-2.775l0.03,0.164c-0.045-3.381-0.229-4.94-0.422-6.401l-0.854-5.822
							c0.31,3.483-0.396-0.765-0.156,1.853c-0.483-3.996-0.989-6.912-0.813-6.969c0.681,3.711,0.699,3.819,0.767,3.846
							c0.045,0.031,0.131-0.019,0.629,3.44c-0.073-1.146,0.468,1.63-0.028-2.521c-0.781-4.639,0.071,1.408-0.672-3.219
							c-0.029-0.277-0.06-0.563-0.009-0.406c-0.438-2.108-0.375-2.487-0.976-5.028l0.156,0.601c-0.531-3.177-0.828-3.42-1.354-6.14
							c0.137,1.104-0.537-1.782-1.074-3.414c0.343,1.355,0.554,2.418,0.838,3.812l1.177,5.822c0.226,0.637,0.219,0.225,0.67,2.452
							c-0.211-1.182-0.438-2.354-0.683-3.528l0.461,2.026c0.193,1.138,0.373,2.271,0.539,3.41c-0.389-2.153-0.557-2.726-0.649-2.99
							c-0.099-0.264-0.146-0.219-0.373-1.118c-0.744-3.927-0.692-3.226-1.221-5.681c0.104,0.104-0.271-1.787-0.88-4.252
							c-0.604-2.463-1.479-5.487-2.172-7.69l0.66,2.037c1.103,3.168-0.572-2.24-0.601-2.363l-0.875-2.285
							c0.164,0.432,0.412,1.02,0.082,0.029c-1.164-3.103-1.233-2.867-2.491-5.92c-0.013-0.265,1.149,2.284,0.422,0.358
							c-0.207-0.678-0.849-2.866-2.771-6.825c-0.158-0.27-0.66-1.293-1.259-2.475l0.23,0.439c-0.4-0.887-0.809-1.773-1.229-2.652
							c1.27,2.152,2.185,4.539,3.336,6.764l0.212,0.139l2.381,5.313c-1.097-2.768-1.368-3.334-2.759-6.36
							c-0.109-0.461,0.906,1.651,1.052,1.961l-0.271-0.424c0.75,1.84,1.348,3.197,1.98,4.672c0.637,1.478,1.311,3.07,2.121,5.408
							c0.24,0.707,0.08,0.278,0.002,0.131c1.449,3.738,2.416,7.556,3.557,11.279l-0.396-1.209c0.754,2.543,2.104,7.555,3.074,12.659
							l0.059,0.033c-0.062-0.576,0.262,1.351,0.387,2.389v-0.006c0.445,2.568,0.79,5.05,1.025,7.086
							c-0.03-0.655-0.084-1.493-0.188-2.45c-0.072-0.401-0.24-1.793-0.416-2.994c-0.177-1.203-0.354-2.22-0.375-1.883
							c-0.229-2.199-0.99-5.679-1.276-7.271c0.5,2.908-0.537-1.99-0.75-2.469c-0.119-0.992-1.031-4.246-0.826-3.9
							c-0.114-0.569,0.287,1.422,0.64,2.627c0.403,1.492,0.115,0.107-0.179-1.18c-0.293-1.289-0.577-2.482-0.054-0.627
							c-0.633-2.369-1.4-5.104-2.271-7.826c-0.867-2.725-1.838-5.436-2.785-7.777c0.317,0.89,0.631,1.777,0.93,2.671
							c-0.366-1.06-1.022-2.832-1.631-4.375c-0.606-1.545-1.153-2.864-1.205-3.057c0.662,1.531,1.392,3.339,2.162,5.333
							c0.08,0.025-0.367-1.18-0.86-2.408c-0.492-1.232-1.033-2.489-1.039-2.615c-0.867-1.879-1.774-3.74-2.724-5.574
							c0.386,0.819,0.758,1.643,1.125,2.469c-0.385-0.765-1.145-2.444-2.076-4.391c-0.932-1.945-2.043-4.152-3.049-5.999
							c1.324,2.027,2.998,5.595,4.894,9.595c1.385,2.906-0.649-1.887,0.64,0.873c-0.281-0.74-1.117-2.545-1.586-3.41l-0.492-1.096
							c0.672,1.184,1.647,3.164,2.625,5.328c0.979,2.163,1.961,4.508,2.748,6.385c-0.146-0.328-0.271-0.609-0.332-0.709
							c1.067,2.941,2.114,5.943,3.065,8.844c-0.435-1.557-0.672-2.149-0.981-3.02c0.01-0.125,0.929,2.607,1.28,3.641
							c-0.801-2.729-0.059-0.539-0.579-2.26c0.606,1.75,1.036,3.188,1.635,5.365c0.256,1.143-0.349-0.908-0.36-0.654
							c0.677,2.223,0.772,3.293,1.653,6.572c-1.026-4.398,0.479,1.109,0.83,2.633l-0.151-0.744c0.399,1.381,0.646,2.578,0.743,3.568
							c-0.385-1.812-0.745-3.568-0.729-3.033l0.791,3.744l-0.308-1.225c0.396,1.988,0.745,3.981,1.053,5.983
							c0.229,0.938,0.567,2.517,0.8,3.339c0.104,1.459,0.381,3.475,0.526,4.854l-0.097-0.639l0.356,5.391
							c0.113,1.891,0.183,3.512,0.226,3.762c-0.012,0.961-0.2-2.432-0.431-4.354c-0.104-0.963-0.194-1.562-0.194-1.076
							c-0.008,0.486,0.104,2.057,0.203,5.439c0.049,2.569,0.088,3.372,0.16,3.899c0.065,0.523,0.149,0.775,0.157,2.248
							c0,0-0.021-0.166-0.045,0.125c-0.092,2.256-0.01,2.484-0.078,4.344c0.125-1.352,0.207-3.312,0.187-3.947
							c0.101,0.688-0.205,4.703-0.287,6.436c0.009-1.127-0.086-0.037-0.196,1.109c-0.108,1.148-0.237,2.359-0.188,1.488
							c-0.543,4.461-1.238,9.213-1.604,11.551c-0.818,2.945-1.07,5.25-2.532,9.99c0.226-0.73,0.567-2.068,0.858-3.092
							c0.297-1.385-0.039-0.145-0.344,0.902c-0.307,1.049-0.562,1.912-0.035-0.191c-0.229,0.898,0.053,0.082,0.271-0.846
							c0.414-1.609,0.713-3.15,0.562-2.76c-0.35,1.297-0.717,2.588-1.107,3.871l0.334-1.365c-0.564,1.955-1.182,3.896-1.848,5.818
							c-0.027,0.164,0.18-0.371,0.279-0.646c-1.086,3.367-2.375,6.938-3.801,10.332c-1.425,3.398-2.977,6.623-4.457,9.35
							c-0.117,0.596-1.893,3.992-4.22,7.617c-2.304,3.645-5.192,7.471-6.703,9.482c0.771-1.115,1.071-1.809,0.503-1.199
							c0.686-0.887,1.969-2.779,3.445-4.836c0.291-0.287,2.102-2.844,1.021-1.141c3.842-5.861-0.646,0.711,0.39-1.09
							c-2.146,3.229-3.959,5.713-5.61,7.875c-1.656,2.154-3.158,3.984-4.795,5.811l-0.115,0.062c-0.82,0.924-1.658,1.828-2.51,2.725
							c1.073-1.066,1.605-1.555,1.538-1.414c-0.071,0.135-0.739,0.896-2.155,2.248l0.33-0.346l-3.422,3.229
							c-1.373,1.271-2.896,2.615-4.244,3.717c-0.58,0.531-1.17,1.055-1.763,1.572c-2.761,2.137-3.034,2.02-4.021,2.586
							c-2.211,1.592-3.979,2.812-5.595,3.914c-1.614,1.102-3.082,2.066-4.735,3.082c-0.778,0.396-2.963,1.586-4.508,2.344
							c-1.543,0.764-2.416,1.16-0.515,0.129c-2.168,1.158-2.992,1.707-4.231,2.41c-1.248,0.688-2.908,1.553-6.877,3.01l1.991-0.918
							c-3.711,1.582-8.289,3.318-12.434,4.646c-4.134,1.336-7.835,2.297-9.63,2.684c0.693-0.256,0.433-0.258-0.375-0.107
							l-3.672,0.768c-3.006,0.625-6.58,1.176-7.312,1.127c0.407,0.014-2.571,0.52-3.006,0.605c-0.66,0.061-1.759,0.168-2.912,0.371
							c1.562-0.156,1.024-0.01,0.842,0.076c-0.188,0.072-0.016,0.119,2.949-0.377c-1.485,0.336-3.201,0.666-5.379,0.967
							c-2.181,0.293-4.824,0.562-8.162,0.68l0.097-0.139c1.76-0.053,3.521-0.146,5.274-0.271c-0.541-0.053,2.168-0.27,3.271-0.447
							c-2.44,0.244-3.591,0.285-4.086,0.293c-0.498,0.006-0.349-0.045-0.201-0.088c0.144-0.045,0.278-0.084-0.244-0.068
							l-4.207,0.195c-0.963,0.113-0.338,0.074-2.939,0.152c1.227-0.021,1.441-0.111-0.529-0.094l-1.896,0.105
							c-1.748-0.137-0.298-0.143,1.211-0.172c1.511-0.031,3.082-0.092,1.593-0.141c1.928-0.076,4.561-0.227,6.547-0.418
							c1.988-0.186,3.332-0.389,2.705-0.41c-3.133,0.248-4.541,0.383-5.986,0.527c-1.444,0.135-2.934,0.273-6.227,0.217
							l-0.699-0.082c-2.315,0.004-2.694,0.098-3.965,0.111c-0.113-0.051-0.701-0.104-2.186-0.213
							c-3.918-0.104-6.51-0.365-10.118-0.711c4.779,0.637,6.831,0.805,8.92,1.021c2.091,0.178,4.226,0.396,9.202,0.361
							c-0.777,0.031-2.922,0.035-4.923-0.012c-2.001-0.039-3.863-0.121-4.084-0.049l0.104-0.127
							c-3.234-0.176-6.472-0.455-10.484-1.145c0.82,0.109,1.645,0.205,2.467,0.299c-2.677-0.334-4.877-0.779-6.927-1.229
							c-2.052-0.447-3.953-0.9-6.041-1.316c1.454,0.383,2.644,0.654,3.554,0.838c-2.725-0.541-6.098-1.436-8.975-2.344
							c-2.014-0.535-4.012-1.125-5.998-1.764c0.068-0.029-3.633-1.438-1.809-0.861c-4.156-1.713-6.16-2.418-8.537-3.48
							c-2.049-1.055-1.143-0.635,0.34,0.041c1.484,0.674,3.57,1.549,3.815,1.545c-2.905-1.268-5.851-2.674-8.45-4
							c-2.599-1.324-4.852-2.572-6.42-3.439c1.098,0.688,1.631,1.02,1.559,1.016c-0.147-0.133-2.358-1.416-3.562-2.184l-0.876-0.449
							c-1.966-1.336-1.653-1.195,0.078-0.156c-1.905-1.23-4.241-2.611-6.06-4.09c1.597,1.098,3.416,2.34,5.064,3.414
							c1.651,1.076,3.133,1.984,4.018,2.475c-3.489-2.049-5.137-3.258-7-4.613c-1.846-1.381-3.93-2.896-7.924-6.102
							c-0.07-0.113,1.318,0.926-0.201-0.33c-3.504-2.936-1.029-0.635-2.178-1.49c2.699,2.268,3.961,3.312,5.51,4.656l-0.789-0.521
							c-0.094-0.111-1.824-1.496-2.303-1.941l-0.531-0.254c0.301,0.049-2.344-2.311-4.418-4.168c2,1.984,1.453,1.461,1.9,2.107
							c-1.527-1.232-2.312-2.021-3.131-2.854c-0.818-0.834-1.674-1.709-3.279-3.215c0.26,0.207,3.01,2.887,0.688,0.518
							c-1.915-1.965-1.742-1.625-3.032-2.943c1.514,1.426,1.217,0.975,2.895,2.473c1.718,1.727,2.086,2.051,2.429,2.381
							c0.353,0.322,0.681,0.65,2.458,2.23c-0.969-0.93-1.922-1.875-2.857-2.834c2.994,2.826,2.289,1.936,2.563,2.137
							c-2.531-2.432-3.478-3.354-4.238-4.02c-0.752-0.678-1.301-1.117-2.825-2.787c-0.77-0.773-0.062,0.014,0.553,0.68
							c0.617,0.662,1.127,1.217-0.076,0.006c-1.432-1.562-1.598-1.734-1.827-1.939c-0.224-0.213-0.519-0.445-2.078-2.244
							l0.563,0.566c-0.885-1.154-1.873-2.203-2.928-3.518c-0.587-0.719-0.355-0.23-0.564-0.316c-0.2-0.096-0.891-0.723-3.123-3.826
							c0.246,0.285,0.349,0.381,0.359,0.373c1.75,1.803,3.555,3.535,5.404,5.197c-4.88-5.9-9.804-13.312-13.581-21.342
							c-0.351-0.99,0.361,0.424,1.195,1.984c0.83,1.564,1.799,3.271,1.712,3.016c0.639,1.184,1.3,2.354,1.984,3.514
							c-0.099-0.072-1.198-1.879-1.998-3.303c-0.803-1.416-1.357-2.424-0.567-0.775c1.742,3.115,3.104,5.324,4.504,7.453
							c1.407,2.121,2.858,4.166,5,6.783c-0.56-0.896-1.911-2.66-3.356-4.719c-1.446-2.053-2.971-4.4-4.016-6.342
							c0.93,1.596,1.781,2.896,2.639,4.146c-2.242-3.461-4.442-7.295-6.472-11.52l-0.506-0.93c1.34,2.865,2.39,4.785,2.515,5.039
							c-1.998-3.686-3.533-6.875-3.797-7.061l0.301,0.684l-0.666-1.367C9.599,181.454,9.225,180.542,8.868,179.629z M160.41,1.683
							c-0.258-0.008-0.459-0.008-0.605,0.002C159.957,1.674,159.787,1.643,160.41,1.683z M64.773,237.305
							c-5.012-2.459-9.869-5.322-14.307-8.326c3.924,2.834,7.467,4.971,8.197,5.49c0.368,0.26,0.029,0.125-1.277-0.59
							c-1.301-0.721-3.576-2.014-6.953-4.26l-0.893-0.57c1.727,1.229,4.801,3.221,7.801,4.898c1.232,0.65,3.87,1.951,6.232,2.986
							c2.357,1.043,4.423,1.84,4.386,1.801c-0.856-0.479-2.196-0.992-3.784-1.807L64.773,237.305z M68.152,239.469
							c2.895,1.311,2.268,0.938,2.742,1.074c-1.033-0.424-2.061-0.859-3.069-1.307C68.204,239.43,68.386,239.53,68.152,239.469z
							 M70.745,240.413c-0.33-0.139-0.607-0.262-0.751-0.332L70.745,240.413z M22.497,203.122l0.201,0.26
							c-0.449-0.602-0.891-1.207-1.348-1.844C21.518,201.79,21.85,202.264,22.497,203.122z M26.396,208.249l0.578,0.496
							l-1.373-1.645C25.718,207.319,25.841,207.545,26.396,208.249z M40.92,223.03c0.549,0.363,1.68,1.23,2.729,1.984
							c1.047,0.76,2.009,1.418,2.164,1.432c0.248,0.133-0.485-0.424-1.299-1.059c-0.914-0.701-1.882-1.461-2.891-2.287
							c-0.051-0.01-0.266-0.158-0.613-0.414c0.983,0.832,1.637,1.395,1.166,1.146c-1.227-1.119-1.818-1.568-2.449-2.023
							c-0.629-0.459-1.305-0.918-2.625-2.135c-0.463-0.34,0.258,0.352,1.217,1.195C39.279,221.713,40.482,222.704,40.92,223.03z
							 M240.443,129.672c0.012-0.102,0.037-0.451,0.068-0.943c0.053,0.84,0.098,1.682,0.137,2.521
							c0.01,4.506-0.371,8.092-0.502,12.141c-0.215,1.887-0.434,2.881-0.629,3.832l0.291-2.496c0.193-2.826,0.266-4.611,0.34-5.838
							s0.133-1.895,0.195-2.496c0.059-0.602,0.119-1.137,0.156-2.092C240.533,133.344,240.545,131.963,240.443,129.672z
							 M230.648,179.948c0.174-0.43,0.215-0.592,0.215-0.592c-3.666,9.344-8.117,16.416-11.283,20.797
							c0.355-0.393,1.254-1.566,2.199-2.908c0.947-1.336,1.936-2.838,2.551-3.812l-0.969,1.811l-0.779,1.021
							c-0.611,1.016-1.242,2.021-1.891,3.02c0.65-0.762,2.246-3.16,3.312-4.768c0.031-0.074,0.834-1.445,1.678-3.01
							s1.729-3.324,2.086-4.107c-0.789,1.438-1.605,2.857-2.457,4.256c0.35-0.561,1.332-2.262,2.307-4.143
							c0.984-1.877,1.955-3.938,2.479-5.117c-0.021-0.035-0.519,0.947-1.047,1.994c-0.524,1.051-1.089,2.17-1.154,2.451
							c-0.312,0.434,1.972-4.154,0.433-1.305c0.813-1.734,1.869-3.984,2.806-6.15c0.94-2.164,1.771-4.24,2.276-5.562l0.319-0.395
							c0.556-1.455,0.671-1.975,0.817-2.557c0.142-0.586,0.32-1.229,0.904-2.982c-1.33,4.346,0.422-0.674-0.675,2.771
							c0.412-1.082,0.203,0.041,1.248-3.438c0.627-2.963,1.175-3.65,1.654-6.479c0.491-1.846-0.326,2.035,0.532-1.627
							c0.398-2.121,0.529-3.129,0.568-3.639c0.041-0.51-0.021-0.525-0.072-0.672c-0.385,1.975-0.569,3.088-0.735,4.113
							c-0.17,1.025-0.326,1.967-0.742,3.561c0.44-2.143,0.819-4.293,1.144-6.449c-0.267,1.178-0.455,2.047-0.603,2.781
							c0.265-1.285,0.438-2.391,0.56-3.336l0.188-1.498c-0.631,3.645-1.401,6.84-1.606,7.385l0.043-0.512
							c-0.365,1.256-0.847,3.332-1.06,4.293c-0.864,3.189-1.832,6.355-2.168,7.006l0.338-1.211c-0.642,1.93-1.022,2.994-1.465,4.174
							C232.156,176.297,231.66,177.6,230.648,179.948z M124.566,249.149c1.236,0.062,2.539,0.117,4.967-0.035
							c2.42-0.17,5.979-0.502,11.631-1.65l-0.887,0.195c2.869-0.461,5.621-1.176,8.494-1.979c2.889-0.771,5.906-1.646,9.307-2.609
							l-6.666,2.281c1.186-0.34,2.357-0.693,3.529-1.062c-0.938,0.438,2.578-0.648,5.146-1.504l-2.221,0.906
							c-1.562,0.449-5.623,1.568-5.498,1.562c0.441-0.133-0.912,0.188-2.812,0.611c-0.949,0.199-2.021,0.463-3.082,0.713
							l-2.953,0.693c0.189,0.021,2.102-0.391,3.551-0.73c1.441-0.346,2.443-0.553,0.867-0.051c2.805-0.789,3.203-0.75,6.139-1.609
							c-2.811,0.861-0.65,0.363-2.744,1.02c1.617-0.439,3.229-0.904,4.832-1.396c0.069,0.004-1.684,0.543-2.957,0.934
							c-1.273,0.385-2.068,0.65-0.058,0.186l4.284-1.277c1.539-0.479,2.838-0.924,2.861-1l0.133,0.002
							c1.795-0.584,2.168-0.773,2.646-0.986c0.479-0.217,1.062-0.443,3.244-1.229c0.025-0.084-0.812,0.193-2.367,0.771
							c-1.312,0.494-1.479,0.674-4.217,1.594c-1.262,0.312,3.312-1.084,1.354-0.621c-0.483,0.121-2.288,0.734-3.737,1.184
							c-1.445,0.451-2.534,0.754-1.549,0.357c1.203-0.346,2.4-0.709,3.6-1.082c0.053-0.15,2.635-1.008,2.523-1.094
							c2.15-0.793,4.236-1.404,6.373-2.387c0.863-0.451-0.758,0.062,2.844-1.367c1.434-0.5,4.186-1.676,6.896-3.021
							c2.724-1.334,5.397-2.842,6.836-3.695c0.83-0.514,1.651-1.035,2.472-1.568c-0.125,0.031-1.317,0.758-2.297,1.326
							c-0.979,0.566-1.738,0.984-0.945,0.479c1.312-0.762,2.613-1.547,3.897-2.359l-0.271,0.23c1.291-0.781,2.562-1.672,3.689-2.461
							c-1.117,0.885-3.926,2.598-3.301,2.365c1.828-1.119,2.135-1.252,3.756-2.373c-0.352,0.248-0.648,0.467-0.596,0.451
							c3.631-2.383,3.35-2.521,4.207-3.188c1.693-1.375,0.791-0.746-0.498,0.15s-2.994,2.025-2.809,1.807
							c3.477-2.408,6.818-5.008,10.002-7.789c-0.789,0.742-1.602,1.477-1.248,1.258c1.213-0.977,1.236-0.977,1.383-1.072
							c0.143-0.105,0.412-0.305,2.035-1.77c-0.18,0.029,0.826-0.906,2.113-2.168c1.289-1.256,2.844-2.85,3.857-4.012
							c1.033-1.006,1.27-1.195-0.904,1.088c0.172-0.084,0.981-0.898,1.863-1.846c0.883-0.947,1.822-2.031,2.316-2.598
							c0.549-0.684,1.492-1.832,2.062-2.586c-0.854,0.936-0.552,0.48,1.099-1.691l0.077-0.141c-1.387,1.758-3.241,3.93-5.032,5.877
							c-1.785,1.953-3.5,3.686-4.455,4.715l0.521-0.605c-1.865,1.793-3.894,3.742-5.733,5.389c-1.843,1.643-3.488,2.979-4.502,3.621
							c0.116-0.207-0.836,0.617-0.849,0.453c-0.985,0.799-1.985,1.578-3,2.346l0.606-0.514c-1.741,1.273-3.522,2.498-5.336,3.67
							l0.131-0.113c-2.522,1.768-4.563,3.061-6.209,4.078c0.021,0.055,0.207-0.027-0.672,0.51c-0.894,0.521-1.584,0.895-2.205,1.213
							c-0.006,0.002-0.006,0.002-0.006,0.002l0,0c-1.422,0.721-2.406,1.127-4.19,1.943c1.815-0.867,3.606-1.787,5.379-2.74
							c0.381-0.332-0.104-0.146-2.765,1.135c1.072-0.551,1.481-0.855,0.151-0.182c-0.127,0.111-3.508,1.805-2.182,1.244
							c-2.566,1.268-6.011,2.756-9.861,4.209c-3.854,1.453-8.108,2.869-12.264,4.156c5.959-1.863-4.837,1.273,1.801-0.713
							c-2.338,0.613-3.332,0.918-4.332,1.248c-1.002,0.328-2.012,0.658-4.416,1.248c-0.426,0.039,2.617-0.645,3.681-1.045
							c-7.946,2.029-13.396,3.525-21.306,4.342l-0.351-0.09C127.955,248.866,126.295,249.028,124.566,249.149z M108.884,249.235
							c-1.522-0.096-3.07-0.219-4.638-0.375l0.455,0.055c-1.524-0.129-3.051-0.285-4.571-0.473c1.395,0.227,2.551,0.414,2.868,0.5
							c0.314,0.084-0.211,0.086-2.18-0.148c0.338-0.006-0.799-0.225,0.566-0.066c-1.311-0.211-3.396-0.564-4.965-0.854
							c-1.568-0.279-2.629-0.469-1.902-0.229c2.521,0.391,2.807,0.473,2.953,0.568c0.146,0.09,0.158,0.178,2.148,0.412
							c-2.146-0.195-4.237-0.621-6.24-0.973c2.098,0.303-0.447-0.289-3.525-1.059c-1.354-0.271-4.965-1.236-7.172-1.865
							c0.754,0.334-1.191-0.145,2.4,0.912c-1.332-0.338-3.383-0.908-5.627-1.715c0.902,0.277,2.482,0.758,2.387,0.684
							c-1.438-0.551-3.144-1.119-4.064-1.488c-0.75-0.252-1.502-0.52-2.232-0.777c0.215,0.09,0.398,0.17,0.527,0.232
							c-0.836-0.268-1.668-0.545-2.499-0.834c3.294,1.199,1.499,0.625,1.429,0.676c0.135-0.088-2.104-0.812-3.217-1.27
							c0.787,0.373,1.58,0.734,2.376,1.092c-1.212-0.371-4.097-1.758-3.54-1.375c2.546,1.094,4.342,1.771,6.088,2.396
							c1.745,0.617,3.443,1.172,5.85,1.879l-1.91-0.709c2.707,0.812,3.537,1.074,4.443,1.393c0.909,0.305,1.896,0.666,4.985,1.395
							c1.297,0.254,3.631,0.752,5.672,1.104c2.043,0.355,3.787,0.584,3.867,0.492c-0.396-0.027,0.57,0.168,1.914,0.371
							c1.344,0.207,3.062,0.404,4.148,0.463c1.205,0.027,3.615,0.172,5.455,0.219c1.838,0.055,3.102,0.055,2.006-0.021
							c-1.957-0.062-4.598-0.135-6.154-0.395c1.264,0.098,2.525,0.172,3.791,0.229c-0.826-0.08-1.652-0.164-2.479-0.266
							C109.582,249.532,109.46,249.42,108.884,249.235z M34.011,214.301l-0.101-0.104l0.114,0.113L34.011,214.301z"/>
						<path fill="#FFFFFF" stroke="#FFFFFF" stroke-width="2" stroke-miterlimit="10" d="M227.134,75.568
							c-0.494-0.97-1.675-3.388-1.531-2.87C225.691,72.581,227.691,77.024,227.134,75.568z"/>
						<path fill="#FFFFFF" stroke="#FFFFFF" stroke-width="2" stroke-miterlimit="10" d="M225.836,72.62
							c-0.108-0.158-0.082-0.023-0.631-1.102c0.511,0.986,1.006,1.977,1.489,2.975L225.836,72.62z"/>
						<path fill="#FFFFFF" stroke="#FFFFFF" stroke-width="2" stroke-miterlimit="10" d="M224.963,69.267
							c-0.877-1.487-1.43-2.43-2.762-4.784c-0.14-0.507,0.437,0.44,1.123,1.647c0.69,1.205,1.485,2.674,1.879,3.162
							c-1.144-2.205-1.983-3.597-2.783-4.881l-2.653-4.188l2.929,5.143C223.836,67.4,224.841,69.246,224.963,69.267z"/>
						<path fill="#FFFFFF" stroke="#FFFFFF" stroke-width="2" stroke-miterlimit="10" d="M226.271,71.075
							c-0.432-0.814-0.875-1.625-1.322-2.43l0.113,0.248c0.445,0.808,0.889,1.617,1.318,2.434L226.271,71.075z"/>
						<path fill="#FFFFFF" stroke="#FFFFFF" stroke-width="2" stroke-miterlimit="10" d="M238.873,128.709
							c-0.073,0.248,0.054,1.938,0.076,2.846C238.949,130.817,238.955,129.783,238.873,128.709z"/>
						<path fill="#FFFFFF" stroke="#FFFFFF" stroke-width="2" stroke-miterlimit="10" d="M100.475,12.733
							c6.395-2.639,12.98-4.807,19.699-6.445c-2.898,0.708-5.667,1.473-8.797,2.461C108.25,9.747,104.758,10.965,100.475,12.733z"/>
						<path fill="#FFFFFF" stroke="#FFFFFF" stroke-width="2" stroke-miterlimit="10" d="M222.136,194.495
							c1.459-2.381,2.418-4.156,3.351-5.957c0.928-1.803,1.832-3.633,3.021-6.209c-1.664,3.342-2.785,5.533-3.865,7.584
							c-1.094,2.043-2.152,3.941-3.957,6.51C221.172,195.784,221.66,195.145,222.136,194.495z"/>
						<path fill="#FFFFFF" stroke="#FFFFFF" stroke-width="2" stroke-miterlimit="10" d="M222.609,192.479
							c0.307-0.354-0.209,0.586-0.754,1.527c-0.543,0.939-1.123,1.881-0.852,1.57c1.006-1.582,1.193-1.979,1.377-2.324
							c0.18-0.355,0.35-0.658,1.221-2.119L222.609,192.479z"/>
						<polygon fill="#FFFFFF" stroke="#FFFFFF" stroke-width="2" stroke-miterlimit="10" points="235.533,170.463 235.062,172.124 
							235.477,170.799 						"/>
						<path fill="#FFFFFF" stroke="#FFFFFF" stroke-width="2" stroke-miterlimit="10" d="M207.113,212.415l0.408-0.461
							c-0.664,0.65-1.338,1.289-2.018,1.922C206.045,213.395,206.58,212.907,207.113,212.415z"/>
						<path fill="#FFFFFF" stroke="#FFFFFF" stroke-width="2" stroke-miterlimit="10" d="M207.927,211.491l-0.404,0.461
							L207.927,211.491z"/>
						<path fill="#FFFFFF" stroke="#FFFFFF" stroke-width="2" stroke-miterlimit="10" d="M235.143,172.672
							c0.293-0.807,0.574-1.613,0.85-2.426l0.314-1.232C235.939,170.239,235.552,171.459,235.143,172.672z"/>
						<path fill="#FFFFFF" stroke="#FFFFFF" stroke-width="2" stroke-miterlimit="10" d="M224.867,192.766
							c0.377-0.662,0.744-1.328,1.105-1.996C225.77,191.174,224.117,193.823,224.867,192.766z"/>
						<path fill="#FFFFFF" stroke="#FFFFFF" stroke-width="2" stroke-miterlimit="10" d="M194.146,223.411
							c-0.725,0.551-1.453,1.1-2.188,1.629l0.235-0.145c0.731-0.535,1.457-1.078,2.177-1.631L194.146,223.411z"/>
						<path fill="#FFFFFF" stroke="#FFFFFF" stroke-width="2" stroke-miterlimit="10" d="M214.82,207.553
							c0.557-0.566-0.172,0.312-0.781,1.021c-0.605,0.705-1.086,1.254,0.029,0.064C215.941,206.428,215.123,207.278,214.82,207.553z
							"/>
						<path fill="#FFFFFF" stroke="#FFFFFF" stroke-width="2" stroke-miterlimit="10" d="M189.095,228.823
							c-0.312,0.203-0.646,0.412-0.959,0.625L189.095,228.823z"/>
						<path fill="#FFFFFF" stroke="#FFFFFF" stroke-width="2" stroke-miterlimit="10" d="M189.095,228.823
							c1.017-0.645,2.045-1.275,2.711-1.768C190.527,227.848,190.08,228.165,189.095,228.823z"/>
						<path fill="#FFFFFF" stroke="#FFFFFF" stroke-width="2" stroke-miterlimit="10" d="M177.074,235.586l0.982-0.477
							c-0.973,0.549-0.502,0.309,0.369-0.182c1.029-0.527,0.953-0.531,1.062-0.619l0.607-0.371l-0.819,0.477
							C177.682,235.233,176.695,235.706,177.074,235.586z"/>
						<path fill="#FFFFFF" stroke="#FFFFFF" stroke-width="2" stroke-miterlimit="10" d="M127.802,247.401
							c3.952-0.332,4.971-0.498,4.769-0.363c3.739-0.488,3.135-0.588,5.366-0.996c-2.099,0.377-3.366,0.559-4.741,0.74
							C131.816,246.959,130.338,247.153,127.802,247.401z"/>
						<path fill="#FFFFFF" stroke="#FFFFFF" stroke-width="2" stroke-miterlimit="10" d="M137.936,246.04l1.461-0.273
							L137.936,246.04z"/>
						<path fill="#FFFFFF" stroke="#FFFFFF" stroke-width="2" stroke-miterlimit="10" d="M191.627,228.424
							c-0.674,0.508-1.354,1.008-2.043,1.502l0.771-0.52L191.627,228.424z"/>
						<path fill="#FFFFFF" stroke="#FFFFFF" stroke-width="2" stroke-miterlimit="10" d="M121.927,247.733
							c0.735-0.023,1.911-0.086,2.491-0.092C124.623,247.547,121.193,247.766,121.927,247.733z"/>
						<path fill="#FFFFFF" stroke="#FFFFFF" stroke-width="2" stroke-miterlimit="10" d="M137.432,247.948
							c0.414-0.008,2.941-0.502,3.973-0.697C139.927,247.538,138.691,247.592,137.432,247.948z"/>
						<path fill="#FFFFFF" stroke="#FFFFFF" stroke-width="2" stroke-miterlimit="10" d="M110.536,248.018
							c0.734,0.049,1.865,0.16,1.373,0.217C112.98,248.227,114.436,248.141,110.536,248.018z"/>
						<path fill="#FFFFFF" stroke="#FFFFFF" stroke-width="2" stroke-miterlimit="10" d="M130.143,248.944l0.574-0.031
							c0.908-0.125,1.818-0.256,2.727-0.396C132.347,248.672,131.246,248.815,130.143,248.944z"/>
						<path fill="#FFFFFF" stroke="#FFFFFF" stroke-width="2" stroke-miterlimit="10" d="M140.117,248.846
							c3.055-0.689-4.928,0.646,0.352-0.438c-3.422,0.586-3.289,0.562-2.926,0.564c0.363-0.016,0.959-0.037-1.572,0.363
							C138.939,248.907,140.406,248.739,140.117,248.846z"/>
						<path fill="#FFFFFF" stroke="#FFFFFF" stroke-width="2" stroke-miterlimit="10" d="M135.97,249.34l-1.406,0.199L135.97,249.34
							z"/>
						<path fill="#FFFFFF" stroke="#FFFFFF" stroke-width="2" stroke-miterlimit="10" d="M92.35,247.475
							c0.443,0.08,0.75,0.135,1.031,0.176L92.35,247.475z"/>
						<path fill="#FFFFFF" stroke="#FFFFFF" stroke-width="2" stroke-miterlimit="10" d="M119.674,250.862
							c1.562-0.088,3.121-0.203,4.677-0.352c-1.558,0.15-4.308,0.287-6.608,0.318c-2.302,0.047-4.148,0.02-3.906,0.109
							c2.555,0.115,5.632,0.031,6.891-0.084L119.674,250.862z"/>
						<path fill="#FFFFFF" stroke="#FFFFFF" stroke-width="2" stroke-miterlimit="10" d="M68.591,237.372l1.834,0.736
							c-0.754-0.332-1.502-0.672-2.248-1.018C68.811,237.405,67.597,236.989,68.591,237.372z"/>
						<path fill="#FFFFFF" stroke="#FFFFFF" stroke-width="2" stroke-miterlimit="10" d="M67.747,236.889l0.432,0.201
							L67.747,236.889z"/>
						<path fill="#FFFFFF" stroke="#FFFFFF" stroke-width="2" stroke-miterlimit="10" d="M101.042,248.905
							c1.49,0.217,2.688,0.355,4.058,0.461C104.534,249.295,100.816,248.805,101.042,248.905z"/>
						<path fill="#FFFFFF" stroke="#FFFFFF" stroke-width="2" stroke-miterlimit="10" d="M56.141,231.127
							c0.938,0.553,1.887,1.092,2.84,1.617c-1.037-0.58-2.066-1.176-3.084-1.787L56.141,231.127z"/>
						<path fill="#FFFFFF" stroke="#FFFFFF" stroke-width="2" stroke-miterlimit="10" d="M43.788,222.223l-0.419-0.373
							c-0.716-0.547-1.423-1.105-2.127-1.672l0.418,0.393C42.362,221.129,43.073,221.68,43.788,222.223z"/>
						<path fill="#FFFFFF" stroke="#FFFFFF" stroke-width="2" stroke-miterlimit="10" d="M58.773,236.09
							c1.984,1.109,3.642,1.77,3.125,1.473c-1.308-0.668-2.601-1.355-3.883-2.068c0.916,0.652,1.062,0.602,3.309,1.812
							C60.472,236.909,59.62,236.506,58.773,236.09z"/>
						<path fill="#FFFFFF" stroke="#FFFFFF" stroke-width="2" stroke-miterlimit="10" d="M6.061,122.287
							c-0.062,0.477-0.355,1.855-0.613,3.15c-0.262,1.295-0.495,2.505-0.555,2.621c0.06-0.627,0.481-3.137,0.146-1.571
							c-0.149,1.229-0.274,2.461-0.375,3.696c-0.394,2.432-0.345,1.498-0.153-0.354c0.194-1.853,0.639-4.604,0.858-5.805
							c-0.517,2.465-0.749,4.083-0.961,5.744c-0.202,1.66-0.394,3.361-0.615,6.027c0.149-1.57,0.313-2.559,0.456-3.377
							c0.088-0.082-0.042,1.107-0.184,2.77c-0.143,1.66-0.287,3.789-0.33,5.568c0.15-2.264,0.144-0.949,0.162,0.695
							c0,0.295,0.006,0.492,0.012,0.635l0.016,0.561l0.004-0.426c0.016,0.027,0.037-0.064,0.071-0.371
							c0.011-2.979,0.302-5.24,0.479-7.146c-0.205,0.936-0.096-0.695,0.179-2.85c0.265-2.153,0.737-4.821,0.932-6.012
							c0.16-0.914,0.341-1.824,0.528-2.734l0.225-1.018c0.075-0.197,0.032,0.096-0.25,1.659c0.11-0.651,0.412-2.057,0.691-3.243
							c0.277-1.189,0.527-2.162,0.438-1.976c0.869-3.259,1.869-6.498,2.979-9.69c0.114-0.295,0.231-0.588,0.325-0.806
							c0.102-0.336,0.113-0.396,0.084-0.354c4.963-13.887,12.029-27.018,20.648-39.006c-1.291,1.762-2.414,3.287-3.687,5.149
							c0.874-1.453,0.351-0.69-0.33,0.327c-0.681,1.017-1.503,2.3-1.302,1.84c0.771-1.314,2.021-3.165,2.805-4.236
							c0.214-0.453-0.908,1.073-0.863,0.842c-1.604,2.299-2.408,3.705-3.193,5.102c-0.779,1.396-1.541,2.785-2.93,5.145
							c0.031-0.23,0.79-1.748-0.969,1.375l0.43-0.803c-1.365,2.525-1.923,3.494-2.354,4.23c-0.428,0.738-0.717,1.25-1.417,2.922
							l-0.076-0.146c-1.099,2.363-3.229,6.959-4.296,9.607l0.042-0.168c-1.47,3.725-1.823,4.789-2.271,5.951
							c-0.425,1.17-0.953,2.438-2.297,6.723c0.365-1.33,0.75-2.652,1.154-3.975c-1.068,2.912-1.107,3.635-1.779,5.756
							c0.024-0.16-0.229,0.305,0.373-1.711c-1.016,3.496-1.912,7.014-2.59,10.561C5.275,125.711,5.911,122.664,6.061,122.287z"/>
						<path fill="#FFFFFF" stroke="#FFFFFF" stroke-width="2" stroke-miterlimit="10" d="M3.791,135.793
							c-0.054,0.57-0.104,1.223-0.146,1.99L3.791,135.793z"/>
						<path fill="#FFFFFF" stroke="#FFFFFF" stroke-width="2" stroke-miterlimit="10" d="M33.102,66.158
							c-0.621,0.832-1.234,1.669-1.84,2.511L33.102,66.158z"/>
						<path fill="#FFFFFF" stroke="#FFFFFF" stroke-width="2" stroke-miterlimit="10" d="M4.102,151.288
							c-0.086-1.871,0.209,1.393,0.309,1.707c-0.229-2.223-0.377-4.451-0.446-6.684c-0.053,0.031-0.128-0.631-0.172-0.494
							C3.843,147.643,3.943,149.469,4.102,151.288z"/>
						<path fill="#FFFFFF" stroke="#FFFFFF" stroke-width="2" stroke-miterlimit="10" d="M4.021,144.372
							c-0.037-0.227-0.076-0.936-0.098-1.729c-0.011,1.223,0.004,2.445,0.041,3.668C4.004,146.288,4.018,145.875,4.021,144.372z"/>
						<path fill="#FFFFFF" stroke="#FFFFFF" stroke-width="2" stroke-miterlimit="10" d="M1.263,145.129l-0.02-1.223l-0.031-1.844
							C1.211,143.084,1.229,144.106,1.263,145.129z"/>
						<path fill="#FFFFFF" stroke="#FFFFFF" stroke-width="2" stroke-miterlimit="10" d="M3.023,126.185
							c-0.348,1.416-0.69,4.154-0.776,5.074c0.203-1.576,0.287-2.021,0.356-2.482L3.023,126.185z"/>
						<path fill="#FFFFFF" stroke="#FFFFFF" stroke-width="2" stroke-miterlimit="10" d="M1.571,129.947
							c0.125-1.021,0.271-2.043,0.431-3.061l-0.063,0.283C1.804,128.092,1.679,129.018,1.571,129.947z"/>
						<path fill="#FFFFFF" stroke="#FFFFFF" stroke-width="2" stroke-miterlimit="10" d="M47.714,48.351l1.034-1.055
							C48.27,47.772,47.962,48.09,47.714,48.351z"/>
						<path fill="#FFFFFF" stroke="#FFFFFF" stroke-width="2" stroke-miterlimit="10" d="M31.092,68.213
							c2.187-2.861,1.519-1.889,0.482-0.42c-1.032,1.471-2.372,3.477-1.646,2.607c0.731-1.081,1.475-2.153,2.23-3.217l-0.156,0.299
							c0.936-1.288,1.889-2.562,2.861-3.821c-0.67,0.718-1.12,1.304-1.065,1.076c1.957-2.519,2.312-2.879,2.519-3.086
							c0.213-0.2,0.289-0.24,1.82-2.009c1.508-1.832,3.055-3.633,4.637-5.401l-0.362,0.448c0.397-0.448,0.565-0.651,0.694-0.813
							c5.354-5.945,11.127-11.515,17.271-16.64c3.325-2.835-1.974,1.407,0.427-0.749c-1.961,1.605-4.363,3.648-6.265,5.38
							c-1.906,1.729-3.323,3.129-3.413,3.345c0.105-0.137,0.309-0.406-0.445,0.291c-0.668,0.715-1.328,1.438-1.981,2.166
							c0.67-0.65,1.344-1.291,2.024-1.928c-1.009,1.076-3.197,3.291-5.228,5.443c-2.037,2.148-3.915,4.234-4.517,4.853
							c1.766-2.051,2.186-2.579,2.789-3.301c0.612-0.714,1.396-1.636,4.071-4.294c-0.271,0.207-1.297,1.139-0.126-0.096
							c-3.083,3.172-5.914,6.27-8.645,9.502C36.342,61.084,33.709,64.457,31.092,68.213z"/>
						<path fill="#FFFFFF" stroke="#FFFFFF" stroke-width="2" stroke-miterlimit="10" d="M99.148,13.125l-0.058,0.041
							C99.234,13.097,99.28,13.072,99.148,13.125z"/>
						<path fill="#FFFFFF" stroke="#FFFFFF" stroke-width="2" stroke-miterlimit="10" d="M96.419,14.28
							c-1.288,0.638-2.563,1.293-3.828,1.969c2.013-0.97,4.048-1.896,6.104-2.772l0.399-0.307c-0.537,0.254-2.668,1.248-3.519,1.584
							L96.419,14.28z"/>
						<path fill="#FFFFFF" stroke="#FFFFFF" stroke-width="2" stroke-miterlimit="10" d="M88.177,18.581
							c3.051-1.63,2.827-1.666,1.104-0.879c2.814-1.492,1.57-0.611,3.473-1.713c-0.116-0.078-3.612,1.713-4.396,2.163L88.177,18.581
							z"/>
						<polygon fill="#FFFFFF" stroke="#FFFFFF" stroke-width="2" stroke-miterlimit="10" points="66.561,32.154 67.306,31.52 
							65.375,32.952 						"/>
						<path fill="#FFFFFF" stroke="#FFFFFF" stroke-width="2" stroke-miterlimit="10" d="M67.306,31.52l1.934-1.393
							c-0.161,0.059-0.319,0.116-0.653,0.319L67.306,31.52z"/>
						<path fill="#FFFFFF" stroke="#FFFFFF" stroke-width="2" stroke-miterlimit="10" d="M74.41,26.613l2.938-1.869
							C76.362,25.354,75.381,25.977,74.41,26.613z"/>
						<polygon fill="#FFFFFF" stroke="#FFFFFF" stroke-width="2" stroke-miterlimit="10" points="72.127,28.102 72.207,28.074 
							74.41,26.613 						"/>
						<path fill="#FFFFFF" stroke="#FFFFFF" stroke-width="2" stroke-miterlimit="10" d="M69.239,30.127
							c0.381-0.136,0.796-0.332,3.617-2.302l-0.649,0.246C71.209,28.747,70.222,29.431,69.239,30.127z"/>
						<path fill="#FFFFFF" stroke="#FFFFFF" stroke-width="2" stroke-miterlimit="10" d="M7.102,108.265
							c0.283-0.883,0.574-1.76,0.873-2.635l-0.117,0.27c-0.295,0.877-0.586,1.756-0.865,2.635L7.102,108.265z"/>
						<path fill="#FFFFFF" stroke="#FFFFFF" stroke-width="2" stroke-miterlimit="10" d="M13.196,93.478l0.666-1.541
							C13.561,92.595,13.333,93.121,13.196,93.478z"/>
						<path fill="#FFFFFF" stroke="#FFFFFF" stroke-width="2" stroke-miterlimit="10" d="M17.994,82.554
							c1.696-2.799-2.088,4.002,0.925-1.252c0.352-0.412-0.958,2.104-2.334,4.596c0.021-0.244,1.268-2.471,0.35-0.975
							c-0.803,1.717-1.191,2.323-0.765,1.805c-1.39,2.863-1.44,3.232-2.305,5.209c0.802-1.744,2.147-4.4,3.638-7.125
							c1.482-2.727,3.107-5.522,4.311-7.646c1.271-2.373,0.221-1.111,0.017-1.248c-0.133,0.157-1.127,1.717-2.054,3.299
							C18.845,80.799,17.987,82.399,17.994,82.554z"/>
						<path fill="#FFFFFF" stroke="#FFFFFF" stroke-width="2" stroke-miterlimit="10" d="M15.331,86.974
							c-0.708,1.342-0.906,1.76-1.305,2.604C14.21,89.39,14.766,88.062,15.331,86.974z"/>
						<path fill="#FFFFFF" stroke="#FFFFFF" stroke-width="2" stroke-miterlimit="10" d="M35.917,59.097
							c0.149-0.246,1.856-2.358,1.438-1.948c-0.873,1.061-1.732,2.13-2.578,3.208C35.388,59.609,35.638,59.373,35.917,59.097z"/>
						<path fill="#FFFFFF" stroke="#FFFFFF" stroke-width="2" stroke-miterlimit="10" d="M33.67,61.786l1.105-1.427
							C34.494,60.709,34.146,61.149,33.67,61.786z"/>
						<path fill="#FFFFFF" stroke="#FFFFFF" stroke-width="2" stroke-miterlimit="10" d="M36.059,58.959l-0.142,0.139
							C35.888,59.145,35.898,59.143,36.059,58.959z"/>
						<path fill="#FFFFFF" stroke="#FFFFFF" stroke-width="2" stroke-miterlimit="10" d="M82.838,21.482
							c-0.018,0.084,1.536-0.847,2.323-1.3C84.513,20.533,83.597,21.021,82.838,21.482z"/>
						<path fill="#FFFFFF" stroke="#FFFFFF" stroke-width="2" stroke-miterlimit="10" d="M147.609,2.742l1.602,0.042
							C148.645,2.754,148.354,2.739,147.609,2.742z"/>
						<path fill="#FFFFFF" stroke="#FFFFFF" stroke-width="2" stroke-miterlimit="10" d="M172.461,3.133
							c0.05-0.004,0.168,0.008,0.33,0.028C172.631,3.14,172.518,3.129,172.461,3.133z"/>
						<path fill="#FFFFFF" stroke="#FFFFFF" stroke-width="2" stroke-miterlimit="10" d="M172.791,3.162
							c1.104,0.146,4.433,0.968,5.644,1.192l-0.157-0.01l2.235,0.516c-1.041-0.271-2.656-0.68-4.172-1.012
							C174.824,3.511,173.41,3.244,172.791,3.162z"/>
					</g>
				</g>
			</g>
		</g>
	</g>
</g>
</svg>
