<?xml version="1.0" encoding="utf-8"?>
<!-- Generator: Adobe Illustrator 16.0.0, SVG Export Plug-In . SVG Version: 6.00 Build 0)  -->
<!DOCTYPE svg PUBLIC "-//W3C//DTD SVG 1.1//EN" "http://www.w3.org/Graphics/SVG/1.1/DTD/svg11.dtd">
<svg version="1.1" id="Layer_4" xmlns="http://www.w3.org/2000/svg" xmlns:xlink="http://www.w3.org/1999/xlink" x="0px" y="0px"
	 width="491px" height="501px" viewBox="1327.5 954.5 491 501" enable-background="new 1327.5 954.5 491 501" xml:space="preserve">
<g>
	<g>
		<g>
			<g>
				<g>
					<g>
						<path vector-effect="non-scaling-stroke" stroke-width="2"  fill="#FFFFFF" d="M1750.113,1058.399c-1.956-2.568-3.574-4.882-2.771-3.966c-4.207-5.063-4.173-5.272-4.983-5.711
							c-2.812-3.147-5.568-6.716-2.341-3.155c-2.673-3.058-5.409-6.055-8.207-8.991c1.628,1.798,3.229,3.619,4.81,5.459
							c-0.762-0.65-2.666-2.844-4.646-5.026c-1.974-2.187-4.03-4.353-4.954-5.061c3.047,3.153,6.023,6.376,8.924,9.668l-0.511-0.429
							c2.075,2.164,5.793,6.646,7.027,8.256c-0.242-0.215-0.174-0.009-1.656-1.791c5.028,6.141,5.719,6.961,6.302,7.435
							c0.553,0.498,0.971,0.674,4.93,5.956L1750.113,1058.399z"/>
						<path vector-effect="non-scaling-stroke" stroke-width="2"  fill="#FFFFFF" d="M1757.334,1069.827c1.138,1.458,2.263,2.928,3.373,4.41c1.659,2.619,3.271,5.267,4.84,7.938
							c0.182,0.012,3.699,5.808,1.478,1.79l-2.152-3.494c0.396,0.366,2.027,2.997,3.371,5.251c1.349,2.252,2.424,4.118,1.88,2.854
							c-3.717-6.363-4.296-7.34-6.871-11.077c-3.568-5.729-6.311-9.815-8.04-12.456c-1.19-1.614-1.494-1.744-3.018-3.784
							l1.022,1.395l-0.187,0.473c1.312,1.669,2.426,3.337,3.763,5.272c-2.182-2.903-4.426-5.758-6.715-8.568
							c0.887,1.522,2.941,4.407,5.002,7.405c2.068,2.99,4.135,6.101,5.217,7.938
							C1757.7,1070.553,1762.781,1078.584,1757.334,1069.827z"/>
						<path vector-effect="non-scaling-stroke" stroke-width="2"  fill="#FFFFFF" d="M1752.193,1061.259l-0.158-0.216L1752.193,1061.259z"/>
						<path vector-effect="non-scaling-stroke" stroke-width="2"  fill="#FFFFFF" d="M1349.048,1301.404c-0.764-2.215-1.062-2.844-1.218-3.149c2.711,8.371,5.996,16.554,9.804,24.482
							c-0.29-0.781-3.296-7.753-1.135-3.163c-0.871-2.089-3.644-8.391-4.122-9.278l0.875,1.707
							c-2.498-5.545-3.423-9.623-1.962-5.946l-0.181-0.479c-2.203-5.149-4.189-10.405-5.94-15.753
							c0.799,2.991,1.223,4.108,1.688,5.378C1347.334,1296.467,1347.844,1297.885,1349.048,1301.404z"/>
						<path vector-effect="non-scaling-stroke" stroke-width="2"  fill="#FFFFFF" d="M1666.528,964.688c-3.37-0.505-3.793-0.505-3.416-0.412L1666.528,964.688z"/>
						<path vector-effect="non-scaling-stroke" stroke-width="2"  fill="#FFFFFF" d="M1343.979,1286.062c-0.513-1.688-1.008-3.384-1.475-5.088
							C1343.029,1283.03,1343.564,1284.814,1343.979,1286.062z"/>
						<path vector-effect="non-scaling-stroke" stroke-width="2"  fill="#FFFFFF" d="M1359.841,1318.832c0.017,0.003,0.052,0.049,0.012-0.083l-1.088-2.06l0.024,0.055L1359.841,1318.832z"
							/>
						<path vector-effect="non-scaling-stroke" stroke-width="2"  fill="#FFFFFF" d="M1350.843,1167.902l0.573-1.639L1350.843,1167.902z"/>
						<path vector-effect="non-scaling-stroke" stroke-width="2"  fill="#FFFFFF" d="M1400.765,1375.196c-2.727-2.674-5.379-5.425-7.962-8.241c1.088,1.076-2.557-3.078-0.872-1.344
							c-0.594-0.641-3.257-3.747-2.586-2.854l1.511,1.783c-2.086-2.191-2.546-2.588-3.326-3.362
							c-0.768-0.787-1.881-1.936-5.025-5.854c3.61,5.095,5.542,7.064,7.784,9.489l2,2.245c2.217,2.291,4.483,4.529,6.797,6.714
							L1400.765,1375.196z"/>
						<path vector-effect="non-scaling-stroke" stroke-width="2"  fill="#FFFFFF" d="M1509.573,993.141l-0.102,0.082C1509.572,993.161,1509.587,993.144,1509.573,993.141z"/>
						<path vector-effect="non-scaling-stroke" stroke-width="2"  fill="#FFFFFF" d="M1509.072,993.553l0.399-0.331C1508.941,993.553,1506.85,994.705,1509.072,993.553z"/>
						<path vector-effect="non-scaling-stroke" stroke-width="2"  fill="#FFFFFF" d="M1344.68,1287.886c-0.104-0.138-0.354-0.772-0.701-1.823c0.386,1.26,0.778,2.516,1.19,3.764
							L1344.68,1287.886z"/>
						<path vector-effect="non-scaling-stroke" stroke-width="2"  fill="#FFFFFF" d="M1347.883,1296.271c0.996,3.129,2.072,6.232,3.229,9.307l1.461,3.327
							C1351.136,1305.423,1349.578,1301.299,1347.883,1296.271z"/>
						<path vector-effect="non-scaling-stroke" stroke-width="2"  fill="#FFFFFF" d="M1345.775,1182.719c6.083-19.618-1.15,4.923,1.77-4.049c1.679-5.439,2.171-7.396,3.298-10.768
							c-2.618,7.707-2.515,7.161-2.53,6.593c0.033-0.553-0.062-1.13-2.443,6.746c0.168-1.171,0.945-4.04,1.974-7.255
							c1.021-3.219,2.302-6.776,3.318-9.378c1.268-2.901,0.838-1.587,0.078,0.637c-0.759,2.223-1.795,5.374-1.866,6.104
							c2.126-6.241,1.71-5.157,2.497-7.853c3.684-9.679,7.795-19.994,10.939-25.349c3.235-6.762,2.91-6.373,4.741-10.285
							c0.041-0.465-1.318,1.975-2.816,4.855c-1.509,2.878-3.141,6.203-3.863,7.401c0.275-0.509,0.816-1.496,0.723-1.181
							c-0.959,1.941-1.897,3.895-2.814,5.855c2.691-5.55-0.054,0.919-1.33,3.953c-0.964,2.191-2.771,6.599-2.611,5.956l1.33-3.377
							c-1.945,4.253-3.673,9.63-5.549,14.192c-0.168,0.213,0.441-1.553,0.496-1.835c-1.688,5.271-3.49,10.294-5.688,18.18
							l1.058-4.642l-3.762,13.95c-1.473,5.646-2.834,11.808-3.787,16.89c0.247-1.121,0.659-3.145,0.509-1.912
							c-0.979,5.983-1.734,10.513-1.572,7.694c-0.262,2.96-1,8.566-1.41,14.481c-0.43,5.912-0.519,12.123-0.218,16.164
							c0.893,12.387,3.004,24.623,6.263,36.48c-0.343-1.337-0.688-2.774-0.995-4.267c-0.314-3.354-0.691-5.105,0.704,0.588
							c-0.645-2.802-0.889-3.661-1.196-4.877c-0.287-1.22-0.654-2.795-1.256-7.082c0.311,1.672,0.6,2.702,0.655,2.293
							c0.062-0.411-0.138-2.256-0.593-6.363c-1.303-10.253-1.808-18.866-1.872-27.326c-0.024-8.458,0.399-16.784,1.806-26.418
							c0.181-0.334,0.887-4.269,1.945-8.983c1.038-4.717,2.493-10.207,3.556-13.737c-0.532,2.773-1.936,8.092-3.094,13.674
							c0.76-3.492,2.281-9.474,3.582-13.83L1345.775,1182.719z"/>
						<path vector-effect="non-scaling-stroke" stroke-width="2"  fill="#FFFFFF" d="M1338.183,1230.232l0.137-1.602C1338.281,1228.923,1338.239,1229.4,1338.183,1230.232z"/>
						<path vector-effect="non-scaling-stroke" stroke-width="2"  fill="#FFFFFF" d="M1341.791,1200.172c-0.007,0.071,0.006,0.049,0.01,0.075l0.363-1.771L1341.791,1200.172z"/>
						<path vector-effect="non-scaling-stroke" stroke-width="2"  fill="#FFFFFF" d="M1344.05,1283.058c0.348,1.176,0.58,2.051,0.95,3.219l-0.688-2.518
							C1344.082,1282.923,1343.955,1282.528,1344.05,1283.058z"/>
						<path vector-effect="non-scaling-stroke" stroke-width="2"  fill="#FFFFFF" d="M1344.618,1287.169l-0.259-0.61l0.319,1.327C1344.77,1288.01,1344.771,1287.851,1344.618,1287.169z"/>
						<path vector-effect="non-scaling-stroke" stroke-width="2"  fill="#FFFFFF" d="M1379.66,1112.479l0.976-1.691C1380.021,1111.789,1379.776,1112.234,1379.66,1112.479z"/>
						<path vector-effect="non-scaling-stroke" stroke-width="2"  fill="#FFFFFF" d="M1353.555,1161.219c-1.267,3.334-1.237,3.572-1.362,4.147c-0.107,0.581-0.395,1.489-2.041,6.251
							l0.995-2.784c-1.139,3.432-2.709,8.161-4.189,13.098c-1.486,4.931-2.888,10.082-3.849,14.283
							c0.06-0.985-1.315,5.062-1.308,4.033c-1.178,5.782-2.015,11.571-2.172,14.612c-0.576,3.608-0.946,9.146-1.311,13.771
							c0.129-0.974,0.143,0.682,0.194,1.169c0.07,0.488,0.075-0.192,0.443-5.818c-0.058,0.908,0.02,0.343-0.034,1.239
							c0.814-7.214,0.888-10.138,1.855-16.324c0.384-1.832,0.17-0.315-0.027,1.228c-0.199,1.543-0.396,3.11-0.106,1.371
							c0.507-3.871,1.654-9.892,2.809-14.84c1.135-4.953,2.191-8.857,1.876-8.676c1.499-5.474,1.876-6.18,2.449-7.771
							c1.045-4.371,3.746-12.26,6.403-18.942c2.626-6.696,5.116-12.221,4.777-12.325c-1.296,3.011-3.383,7.931-4.969,12.474
							L1353.555,1161.219z"/>
						<path vector-effect="non-scaling-stroke" stroke-width="2"  fill="#FFFFFF" d="M1341.654,1271.367l-0.221-1.365L1341.654,1271.367z"/>
						<path vector-effect="non-scaling-stroke" stroke-width="2"  fill="#FFFFFF" d="M1374.57,1354.448l-2.1-2.193c-4.91-7.009-7.887-12.033-10.615-16.875
							c-2.692-4.862-5.136-9.562-8.228-16.384c-0.412-1.069,0.367,0.572,0.769,1.4c-2.227-4.768-4.726-10.85-6.789-16.709
							c-2.087-5.854-3.736-11.477-4.808-15.16c-0.913-3.232-2.613-11.87-1.771-8.644c-0.38-1.586-0.791-3.405-1.114-5.252
							c0.057-0.516,0.837,4.111,1.007,4.188c-0.293-1.456-0.367-2.031-0.484-2.356c0.311,1.213,0.319,0.551,0.532,1.014
							c0.232,0.457,0.585,2.058,1.939,7.705c0.356,2.23-0.15,0.28-0.681-1.904c-0.528-2.186-1.057-4.607-0.983-3.262
							c0.826,3.773,0.91,3.293,1.027,3.604c1.145,4.783,1.061,4.673,0.887,4.446c0.575,1.798,2.104,7.802,3.122,10.211
							c3.062,9.062-0.493-0.384,1.537,5.529l1.63,3.239c1.189,3.249,2.465,6.467,3.82,9.649c3.128,6.832,3.153,6.222,3.188,5.909
							c0.032-0.164,0.09-0.266,0.622,0.629c0.533,0.893,1.521,2.791,3.56,6.546c-1.225-1.899,1.526,4.415,5.613,11.278
							c-1.25-2.033-3.035-4.928-4.801-8.039c-1.77-3.107-3.512-6.434-4.793-9.241c1.771,3.978,0.416,1.31-1.103-1.867
							c-1.52-3.175-3.124-6.889-2.4-4.737c1.87,3.886,4.995,10.342,7.604,15.295l-0.903-1.599c2.785,5.268,5.377,8.971,9.681,15.947
							c2.258,3.396,1.75,2.816,1.264,2.279C1372.77,1351.932,1374.64,1354.386,1374.57,1354.448z M1369.479,1347.164
							c-0.983-1.531-1.948-3.074-2.895-4.629C1367.207,1343.674,1368.29,1345.396,1369.479,1347.164z"/>
						<path vector-effect="non-scaling-stroke" stroke-width="2"  fill="#FFFFFF" d="M1790.441,1136.559l-0.489-1.548C1790.048,1135.354,1790.238,1135.938,1790.441,1136.559z"/>
						<path vector-effect="non-scaling-stroke" stroke-width="2"  fill="#FFFFFF" d="M1543.209,1444.827l3.075,0.288L1543.209,1444.827z"/>
						<path vector-effect="non-scaling-stroke" stroke-width="2"  fill="#FFFFFF" d="M1611.896,1439.764l4.363-1.039L1611.896,1439.764z"/>
						<polygon fill="#FFFFFF" points="1799.714,1172.235 1799.739,1172.385 1799.891,1173.081 						"/>
						<path vector-effect="non-scaling-stroke" stroke-width="2"  fill="#FFFFFF" d="M1735.472,1380.768c0.53-0.436,1.108-0.942,1.895-1.646
							C1737.243,1379.176,1736.545,1379.803,1735.472,1380.768z"/>
						<polygon fill="#FFFFFF" points="1611.089,1439.944 1611.357,1439.898 1611.896,1439.764 						"/>
						<path vector-effect="non-scaling-stroke" stroke-width="2"  fill="#FFFFFF" d="M1513.37,1438.72l-1.925-0.41C1512.349,1438.521,1512.908,1438.628,1513.37,1438.72z"/>
						<path vector-effect="non-scaling-stroke" stroke-width="2"  fill="#FFFFFF" d="M1517.351,1440.83l-1.887-0.363L1517.351,1440.83z"/>
						<path vector-effect="non-scaling-stroke" stroke-width="2"  fill="#FFFFFF" d="M1421.945,1395.39l-3.269-2.546C1420.258,1394.128,1421.229,1394.86,1421.945,1395.39z"/>
						<path vector-effect="non-scaling-stroke" stroke-width="2"  fill="#FFFFFF" d="M1506.713,1438.034l-0.638-0.109C1506.633,1438.061,1506.904,1438.104,1506.713,1438.034z"/>
						<polygon fill="#FFFFFF" points="1781.966,1111.395 1782.071,1111.624 1782.16,1111.701 						"/>
						<path vector-effect="non-scaling-stroke" stroke-width="2"  fill="#FFFFFF" d="M1777.086,1102.454l-1.672-3.267L1777.086,1102.454z"/>
						<path vector-effect="non-scaling-stroke" stroke-width="2"  fill="#FFFFFF" d="M1773.754,1334.421c0.615-0.915,1.968-3.121,1.426-2.04
							C1776.145,1330.503,1775.91,1330.532,1773.754,1334.421z"/>
						<path vector-effect="non-scaling-stroke" stroke-width="2"  fill="#FFFFFF" d="M1792.098,1129.408c-0.287-0.613-0.609-1.387-0.943-2.158
							C1791.753,1128.695,1792.267,1129.968,1792.098,1129.408z"/>
						<path vector-effect="non-scaling-stroke" stroke-width="2"  fill="#FFFFFF" d="M1791.153,1127.25l-0.896-2.109L1791.153,1127.25z"/>
						<path vector-effect="non-scaling-stroke" stroke-width="2"  fill="#FFFFFF" d="M1760.673,1359.683c-0.192,0.201-0.479,0.524-0.853,0.976
							C1759.972,1360.561,1760.276,1360.205,1760.673,1359.683z"/>
						<path vector-effect="non-scaling-stroke" stroke-width="2"  fill="#FFFFFF" d="M1774.114,1096.523c-0.326-0.58-8.238-14.418-1.821-2.647c-0.497-0.319-4.258-7.468-6.184-10.479
							c1.256,2.271-0.83-1.007-0.527-0.271c0.938,1.501,2.086,3.266,3.505,5.824c0.534,1.241-1.719-2.58-3.452-5.577
							c2.038,3.748-2.988-4.518-0.005,0.729c6.638,11.058,10.767,19.193,14.938,27.274c-3.075-6.696-6.881-14.004-9.686-19.354
							l1.449,2.104c2.993,6.146,5.021,9.845,7.81,15.962c-2.041-4.6-4.214-9.142-6.506-13.624c-3.137-6.348-0.812-2.224,1.777,2.726
							C1774.792,1097.965,1774.235,1096.854,1774.114,1096.523z"/>
						<polygon fill="#FFFFFF" points="1780.82,1104.615 1780.717,1104.381 1780.415,1103.812 						"/>
						<path vector-effect="non-scaling-stroke" stroke-width="2"  fill="#FFFFFF" d="M1419.157,1400.196l-1.103-0.735C1418.947,1400.109,1419.238,1400.289,1419.157,1400.196z"/>
						<path vector-effect="non-scaling-stroke" stroke-width="2"  fill="#FFFFFF" d="M1783.393,1113.419l-0.004-0.01C1783.433,1113.502,1783.442,1113.525,1783.393,1113.419z"/>
						<path vector-effect="non-scaling-stroke" stroke-width="2"  fill="#FFFFFF" d="M1446.332,1418.562l-0.164-0.065C1446.274,1418.549,1446.279,1418.541,1446.332,1418.562z"/>
						<path vector-effect="non-scaling-stroke" stroke-width="2"  fill="#FFFFFF" d="M1456.755,1417.633c-0.047-0.039-0.057-0.058-0.174-0.134
							C1455.972,1417.189,1456.257,1417.358,1456.755,1417.633z"/>
						<path vector-effect="non-scaling-stroke" stroke-width="2"  fill="#FFFFFF" d="M1446.366,1418.555c-0.004,0.008,0.011,0.024-0.034,0.01
							C1446.358,1418.568,1446.412,1418.59,1446.366,1418.555z"/>
						<path vector-effect="non-scaling-stroke" stroke-width="2"  fill="#FFFFFF" d="M1600.056,1446.968l-1.292,0.095C1598.464,1447.129,1598.771,1447.121,1600.056,1446.968z"/>
						<path vector-effect="non-scaling-stroke" stroke-width="2"  fill="#FFFFFF" d="M1568.803,1449.104l-0.572-0.022L1568.803,1449.104z"/>
						<path vector-effect="non-scaling-stroke" stroke-width="2"  fill="#FFFFFF" d="M1768.891,1339.983l-1.967,3.042C1767.543,1342.105,1768.198,1341.101,1768.891,1339.983z"/>
						<path vector-effect="non-scaling-stroke" stroke-width="2"  fill="#FFFFFF" d="M1446.168,1418.497c-0.299-0.142-0.718-0.354-1.403-0.71
							C1445.52,1418.183,1445.923,1418.385,1446.168,1418.497z"/>
						<polygon fill="#FFFFFF" points="1646.069,1434.621 1645.164,1434.939 1645.711,1434.78 						"/>
						<path vector-effect="non-scaling-stroke" stroke-width="2"  fill="#FFFFFF" d="M1661.498,1429.428c-0.508,0.228-0.735,0.349-1.017,0.486c2.699-1.08,6.53-2.606,9.794-4.021
							c3.266-1.404,5.959-2.696,6.476-3.088c-0.896,0.413-3.688,1.639-6.089,2.592c-2.399,0.957-4.396,1.674-3.621,1.267
							c-3.708,1.625-9.378,3.537-11.414,4.303c6.284-2.144,0.774,0.024-3.441,1.567c-3.891,1.23,0.653-0.459-2.69,0.607
							c-2.98,1.002-5.979,1.954-8.989,2.856c2.63-0.763,5.249-1.566,7.855-2.408l-2.291,1.031l0.792-0.278
							c6.592-2.227,6.883-2.289,7.237-2.296C1654.441,1432.005,1654.859,1432.038,1661.498,1429.428z"/>
						<path vector-effect="non-scaling-stroke" stroke-width="2"  fill="#FFFFFF" d="M1660.48,1429.914l-2.065,0.847C1659.645,1430.296,1660.114,1430.095,1660.48,1429.914z"/>
						<path vector-effect="non-scaling-stroke" stroke-width="2"  fill="#FFFFFF" d="M1711.254,1404.312l2.016-1.432L1711.254,1404.312z"/>
						<path vector-effect="non-scaling-stroke" stroke-width="2"  fill="#FFFFFF" d="M1355.192,1315.39c0.007,0.13,0.786,2.074,1.615,3.943c0.826,1.872,1.712,3.662,1.774,3.551
							c-1.03-2.182-2.027-4.396-2.986-6.642L1355.192,1315.39z"/>
						<path vector-effect="non-scaling-stroke" stroke-width="2"  fill="#FFFFFF" d="M1798.037,1279.971l-0.712,2.613l-0.108,0.517C1797.396,1282.578,1797.831,1280.848,1798.037,1279.971
							z"/>
						<path vector-effect="non-scaling-stroke" stroke-width="2"  fill="#FFFFFF" d="M1669.312,1425.607c-1.354,0.611-1.957,0.885-2.271,1.056
							C1667.924,1426.282,1668.732,1425.916,1669.312,1425.607z"/>
						<path vector-effect="non-scaling-stroke" stroke-width="2"  fill="#FFFFFF" d="M1798.66,1279.607c0.351-1.099,0.854-2.721,0.989-2.937c0.562-2.288,0.834-3.925,1.306-6.274
							C1800.408,1273.046,1799.676,1276.093,1798.66,1279.607z"/>
						<path vector-effect="non-scaling-stroke" stroke-width="2"  fill="#FFFFFF" d="M1800.993,1270.205l-0.038,0.191L1800.993,1270.205z"/>
						<path vector-effect="non-scaling-stroke" stroke-width="2"  fill="#FFFFFF" d="M1353.41,1310.896l-0.839-1.991l0.465,1.024c-0.67-1.744-1.312-3.486-1.931-5.241
							c-0.239-0.63-0.507-1.311-0.807-2.155c0.126,0.339,0.239,0.596,0.32,0.752l-0.569-1.697c-0.834-2.062-2.139-5.722-3.25-9.281
							c-1.121-3.556-2.057-7.006-2.488-8.548c-1.093-4.094-2.147-9.178-2.657-12.392c0.481,2.978,1.333,6.891,1.215,5.688
							c-0.533-3.013-0.808-5.271-1.181-8.07l-1.495-11.377c0.192,2.053,0.422,4.103,0.683,6.147
							c-0.743-4.58-1.315-9.192-1.715-13.826c-0.013-2.444,0.108-0.708,0.321,1.873c0.209,2.582,0.572,6.004,0.759,6.955
							c-1.319-10.771-0.597-19.799-0.841-24.807c0.299-0.697,0.638-1.871,1.138-8.929c-0.679,5.07,0.165-4.248-0.47-0.096
							c0.033-2.459,0.869-7.865,0.76-8.289l0.02,0.672l2.056-13.067c0.47-3.121,0.76-5.401,1.25-7.953
							c1.621-7.088,3.163-12.162,4.646-16.894c1.508-4.727,3.017-9.102,5.062-14.652c0.317-0.38,1.853-3.239,3.62-7.634
							c0.309-1.062,1.465-4.074,2.62-6.938c1.149-2.866,2.298-5.585,2.399-6.14c-3.614,7.683-2.625,6.433-4.548,11.13
							c-1.873,3.802-0.439,0.232-2.739,5.537c0.899-2.152,2.822-7.061,4.966-11.937c2.127-4.883,4.469-9.73,5.729-11.957
							l-0.758,1.638c1.866-3.625,3.166-5.687,4.732-8.365c1.578-2.674,3.4-5.979,6.614-11.95c1.035-1.893,2.089-3.776,3.162-5.649
							c-0.14,0.281-0.128,0.329-0.193,0.484c2.771-4.515,3.904-6.075,5.061-7.783c1.173-1.697,2.359-3.547,5.567-8.436
							c-0.496,0.756-0.148,0.307-0.652,1.072c3.89-5.407,7.619-11.003,10.646-15.035c2.069-2.289-0.27,0.714-1.275,2.336
							c7.109-9.308,15.067-19.142,19.812-24.688c1.738-1.826,3.496-3.634,5.274-5.421c-3.045,3.296-6.536,7.524-5.511,6.608
							c2.779-3.085,2.136-2.588,6.225-6.809c-0.586,0.827-2.19,2.702-3.926,4.854c4.231-4.346,4.64-4.895,4.709-5.137
							c0.08-0.231-0.152-0.138,2.994-2.997c2.689-2.701,4.132-4.396,4.305-4.817c1.71-1.548,3.436-3.078,5.176-4.589
							c0.389-0.707,6.676-6.487,10.942-10.109c0.452-0.524-3.59,2.736-5.11,4.225c0.186-0.421,4.612-4.414,7.575-6.85
							c0.69-0.267,5.512-4.276,9.903-7.638c4.38-3.377,8.277-6.156,6.612-4.597c6.891-5.144,15.46-10.947,23.689-15.918
							c8.215-4.996,16.065-9.169,21.12-11.767c3.41-1.562,10.354-4.726,6.297-2.604c6.281-2.908,11.074-5.045,15.91-7.062
							c4.839-2.004,9.722-3.896,16.292-5.942c1.097-0.31-5.908,1.946-5.386,1.966c4.222-1.55,8.138-2.744,12.674-4.001
							c4.541-1.245,9.701-2.569,16.495-4.137c-2.288,0.516-2.931,0.774-3.235,0.897c-0.26-0.035,5.525-1.449,9.059-2.198
							c1.997-0.35-2.639,0.581-1.51,0.423c13.226-2.532,25.016-4.02,36.846-4.752c11.827-0.699,23.719-0.651,37.067,0.76
							c-7.627-0.789-10.547-0.541-10.632-0.441c2.492,0.155,4.982,0.349,7.47,0.583c2.892,0.097,8.489,0.72,13.163,1.312
							c0.562,0.146,2.816,0.556,0.496,0.279c7.292,1.284,12.98,2.286,19.062,3.535c6.07,1.273,12.543,2.79,21.149,5.718
							c-7.031-2.105-14.146-3.9-21.318-5.366c1.745,0.488,3.484,0.994,5.216,1.523c-3.136-0.713-6.285-1.36-9.442-1.942
							c5.58,1.387,10.515,2.285,11.121,2.702c-1.188-0.256-4.022-0.993-4.145-0.885c5.323,1.451,5.782,1.414,9.786,2.512
							c-5.312-1.313-13.169-3.238-21.188-4.734c-8.012-1.524-16.175-2.603-21.906-3.111c-1.807-0.146,1.555,0.037,1.879,0.028
							c-4.674-0.478-7.474-0.896-13.388-1.145c-3.68,0.028,2.791,0.276,5.693,0.549c-0.414,0.155-1.873,0.019-5.112-0.139
							c-0.345-0.142-4.79-0.418-9.678-0.512c-4.888-0.113-10.212-0.008-12.309-0.071c-4.335,0.189-6.322,0.392-7.134,0.501
							c-0.812,0.114-0.447,0.164-0.072,0.207c0.377,0.043,0.765,0.08,0.004,0.168c-0.761,0.096-2.671,0.216-6.881,0.589
							c-1.686,0.067-3.369,0.152-5.055,0.257c-9.743,1.312-22.215,3.754-32.979,6.486l2.268-0.578
							c1.487-0.485-1.034,0.053-2.154,0.277c-8.182,1.956-15.28,4.566-20.184,5.948c-4.489,1.683-10.441,4.012-16.452,6.635
							c-6.015,2.611-12.085,5.512-16.949,8.011c-1.401,0.496,1.746-1.188,5.81-3.147c4.058-1.973,9.047-4.166,11.113-5.135
							c-3.071,1.273-6.119,2.604-9.145,3.984c5.614-2.549,7.814-3.595,11.159-5.192c-4.067,1.614-6.708,2.841-9.276,4.075
							c-2.564,1.247-5.061,2.502-8.764,4.362c0.538-0.369-0.493,0.042-3.909,1.764l-0.855,0.711
							c-0.071,0.017-0.458,0.188-1.512,0.72c-4.34,2.309-8.62,4.727-12.839,7.245c2.76-1.476,2.99-1.375,6.315-3.22
							c-1.256,0.537,1.543-1.072,4.915-2.844c-2.878,1.694,3.349-1.612,3.345-1.438c-6.81,3.44-14.926,8.145-19.146,10.824
							l-1.504,0.657c-6.232,3.756-12.53,8.167-16.587,10.973l1.203-0.993c-7.196,4.953-13.93,10.311-20.051,15.075
							c-5.868,5.134-13.022,11.845-17.417,16.446c-1.13,1.277-5.308,5.16-9.783,9.703c-4.491,4.527-9.259,9.729-11.967,13.185
							c-0.42,0.419,3.793-4.685,5.752-6.952c-3.979,4.276-6.715,8.045-8.132,9.238c8.649-9.839-0.661,0.359,3.146-4.151
							c-4.054,4.61-8.104,9.663-9.89,12.09c6.243-7.72-1.912,2.984,4.342-4.878c-4.793,6.139-11.192,14.602-16.558,22.158
							c-0.053-0.147-0.769,0.744-2.758,3.572l-1.396,2.421c-2.441,3.589,4.482-7.096-0.437,0.124
							c-2.357,3.83-6.024,9.517-9.141,14.803c-3.128,5.276-5.719,10.136-6.371,12.014c-1.702,2.97-0.249,0.057,1.04-2.456
							c1.296-2.509,2.39-4.639-0.229-0.184c2.651-5.404,7.114-12.403,7.907-14.24c-2.977,5.09-1.338,1.707-3.282,4.979
							c-1.057,1.923-2.093,3.856-3.108,5.801l0.725-1.263c-2.595,4.87-5.926,11.172-9.18,17.937
							c-3.266,6.759-6.436,13.985-8.983,20.548c-2.038,5.604-3.551,10.406-5.083,15.502c-1.509,5.097-3.071,10.507-4.833,17.388
							c0.43-2.057-0.353,0.791-0.945,3.076c-0.583,2.285-1.056,3.994-0.216-0.415c-1.688,6.384-2.549,12.854-2.437,12.999
							c1.042-5.701,0.368-2.005,1.354-6.785l-1.149,6.973l-1.074,6.849c0.199-1.431,0.099-0.89,0.091-1.212
							c-0.951,6.851-0.262,3.307-0.697,8.279c-0.179,0.777-0.435,3.523-0.601,6.648c-0.173,3.124-0.242,6.624-0.31,8.904
							c0.097,2.205,0.23,4.406,0.404,6.604c-0.149-1.812-0.144-0.229-0.072,1.938c0.065,2.166,0.234,4.912,0.177,5.438
							c0.509,4.719,1.119,8.646,2.164,15.773c-0.283-1.463-0.082,0.17,0.209,2.183c0.288,2.015,0.687,4.404,0.598,4.486
							c1.097,6.088,2.498,11.03,4.017,15.829c1.535,4.798,3.188,9.46,5.129,14.979c-0.176-0.32-1.148-2.48,0.021,0.737
							c1.017,2.498,2.805,6.869,4.022,9.485l-0.043-0.08l0.067,0.135c0.588,1.285,0.992,2.076,1.052,2.088
							c1.137,2.193,2.047,3.829,3.248,5.983c1.208,2.149,2.697,4.825,5.178,8.988c-0.068-0.37-1.146-2.312-2.369-4.578
							c-1.229-2.263-2.599-4.853-3.413-6.423l-1.55-2.651c-0.946-2.785-3.657-7.938-4.363-10.062
							c1.289,2.611,3.567,7.765,6.374,13.246c2.787,5.492,6.116,11.297,8.864,15.489c-1.455-2.689-3.846-6.906-6.367-11.823
							c-2.535-4.907-5.183-10.525-7.419-15.858c0.607,1.586,1.236,3.165,1.885,4.737c-0.825-1.844-1.622-3.698-2.39-5.565
							c0.661,1.841,1.352,3.673,2.067,5.496c-2.29-5.27-4.171-9.867-5.874-14.771c2.038,5.724,2.665,8.027,1.455,4.803
							c-1.089-3.214-1.692-4.87-2.264-6.332c-0.564-1.464-1.092-2.73-1.851-5.212c0.823,2.769,2.031,6.326,1.129,4.073
							c-1.462-4.907-2.312-8.04-3.095-11.071c-0.768-3.034-1.471-5.972-2.252-10.552c-0.083,0.605-0.688-2.234-1.237-5.411
							c-0.553-3.175-1.026-6.683-1.273-7.353c0.172,1.429,0.37,2.854,0.575,4.279c-0.543-3.007-1.024-6.024-1.418-9.059
							c-0.473-8.444,1.01,7.409,0.092-5.405c-0.399-5.909-0.524-8.793-0.676-11.361c-0.123-2.569-0.263-4.829-0.105-9.495
							c0.101,3.084,0.156,10.478,0.612,17.978c-0.052-1.516-0.08-3.031-0.095-4.549c0.107,1.2,0.261,4.395,0.546,7.927
							c0.274,3.532,0.696,7.4,1.038,9.97c-0.675-4.23-0.564-3.237-0.267-0.693c0.301,2.545,0.933,6.615,1.179,8.553
							c0.354,0.663-0.637-4.741,0.685,1.615c-0.558-2.988-0.831-4.709-1.116-6.637c-0.275-1.928-0.571-4.064-0.936-7.912
							c0.855,8.313,1.809,11.975,2.614,15.363l3.418,13.547c-1.818-6.454,0.255,2.351,0.418,3.151
							c0.873,3.04,2.934,9.113,3.916,11.562l-0.479-2.359c1.466,3.975,2.372,6.682,3.401,9.524
							c1.042,2.835,2.201,5.815,4.462,10.165c0.366,0.53-0.553-1.417-1.421-3.318c-0.872-1.901-1.688-3.761-1.323-2.959
							c2.781,6.092,4.771,10.187,6.693,14.114c1.942,3.917,3.831,7.667,6.896,12.792c0.454,0.512,0.534,0.299,2.969,3.685
							c-0.885-0.985,0.714,1.659-1.973-2.194c2.078,3.41,4.891,7.221,7.037,10.01c-4.754-6.807,2.191,2.607,3.278,3.695
							c2.604,3.417-0.979-0.896-2.585-3.002c1.997,2.812,4.305,6.227,5.779,7.558c-0.036,0.117-1.679-1.66-3.74-4.155
							c-2.072-2.488-4.537-5.715-6.379-8.344c0.811,1.194,1.632,2.379,2.466,3.557c-1.818-2.364-2.13-2.831-4.499-6.414
							c2.21,3.581,1.85,3.332,1.161,2.61c-0.285-0.475,0.215,0.227-0.058-0.228c-1.912-2.893-3.38-5.107-3.043-4.369
							c-1.941-2.461,2.457,4.145,3.725,6.13c1.033,1.448,2.083,2.885,3.131,4.278c3.812,4.663,7.808,9.16,11.982,13.467
							c5.163,5.683,7.426,8.295,11.431,12.461l1.309,0.929c4.784,4.666,9.538,8.827,6.104,6.233c-0.124-0.224-0.8-0.794-1.864-1.784
							c-0.165-0.104-0.43-0.312-0.753-0.586l-0.271-0.194c5.331,4.804,8.852,7.575,9.168,7.838c-9.51-7.62-0.768-0.039-2.599-1.026
							c3.167,2.627,6.407,5.166,9.71,7.617c-5.831-4.685,0.001-0.226,2.176,1.293c0.22,0.315,2.213,1.799,4.627,3.464
							c2.412,1.667,5.246,3.51,7.054,4.697l-0.295-0.132c3.295,2.28,9.303,5.923,13.708,8.276c-0.165-0.167,5.638,2.562,8.495,3.703
							c-7.538-4.016-2.987-1.776-3.53-2.215c0.771,0.426,2.18,1.161,2.359,1.216c1.115,0.498-1.432-0.841-1.604-1.03
							c-8.092-4.084-16.015-9.014-19.283-10.775c2.252,1.652,4.07,2.45,6.68,4.157c-3.962-2.142-8.854-5.286-14.979-9.688
							l-1.879-1.619c-2.061-1.468-4.096-2.969-6.105-4.504c1.28,0.934,1.579,1.062,2.349,1.562c0.771,0.495,1.998,1.38,5.227,3.699
							c-0.72-0.733-6.383-4.628-10.102-7.776l-2.097-1.372c0.807,0.526-7.079-6.275-1.325-1.618c3.105,2.536,6.284,4.985,9.52,7.353
							l-2.531-2.188c2.677,2.073,5.398,4.087,8.164,6.037l-2.025-1.286c6.678,4.69,7.671,5.37,8.603,6.169
							c0.966,0.741,1.883,1.605,9.006,5.726c4.605,2.325,9.39,5.093,18.415,9.563c-6.577-3.142-0.776-0.112-3.323-1.155
							c6.619,3.42,9.062,4.14,12.646,5.561c1.681,0.89,2.852,1.589-3.237-1.093c-0.455-0.003,1.549,0.88,3.737,1.788
							c2.188,0.914,4.559,1.845,4.771,2.131c5.131,2.032,8.811,3.225,11.772,4.117c2.966,0.884,5.225,1.444,7.595,2.03l8.298,2.033
							c3.447,0.84,7.856,1.944,14.146,3.287l-0.977-0.036c8.034,1.481,14.416,2.364,20.666,3.038
							c6.252,0.657,12.382,1.104,19.941,1.191c3.966,0.202,7.939,0.298,11.917,0.294c-2.659,0.183-9.838,0.492-6.485,0.659
							c-5.812-0.357-11.976-0.413-18.199-1.083c-0.646,0.057,1.89,0.313,2.995,0.438c-3.771-0.248-5.646-0.555-10.61-1
							c0.229,0.119,5.638,0.736,1.55,0.388c-2.244-0.306-4.48-0.645-6.714-1.015c-4.504-0.54-5.627-0.603-6.946-0.688
							c-1.315-0.104-2.837-0.226-8.068-1.291c1.989,0.176,6.023,0.616,10.109,1.178c-2.401-0.393-0.794-0.176,0.868,0.031
							c1.663,0.203,3.382,0.381,1.193,0.013c-3.489-0.345-6.059-0.751-8.899-1.27c-2.841-0.521-5.956-1.139-10.521-2.085
							c1.077,0.199,1.371,0.211,3.617,0.678c-4.398-0.987-8.768-2.104-13.099-3.349c1.59,0.527-1.122-0.138-4.067-0.948
							c-2.948-0.802-6.127-1.76-5.569-1.436c6.86,2.243,9.345,2.84,12.048,3.568c2.715,0.683,5.654,1.516,13.698,3.244
							c-4.583-0.832-10.491-1.968-13.285-2.443c-0.137-0.047-0.364-0.116-0.854-0.252c-2.508-0.386-0.043,0.349-0.211,0.795
							c7.394,1.566,12.258,2.969,21.068,4.302c1.691,0.026-5.035-1.168-9.366-2.049c2.567,0.483,5.142,0.924,7.721,1.32
							l-1.538-0.155c6.514,1.222,13.079,2.173,19.677,2.832c-3.752-0.355-5.038-0.372-7.007-0.498l7.759,1.005
							c-0.543-0.302-0.17-0.436,2.323-0.219c12.754,1.061,19.888,1.071,24.623,1.288l1.492-0.06
							c-1.078-0.101,1.195-0.261,4.225-0.522c3.03-0.259,6.812-0.649,8.772-0.957c-0.171,0.3,6.581-0.441,10.253-0.82
							c1.905-0.572-0.743-0.591-5.218-0.35c-4.271,0.597-5.476,0.729-6.104,0.877c-0.632,0.137-0.693,0.243-2.716,0.587
							c-4.605,0.412-9.228,0.687-13.854,0.819l3.098-0.293c-6.92,0.076-13.576,0.135-13.06-0.161
							c3.658-0.07,9.692,0.078,13.312-0.239c-1.523-0.004-3.048-0.015-4.57-0.048c4.027-0.183,5.06-0.168,6.308-0.11
							c1.247,0.032,2.713,0.114,7.58-0.294c-3.603-0.058,0.886-0.035,5.035-0.584c-1.678,0.062-5.957,0.405-9.463,0.542
							c-3.505,0.146-6.228,0.141-4.769-0.118c2.528-0.161,6.789-0.191,11.254-0.426c4.463-0.221,9.123-0.661,12.421-1.312
							l-0.319,0.092c4.91-0.601,8.202-1.201,10.719-1.717c2.517-0.522,4.258-0.962,6.056-1.409
							c4.177-0.678,9.718-2.193,14.209-3.396l-0.078,0.155c2.131-0.538,4.187-1.082,6.265-1.652
							c-1.46,0.511-3.267,0.982-5.439,1.486l-7.306,1.758l0.727,0.08c-6.265,1.188-10.341,2.431-15.185,3.487
							c3.532-0.708,8.526-1.662,12.806-2.67c2.14-0.5,4.104-0.999,5.625-1.434c1.536-0.444,2.645-0.806,3.03-1.02l4.409-0.857
							l2.042-0.633c3.247-0.71,0.089,0.529-6.203,2.143c-1.117,0.207-1.674,0.325-1.354,0.188c-2.915,0.855-5.491,1.765-12.604,3.2
							l3.752-0.937c-8.801,1.958-16.899,3.229-19.933,3.864c6.465-0.809,12.84-1.906,19.062-3.246
							c3.115-0.668,6.172-1.396,9.222-2.188c3.08-0.774,6.082-1.512,9.039-2.325c3.349-1.477,7.36-2.99,8.961-4.029
							c3.899-1.244,8.466-2.799,12.867-4.404c4.405-1.596,8.644-3.251,11.957-4.532l-0.564,0.344
							c3.224-1.279,6.135-2.598,8.529-3.762c3.381-1.412-2.164,1.295,0.186,0.296c3.525-1.689,7.018-3.446,10.453-5.3
							c-0.265,0.272-2.589,1.541-5.4,2.944c-2.811,1.408-6.115,2.933-8.259,3.883c0.804-0.372,2.413-1.145,1.879-0.938
							c-2.502,1.082-6.051,2.707-9.3,4.062c-3.245,1.364-6.179,2.484-7.354,2.738c-2.473,0.97,4.978-2.092-3.471,0.979
							c-5.717,1.887-7.506,2.72-8.069,3.024c-0.027,0.076,2.238-0.604,4.113-1.188c1.874-0.588,3.366-1.053,1.823-0.436
							c4.428-1.566,6.125-2.359,11.757-4.437c-4.306,1.756-10.165,4.147-12.585,4.741c-4.314,1.604-6.145,2.37-6.351,2.645
							c-0.21,0.262,1.196,0.002,3.271-0.662c-0.521,0.075,3.458-1.302,6.095-2.316c2.635-1.022,3.97-1.559-1.77,0.338
							c5.06-1.979,14.309-5.54,20.699-8.611l-0.272,0.176c2.672-1.209,5.321-2.465,7.948-3.767c-1.08,0.61-3.462,1.799-3.486,1.951
							c3.633-1.827,7.218-3.741,10.747-5.744c-5.961,3.391,3.858-1.792,6.588-3.311c1.039-0.815,5.058-3.349,1.063-1.148
							c-4.522,2.403-2.528,1.584-6.614,3.827c1.889-1.136,3.761-2.292,5.614-3.475l0.506-0.256l3.286-2.229
							c3.839-2.313,3.073-1.692,2.573-1.237c-0.514,0.435-0.736,0.734,4.048-2.463l-1.451,0.508
							c5.628-3.537,11.927-7.792,17.577-12.105c5.666-4.293,10.688-8.628,14.07-11.888c-1.768,1.905-2.403,2.918,0.364,0.645
							c-3,2.745-9.162,8.112-13.768,11.696c-0.911,0.651,5.493-4.797,10.235-8.977c-1.336,0.804-4.27,3.48-7.078,5.87
							c-2.801,2.396-5.46,4.52-5.933,4.51l-11.12,8.104c-2.189,1.583-4.115,3.037-10.082,6.401
							c-0.025,0.329-3.294,2.081-3.813,2.626c1.873-0.81,5.853-3.104,10.211-5.924c4.368-2.808,9.094-6.163,12.714-8.749
							c-0.688,0.536-2.089,1.592-2.338,1.833c5.204-3.667,7.231-5.354,10.633-8.216l-0.455,0.328
							c2.929-2.55,3.859-3.306,4.533-3.751c0.672-0.448,1.073-0.6,2.829-2.065c1.325-1.179,6.028-5.463,5.143-4.911
							c2.062-1.836,4.091-3.712,6.083-5.627l-0.491,0.077c3.239-3.358,4.074-3.982,6.778-7.243l-0.065-0.32
							c-2.591,2.86-5.261,5.648-8.003,8.363c4.033-4.259,0.994-1.315,5.362-6.043c-2.343,2.729-1.451,1.824,0.112,0.189
							c1.562-1.634,3.726-4.061,4.049-4.249c0.998-1.228,1.988-2.458,2.958-3.707l-0.723,0.976c2.482-2.773,2.759-3.466,5.452-6.867
							c-3.266,3.946-5.505,6.436-9.689,11.434c1.529-1.816,3.787-4.542,5.779-7.086c2.002-2.538,3.749-4.887,4.442-5.809
							c2.914-4.03,5.079-6.753,7.695-10.607c-2.447,3.738-1.87,3.188-1.919,3.566c-0.094,0.347-0.695,1.723-6.217,8.812
							c0.166-0.292,1.06-1.439,1.422-1.871c-0.854,0.855-2.484,2.993-4.244,5.271c-1.755,2.282-3.652,4.695-4.887,6.207
							c0.798-0.641-1.817,2.496,2.765-2.69c-1.558,1.652,3.469-4.695,7.481-9.902l-0.361,1.179c1.937-2.547,3.811-5.141,5.63-7.771
							l-0.493,0.751c2.283-2.817,5.658-8.54,9.079-14.196c1.141-2.098,3.92-7.155,5.733-10.935c1.824-3.772,2.838-6.172,0.955-2.712
							c2.805-5.229,4.596-10.139,6.877-16.176c-1.02,2.482-2.084,4.947-3.193,7.391c1.729-4.434,2.291-6.029,2.777-7.4
							c0.476-1.375,0.859-2.534,1.912-6.189c0.358-0.688,1.006-2.257,0.609-0.76c2.122-6.021,4.385-13.445,6.04-20.347
							c1.679-6.896,2.783-13.243,3.222-16.966l1.67-10.027c0.454-3.025,0.943-6.516,1.277-12.832
							c0.088-2.663-0.463,2.048,0.064-6.302c0.062-0.562-0.056,8.067,0.321-1.252c-0.066-6.637,0.39-15.609-0.445-24.229
							c-0.13-4.565-1.005-12.44-0.593-10.825c0.358,3.601,0.722,7.955,0.954,11.605c0.243,3.651,0.375,6.601,0.458,7.379
							c-0.176-0.993-0.012,5.146-0.271-0.179c0.06,5.466,0.056,7.236,0.107,8.869c0.027,1.634,0.101,3.128-0.134,8.025
							c0.089,0.682,0.447-5.032,0.353-7.14c0.18-0.021,0.17,4.82,0.044,8.575c-0.122,3.753-0.241,6.427,0.218,2.075
							c0.276-5.249,0.151-8.662,0.038-11.891c-0.126-3.229-0.244-6.276-0.238-10.828c0.366,3.639,0.289,9.345,0.562,13.985
							c0.087-2.495,0.136-4.99,0.146-7.488c-0.107-1.812-0.237-3.62-0.386-5.428l0.062,0.321c-0.091-6.613-0.448-9.663-0.827-12.521
							l-1.669-11.384c0.603,6.814-0.773-1.493-0.305,3.623c-0.949-7.815-1.938-13.515-1.596-13.627
							c1.331,7.257,1.369,7.468,1.499,7.519c0.088,0.06,0.255-0.037,1.229,6.73c-0.148-2.244,0.911,3.182-0.056-4.927
							c-1.531-9.071,0.138,2.755-1.317-6.295c-0.055-0.539-0.111-1.101-0.012-0.792c-0.861-4.128-0.736-4.866-1.906-9.835
							l0.303,1.173c-1.036-6.21-1.616-6.688-2.643-12.005c0.266,2.163-1.05-3.484-2.1-6.675c0.669,2.657,1.08,4.731,1.636,7.453
							l2.3,11.384c0.438,1.243,0.428,0.44,1.308,4.794c-0.413-2.307-0.857-4.605-1.331-6.899l0.901,3.963
							c0.378,2.22,0.729,4.441,1.052,6.668c-0.756-4.212-1.086-5.328-1.271-5.846c-0.193-0.516-0.286-0.426-0.729-2.188
							c-1.454-7.678-1.354-6.303-2.386-11.106c0.201,0.207-0.527-3.494-1.72-8.312c-1.181-4.819-2.889-10.734-4.244-15.04
							l1.29,3.983c2.155,6.194-1.119-4.379-1.171-4.62l-1.711-4.467c0.322,0.84,0.805,1.989,0.16,0.055
							c-2.275-6.061-2.412-5.606-4.87-11.574c-0.026-0.516,2.246,4.462,0.822,0.701c-0.403-1.326-1.655-5.604-5.417-13.347
							c-0.312-0.526-1.294-2.528-2.459-4.836l0.451,0.86c-0.782-1.735-1.578-3.468-2.398-5.188
							c2.477,4.209,4.268,8.875,6.521,13.226l0.412,0.271l4.655,10.389c-2.141-5.412-2.674-6.521-5.389-12.436
							c-0.218-0.903,1.774,3.229,2.051,3.832l-0.53-0.828c1.466,3.597,2.632,6.252,3.878,9.137
							c1.239,2.886,2.558,6.003,4.145,10.573c0.471,1.382,0.159,0.547,0.004,0.257c2.835,7.312,4.726,14.771,6.95,22.056
							l-0.768-2.365c1.473,4.97,4.115,14.772,6.009,24.754l0.115,0.062c-0.123-1.123,0.506,2.639,0.754,4.67l-0.003-0.011
							c0.875,5.02,1.548,9.872,2.009,13.855c-0.058-1.282-0.164-2.921-0.362-4.793c-0.146-0.786-0.473-3.503-0.817-5.854
							c-0.341-2.352-0.693-4.337-0.734-3.683c-0.449-4.299-1.938-11.099-2.5-14.215c0.98,5.688-1.05-3.889-1.466-4.827
							c-0.23-1.938-2.013-8.302-1.613-7.624c-0.224-1.117,0.558,2.779,1.249,5.137c0.791,2.918,0.225,0.21-0.347-2.309
							c-0.573-2.518-1.131-4.852-0.102-1.225c-1.238-4.631-2.744-9.978-4.448-15.303c-1.697-5.325-3.592-10.628-5.446-15.206
							c0.623,1.734,1.232,3.474,1.818,5.221c-0.717-2.073-2.003-5.538-3.19-8.556c-1.186-3.02-2.256-5.598-2.355-5.977
							c1.294,2.995,2.717,6.533,4.225,10.428c0.16,0.049-0.719-2.303-1.685-4.708c-0.96-2.409-2.021-4.866-2.032-5.112
							c-1.696-3.675-3.47-7.311-5.32-10.9c0.748,1.603,1.481,3.211,2.199,4.827c-0.751-1.494-2.238-4.78-4.062-8.584
							c-1.82-3.805-3.993-8.118-5.961-11.729c2.593,3.964,5.864,10.939,9.568,18.76c2.705,5.683-1.275-3.688,1.246,1.709
							c-0.548-1.447-2.181-4.979-3.098-6.668l-0.963-2.146c1.314,2.315,3.222,6.188,5.134,10.42
							c1.914,4.229,3.833,8.816,5.371,12.485c-0.282-0.64-0.532-1.194-0.648-1.387c2.089,5.754,4.135,11.62,5.994,17.291
							c-0.845-3.043-1.314-4.205-1.921-5.904c0.017-0.241,1.813,5.099,2.505,7.117c-1.566-5.331-0.113-1.051-1.134-4.416
							c1.188,3.421,2.03,6.233,3.197,10.489c0.5,2.234-0.678-1.775-0.709-1.28c1.321,4.346,1.515,6.441,3.238,12.854
							c-2.009-8.604,0.935,2.168,1.625,5.144l-0.302-1.452c0.787,2.7,1.263,5.04,1.456,6.979c-0.75-3.545-1.458-6.978-1.427-5.931
							l1.546,7.321l-0.6-2.392c0.772,3.884,1.46,7.784,2.059,11.699c0.451,1.834,1.112,4.919,1.562,6.527
							c0.201,2.854,0.744,6.795,1.031,9.492l-0.184-1.249l0.699,10.542c0.22,3.696,0.354,6.864,0.438,7.355
							c-0.021,1.878-0.396-4.754-0.838-8.515c-0.209-1.882-0.383-3.051-0.381-2.102c-0.016,0.951,0.206,4.019,0.396,10.634
							c0.095,5.028,0.172,6.597,0.311,7.627c0.129,1.028,0.296,1.52,0.309,4.399c0,0-0.041-0.326-0.086,0.244
							c-0.178,4.41-0.021,4.86-0.154,8.491c0.247-2.639,0.404-6.479,0.363-7.717c0.195,1.339-0.4,9.194-0.563,12.579
							c0.016-2.204-0.167-0.075-0.385,2.173c-0.215,2.247-0.466,4.614-0.364,2.911c-1.063,8.72-2.426,18.011-3.143,22.584
							c-1.601,5.758-2.097,10.266-4.953,19.533c0.438-1.424,1.111-4.041,1.682-6.043c0.577-2.702-0.077-0.279-0.669,1.771
							c-0.598,2.051-1.101,3.739-0.072-0.38c-0.447,1.76,0.103,0.162,0.537-1.65c0.809-3.153,1.391-6.167,1.095-5.396
							c-0.679,2.537-1.4,5.062-2.165,7.57l0.654-2.668c-1.107,3.824-2.31,7.618-3.613,11.375c-0.053,0.323,0.351-0.723,0.547-1.263
							c-2.121,6.586-4.643,13.564-7.432,20.204c-2.783,6.643-5.814,12.95-8.712,18.277c-0.229,1.166-3.698,7.805-8.251,14.896
							c-4.501,7.127-10.153,14.608-13.104,18.546c1.501-2.18,2.095-3.537,0.979-2.346c1.337-1.732,3.849-5.439,6.742-9.454
							c0.567-0.564,4.104-5.564,1.998-2.232c7.51-11.462-1.26,1.39,0.757-2.13c-4.189,6.312-7.739,11.168-10.97,15.394
							c-3.239,4.218-6.176,7.796-9.374,11.369l-0.226,0.121c-1.605,1.802-3.242,3.577-4.909,5.324
							c2.101-2.084,3.144-3.034,3.011-2.764c-0.141,0.262-1.451,1.756-4.217,4.393l0.646-0.669l-6.692,6.306
							c-2.687,2.487-5.659,5.116-8.297,7.267c-1.136,1.039-2.288,2.062-3.447,3.077c-5.396,4.175-5.934,3.945-7.858,5.056
							c-4.324,3.111-7.78,5.502-10.938,7.654c-3.157,2.149-6.028,4.041-9.261,6.026c-1.528,0.78-5.792,3.099-8.812,4.582
							c-3.017,1.491-4.723,2.269-1.007,0.251c-4.237,2.264-5.849,3.339-8.277,4.713c-2.438,1.342-5.689,3.035-13.445,5.884
							l3.894-1.795c-7.256,3.093-16.208,6.492-24.309,9.085c-8.083,2.615-15.321,4.492-18.829,5.247
							c1.357-0.499,0.843-0.503-0.734-0.212l-7.179,1.5c-5.876,1.219-12.866,2.298-14.297,2.202
							c0.795,0.027-5.031,1.013-5.878,1.187c-1.293,0.114-3.438,0.328-5.694,0.728c3.054-0.308,2.004-0.02,1.643,0.146
							c-0.365,0.146-0.028,0.235,5.769-0.734c-2.907,0.655-6.26,1.303-10.519,1.889c-4.261,0.574-9.43,1.099-15.96,1.327
							l0.187-0.271c3.441-0.099,6.881-0.282,10.316-0.529c-1.056-0.103,4.241-0.532,6.396-0.879c-4.775,0.475-7.02,0.558-7.99,0.573
							c-0.973,0.009-0.679-0.088-0.396-0.172c0.281-0.089,0.549-0.165-0.474-0.135l-8.226,0.383
							c-1.885,0.225-0.662,0.15-5.751,0.304c2.396-0.047,2.82-0.224-1.035-0.184l-3.704,0.208c-3.418-0.268-0.584-0.281,2.366-0.338
							c2.953-0.06,6.026-0.177,3.112-0.274c3.771-0.15,8.917-0.437,12.803-0.815c3.887-0.361,6.515-0.756,5.289-0.803
							c-6.125,0.484-8.877,0.746-11.705,1.034c-2.827,0.258-5.735,0.542-12.175,0.421l-1.369-0.16
							c-4.526,0.008-5.267,0.188-7.753,0.22c-0.22-0.097-1.368-0.199-4.271-0.414c-7.66-0.203-12.729-0.715-19.783-1.39
							c9.343,1.241,13.356,1.571,17.439,1.991c4.087,0.349,8.264,0.78,17.996,0.711c-1.524,0.062-5.714,0.069-9.627-0.02
							c-3.914-0.077-7.553-0.238-7.987-0.093l0.201-0.248c-6.324-0.341-12.651-0.889-20.501-2.239
							c1.606,0.215,3.216,0.402,4.825,0.586c-5.234-0.653-9.537-1.526-13.544-2.403c-4.01-0.878-7.728-1.764-11.812-2.577
							c2.843,0.751,5.169,1.281,6.948,1.638c-5.326-1.058-11.921-2.804-17.547-4.581c-3.937-1.046-7.846-2.201-11.729-3.448
							c0.134-0.059-7.104-2.812-3.536-1.684c-8.127-3.351-12.046-4.729-16.693-6.805c-4.008-2.065-2.235-1.243,0.665,0.077
							c2.901,1.317,6.979,3.028,7.46,3.023c-5.68-2.479-11.441-5.227-16.522-7.823c-5.084-2.593-9.489-5.032-12.555-6.729
							c2.146,1.344,3.192,1.988,3.048,1.981c-0.288-0.253-4.61-2.767-6.965-4.263l-1.713-0.879
							c-3.844-2.614-3.233-2.342,0.153-0.312c-3.727-2.403-8.294-5.104-11.849-7.996c3.123,2.146,6.678,4.575,9.904,6.679
							c3.228,2.104,6.126,3.883,7.854,4.835c-6.823-4.005-10.045-6.368-13.688-9.021c-3.609-2.7-7.681-5.662-15.494-11.929
							c-0.138-0.219,2.579,1.812-0.393-0.645c-6.85-5.735-2.01-1.241-4.257-2.912c5.28,4.431,7.747,6.475,10.774,9.103l-1.54-1.02
							c-0.185-0.218-3.568-2.925-4.502-3.799l-1.04-0.494c0.588,0.094-4.581-4.519-8.637-8.149c3.91,3.88,2.838,2.853,3.716,4.12
							c-2.989-2.412-4.52-3.954-6.123-5.577c-1.599-1.632-3.273-3.341-6.414-6.286c0.51,0.406,5.887,5.644,1.349,1.01
							c-3.746-3.844-3.408-3.178-5.928-5.758c2.959,2.789,2.38,1.906,5.659,4.836c3.358,3.373,4.079,4.008,4.75,4.656
							c0.688,0.63,1.331,1.27,4.807,4.358c-1.896-1.815-3.759-3.663-5.588-5.541c5.855,5.527,4.474,3.784,5.012,4.179
							c-4.95-4.754-6.8-6.558-8.288-7.863c-1.469-1.324-2.544-2.187-5.525-5.453c-1.503-1.516-0.119,0.027,1.082,1.329
							c1.207,1.296,2.207,2.376-0.148,0.009c-2.798-3.05-3.124-3.393-3.573-3.794c-0.435-0.415-1.012-0.873-4.063-4.387l1.101,1.109
							c-1.73-2.26-3.662-4.308-5.724-6.876c-1.146-1.401-0.692-0.455-1.103-0.621c-0.391-0.183-1.742-1.412-6.106-7.483
							c0.481,0.557,0.681,0.745,0.703,0.729c3.422,3.524,6.949,6.913,10.567,10.162c-9.543-11.538-19.171-26.025-26.554-41.728
							c-0.687-1.936,0.705,0.828,2.336,3.886c1.622,3.062,3.518,6.402,3.348,5.892c1.25,2.312,2.543,4.603,3.88,6.867
							c-0.192-0.142-2.342-3.674-3.905-6.453c-1.572-2.771-2.656-4.74-1.111-1.519c3.407,6.09,6.071,10.409,8.808,14.571
							c2.751,4.148,5.587,8.146,9.776,13.265c-1.092-1.752-3.737-5.202-6.561-9.224c-2.83-4.012-5.812-8.609-7.853-12.396
							c1.819,3.115,3.484,5.668,5.16,8.103c-4.386-6.765-8.688-14.263-12.655-22.523l-0.989-1.811
							c2.621,5.599,4.673,9.355,4.917,9.851c-3.908-7.205-6.91-13.442-7.426-13.812l0.591,1.335l-1.303-2.672
							C1354.841,1314.467,1354.11,1312.682,1353.41,1310.896z M1649.723,962.953c-0.5-0.014-0.895-0.013-1.188,0.005
							C1648.839,962.938,1648.506,962.879,1649.723,962.953z M1462.725,1423.671c-9.798-4.809-19.297-10.406-27.973-16.28
							c7.67,5.544,14.598,9.718,16.028,10.736c0.72,0.506,0.056,0.244-2.497-1.152c-2.544-1.407-6.994-3.935-13.594-8.326
							l-1.747-1.122c3.375,2.405,9.385,6.297,15.253,9.585c2.409,1.271,7.567,3.818,12.186,5.839
							c4.608,2.04,8.648,3.597,8.575,3.524c-1.676-0.946-4.295-1.944-7.4-3.535L1462.725,1423.671z M1469.331,1427.901
							c5.661,2.562,4.435,1.835,5.364,2.105c-2.022-0.827-4.029-1.681-6.003-2.553
							C1469.432,1427.825,1469.788,1428.025,1469.331,1427.901z M1474.4,1429.751c-0.644-0.271-1.187-0.513-1.468-0.649
							L1474.4,1429.751z M1380.059,1356.835l0.391,0.504c-0.877-1.173-1.742-2.358-2.635-3.603
							C1378.148,1354.229,1378.797,1355.155,1380.059,1356.835z M1387.686,1366.857l1.13,0.972l-2.681-3.215
							C1386.358,1365.04,1386.598,1365.48,1387.686,1366.857z M1416.084,1395.758c1.074,0.71,3.286,2.4,5.337,3.882
							c2.047,1.485,3.925,2.77,4.229,2.798c0.486,0.257-0.948-0.829-2.538-2.072c-1.789-1.368-3.679-2.856-5.653-4.469
							c-0.099-0.02-0.517-0.309-1.198-0.812c1.923,1.628,3.2,2.729,2.279,2.244c-2.399-2.19-3.554-3.067-4.79-3.957
							c-1.23-0.896-2.55-1.796-5.132-4.173c-0.904-0.665,0.504,0.689,2.381,2.341
							C1412.872,1393.193,1415.229,1395.123,1416.084,1395.758z M1806.216,1213.216c0.024-0.199,0.073-0.884,0.134-1.846
							c0.103,1.641,0.192,3.284,0.264,4.928c0.021,8.812-0.722,15.825-0.981,23.74c-0.417,3.685-0.847,5.634-1.229,7.493l0.57-4.883
							c0.38-5.529,0.522-9.017,0.667-11.412c0.141-2.396,0.256-3.704,0.379-4.881c0.117-1.176,0.236-2.22,0.307-4.091
							C1806.393,1220.395,1806.415,1217.693,1806.216,1213.216z M1787.062,1311.521c0.34-0.839,0.42-1.157,0.42-1.157
							c-7.168,18.27-15.871,32.098-22.059,40.664c0.695-0.767,2.451-3.065,4.301-5.683c1.849-2.614,3.776-5.551,4.987-7.462
							l-1.894,3.546l-1.525,1.997c-1.2,1.987-2.433,3.957-3.697,5.907c1.273-1.488,4.393-6.18,6.474-9.321
							c0.066-0.149,1.63-2.827,3.28-5.886c1.653-3.058,3.38-6.502,4.08-8.033c-1.541,2.811-3.138,5.589-4.804,8.324
							c0.684-1.104,2.606-4.423,4.511-8.101c1.924-3.671,3.821-7.694,4.842-10.005c-0.039-0.072-1.009,1.849-2.044,3.9
							c-1.031,2.055-2.13,4.241-2.257,4.793c-0.608,0.848,3.85-8.126,0.842-2.546c1.594-3.397,3.654-7.797,5.484-12.033
							c1.843-4.229,3.463-8.289,4.454-10.877l0.625-0.771c1.086-2.845,1.311-3.856,1.6-4.994c0.275-1.144,0.629-2.407,1.771-5.836
							c-2.602,8.499,0.823-1.319-1.316,5.426c0.803-2.116,0.395,0.081,2.438-6.723c1.225-5.794,2.296-7.141,3.236-12.666
							c0.962-3.611-0.638,3.98,1.043-3.18c0.781-4.146,1.036-6.118,1.115-7.116c0.077-0.999-0.04-1.029-0.147-1.314
							c-0.749,3.86-1.113,6.039-1.438,8.048c-0.334,2.006-0.64,3.839-1.452,6.956c0.863-4.187,1.605-8.393,2.233-12.608
							c-0.517,2.299-0.891,4-1.174,5.436c0.514-2.516,0.856-4.672,1.091-6.524l0.369-2.928c-1.233,7.126-2.741,13.373-3.142,14.441
							l0.083-1.004c-0.715,2.457-1.652,6.515-2.069,8.394c-1.692,6.241-3.58,12.433-4.239,13.699l0.662-2.368
							c-1.252,3.773-2.005,5.853-2.865,8.162C1790.011,1304.383,1789.042,1306.928,1787.062,1311.521z M1579.64,1446.83
							c2.417,0.123,4.966,0.229,9.708-0.07c4.734-0.33,11.695-0.979,22.743-3.227l-1.731,0.383c5.611-0.9,10.99-2.299,16.609-3.874
							c5.646-1.503,11.548-3.219,18.195-5.103l-13.034,4.459c2.312-0.661,4.612-1.352,6.904-2.072
							c-1.835,0.848,5.04-1.274,10.062-2.941l-4.339,1.771c-3.058,0.883-10.998,3.07-10.751,3.06
							c0.864-0.259-1.785,0.364-5.498,1.195c-1.855,0.392-3.949,0.907-6.025,1.396l-5.776,1.354
							c0.373,0.045,4.103-0.759,6.939-1.429c2.826-0.673,4.782-1.08,1.702-0.096c5.477-1.545,6.26-1.467,11.998-3.151
							c-5.492,1.689-1.276,0.714-5.365,1.991c3.163-0.857,6.312-1.768,9.447-2.729c0.137,0.007-3.286,1.063-5.781,1.823
							c-2.494,0.752-4.047,1.276-0.112,0.365l8.379-2.504c3.011-0.93,5.548-1.802,5.597-1.953l0.256,0.001
							c3.511-1.141,4.241-1.512,5.18-1.926c0.934-0.425,2.08-0.872,6.343-2.405c0.051-0.165-1.59,0.378-4.63,1.505
							c-2.564,0.967-2.89,1.315-8.244,3.117c-2.466,0.604,6.475-2.121,2.644-1.215c-0.947,0.234-4.474,1.434-7.307,2.309
							c-2.831,0.88-4.956,1.47-3.031,0.702c2.354-0.674,4.699-1.384,7.037-2.116c0.104-0.299,5.151-1.968,4.937-2.136
							c4.209-1.55,8.285-2.75,12.462-4.663c1.692-0.887-1.48,0.12,5.559-2.677c2.8-0.978,8.181-3.276,13.488-5.907
							c5.319-2.609,10.555-5.553,13.364-7.225c1.625-1.002,3.232-2.029,4.832-3.07c-0.247,0.062-2.581,1.482-4.493,2.593
							c-1.912,1.112-3.396,1.927-1.849,0.936c2.57-1.489,5.113-3.026,7.625-4.612l-0.531,0.446c2.525-1.532,5.007-3.263,7.21-4.812
							c-2.184,1.729-7.671,5.079-6.447,4.628c3.573-2.187,4.168-2.447,7.344-4.638c-0.687,0.486-1.276,0.908-1.166,0.883
							c7.099-4.662,6.546-4.938,8.226-6.237c3.312-2.687,1.548-1.457-0.974,0.298c-2.522,1.753-5.855,3.958-5.49,3.53
							c6.796-4.71,13.332-9.792,19.556-15.229c-1.543,1.452-3.13,2.883-2.442,2.457c2.372-1.908,2.419-1.907,2.707-2.099
							c0.276-0.203,0.803-0.59,3.979-3.457c-0.354,0.062,1.614-1.771,4.129-4.237c2.522-2.455,5.562-5.57,7.548-7.844
							c2.023-1.965,2.479-2.337-1.773,2.13c0.335-0.167,1.924-1.76,3.646-3.612c1.724-1.852,3.567-3.97,4.534-5.08
							c1.072-1.329,2.917-3.582,4.031-5.052c-1.671,1.826-1.074,0.944,2.149-3.31l0.15-0.276c-2.708,3.437-6.337,7.686-9.84,11.494
							c-3.493,3.818-6.844,7.207-8.712,9.216l1.015-1.177c-3.648,3.503-7.611,7.319-11.213,10.531
							c-3.6,3.214-6.82,5.831-8.804,7.079c0.23-0.404-1.633,1.211-1.655,0.891c-1.929,1.56-3.884,3.088-5.865,4.585l1.188-1.001
							c-3.407,2.489-6.887,4.882-10.432,7.174l0.256-0.223c-4.936,3.453-8.927,5.99-12.143,7.973
							c0.044,0.107,0.405-0.052-1.314,0.998c-1.744,1.021-3.094,1.749-4.312,2.369c-0.01,0.005-0.01,0.005-0.009,0.006l-0.001-0.001
							c-2.781,1.408-4.707,2.203-8.195,3.8c3.549-1.699,7.051-3.495,10.514-5.361c0.745-0.646-0.206-0.285-5.404,2.219
							c2.1-1.076,2.901-1.672,0.298-0.354c-0.245,0.223-6.859,3.53-4.262,2.433c-5.018,2.479-11.753,5.388-19.284,8.229
							c-7.532,2.844-15.857,5.616-23.978,8.129c11.649-3.644-9.456,2.495,3.518-1.391c-4.57,1.201-6.514,1.795-8.469,2.441
							c-1.96,0.643-3.932,1.287-8.635,2.444c-0.831,0.075,5.12-1.257,7.196-2.043c-15.539,3.97-26.193,6.892-41.656,8.487
							l-0.685-0.175C1586.264,1446.277,1583.021,1446.592,1579.64,1446.83z M1548.974,1446.997c-2.98-0.185-6.003-0.427-9.067-0.731
							l0.888,0.103c-2.983-0.249-5.964-0.556-8.938-0.921c2.727,0.442,4.989,0.808,5.608,0.978c0.619,0.162-0.412,0.166-4.258-0.294
							c0.659-0.011-1.564-0.44,1.108-0.134c-2.562-0.412-6.642-1.103-9.709-1.663c-3.067-0.553-5.139-0.918-3.719-0.451
							c4.926,0.76,5.484,0.923,5.771,1.114c0.289,0.173,0.311,0.343,4.204,0.806c-4.196-0.385-8.288-1.214-12.203-1.901
							c4.101,0.593-0.874-0.564-6.891-2.07c-2.648-0.531-9.711-2.418-14.026-3.649c1.476,0.656-2.329-0.281,4.697,1.787
							c-2.604-0.662-6.616-1.78-11.004-3.356c1.765,0.549,4.854,1.484,4.667,1.336c-2.812-1.075-6.146-2.187-7.948-2.909
							c-1.468-0.493-2.938-1.015-4.367-1.527c0.418,0.177,0.779,0.333,1.031,0.46c-1.635-0.522-3.262-1.067-4.885-1.629
							c6.441,2.343,2.929,1.22,2.794,1.32c0.263-0.171-4.115-1.594-6.29-2.487c1.539,0.729,3.088,1.44,4.646,2.134
							c-2.37-0.724-8.01-3.436-6.922-2.69c4.979,2.136,8.491,3.467,11.905,4.68c3.414,1.207,6.736,2.293,11.438,3.673l-3.735-1.383
							c5.291,1.588,6.915,2.099,8.688,2.721c1.777,0.593,3.706,1.302,9.75,2.722c2.534,0.494,7.098,1.469,11.092,2.158
							c3.992,0.698,7.404,1.142,7.559,0.965c-0.776-0.057,1.116,0.326,3.744,0.727c2.626,0.402,5.989,0.791,8.113,0.902
							c2.354,0.057,7.069,0.334,10.664,0.426c3.596,0.102,6.066,0.103,3.923-0.046c-3.825-0.119-8.987-0.259-12.034-0.766
							c2.469,0.188,4.939,0.336,7.412,0.444c-1.617-0.157-3.232-0.321-4.847-0.513
							C1550.338,1447.58,1550.105,1447.359,1548.974,1446.997z M1402.574,1378.694l-0.197-0.204l0.222,0.224L1402.574,1378.694z"/>
						<path vector-effect="non-scaling-stroke" stroke-width="2"  fill="#FFFFFF" d="M1780.189,1107.424c-0.966-1.896-3.271-6.625-2.994-5.612
							C1777.37,1101.584,1781.282,1110.271,1780.189,1107.424z"/>
						<path vector-effect="non-scaling-stroke" stroke-width="2"  fill="#FFFFFF" d="M1777.653,1101.66c-0.214-0.309-0.161-0.047-1.232-2.152c0.996,1.926,1.966,3.864,2.914,5.814
							L1777.653,1101.66z"/>
						<path vector-effect="non-scaling-stroke" stroke-width="2"  fill="#FFFFFF" d="M1775.947,1095.102c-1.715-2.908-2.793-4.752-5.4-9.354c-0.271-0.989,0.85,0.864,2.198,3.223
							c1.353,2.355,2.907,5.227,3.675,6.182c-2.234-4.314-3.884-7.033-5.447-9.545l-5.188-8.187l5.723,10.056
							C1773.744,1091.453,1775.708,1095.062,1775.947,1095.102z"/>
						<path vector-effect="non-scaling-stroke" stroke-width="2"  fill="#FFFFFF" d="M1778.506,1098.639c-0.846-1.594-1.711-3.176-2.587-4.751l0.223,0.485
							c0.871,1.579,1.736,3.162,2.578,4.759L1778.506,1098.639z"/>
						<path vector-effect="non-scaling-stroke" stroke-width="2"  fill="#FFFFFF" d="M1803.146,1211.331c-0.146,0.484,0.104,3.789,0.153,5.566
							C1803.294,1215.453,1803.306,1213.43,1803.146,1211.331z"/>
						<path vector-effect="non-scaling-stroke" stroke-width="2"  fill="#FFFFFF" d="M1532.531,984.562c12.502-5.159,25.383-9.399,38.52-12.602c-5.668,1.385-11.082,2.878-17.201,4.812
							C1547.735,978.722,1540.906,981.104,1532.531,984.562z"/>
						<path vector-effect="non-scaling-stroke" stroke-width="2"  fill="#FFFFFF" d="M1770.418,1339.966c2.851-4.658,4.726-8.129,6.548-11.649c1.813-3.524,3.581-7.101,5.909-12.14
							c-3.254,6.534-5.446,10.82-7.558,14.83c-2.137,3.993-4.212,7.706-7.739,12.728
							C1768.535,1342.487,1769.488,1341.235,1770.418,1339.966z"/>
						<path vector-effect="non-scaling-stroke" stroke-width="2"  fill="#FFFFFF" d="M1771.344,1336.021c0.599-0.689-0.406,1.149-1.473,2.989c-1.063,1.841-2.196,3.675-1.666,3.078
							c1.968-3.095,2.335-3.872,2.693-4.554c0.35-0.688,0.683-1.285,2.385-4.139L1771.344,1336.021z"/>
						<polygon fill="#FFFFFF" points="1796.615,1292.976 1795.696,1296.223 1796.506,1293.631 						"/>
						<path vector-effect="non-scaling-stroke" stroke-width="2"  fill="#FFFFFF" d="M1741.045,1375.003l0.798-0.899c-1.299,1.27-2.614,2.521-3.946,3.754
							C1738.956,1376.918,1740.004,1375.965,1741.045,1375.003z"/>
						<path vector-effect="non-scaling-stroke" stroke-width="2"  fill="#FFFFFF" d="M1742.635,1373.198l-0.792,0.903L1742.635,1373.198z"/>
						<path vector-effect="non-scaling-stroke" stroke-width="2"  fill="#FFFFFF" d="M1795.852,1297.293c0.572-1.573,1.122-3.154,1.659-4.741l0.616-2.41
							C1797.408,1292.537,1796.649,1294.922,1795.852,1297.293z"/>
						<path vector-effect="non-scaling-stroke" stroke-width="2"  fill="#FFFFFF" d="M1775.76,1336.582c0.736-1.292,1.453-2.595,2.162-3.901
							C1777.523,1333.473,1774.295,1338.649,1775.76,1336.582z"/>
						<path vector-effect="non-scaling-stroke" stroke-width="2"  fill="#FFFFFF" d="M1715.689,1396.504c-1.416,1.075-2.839,2.145-4.279,3.186l0.465-0.286
							c1.433-1.044,2.852-2.106,4.257-3.188L1715.689,1396.504z"/>
						<path vector-effect="non-scaling-stroke" stroke-width="2"  fill="#FFFFFF" d="M1756.113,1365.497c1.088-1.106-0.334,0.618-1.525,2.002c-1.191,1.382-2.124,2.452,0.057,0.126
							C1758.308,1363.296,1756.708,1364.959,1756.113,1365.497z"/>
						<path vector-effect="non-scaling-stroke" stroke-width="2"  fill="#FFFFFF" d="M1705.812,1407.087c-0.613,0.396-1.264,0.808-1.875,1.224L1705.812,1407.087z"/>
						<path vector-effect="non-scaling-stroke" stroke-width="2"  fill="#FFFFFF" d="M1705.812,1407.087c1.986-1.261,3.998-2.493,5.298-3.454
							C1708.614,1405.182,1707.743,1405.801,1705.812,1407.087z"/>
						<path vector-effect="non-scaling-stroke" stroke-width="2"  fill="#FFFFFF" d="M1682.308,1420.311l1.923-0.931c-1.902,1.075-0.982,0.601,0.719-0.353
							c2.015-1.033,1.865-1.042,2.081-1.213l1.191-0.723l-1.605,0.93C1683.495,1419.62,1681.568,1420.547,1682.308,1420.311z"/>
						<path vector-effect="non-scaling-stroke" stroke-width="2"  fill="#FFFFFF" d="M1585.964,1443.411c7.729-0.647,9.717-0.974,9.324-0.711c7.312-0.956,6.127-1.145,10.493-1.946
							c-4.101,0.736-6.585,1.087-9.273,1.448C1593.817,1442.55,1590.924,1442.926,1585.964,1443.411z"/>
						<path vector-effect="non-scaling-stroke" stroke-width="2"  fill="#FFFFFF" d="M1605.781,1440.754l2.856-0.54L1605.781,1440.754z"/>
						<path vector-effect="non-scaling-stroke" stroke-width="2"  fill="#FFFFFF" d="M1710.764,1406.308c-1.317,0.993-2.652,1.968-3.994,2.935l1.51-1.015L1710.764,1406.308z"/>
						<path vector-effect="non-scaling-stroke" stroke-width="2"  fill="#FFFFFF" d="M1574.477,1444.061c1.438-0.046,3.738-0.166,4.871-0.18
							C1579.751,1443.7,1573.045,1444.126,1574.477,1444.061z"/>
						<path vector-effect="non-scaling-stroke" stroke-width="2"  fill="#FFFFFF" d="M1604.794,1444.482c0.809-0.014,5.755-0.978,7.769-1.364
							C1609.673,1443.682,1607.258,1443.785,1604.794,1444.482z"/>
						<path vector-effect="non-scaling-stroke" stroke-width="2"  fill="#FFFFFF" d="M1552.204,1444.618c1.438,0.098,3.649,0.314,2.683,0.424
							C1556.988,1445.027,1559.829,1444.861,1552.204,1444.618z"/>
						<path vector-effect="non-scaling-stroke" stroke-width="2"  fill="#FFFFFF" d="M1590.542,1446.429l1.124-0.06c1.78-0.245,3.558-0.501,5.331-0.783
							C1594.85,1445.898,1592.697,1446.177,1590.542,1446.429z"/>
						<path vector-effect="non-scaling-stroke" stroke-width="2"  fill="#FFFFFF" d="M1610.045,1446.238c5.97-1.346-9.632,1.271,0.684-0.854c-6.688,1.146-6.433,1.103-5.717,1.106
							c0.711-0.027,1.873-0.069-3.078,0.712C1607.742,1446.359,1610.612,1446.027,1610.045,1446.238z"/>
						<path vector-effect="non-scaling-stroke" stroke-width="2"  fill="#FFFFFF" d="M1601.934,1447.203l-2.751,0.395L1601.934,1447.203z"/>
						<path vector-effect="non-scaling-stroke" stroke-width="2"  fill="#FFFFFF" d="M1516.645,1443.558c0.868,0.157,1.464,0.261,2.016,0.343L1516.645,1443.558z"/>
						<path vector-effect="non-scaling-stroke" stroke-width="2"  fill="#FFFFFF" d="M1570.072,1450.179c3.056-0.171,6.104-0.396,9.146-0.688c-3.047,0.301-8.425,0.561-12.924,0.63
							c-4.498,0.085-8.113,0.031-7.638,0.213c4.994,0.226,11.011,0.062,13.472-0.164L1570.072,1450.179z"/>
						<path vector-effect="non-scaling-stroke" stroke-width="2"  fill="#FFFFFF" d="M1470.189,1423.802l3.587,1.442c-1.473-0.648-2.937-1.313-4.395-1.99
							C1470.621,1423.867,1468.245,1423.055,1470.189,1423.802z"/>
						<path vector-effect="non-scaling-stroke" stroke-width="2"  fill="#FFFFFF" d="M1468.538,1422.857l0.845,0.396L1468.538,1422.857z"/>
						<path vector-effect="non-scaling-stroke" stroke-width="2"  fill="#FFFFFF" d="M1533.645,1446.354c2.912,0.42,5.254,0.686,7.929,0.902
							C1540.467,1447.118,1533.203,1446.159,1533.645,1446.354z"/>
						<path vector-effect="non-scaling-stroke" stroke-width="2"  fill="#FFFFFF" d="M1445.846,1411.591c1.836,1.081,3.688,2.137,5.553,3.167c-2.028-1.135-4.041-2.301-6.034-3.496
							L1445.846,1411.591z"/>
						<path vector-effect="non-scaling-stroke" stroke-width="2"  fill="#FFFFFF" d="M1421.691,1394.182l-0.82-0.732c-1.4-1.069-2.783-2.162-4.158-3.267l0.817,0.766
							C1418.903,1392.044,1420.293,1393.119,1421.691,1394.182z"/>
						<path vector-effect="non-scaling-stroke" stroke-width="2"  fill="#FFFFFF" d="M1450.995,1421.297c3.881,2.169,7.12,3.455,6.108,2.878c-2.554-1.305-5.084-2.653-7.591-4.048
							c1.792,1.278,2.08,1.172,6.468,3.546C1454.312,1422.898,1452.646,1422.111,1450.995,1421.297z"/>
						<path vector-effect="non-scaling-stroke" stroke-width="2"  fill="#FFFFFF" d="M1347.924,1198.773c-0.122,0.933-0.697,3.629-1.201,6.162c-0.51,2.532-0.967,4.899-1.083,5.124
							c0.115-1.228,0.942-6.134,0.284-3.077c-0.291,2.407-0.536,4.816-0.734,7.228c-0.768,4.758-0.674,2.929-0.299-0.693
							c0.379-3.62,1.247-9.001,1.678-11.353c-1.011,4.823-1.463,7.989-1.879,11.232c-0.397,3.245-0.769,6.573-1.203,11.787
							c0.293-3.072,0.613-5.001,0.89-6.607c0.173-0.158-0.081,2.173-0.358,5.418c-0.281,3.245-0.563,7.408-0.644,10.885
							c0.291-4.42,0.28-1.854,0.317,1.366c-0.002,0.579,0.009,0.965,0.022,1.237l0.03,1.094l0.007-0.832
							c0.032,0.06,0.073-0.124,0.141-0.723c0.021-5.821,0.591-10.249,0.938-13.973c-0.398,1.822-0.187-1.362,0.35-5.573
							c0.518-4.213,1.443-9.428,1.823-11.755c0.313-1.787,0.666-3.568,1.032-5.347l0.441-1.989c0.147-0.387,0.062,0.189-0.492,3.245
							c0.217-1.277,0.807-4.023,1.355-6.345c0.544-2.322,1.032-4.224,0.854-3.857c1.702-6.373,3.657-12.706,5.828-18.952
							c0.222-0.578,0.452-1.151,0.637-1.571c0.199-0.658,0.219-0.773,0.164-0.697c9.705-27.154,23.521-52.828,40.375-76.272
							c-2.526,3.448-4.722,6.429-7.209,10.071c1.709-2.84,0.686-1.35-0.646,0.64c-1.332,1.989-2.94,4.496-2.544,3.597
							c1.508-2.571,3.95-6.187,5.483-8.282c0.418-0.888-1.776,2.098-1.687,1.645c-3.137,4.497-4.71,7.246-6.245,9.974
							c-1.525,2.733-3.013,5.448-5.729,10.057c0.062-0.452,1.547-3.418-1.892,2.691l0.841-1.571c-2.67,4.938-3.76,6.833-4.604,8.271
							c-0.835,1.443-1.399,2.446-2.771,5.712l-0.15-0.284c-2.148,4.622-6.317,13.605-8.401,18.784l0.082-0.327
							c-2.872,7.28-3.566,9.362-4.441,11.637c-0.829,2.288-1.862,4.766-4.491,13.142c0.716-2.599,1.469-5.188,2.259-7.769
							c-2.091,5.694-2.167,7.107-3.479,11.254c0.048-0.312-0.448,0.594,0.729-3.347c-1.987,6.837-3.741,13.715-5.065,20.652
							C1346.389,1205.47,1347.628,1199.512,1347.924,1198.773z"/>
						<path vector-effect="non-scaling-stroke" stroke-width="2"  fill="#FFFFFF" d="M1343.485,1225.186c-0.104,1.116-0.203,2.389-0.285,3.892L1343.485,1225.186z"/>
						<path vector-effect="non-scaling-stroke" stroke-width="2"  fill="#FFFFFF" d="M1400.797,1089.025c-1.215,1.626-2.414,3.263-3.6,4.908L1400.797,1089.025z"/>
						<path vector-effect="non-scaling-stroke" stroke-width="2"  fill="#FFFFFF" d="M1344.092,1255.48c-0.166-3.658,0.41,2.718,0.604,3.338c-0.447-4.345-0.738-8.703-0.873-13.067
							c-0.102,0.062-0.25-1.231-0.336-0.966C1343.586,1248.355,1343.783,1251.924,1344.092,1255.48z"/>
						<path vector-effect="non-scaling-stroke" stroke-width="2"  fill="#FFFFFF" d="M1343.938,1241.958c-0.074-0.442-0.149-1.828-0.193-3.382c-0.021,2.393,0.006,4.784,0.079,7.175
							C1343.903,1245.704,1343.928,1244.898,1343.938,1241.958z"/>
						<path vector-effect="non-scaling-stroke" stroke-width="2"  fill="#FFFFFF" d="M1338.538,1243.438l-0.037-2.387l-0.06-3.608C1338.442,1239.439,1338.475,1241.439,1338.538,1243.438z
							"/>
						<path vector-effect="non-scaling-stroke" stroke-width="2"  fill="#FFFFFF" d="M1341.986,1206.395c-0.68,2.767-1.35,8.125-1.518,9.92c0.396-3.081,0.559-3.947,0.697-4.854
							L1341.986,1206.395z"/>
						<path vector-effect="non-scaling-stroke" stroke-width="2"  fill="#FFFFFF" d="M1339.145,1213.749c0.245-1.999,0.529-3.993,0.84-5.983l-0.125,0.552
							C1339.599,1210.125,1339.354,1211.936,1339.145,1213.749z"/>
						<path vector-effect="non-scaling-stroke" stroke-width="2"  fill="#FFFFFF" d="M1429.37,1054.204l2.022-2.062C1430.456,1053.076,1429.855,1053.696,1429.37,1054.204z"/>
						<path vector-effect="non-scaling-stroke" stroke-width="2"  fill="#FFFFFF" d="M1396.866,1093.044c4.277-5.597,2.968-3.693,0.944-0.822c-2.018,2.877-4.637,6.799-3.217,5.098
							c1.429-2.113,2.882-4.21,4.36-6.29l-0.304,0.585c1.829-2.517,3.691-5.009,5.594-7.471c-1.312,1.405-2.19,2.548-2.084,2.104
							c3.826-4.926,4.521-5.63,4.923-6.034c0.418-0.392,0.567-0.469,3.559-3.926c2.949-3.584,5.975-7.106,9.07-10.564L1419,1066.6
							c0.779-0.876,1.108-1.275,1.357-1.594c10.47-11.623,21.758-22.514,33.771-32.535c6.502-5.543-3.858,2.751,0.835-1.465
							c-3.835,3.141-8.531,7.135-12.25,10.521c-3.727,3.379-6.497,6.118-6.674,6.541c0.206-0.267,0.606-0.797-0.869,0.568
							c-1.307,1.399-2.598,2.812-3.876,4.235c1.31-1.269,2.629-2.523,3.959-3.768c-1.972,2.104-6.252,6.434-10.221,10.646
							c-3.982,4.199-7.655,8.279-8.83,9.487c3.451-4.01,4.272-5.042,5.454-6.455c1.196-1.396,2.729-3.196,7.96-8.396
							c-0.531,0.405-2.536,2.227-0.247-0.185c-6.027,6.2-11.562,12.257-16.902,18.578
							C1407.131,1079.105,1401.985,1085.699,1396.866,1093.044z"/>
						<path vector-effect="non-scaling-stroke" stroke-width="2"  fill="#FFFFFF" d="M1529.941,985.327l-0.113,0.083C1530.108,985.273,1530.197,985.222,1529.941,985.327z"/>
						<path vector-effect="non-scaling-stroke" stroke-width="2"  fill="#FFFFFF" d="M1524.604,987.583c-2.518,1.247-5.014,2.53-7.487,3.851c3.936-1.897,7.914-3.708,11.933-5.423
							l0.78-0.6c-1.05,0.497-5.217,2.442-6.876,3.099L1524.604,987.583z"/>
						<path vector-effect="non-scaling-stroke" stroke-width="2"  fill="#FFFFFF" d="M1508.484,995.996c5.968-3.188,5.529-3.257,2.162-1.719c5.502-2.917,3.071-1.194,6.789-3.348
							c-0.229-0.154-7.062,3.349-8.592,4.227L1508.484,995.996z"/>
						<polygon fill="#FFFFFF" points="1466.219,1022.534 1467.673,1021.296 1463.902,1024.097 						"/>
						<path vector-effect="non-scaling-stroke" stroke-width="2"  fill="#FFFFFF" d="M1467.673,1021.296l3.782-2.724c-0.314,0.115-0.624,0.229-1.277,0.626L1467.673,1021.296z"/>
						<path vector-effect="non-scaling-stroke" stroke-width="2"  fill="#FFFFFF" d="M1481.566,1011.698l5.744-3.653C1485.383,1009.241,1483.468,1010.46,1481.566,1011.698z"/>
						<polygon fill="#FFFFFF" points="1477.105,1014.614 1477.258,1014.557 1481.566,1011.698 						"/>
						<path vector-effect="non-scaling-stroke" stroke-width="2"  fill="#FFFFFF" d="M1471.455,1018.572c0.745-0.262,1.557-0.649,7.075-4.499l-1.272,0.482
							C1475.309,1015.873,1473.375,1017.212,1471.455,1018.572z"/>
						<path vector-effect="non-scaling-stroke" stroke-width="2"  fill="#FFFFFF" d="M1349.961,1171.355c0.55-1.724,1.121-3.439,1.705-5.151l-0.229,0.528
							c-0.578,1.713-1.145,3.431-1.692,5.152L1349.961,1171.355z"/>
						<path vector-effect="non-scaling-stroke" stroke-width="2"  fill="#FFFFFF" d="M1361.875,1142.443l1.301-3.013C1362.586,1140.715,1362.141,1141.746,1361.875,1142.443z"/>
						<path vector-effect="non-scaling-stroke" stroke-width="2"  fill="#FFFFFF" d="M1371.254,1121.082c3.316-5.473-4.082,7.824,1.809-2.447c0.688-0.807-1.875,4.112-4.566,8.986
							c0.041-0.479,2.476-4.832,0.681-1.908c-1.568,3.358-2.328,4.547-1.493,3.53c-2.715,5.601-2.819,6.321-4.507,10.188
							c1.568-3.411,4.2-8.604,7.113-13.932c2.9-5.333,6.078-10.798,8.428-14.947c2.487-4.642,0.429-2.172,0.031-2.44
							c-0.26,0.306-2.203,3.356-4.014,6.451C1372.919,1117.651,1371.242,1120.78,1371.254,1121.082z"/>
						<path vector-effect="non-scaling-stroke" stroke-width="2"  fill="#FFFFFF" d="M1366.047,1129.725c-1.384,2.625-1.772,3.444-2.549,5.093
							C1363.859,1134.448,1364.944,1131.854,1366.047,1129.725z"/>
						<path vector-effect="non-scaling-stroke" stroke-width="2"  fill="#FFFFFF" d="M1406.303,1075.219c0.293-0.482,3.629-4.613,2.812-3.811c-1.705,2.072-3.386,4.165-5.041,6.275
							C1405.263,1076.218,1405.752,1075.757,1406.303,1075.219z"/>
						<path vector-effect="non-scaling-stroke" stroke-width="2"  fill="#FFFFFF" d="M1401.908,1080.475l2.164-2.79C1403.517,1078.37,1402.842,1079.229,1401.908,1080.475z"/>
						<path vector-effect="non-scaling-stroke" stroke-width="2"  fill="#FFFFFF" d="M1406.578,1074.949l-0.275,0.27C1406.242,1075.314,1406.267,1075.308,1406.578,1074.949z"/>
						<path vector-effect="non-scaling-stroke" stroke-width="2"  fill="#FFFFFF" d="M1498.047,1001.668c-0.035,0.164,3.003-1.655,4.545-2.542
							C1501.319,999.812,1499.528,1000.769,1498.047,1001.668z"/>
						<path vector-effect="non-scaling-stroke" stroke-width="2"  fill="#FFFFFF" d="M1624.697,965.027l3.127,0.082C1626.72,965.051,1626.152,965.018,1624.697,965.027z"/>
						<path vector-effect="non-scaling-stroke" stroke-width="2"  fill="#FFFFFF" d="M1673.29,965.792c0.096-0.008,0.329,0.016,0.644,0.056
							C1673.62,965.804,1673.4,965.784,1673.29,965.792z"/>
						<path vector-effect="non-scaling-stroke" stroke-width="2"  fill="#FFFFFF" d="M1673.934,965.848c2.158,0.284,8.664,1.891,11.034,2.332l-0.309-0.022l4.37,1.008
							c-2.034-0.531-5.192-1.328-8.157-1.979C1677.908,966.527,1675.143,966.007,1673.934,965.848z"/>
					</g>
				</g>
			</g>
		</g>
	</g>
</g>
</svg>
