<?xml version="1.0" encoding="utf-8"?>
<!-- Generator: Adobe Illustrator 17.1.0, SVG Export Plug-In . SVG Version: 6.00 Build 0)  -->
<!DOCTYPE svg PUBLIC "-//W3C//DTD SVG 1.1//EN" "http://www.w3.org/Graphics/SVG/1.1/DTD/svg11.dtd">
<svg version="1.1" id="Layer_1" xmlns="http://www.w3.org/2000/svg" xmlns:xlink="http://www.w3.org/1999/xlink" x="0px" y="0px"
	 viewBox="0 0 220 280" xml:space="preserve">
<g>
	<polyline fill="#FFFFFF" stroke="#CCCBCB" stroke-width="4" stroke-miterlimit="10" points="194.7,0.5 195,215.9 99.2,271.4 
		3.3,216.2 3.3,0.8 	"/>
	<g>
		<path fill="#4E9934" d="M92.8,68.8C78,23.1,55.5,30.6,45.6,33.4C35.6,36.2,34,35,34,35c15.4,50,55.5,35.4,55.5,35.4
			s-22-1.3-34.5-23.1L92.8,68.8z"/>
		<path fill="#100C08" d="M99.3,69.1c0.3-1.7,0.3-21.3,17.6-35.6c0,0,11.3-9.5,11.9,0s-1.3,3.7-11.8,12.2s-13.4,23.4-13.4,23.4H99.3
			z"/>
	</g>
	<polygon fill="#4E9934" points="168.8,193.3 99.2,233.5 29.5,193.3 29.5,112.9 99.1,72.7 168.8,112.8 	"/>
	<g>
		<g>
			<path fill="#FFFFFF" d="M49.2,127.6c0.1,2.6-1.5,4.3-4,4.3c-2.1,0-3.8-1.7-3.8-4.3c0-2.6,1.7-4.3,3.9-4.3
				C47.6,123.3,49.2,125,49.2,127.6z M42.1,179.7v-41.4h6.6v41.4H42.1z"/>
			<path fill="#FFFFFF" d="M54.6,172.9c1.5,0.9,4,2.1,6.7,2.1c3.8,0,6.1-2.3,6.1-6c0-3.2-1.1-5.3-5.3-8.1c-5.4-3.5-8.3-7-8.3-11.8
				c0-6.7,5-11.5,11.4-11.5c3.3,0,5.7,1.1,7.4,2.1l-1.8,5c-1.5-1-3.3-1.8-5.5-1.8c-3.6,0-5.4,2.6-5.4,5.2c0,2.8,1,4.4,5.1,7.2
				c4.8,3.1,8.6,6.8,8.6,12.6c0,8.3-5.6,12.3-12.4,12.3c-3.1,0-6.4-0.9-8.2-2.4L54.6,172.9z"/>
			<path fill="#FFFFFF" d="M95.9,179.7l-0.4-4.4h-0.3c-1.8,3.2-4.7,5-8.2,5c-5.6,0-9.8-4.7-9.8-11.8c0-10.4,8.3-15,17.6-15.1v-1.3
				c0-5.6-1.4-9.4-6.6-9.4c-2.6,0-4.9,0.9-6.8,2.1l-1.5-4.6c1.7-1.3,5.6-2.7,9.7-2.7c8.3,0,11.9,5.5,11.9,14.8v17.9
				c0,3.2,0,6.8,0.4,9.4H95.9z M95,158.3c-3.4,0-11.4,0.6-11.4,9.6c0,5.4,2.7,7.4,5.1,7.4c2.9,0,5.4-2.1,6.2-6.2
				c0.2-0.8,0.2-1.6,0.2-2.3V158.3z"/>
			<path fill="#FFFFFF" d="M124.9,179.7l-0.4-4.4h-0.3c-1.8,3.2-4.7,5-8.2,5c-5.6,0-9.8-4.7-9.8-11.8c0-10.4,8.3-15,17.6-15.1v-1.3
				c0-5.6-1.4-9.4-6.6-9.4c-2.6,0-4.9,0.9-6.8,2.1l-1.5-4.6c1.7-1.3,5.6-2.7,9.7-2.7c8.3,0,11.9,5.5,11.9,14.8v17.9
				c0,3.2,0,6.8,0.4,9.4H124.9z M124,158.3c-3.4,0-11.4,0.6-11.4,9.6c0,5.4,2.7,7.4,5.1,7.4c2.9,0,5.4-2.1,6.2-6.2
				c0.2-0.8,0.2-1.6,0.2-2.3V158.3z"/>
			<path fill="#FFFFFF" d="M157.8,178.7c-1.5,0.9-3.9,1.5-6.8,1.5c-9.1,0-15.2-7.3-15.2-21c0-11.9,6-21.6,16.4-21.6
				c2.2,0,4.6,0.6,5.8,1.3l-1.3,5.4c-0.9-0.4-2.6-1.1-4.7-1.1c-6.6,0-9.6,7.9-9.6,16c0,9.7,3.7,15.5,9.8,15.5c1.8,0,3.3-0.4,4.8-1.1
				L157.8,178.7z"/>
		</g>
	</g>
</g>
<g>
	<path fill="#4E9934" d="M501.4,175c-0.4,0-0.8,0.1-1.1,0c-0.5-0.2-1,0-1.5,0c-0.7,0-1.3-0.1-1.9-0.3c-0.7-0.3-1.4-0.3-1.9-1
		c-0.2-0.3-0.5-0.6-0.7-0.9c-0.1-0.2-0.3-0.4-0.4-0.7c-0.1-0.2-0.3-0.5-0.4-0.7c-0.2-0.4-0.4-0.9-0.7-1.3c-0.2-0.3-0.2-0.5,0.1-0.6
		c0.3-0.2,0.7-0.3,1-0.4c0.5-0.2,1.1-0.3,1.6-0.6c0.5-0.3,1.1-0.5,1.6-0.8c0.3-0.2,0.7-0.3,0.8-0.7c0.1-0.3,0.2-0.6,0.3-0.9
		c0-0.1,0.2-0.3,0.1-0.3c-0.4-0.3,0-0.7-0.2-1c-0.2-0.3-0.3-0.8-0.4-1.2c-0.1-0.2-0.9-0.9-1.1-0.9c0,0-0.1,0-0.1,0
		c-0.6,0.2-1.3,0.4-1.9,0.8c-0.5,0.3-1,0.5-1.6,0.8c-0.5,0.3-1.1,0.5-1.7,0.8c-0.4,0.2-0.9,0.5-1.4,0.6c0,0-0.1,0-0.1,0
		c-0.5,0.2-1,0.5-1.5,0.7c-0.4,0.2-0.7,0.5-1.2,0.4c0-0.4,0-0.7,0-1c0.1-1.2,0.1-2.3,0.2-3.5c0-0.5,0.1-0.9,0.2-1.4
		c0-0.4,0.1-0.8,0.1-1.3c0.1-0.8,0.2-1.6,0.5-2.4c0.2-0.6,0.3-1.3,0.4-1.9c0.1-0.4,0-0.8,0.1-1.2c0-0.3,0.1-0.6,0-0.9
		c-0.1-0.4-0.3-0.8-0.5-1.1c-0.2-0.3-0.6-0.4-0.8-0.8c0,0-0.1-0.1-0.1-0.1c-0.3,0-0.7-0.2-1,0.2c-0.2,0.3-0.4,0.5-0.6,0.8
		c-0.1,0.1-0.1,0.3-0.2,0.5c-0.1,0.4-0.3,0.8-0.4,1.3c-0.1,0.5-0.3,0.9-0.4,1.4c-0.1,0.5-0.2,0.9-0.3,1.4c-0.2,0.6-0.3,1.2-0.5,1.7
		c0,0,0,0,0,0.1c-0.3,0.4-0.5,0.8-0.8,1.1c-0.3,0.2-0.5,0.4-0.8,0.5c-0.3,0.2-0.8,0.2-1.2,0.4c-0.3,0.1-0.7,0.2-0.8,0.6
		c-0.1,0-0.2,0-0.2,0.1c-0.3,0.3-0.5,0.6-0.8,0.8c-0.5,0.4-0.7,1.1-1.3,1.4c-0.1,0.1-0.2,0.4-0.3,0.5c-0.2,0.2-0.4,0.5-0.5,0.7
		c0,0,0,0-0.1-0.1c0,0.1,0,0.2,0,0.3c0,0,0,0-0.1,0c0,0,0-0.1,0-0.1c-0.4,0.5-0.7,1.1-1.2,1.8c-0.1-0.2-0.3-0.3-0.4-0.5
		c-0.3-0.6-0.7-1.2-1.2-1.7c-0.6-0.6-1.3-0.9-2-1.3c-0.5-0.3-1-0.1-1.5,0.2c-0.3,0.1-0.5,0.4-0.7,0.6c-0.2,0.2-0.4,0.3-0.6,0.5
		c-0.3-0.6-0.6-1.2-0.9-1.7c-0.3-0.4-0.7-0.8-1.1-1.2c-0.5-0.5-1-1-1.6-1.3c-0.8-0.5-1.6-0.8-2.5-0.7c-0.6,0-1.3,0.1-1.9,0.3
		c-0.6,0.2-1.3,0.3-1.9,0.5c-0.2,0.1-0.4,0.2-0.6,0.3c-0.5,0.3-1,0.5-1.5,0.8c-0.7,0.4-1.2,1-1.8,1.5c-0.1,0.1-0.2,0.1-0.2,0.1
		c-0.2,0.4-0.5,0.8-0.7,1.2c-0.3,0.5-0.5,1-0.8,1.5c-0.1-0.2-0.2-0.4-0.3-0.6c-0.1-0.3-0.2-0.6-0.4-0.9c-0.2-0.4-0.6-0.7-0.8-1.1
		c-0.3-0.4-0.5-0.9-0.9-1.2c-0.5-0.5-1.1-0.9-1.7-1.2c-0.4-0.2-0.8-0.3-1.2-0.3c-0.4,0-0.8,0.1-1.2,0.2c-0.1,0.2-0.1,0.5-0.2,0.6
		c-0.3,0.1-0.2,0.3-0.2,0.4c0,0.3,0,0.6,0,0.8c0,0.3,0.2,0.7,0.4,1c0.1-0.2,0.1-0.2,0.2-0.3c0.1,0.9,0.7,1.2,1.2,1.4
		c0.5,0.1,0.7,0.5,1.1,0.8c0.2,0.1,0.4,0.3,0.6,0.5c0.3,0.6,0.7,1.2,0.9,1.8c0.2,0.7,0.3,1.5,0.4,2.2c0.1,0.8,0,1.7-0.4,2.4
		c-0.2,0.6-0.5,1.2-1,1.7c-0.1,0.1-0.2,0.3-0.3,0.4c-0.3,0.2-0.5,0.5-0.8,0.7c-0.4,0.2-0.9,0.2-1.3,0.4c-0.4,0.2-0.8-0.2-1.3,0
		c-0.4,0.1-0.7-0.1-1-0.3c-1-0.4-1.6-1.1-2-2c-0.3-0.7-0.4-1.6-0.5-2.4c-0.1-0.8-0.1-1.7,0.1-2.6c0.1-0.4,0-0.9,0-1.3
		c0-0.3,0-0.6-0.1-0.9c0-0.2-0.1-0.4-0.1-0.6c0-0.1,0.1-0.2,0-0.3c-0.1-0.3-0.3-0.6-0.5-0.9c-0.3-0.3-0.6-0.6-1-1
		c-0.2-0.2-0.6-0.3-0.8-0.2c-0.4,0.1-0.5,0.4-0.8,0.7c-0.2,0.3-0.3,0.7-0.3,1.1c-0.1,0.3,0,0.6-0.1,0.9c0,0.3-0.1,0.6-0.2,0.8
		c-0.1,0.2,0.2,0.4-0.1,0.6c0,0,0,0.1,0,0.2c-0.1,0.4-0.2,0.8-0.4,1.1c-0.1,0.2-0.1,0.4-0.2,0.7c0,0,0,0,0,0c-0.3,0.5-0.6,1-0.8,1.5
		c-0.4,1-1,1.9-1.8,2.7c-0.5,0.4-1,0.8-1.6,1c-0.4,0.1-0.8,0.2-1.2,0.3c-0.3,0.1-0.7,0.2-1,0.2c0-0.1,0.1-0.2,0-0.2
		c-0.1-0.1-0.2-0.1-0.2-0.1c-0.2-0.4-0.4-0.8-0.3-1.3c0.1-0.6,0.2-1.2,0.3-1.8c0.2-0.7,0.3-1.5,0.5-2.2c0.1-0.5,0.3-0.9,0.4-1.4
		c0.2-0.7,0.4-1.4,0.4-2.1c0-0.1,0-0.2,0-0.2c0.1-0.5,0.3-1.1,0.2-1.6c-0.1-0.7,0-1.5-0.6-2.1c-0.2-0.2-0.2-0.5-0.4-0.8
		c-0.5-0.6-1.1-0.9-1.7-0.6c-0.2,0.1-0.4,0.2-0.5,0.4c-0.2,0.3-0.2,0.7-0.3,1.1c-0.1,0.4-0.2,0.8-0.2,1.1c0,0.2,0,0.3-0.1,0.5
		c-0.1,0.3-0.1,0.5-0.2,0.8c-0.2,0.6-0.3,1.2-0.5,1.8c-0.2,0.6-0.4,1.2-0.5,1.8c-0.2,0.8-0.4,1.7-0.5,2.6c-0.1,0.6,0,1.2,0,1.8
		c-0.1,1,0.1,1.9,0.4,2.8c0.3,0.9,0.9,1.8,1.5,2.5c0.5,0.6,1.3,0.9,1.9,1.2c0.5,0.3,1.1,0.4,1.8,0.4c0.7-0.1,1.5-0.1,2.2-0.4
		c0,0,0,0,0.1,0c0.7-0.4,1.4-0.8,2-1.3c0.4-0.3,1-0.5,1.1-1.1c0-0.1,0.2-0.2,0.3-0.3c0.3-0.4,0.7-0.9,1-1.3c0.1,0.1,0.3,0.2,0.3,0.3
		c0.4,0.9,1.1,1.6,1.7,2.4c0.4,0.5,0.9,0.8,1.4,1.2c0.1,0.1,0.3,0.3,0.4,0.3c0.4,0.2,0.8,0.3,1.3,0.4c0.8,0.3,1.6,0.6,2.5,0.6
		c0.5,0,1.1,0.1,1.6-0.1c0.5-0.2,1.1-0.5,1.6-0.8c1.1-0.7,2.2-1.5,2.8-2.8c0.3-0.5,0.5-1,0.8-1.5c0.1,0.1,0.1,0.2,0.2,0.3
		c0.3,0.4,0.6,0.9,0.9,1.3c0.3,0.3,0.6,0.6,0.9,0.9c0.5,0.4,1.1,0.8,1.6,1.2c0.3,0.2,0.7,0.2,0.9,0.4c0.3,0.3,0.8,0.4,1.2,0.5
		c0.9,0.2,1.8,0.4,2.7,0.2c0.5-0.1,1-0.3,1.4-0.5c0.5-0.2,1-0.5,1.5-0.8c0.5-0.3,0.9-0.8,1.4-1.2c0.4-0.4,0.7-0.9,1-1.4
		c0.3-0.5,0.6-1,0.9-1.5c0.3-0.5,0.5-1.1,0.8-1.6c0.1-0.2,0.1-0.4,0.2-0.6c0.1-0.4,0.2-0.9,0.4-1.3c0.2-0.6,0.5-1.3,0.8-1.9
		c0.2-0.4,0.4-0.7,0.7-1.1c0.2,0.3,0.3,0.4,0.4,0.6c0.2,0.6,0.4,1.3,0.5,1.9c0.1,0.4,0.3,0.8,0,1.3c-0.1,0.2-0.2,0.5-0.2,0.8
		c-0.1,1.3,0.1,2.6,0.5,3.8c0.1,0.2,0.2,0.4,0.2,0.7c0.1,0.6,0.4,1,1,1.1c0.1,0,0.1,0.2,0.2,0.3c0.5,0.3,0.9,0.6,1.5,0.2
		c0.4-0.2,0.8-0.6,0.8-1.1c0-0.5,0-0.9,0-1.4c0-0.4,0.1-0.9,0.1-1.3c0-0.3-0.2-0.7-0.1-1c0.1-0.3-0.2-0.6,0-1
		c0.2-0.4,0.3-0.9,0.5-1.4c0.3-0.6,0.6-1.3,0.9-1.9c0.2-0.3,0.5-0.6,0.5-1c0-0.3,0.3-0.5,0.5-0.8c0.2-0.4,0.5-0.7,0.7-1.1
		c0.2-0.4,0.6-0.6,0.6-1.1c0,0,0,0,0.1-0.1c0.2-0.1,0.4-0.2,0.6-0.3c0.5-0.3,0.9-0.7,1.6-0.7c0.4,0,0.4,0,0.4,0.4c0,0.2,0,0.5,0,0.7
		c0,0.5,0,1.1,0,1.6c0,0.5,0,1.1,0,1.6c0,0.5-0.2,1,0,1.4c0,0.1,0,0.2-0.1,0.2c0,0.1-0.1,0.2-0.1,0.3c0,1.3,0,2.6-0.1,3.9
		c0,0.1-0.1,0.3-0.1,0.4c0.1,0.4,0.1,0.8,0.2,1.2c0.1,0.6,0.4,1.2,0.8,1.7c0.2,0.3,0.5,0.5,0.8,0.7c0.4,0.3,1.1,0.3,1.3-0.1
		c0.3-0.4,0.4-0.9,0.6-1.4c0,0-0.1-0.2-0.1-0.2c0.2-0.2,0.1-0.4,0-0.7c-0.1-0.3-0.2-0.6-0.2-0.9c0-0.9,0.1-1.8,0.1-2.7
		c0-0.2,0-0.3,0-0.5c0.1,0,0.2,0,0.2,0c0.3,0.3,0.5,0.2,0.9,0.1c0.4-0.1,0.9,0,1.4,0c0,0,0.1,0.1,0.1,0.1c0.4,0.3,0.6,0.7,0.8,1.1
		c0.6,1,1.3,2,1.9,3c0.4,0.7,1,1.2,1.6,1.8c0.3,0.3,0.8,0.5,1.1,0.8c0.7,0.7,1.6,0.9,2.5,1.1c0.5,0.1,1.1,0,1.7,0c0.5,0,1,0,1.4-0.1
		c0.1,0,0.2,0,0.3-0.1c0.3-0.2,0.6-0.4,1-0.5c0.3-0.1,0.5-0.4,0.4-0.6c-0.2-0.2,0.1-0.2,0.1-0.4c0.4-0.1,0.3-0.4,0.3-0.7
		c0-0.1,0.1-0.2,0.1-0.3c0,0,0-0.1,0-0.2c-0.1-0.3-0.1-0.7-0.2-1C502.3,175.4,501.7,174.9,501.4,175z M468,167.8
		c-0.1,0.1-0.2,0.2-0.2,0.3c-0.1,0.6-0.5,1.1-0.6,1.6c-0.1,0.5-0.5,0.8-0.6,1.3c-0.1,0.4-0.4,0.7-0.6,1c-0.2,0.2-0.3,0.5-0.5,0.7
		c-0.3,0.3-0.5,0.7-0.8,1c-0.2,0.2-0.3,0.4-0.6,0.5c-0.3,0.2-0.6,0.3-0.9,0.4c-0.3,0.1-0.6,0.3-1,0.4c-0.4,0.1-0.8,0-1.2,0
		c-0.2,0-0.4-0.1-0.7-0.1c-0.6-0.2-1.1-0.4-1.7-0.7c-0.3-0.2-0.5-0.5-0.7-0.7c-0.3-0.2-0.5-0.4-0.7-0.8c-0.3-0.7-0.6-1.4-0.5-2.1
		c-0.1-0.8,0.2-1.5,0.5-2.1c0.2-0.4,0.3-0.9,0.5-1.3c0.1-0.3,0.4-0.5,0.6-0.7c0.4-0.4,0.9-0.8,1.3-1.2c0.3-0.2,0.7-0.4,1-0.6
		c0.2-0.1,0.5-0.2,0.8-0.4c0.7-0.3,1.5-0.5,2.3-0.5c0.4,0,0.7,0,1,0.1c0.6,0.1,0.9,0.6,1.2,1c0.5,0.5,0.9,1,1.3,1.5
		c0.2,0.2,0.3,0.4,0.6,0.4C468.3,166.9,468.2,167.6,468,167.8z"/>
	<path fill="#4E9934" d="M593.4,173.1L593.4,173.1C593.4,173.1,593.4,173.1,593.4,173.1z"/>
	<path fill="#4E9934" d="M605.7,161.3c0.2,0,0.4-0.3,0.4-0.5c0-0.5,0.2-1-0.3-1.4c0,0-0.1-0.1-0.1-0.2c0.1-0.4-0.2-0.5-0.4-0.7
		c-0.2-0.1-0.4-0.2-0.6-0.3c0,0-0.1-0.1-0.1-0.1c-0.7,0-1.3-0.1-2,0c-0.7,0-1.4,0.1-2,0.1c-0.2,0-0.3-0.1-0.5-0.1
		c-0.2,0-0.4,0.1-0.6,0.1c-0.1,0-0.2,0-0.2,0c-0.8-0.3-1.7-0.1-2.5-0.2c-0.6,0-1.1,0-1.6-0.1c0-0.3,0.1-0.6,0.1-0.8
		c0-0.3,0-0.5,0-0.8c0.1-0.5,0.2-1,0.3-1.5c0-0.5,0.1-1.1,0.2-1.6c0.1-0.5,0-1-0.4-1.4c0,0-0.1-0.1-0.1-0.2
		c-0.1-0.2-0.1-0.5-0.2-0.7c-0.1-0.2-0.3-0.4-0.5-0.4c-0.3,0-0.5-0.2-0.8-0.1c-0.4,0.1-0.6,0.3-0.8,0.6c-0.3,0.5-0.6,0.9-0.8,1.4
		c-0.3,0.5-0.6,1-0.8,1.6c-0.2,0.3-0.3,0.6-0.5,0.9c0,0,0,0.1,0,0.1c-0.5,0.3-0.5,0.9-0.8,1.4c-0.1,0.2-0.2,0.5-0.3,0.7
		c-0.2,0.4-0.3,0.9-0.4,1.2c-0.3,0-0.5,0-0.6,0c-0.1,0-0.2,0-0.2,0c-0.7,0-1.3-0.1-2,0c-0.3,0-0.6,0.2-0.8,0.4
		c-0.4,0.3-0.4,0.9-0.5,1.3c-0.1,0.4-0.2,0.9,0.2,1.2c0,0,0.1,0.1,0.1,0.1c-0.1,0.4,0.2,0.6,0.4,0.8c0.5,0.7,1.2,0.9,2,0.9
		c0.2,0,0.2,0.1,0.2,0.3c0,0.2-0.1,0.5-0.1,0.7c0,0.6-0.1,1.2-0.1,1.8c0,0.2,0,0.3,0,0.5c0,0.3,0,0.7,0.1,1c0,0.5,0,0.9,0.1,1.4
		c0.1,0.7,0.3,1.3-0.2,1.9c-0.1,0.2-0.3,0.3-0.4,0.5c-0.1,0.2-0.2,0.4-0.4,0.6c-0.2,0.2-0.4,0.4-0.4,0.6c-0.2,0.3-0.4,0.6-0.7,0.8
		c-0.4,0.3-0.8,0.6-1.3,0.6c0.1,0,0.1,0,0.2,0.1c-0.5,0-0.9,0.1-1.2,0c-0.6-0.2-0.9-0.8-1.3-1.3c-0.1-0.1-0.2-0.2-0.2-0.4
		c-0.1-0.2-0.1-0.5-0.2-0.7c-0.1-0.3-0.2-0.6-0.3-0.9c0,0,0-0.1,0-0.1c0-0.2,0.1-0.5,0.1-0.7c0-0.2-0.1-0.5-0.1-0.7
		c0.1-0.5,0.2-0.9,0.3-1.4c0.1-0.4,0-0.9,0.1-1.4c0.1-0.5,0.2-1,0.3-1.6c0.1-0.5,0-0.9,0.2-1.4c0.2-0.6,0.2-1.1,0-1.6
		c-0.2-0.6-0.4-1.1-0.6-1.6c-0.1-0.3-0.2-0.6-0.6-0.6c-0.1,0-0.1-0.1-0.2-0.2c-0.3-0.3-0.8-0.2-1.2,0.1c-0.8,0.6-0.8,1.5-1,2.4
		c0,0.2,0,0.4-0.1,0.5c-0.1,0.4-0.2,0.9-0.3,1.3c-0.1,0.8-0.2,1.7-0.4,2.5c-0.1,0.5-0.2,1.1-0.3,1.6c-0.1,0.5-0.3,1.3-0.7,1.9
		c-0.3,0.5-0.5,1.1-0.8,1.6c-0.2,0.3-0.4,0.7-0.7,1c-0.3,0.4-0.7,0.7-1.2,0.9c-0.4,0.1-0.9,0.3-1.3,0.4c-0.8,0.1-1.6,0-2.4-0.2
		c-0.5-0.1-0.8-0.4-0.8-1c0-0.6,0-1.1,0.3-1.7c0.2-0.3,0.1-0.8,0.2-1.1c0.1-0.5,0.3-0.9,0.4-1.4c0.2-0.6,0.3-1.2,0.4-1.8
		c0-0.1,0-0.1,0-0.2c0.2-0.5,0.4-0.9,0.5-1.4c0.1-0.4,0.1-0.9,0.1-1.3c0-0.5-0.1-1.1-0.1-1.6c0-0.3-0.1-0.6-0.2-0.8
		c-0.2-0.4-0.4-0.9-0.6-1.3c-0.2-0.3-0.4-0.7-0.7-0.9c-0.3-0.2-0.7-0.3-1.1-0.5c-0.9-0.4-1.7-0.6-2.7-0.6c-1.2-0.1-2.5-0.2-3.7,0.1
		c-0.6,0.1-1.2,0.2-1.7,0.6c-0.2,0.2-0.4,0.3-0.7,0.5c-0.3-0.6-1-0.6-1.5-0.7c-0.4-0.1-0.8,0.2-1.2,0.1c-0.7-0.1-1.3,0.5-2,0.4
		c-0.3,0.4-0.8,0.5-1.2,0.7c-0.5,0.3-1,0.6-1.5,0.9c-0.5,0.3-1,0.6-1.4,1.1c0,0,0,0,0,0c-0.5,0.3-0.9,0.7-1.2,1.2
		c-0.3,0.4-0.7,0.8-1,1.2c-0.1,0.1-0.3,0.3-0.3,0.4c0,0.4-0.4,0.6-0.5,0.9c-0.2,0.5-0.4,0.9-0.6,1.4c-0.1,0.3-0.1,0.7-0.2,1
		c-0.1,0.4-0.2,0.9-0.3,1.3c-0.1,0.3,0,0.7-0.1,0.9c-0.2,0.4,0,0.8,0.1,1.1c0.2,0.8,0.5,1.5,0.8,2.2c0.3,0.9,0.9,1.6,1.5,2.3
		c0.6,0.6,1.2,1.1,1.9,1.6c0.3,0.2,0.7,0.4,1,0.5c0.1,0.1,0.3,0.1,0.5,0.2c0.1,0.1,0.3,0.1,0.4,0.2c0.5,0.1,0.9,0.3,1.4,0.4
		c0.3,0.1,0.6,0.2,0.9,0.2c0.4,0,0.8-0.1,1.2-0.1c0.6,0,1.1,0,1.7,0c0.5-0.1,1-0.2,1.5-0.4c0.4-0.2,0.8-0.6,1.1-0.9
		c0.1-0.1,0.1-0.4,0.2-0.6c0.1-0.2,0.3-0.3,0.4-0.5c0.1-0.3,0.2-0.7,0.3-1c0.2-0.9,0.5-1.7,0.5-2.6c0-0.7,0-1.4,0-2.2
		c0-0.7,0-1.3,0-2c0-0.5-0.2-1,0-1.5c0.1-0.2-0.1-0.5-0.1-0.7c0-0.3,0.1-0.6,0.1-0.9c0-0.4-0.2-0.7,0-1.1c0.2-0.3,0.2-0.7,0.3-1.1
		c0,0,0.1,0,0.1-0.1c0.2-0.1,0.4-0.2,0.6-0.3c0.3-0.1,0.6-0.2,0.9-0.2c0.9,0.1,1.7-0.1,2.6,0.2c0.1,0.1,0.3,0.1,0.4,0.1
		c0.6,0.1,0.8,0.5,0.6,1c-0.2,0.4-0.4,0.9-0.4,1.4c-0.1,0.5-0.5,0.8-0.4,1.4c0,0.1-0.1,0.2-0.1,0.3c-0.1,0.4-0.2,0.8-0.4,1.2
		c-0.1,0.4-0.1,0.8-0.3,1.1c-0.1,0.2-0.1,0.5-0.2,0.8c-0.1,0.5-0.2,1-0.2,1.5c0,0.8,0.1,1.7,0.2,2.5c0,0,0.1,0.1,0.1,0.1
		c0.2,0.4,0.4,0.9,0.6,1.3c0.4,0.7,0.7,1.6,1.8,1.7c0,0,0.1,0,0.1,0.1c0.2,0.4,0.6,0.5,0.9,0.6c0.6,0.2,1.2,0.5,1.8,0.6
		c0.6,0.1,1.2,0.2,1.9,0.1c0.1,0,0.2,0,0.3,0c0.4-0.1,0.8-0.1,1.2-0.2c0.4-0.1,0.8-0.3,1.2-0.4c0,0,0-0.1,0.1-0.2
		c0.2-0.1,0.4-0.2,0.6-0.4c0.3-0.2,0.7-0.5,1-0.8c0.1-0.1,0.2-0.3,0.3-0.4c0.2-0.3,0.6-0.4,0.6-0.8c0-0.1,0.2-0.3,0.3-0.4
		c0.3,0.5,0.5,0.9,0.8,1.3c0.2,0.3,0.3,0.7,0.6,0.9c0.6,0.5,1.1,1,1.8,1.3c0.6,0.3,1.3,0.7,2,0.8c0.8,0.1,1.4,0,2-0.4
		c0.4-0.2,0.7-0.4,1.1-0.7c0.3-0.2,0.6-0.4,0.8-0.6c0.4-0.5,0.9-0.9,1.1-1.5c0.1-0.2,0.2-0.3,0.3-0.5c0.1-0.1,0.1-0.2,0.2-0.2
		c0.1,0,0.3,0.1,0.4,0.2c0.1,0.1,0.1,0.2,0.2,0.3c0.5,0.4,0.9,0.9,1.4,1.3c0.3,0.3,0.7,0.4,1.1,0.6c0.4,0.3,0.8,0.6,1.2,0.8
		c0.5,0.2,1.1,0.3,1.6,0.4c0.5,0.1,1.1,0.1,1.6,0.2c0.5,0.1,0.9-0.1,1.4,0c0,0,0,0,0,0c0.3-0.1,0.6-0.3,1-0.4
		c0.4-0.1,0.8-0.2,1.2-0.4c0.1,0,0.1-0.3,0.2-0.4c0.1-0.1,0.2-0.2,0.3-0.4c0.1-0.2,0.2-0.3,0.2-0.5c0.1-0.2,0.1-0.3,0.2-0.5
		c0.1-0.1,0.1-0.2,0.2-0.3c0.1-0.1,0.1-0.2,0.2-0.3c0.1-0.4,0.3-0.8,0.2-1c-0.2-0.3,0-0.6-0.1-0.8c0,0,0.1,0.1,0.1,0.1
		c0,0,0.1,0,0.1-0.1c-0.2-0.4-0.3-0.8-0.6-1.3c-0.1,0.2-0.2,0.3-0.3,0.4c0-0.1-0.1-0.2-0.1-0.3c-0.1,0.1-0.1,0.1-0.2,0.2
		c0,0,0-0.1,0-0.1c-0.1,0-0.2,0-0.3,0.1c-0.3,0.1-0.6,0.3-0.8,0.5c-0.1,0-0.1,0.2-0.2,0.2c-0.6,0.1-1.1,0.5-1.8,0.5
		c-0.6,0-1.2,0.1-1.8,0c-0.5-0.1-1-0.3-1.4-0.4c-0.2,0-0.4,0-0.5-0.1c-0.3-0.2-0.6-0.4-0.9-0.5c0,0,0,0,0,0
		c-0.2-0.3-0.5-0.6-0.7-0.9c-0.2-0.3-0.3-0.6-0.4-0.9c-0.3-0.8-0.6-1.6-0.1-2.5c0.2-0.3,0.2-0.7,0.3-1.1c0,0,0.1,0,0.1,0
		c0.1-0.5,0.2-0.9,0.3-1.4c0.1-0.2,0.2-0.5,0.2-0.7c0.2-0.6,0.3-1.1,0.4-1.7c0.1-0.3,0.1-0.5,0.2-0.7c0.1-0.1,0.2-0.2,0.4-0.2
		c0.3-0.1,0.7,0,1-0.1c1-0.2,2,0.1,3-0.2c0.2,0.4,0.5,0,0.7,0c0.7,0.1,1.5,0,2.2-0.1c0.3,0,0.7-0.1,1-0.1c0.2,0,0.4,0,0.7,0
		c0.4-0.1,0.9,0,1.4-0.1c0.2,0,0.5-0.2,0.7-0.3c0.2-0.1,0.6-0.4,0.6-0.6C605.4,161.3,605.4,161.3,605.7,161.3z M559.6,170.5
		c-0.2,0.4,0,0.8-0.2,1.2c-0.1,0.3-0.2,0.6-0.3,0.9c-0.2,0.3-0.4,0.7-0.6,1c-0.3,0.4-0.8,0.4-1.3,0.4c-0.2,0-0.4-0.1-0.5,0
		c-0.3,0.2-0.5,0-0.8,0c-0.4,0-0.8,0.2-1.2-0.1c-0.1,0-0.2,0-0.3,0c-0.3-0.1-0.7-0.2-1-0.4c-0.2-0.2-0.6-0.2-0.8-0.3
		c-0.4-0.2-0.8-0.5-1.1-0.8c-0.3-0.3-0.6-1.2-0.5-1.6c0-1.1,0.5-2.1,1-3c0,0,0.1-0.1,0.1-0.1c0.2-0.3,0.3-0.6,0.5-0.8
		c0.3-0.2,0.5-0.6,0.8-0.8c0.3-0.3,0.7-0.6,1-0.8c0.5-0.4,1-0.7,1.5-1c0.5-0.2,1-0.5,1.6-0.7c0.3-0.1,0.6-0.2,0.9-0.2
		c0.1,0,0.3-0.1,0.4-0.1c0.3,0,0.7,0.4,0.5,0.6c-0.2,0.4,0,0.6,0,0.9c0,1,0,2.1,0,3.1c0,0.1,0,0.1,0,0.2c0.2,0.5,0.1,1,0.1,1.5
		C559.5,169.8,559.7,170.2,559.6,170.5z"/>
	<path fill="#4E9934" d="M601.1,172.8c0,0,0,0.1,0,0.1c0,0,0,0,0,0C601.1,172.8,601.1,172.8,601.1,172.8z"/>
	<path fill="#4E9934" d="M420.5,175c-0.1-0.1-0.3-0.2-0.4-0.4c-0.3-0.6-0.6-1.2-0.7-1.9c-0.2-0.8-0.2-1.6-0.3-2.3
		c0-0.6,0.1-1.2,0.1-1.7c0-0.5,0.1-1,0.2-1.5c0.1-0.7,0.1-1.5,0.3-2.2c0.1-0.4,0.2-0.9-0.1-1.4c-0.1-0.1-0.1-0.4-0.2-0.7
		c-0.3-0.6-0.5-1.4-1.2-1.8c-0.4-0.2-1.3-0.2-1.6,0.2c-0.3,0.5-0.4,1-0.5,1.5c-0.1,0.4-0.1,0.8-0.2,1.2c-0.1,0.7-0.3,1.4-0.5,2.1
		c-0.1,0.5-0.1,1-0.2,1.4c-0.1,0.5-0.2,0.9-0.3,1.4c0,0.1-0.1,0.2-0.1,0.3c-0.2,0.4-0.4,0.9-0.6,1.3c-0.2,0.4-0.5,0.8-0.7,1.2
		c-0.3,0.4-0.7,0.7-1,1c-0.2,0.2-0.4,0.3-0.5,0.5c-0.2,0.1-0.4,0.2-0.5,0.3c-0.3,0.2-0.6,0.4-0.9,0.5c-0.6,0.2-1.1,0.3-1.7,0.5
		c-0.2,0-0.5,0.1-0.5-0.3c0-0.5-0.1-0.9-0.1-1.4c0-0.4,0-0.7,0.1-1.1c0.1-0.7,0.2-1.4,0.3-2.1c0.1-0.5,0.2-1,0.3-1.5
		c0.2-0.6,0.1-1.2,0.2-1.8c0-0.2,0-0.5,0.1-0.7c0-0.4,0.1-0.7,0.1-1.1c0-0.4-0.1-0.8-0.2-1.1c-0.1-0.4-0.1-0.8-0.2-1.2
		c0-0.2-0.1-0.4-0.2-0.6c-0.2-0.5-0.5-1-0.8-1.5c-0.3-0.5-0.6-1-1-1.3c-0.6-0.4-1.2-0.5-2-0.4c-0.6,0.1-1.2,0.2-1.7,0.5
		c-0.4,0.3-0.9,0.6-1.2,1c-0.3,0.3-0.7,0.7-1,1c-0.4,0.3-0.6,0.8-0.9,1.2c-0.3,0.4-0.5,0.8-0.7,1.2c-0.1-0.1-0.2-0.2-0.3-0.3
		c-0.3-0.4-0.5-0.8-0.9-1.1c-0.3-0.3-0.6-0.4-0.9-0.5c-0.6-0.2-1.3-0.4-2-0.5c-0.3-0.1-0.7,0-1,0c-0.6,0-1.2,0.2-1.7,0.4
		c-0.3,0.1-0.5,0.3-0.8,0.4c-0.3,0.1-0.6,0.2-0.9,0.4c-0.6,0.5-1.3,1-1.9,1.6c-0.5,0.5-0.9,1.1-1.3,1.6c-0.3,0.4-0.5,0.9-0.8,1.3
		c-0.2,0.4-0.3,0.8-0.5,1.1c-0.1,0.3-0.3,0.6-0.3,0.9c-0.1,0.5-0.2,1-0.3,1.5c-0.1,0.5-0.1,1-0.2,1.5c0,0.7,0,1.4,0,2.1
		c0,0.2,0.1,0.3,0.1,0.5c0.1,0.3,0.1,0.6,0.2,0.8c0.1,0.4,0.2,0.9,0.4,1.3c0.3,0.5,0.6,1.1,1,1.5c0.4,0.5,0.8,1,1.3,1.5
		c0.4,0.4,0.9,0.6,1.4,0.9c0.7,0.5,1.5,0.6,2.2,0.6c0.5,0,1.1-0.3,1.6-0.6c0.5-0.3,0.8-0.6,1.3-0.9c0.8-0.6,1.4-1.3,2-2
		c0.4-0.4,0.7-0.8,1-1.3c0.2-0.3,0.3-0.6,0.4-0.9c0.1-0.2,0.3-0.4,0.4-0.7c0.1-0.3,0.2-0.6,0.4-0.9c0.1-0.3,0.2-0.6,0.4-0.9
		c0.4-0.6,0.4-1.2,0.5-1.8c0-0.1,0-0.1,0-0.2c0.1,0.1,0.1,0.1,0.1,0.1c0.1-0.3,0.1-0.6,0.2-0.9c0.1-0.3,0.3-0.7,0.5-1
		c0.1-0.2,0.2-0.4,0.2-0.5c0-0.1,0-0.2,0-0.2c0-0.1,0-0.2,0.1-0.2c0.1-0.1,0.2-0.2,0.2-0.3c0.1-0.7,0.5-1.2,0.8-1.7
		c0.4-0.6,0.8-1.1,1.3-1.6c0.2-0.3,0.5-0.5,0.7-0.7c0.2-0.3,0.7-0.4,1.1-0.6c0.1,0.4,0.1,0.7,0.1,1c0.1,0.8,0,1.7-0.2,2.5
		c-0.1,0.6-0.3,1.2-0.4,1.8c-0.1,0.5-0.2,1-0.3,1.5c-0.1,0.7-0.2,1.3-0.2,2c0,0.6,0,1.2,0.1,1.9c0.2,0.9,0.2,1.8,0.8,2.6
		c0.1,0.2,0.3,0.4,0.4,0.6c0.3,0.9,1.1,1.4,1.8,1.8c0.5,0.3,1.1,0.3,1.6,0.3c0.8,0.1,1.6-0.2,2.4-0.4c0.9-0.3,1.9-0.7,2.6-1.4
		c0.6-0.5,1.1-1.2,1.6-1.8c0.1-0.2,0.2-0.4,0.3-0.5c0.1-0.1,0.3-0.1,0.3,0c0.5,0.8,1,1.6,1.6,2.4c0.1,0.1,0.3,0.1,0.5,0.2
		c0,0,0-0.1,0-0.1c0.3,0.2,0.5,0.4,0.8,0.6c0.5,0.4,0.9,0.5,1.4,0.1c0.2-0.1,0.4-0.1,0.5-0.2c0.2-0.2,0.3-0.5,0.4-0.8
		c0-0.1,0.1-0.2,0.1-0.3c-0.1-0.3-0.1-0.6-0.3-0.9C421,175.7,420.7,175.4,420.5,175z M397.7,168c-0.4,0.6-0.4,1.3-0.8,2
		c-0.4,0.8-0.8,1.6-1.2,2.4c-0.2,0.3-0.4,0.7-0.6,1c-0.2,0.2-0.4,0.4-0.6,0.6c-0.2,0.2-0.3,0.4-0.4,0.6c-0.1,0.3-0.6,0.3-0.6,0.7
		c0,0.1-0.2,0.1-0.4,0.2c-0.4,0.2-0.7,0.5-1.1,0.7c-0.1,0.1-0.2,0-0.3,0.1c-0.5,0.3-1.1,0.2-1.7,0c-0.1,0-0.2-0.3-0.4-0.3
		c-0.4-0.1-0.3-0.5-0.5-0.7c-0.1-0.3-0.1-0.6-0.2-0.9c0-0.2,0-0.4,0-0.6c0-0.8,0.2-1.5,0.4-2.2c0.1-0.3,0.2-0.7,0.3-1
		c0.1-0.3,0.4-0.7,0.5-1c0.1-0.3,0.3-0.5,0.4-0.8c0.2-0.3,0.5-0.7,0.7-1c0.1-0.1,0.2-0.2,0.3-0.3c0.4-0.5,1-0.8,1.5-1.1
		c0.5-0.3,1.1-0.6,1.7-0.8c0.3-0.1,0.6-0.1,0.9-0.1c0.5,0.1,1,0.3,1.5,0.5c0.3,0.1,0.6,0.3,0.9,0.5C398,166.9,398,167.5,397.7,168z"
		/>
	<path fill="#4E9934" d="M542,159.8c-0.2-0.2-0.2-0.4-0.3-0.7c0-0.1,0.1-0.2,0.1-0.3c-0.1,0-0.2,0-0.2-0.1c-0.2-0.4-0.5-0.3-0.8-0.3
		c-0.5-0.1-0.8,0.2-1.2,0.3c-0.8,0.2-1.6,0.3-2.4,0.4c-0.2,0-0.5,0-0.7,0c-0.5,0.1-1.1,0.3-1.6,0.3c-0.9,0.1-1.8,0-2.7,0
		c-0.3,0-0.6,0.1-0.9,0.1c0.1-0.7,0.1-1.3,0.2-1.9c0-0.6,0.1-1.3,0.1-1.9c0-0.5,0-1,0.1-1.5c0-1.1,0.2-2.2,0.1-3.3
		c0-0.5-0.2-1.2-0.6-1.6c-0.1-0.2-0.3-0.3-0.4-0.5c-0.1-0.2-0.1-0.5-0.4-0.5c0,0-0.1,0-0.1-0.1c-0.1-0.1-0.3-0.2-0.4-0.2
		c-0.3,0-0.7,0.1-1,0.2c0,0,0,0,0,0c-0.2,0.4-0.4,0.8-0.5,1.2c-0.2,0.6-0.4,1.2-0.5,1.8c-0.1,0.5-0.2,1.1-0.3,1.6
		c-0.1,0.7-0.3,1.4-0.5,2c-0.2,0.9-0.5,1.8-0.7,2.8c-0.1,0.7-0.2,1.5-0.3,2.3c-0.5,0-0.9-0.1-1.4-0.1c-0.9,0-1.4,0.1-1.5,1.2
		c0,0.1-0.2,0.3-0.1,0.4c0,0.2,0.1,0.5,0.1,0.7c0,0.1,0,0.2,0,0.3c0.4,0.6,0.8,1.1,1.1,1.6c0.2,0,0.3,0,0.4,0
		c0.2,0.1,0.4,0.2,0.5,0.4c0.1,0.1,0.2,0.2,0.2,0.3c0,0.3,0,0.6,0,0.8c0,1,0,2,0,3c0,0.1,0.1,0.2,0.1,0.3c-0.1,0.2-0.3,0.4-0.4,0.7
		c-0.3,0.6-0.7,1.1-1.2,1.6c-0.2,0.2-0.5,0.4-0.7,0.7c-0.5,0.5-1.1,0.8-1.6,1.2c-0.2,0.1-0.4,0.2-0.5,0.3c-0.2,0.1-0.4,0.2-0.6,0.3
		c-0.4,0.1-0.8,0.1-1.2,0.2c-0.2,0.1-0.3,0-0.4,0c-0.1,0-0.3,0.1-0.4,0.1c-0.3,0-0.5-0.1-0.8-0.2c-0.3-0.1-0.7-0.1-1-0.1
		c-0.2,0-0.3-0.1-0.4-0.2c-0.2-0.2-0.5-0.5-0.6-0.8c-0.2-0.4-0.3-0.8-0.3-1.2c0-0.4,0-0.8,0.1-1.2c0.1-0.5,0.1-0.9,0.2-1.4
		c0.1-0.6,0.2-1.2,0.3-1.7c0,0,0-0.1,0-0.1c0.2-0.4,0.3-0.8,0.4-1.3c0.1-0.3,0.1-0.6,0.2-1c0-0.2,0.1-0.4,0.2-0.5
		c0.2-0.4,0.4-0.9,0.3-1.4c-0.1-0.6-0.3-1.1-0.5-1.6c-0.3-0.7-0.8-1.3-1.5-1.6c-0.4-0.2-1.2,0.1-1.3,0.5c-0.2,0.6-0.4,1.2-0.7,1.8
		c-0.1,0.2-0.1,0.4-0.2,0.6c-0.1,0.3-0.2,0.6-0.2,0.9c-0.1,0.5-0.3,0.9-0.4,1.4c-0.1,0.4-0.2,0.9-0.3,1.3c-0.1,0.8-0.3,1.5-0.4,2.3
		c-0.1,0.6-0.1,1.2-0.1,1.8c0.1,0.8,0.1,1.7,0.3,2.5c0.2,0.7,0.5,1.3,0.8,1.9c0.2,0.4,0.4,0.9,0.9,1.1c0.2,0.1,0.3,0.2,0.4,0.4
		c0.1,0.3,0.5,0.3,0.5,0.6c0,0.1,0.2,0.1,0.3,0.2c0.5,0.3,0.8,0.7,1.3,0.9c0.3,0.1,0.6,0.2,0.8,0.4c0.3,0.3,0.7,0.3,1.1,0.3
		c0.8,0.1,1.5,0.1,2.3,0c0.3,0,0.5-0.1,0.8-0.2c0.2,0,0.3-0.1,0.5-0.2c0.1,0,0.2,0,0.3,0c0.5-0.2,1-0.4,1.5-0.7
		c0.3-0.2,0.6-0.4,0.9-0.6c0.4-0.3,0.7-0.6,1-1c0.3-0.3,0.7-0.6,1-0.9c0.2-0.2,0.5-0.5,0.8-0.7c0.3,0.4,0.5,0.8,0.7,1.1
		c0.1,0.2,0.3,0.5,0.5,0.6c0.3,0.1,0.5,0.3,0.7,0.4c0.1,0.1,0.2,0.2,0.3,0.3c0.6,0.5,1.2,1.1,2,1.3c0.8,0.2,1.5,0.4,2.3,0.5
		c0.5,0,0.9-0.2,1.4-0.3c0.4-0.1,0.7-0.3,1-0.5c0.3-0.2,0.6-0.4,0.8-0.7c0.1-0.1,0.2-0.2,0.2-0.3c0.1-0.2,0-0.5,0.2-0.6
		c0.5-0.4,0.2-1.1,0.6-1.5c-0.2-0.3-0.2-0.5-0.2-0.8c0-0.4-0.3-0.8-0.5-1.2c0,0-0.1-0.1-0.1-0.1c-0.1,0-0.2,0.1-0.3,0.1
		c0-0.1,0-0.3,0-0.5c-0.2,0.1-0.5,0.1-0.7,0.2c0,0-0.1,0-0.1,0c0,0,0,0.1,0,0.1c-0.1,0-0.3,0-0.4,0c-0.1,0.1-0.3,0.3-0.4,0.4
		c-0.1,0.1-0.3,0.2-0.4,0.3c-0.3,0.1-0.6,0.3-0.9,0.3c-0.5,0.1-1.1,0.2-1.6,0.1c-0.4,0-0.9-0.1-1.2-0.4c-0.4-0.3-0.7-0.8-1-1.2
		c-0.2-0.3-0.3-0.6-0.3-1c-0.1-0.5-0.2-0.9-0.2-1.4c0-0.5,0.2-0.9,0.4-1.3c0.1-0.2,0.2-0.4,0.3-0.5c0.1-0.3,0.1-0.5,0.2-0.8
		c0.2-0.6,0.3-1.2,0.4-1.8c0-0.2,0-0.5,0.1-0.6c0.1-0.2,0.3-0.3,0.6-0.1c0,0,0,0,0,0c0.5-0.1,1.1-0.2,1.6-0.3c0.7-0.1,1.5,0,2.2-0.1
		c0.7-0.2,1.4-0.1,2.1-0.2c0.5-0.1,1-0.1,1.4-0.2c0.4-0.1,0.7-0.2,1.1-0.3c0.4-0.1,0.7-0.3,1.1-0.4c0.2-0.1,0.4-0.2,0.6-0.3
		c0.2-0.2,0.5-0.3,0.6-0.6c0.2-0.2,0.2-0.6,0.3-0.9c0-0.1,0-0.4-0.1-0.6C541.9,160.3,542.2,160.1,542,159.8z"/>
	<path fill="#4E9934" d="M386.8,153.3c0.2-0.8,0.5-1.6,0.7-2.4c0.2-0.8,0.5-1.6,0.7-2.5c0.1-0.7,0.4-1.4,0-2.1
		c-0.1-0.2-0.3-0.5-0.3-0.7c0-0.3-0.4-0.4-0.4-0.6c0-0.3-0.1-0.4-0.4-0.5c-0.2-0.1-0.4-0.2-0.6-0.4c-0.4-0.3-1-0.1-1.2,0.3
		c-0.2,0.5-0.5,0.9-0.7,1.4c-0.1,0.3-0.1,0.7-0.2,1c-0.1,0.3-0.1,0.6-0.2,0.8c-0.2,0.5-0.4,1-0.6,1.6c-0.3,0.7-0.6,1.3-0.8,2
		c-0.1,0.4-0.2,0.8-0.3,1.1c-0.1,0.2-0.2,0.4-0.3,0.7c-0.1,0.3-0.2,0.6-0.2,0.9c-0.1,0.2-0.4,0.4-0.2,0.7c0,0-0.1,0-0.1,0
		c-0.1,0.1-0.1,0.3-0.2,0.4c-0.2,0.4-0.3,0.8-0.5,1.2c-0.1,0.2-0.3,0.4-0.5,0.6c-0.3,0.3-0.7,0.6-1,0.9c-0.2,0.2-0.5,0.3-0.8,0.5
		c-0.4,0.3-0.9,0.7-1.3,0.9c-0.5,0.3-1.1,0.7-1.7,0.9c-0.7,0.2-1.4,0.4-2.1,0.5c-0.6,0.1-1.2-0.1-1.8-0.1c-0.6,0-1-0.3-1.4-0.9
		c-0.3-0.4-0.5-0.9-0.5-1.4c0-0.5-0.2-1-0.3-1.6c0-0.2,0.1-0.5,0.1-0.8c-0.1-0.4,0-0.8,0-1.3c0.1-0.9,0.1-1.8,0.2-2.6
		c0-0.1,0.1-0.3,0-0.4c-0.1-0.2,0.1-0.2,0.1-0.2c0-0.2,0-0.3,0-0.5c0-0.4,0.1-0.8,0-1.3c0-0.4-0.2-0.8-0.3-1.2
		c-0.1-0.4-0.3-0.8-0.5-1.1c-0.3-0.4-0.8-0.7-1.1-1.1c-0.4-0.4-1.2-0.4-1.5,0c-0.3,0.4-0.4,0.8-0.4,1.2c0,0.2-0.1,0.5-0.1,0.7
		c0,0.3,0.1,0.6,0.1,0.9c0,0.8-0.1,1.6-0.1,2.4c0,0.7-0.1,1.4,0,2.1c0,1.2,0,2.5,0.1,3.7c0.2,1.3,0.5,2.5,1.1,3.7
		c0.6,1,1.2,1.9,2.1,2.6c0.5,0.4,1,0.7,1.6,0.9c0.4,0.2,0.8,0.2,1.3,0.3c0.4,0.1,0.7,0.2,1.1,0.2c0.4,0,0.8,0,1.2-0.1
		c0.2,0,0.5,0,0.7,0c0.5-0.1,0.9-0.3,1.4-0.5c0.4-0.1,0.8-0.3,1.3-0.5c0,0.1,0.1,0.2,0.1,0.2c-0.3,0.3-0.1,0.7-0.5,1.1
		c-0.2,0.2-0.3,0.7-0.4,1c-0.1,0.2-0.1,0.3-0.1,0.5c-0.2,0.7-0.5,1.4-0.7,2.1c-0.1,0.4-0.1,0.8-0.2,1.2c-0.1,0.4-0.2,0.9-0.3,1.3
		c-0.1,0.4-0.1,0.7-0.2,1.1c-0.1,0.5-0.2,1-0.3,1.5c0,0.3,0,0.5-0.1,0.8c-0.1,0.5-0.2,1-0.3,1.4c0,0.8,0,1.5,0,2.3
		c0,0.1,0,0.3,0.1,0.4c0.2,0.4,0.5,0.8,0.8,1.2c0.1,0.2,0.2,0.4,0.4,0.5c0.3,0.2,0.7,0.2,1.1,0.3c0.2,0,0.4,0.1,0.5,0.1
		c0.3-0.1,0.5-0.3,0.7-0.5c0.2-0.2,0.4-0.4,0.3-0.7c0-0.1,0-0.2,0.1-0.2c0.3-0.5,0.3-1.1,0.2-1.7c0-0.2-0.2-0.5-0.1-0.5
		c0.3-0.1-0.2-0.4,0.1-0.6c-0.3-0.3,0-0.7,0-1c0-0.3,0.1-0.7,0.1-1c0-0.3,0-0.7,0.1-1c0.1-0.7,0.3-1.3,0.5-2c0-0.1,0-0.1,0-0.2
		c0.1-0.3,0.2-0.6,0.3-0.9c0.1-0.4,0.2-0.8,0.4-1.2c0.1-0.4,0.3-0.8,0.4-1.3c0.1-0.4,0.2-0.9,0.4-1.3c0.1-0.2,0.2-0.4,0.2-0.6
		c0.2-0.5,0.4-0.9,0.6-1.4c0.2-0.4,0.3-0.8,0.5-1.2c0.1-0.4,0.3-0.8,0.4-1.1c0.1-0.2,0.1-0.4,0.2-0.6c0.1-0.3,0.3-0.5,0.5-0.8
		c0.2-0.7,0.4-1.4,0.7-2.1c0.1-0.2,0.2-0.5,0.3-0.7c0.1-0.2,0.2-0.4,0.2-0.7c0-0.1,0-0.3,0.1-0.4c0.3-0.6,0.7-1.2,1-1.8
		C386.5,154.7,386.6,154,386.8,153.3z"/>
	<path fill="#4E9934" d="M609.3,175.4c0-0.1,0-0.3-0.1-0.4c-0.3-0.5-0.6-1-1.1-1.3c-0.1-0.1-0.2-0.2-0.3-0.3
		c-0.2-0.1-0.4-0.3-0.5-0.3c-0.3,0-0.7,0.1-0.9,0.4c-0.3,0.4-0.9,0.7-0.9,1.4c0,0.5-0.1,1,0,1.5c0.1,0.2,0.1,0.4,0.2,0.6
		c0.1,0.2,0.3,0.5,0.5,0.7c0.2,0.2,0.5,0.5,0.8,0.6c0.3,0.1,0.6,0.1,1,0.1c0.8,0.2,1.4-0.3,1.4-1
		C609.3,176.7,609.3,176.1,609.3,175.4z"/>
	<path d="M363.5,175.4c0-0.1,0-0.3-0.1-0.4c-0.3-0.5-0.6-1-1.1-1.3c-0.1-0.1-0.2-0.2-0.3-0.3c-0.2-0.1-0.4-0.3-0.5-0.3
		c-0.3,0-0.7,0.1-0.9,0.4c-0.3,0.4-0.9,0.7-0.9,1.4c0,0.5-0.1,1,0,1.5c0.1,0.2,0.1,0.4,0.2,0.6c0.1,0.2,0.3,0.5,0.5,0.7
		c0.2,0.2,0.5,0.5,0.8,0.6c0.3,0.1,0.6,0.1,1,0.1c0.8,0.2,1.4-0.3,1.4-1C363.5,176.7,363.5,176.1,363.5,175.4z"/>
	<path fill="#4E9934" d="M517.2,155.6c0.2,0.1,0.5,0.2,0.7,0c0.1-0.1,0.3-0.2,0.5-0.2c0.1,0,0.3,0,0.4,0c0,0-0.1-0.1-0.1-0.1
		c0.2-0.3,0.4-0.7,0.5-1c0.1,0,0.1,0,0.2,0c-0.1-0.2-0.3-0.4-0.4-0.6c0,0-0.1-0.1-0.1-0.1c-0.1-0.5-0.3-1-0.7-1.4
		c-0.2-0.2-0.5-0.5-0.7-0.6c-0.5-0.3-0.8,0.1-1.2,0.3c-0.5,0.3-0.6,0.6-0.6,1.1c0,0.2-0.1,0.5-0.1,0.7c0,0.3,0,0.6,0.1,0.9
		C516.2,155,516.6,155.4,517.2,155.6z"/>
	<path d="M295,164.4c0.2-0.1,0.4-0.2,0.1-0.4c-0.1-0.1,0.1-0.3,0.1-0.5c0-0.4,0-0.9,0.1-1.3c0.1-0.7,0.5-1.2,1-1.5
		c0.4-0.2,0.9-0.2,1.3,0.1c0.4,0.2,0.7,0.6,1,0.9c0.1,0.1,0.2,0.1,0.3,0.2c0.1,0.1,0.3,0.2,0.3,0.3c0,1,0.1,2,0,3
		c-0.1,0.8-0.1,1.6-0.3,2.4c-0.1,0.7-0.2,1.3-0.2,2c0,0.4-0.2,0.8-0.2,1.1c0,0.2,0.1,0.5,0.1,0.7c0,0,0,0.1,0,0.1c0,0.1,0,0.2,0,0.3
		c-0.1,0.2-0.2,0.4-0.2,0.6c0,0.7,0,1.4-0.1,2.1c-0.2,1-0.2,2-0.2,3.1c0,0.2-0.1,0.3-0.2,0.4c0,0.2,0.1,0.4,0.1,0.6
		c-0.1,0.4-0.2,0.9-0.2,1.3c-0.1,0.7-0.1,1.4-0.3,2.1c-0.2,0.5-0.1,1-0.1,1.4c-0.1,0.3-0.2,0.7-0.3,1c0,0.2-0.1,0.3-0.1,0.5
		c-0.1,0.6-0.3,1.2-0.4,1.8c-0.1,0.5-0.4,0.9-0.5,1.4c-0.1,0.2-0.2,0.4-0.2,0.7c-0.1,0.8-0.5,1.4-0.9,2c-0.2,0.4-0.4,0.8-0.6,1.2
		c0,0.1,0,0.1-0.1,0.2c-0.4,0.3-0.5,0.7-0.7,1c-0.2,0.4-0.4,0.9-0.7,1.2c-0.4,0.5-0.8,0.8-1.2,1.3c-0.3,0.3-0.4,0.7-0.7,1
		c-0.2,0.2-0.4,0.3-0.6,0.5c-0.1,0.1-0.2,0.1-0.3,0.2c-0.3,0.3-0.5,0.6-1,0.6c-0.3,0-0.6,0.3-0.9,0.5c-0.1,0-0.2,0-0.3,0
		c-0.3,0-0.6,0-0.9,0.1c-0.3,0.1-0.6,0.2-0.9,0.3c-0.1,0-0.1-0.1-0.2-0.1c-0.1-0.1-0.3-0.1-0.4-0.2c-0.8-0.1-1.6-0.2-2.2-0.9
		c0,0-0.1,0-0.1-0.1c-0.3-0.1-0.5-0.3-0.7-0.5c-0.2-0.3-0.5-0.4-0.8-0.7c-0.6-0.6-1.1-1.2-1.4-1.9c-0.1-0.3-0.3-0.5-0.4-0.8
		c0-0.1,0.1-0.5,0.2-0.6c0.1-0.5,0.6-1.5,0.7-1.4c0-0.2,0.8,0,0.8,0.4c0.2,0.3,0.4,0.4,0.6,0.7c0-0.1,0.1-0.2,0.1-0.2
		c0.4,0.4,0.7,0.8,1,1.1c0.5,0.4,0.9,0.9,1.6,0.9c0.2,0,0.5,0.2,0.6,0.1c0.3-0.1,0.5,0,0.7-0.1c0.2-0.1,0.5-0.2,0.7-0.3
		c0.3-0.2,0.7-0.4,1-0.7c0.4-0.4,0.8-0.8,1.1-1.3c0.5-0.6,0.8-1.3,1.3-1.8c0.5-0.5,0.8-1.2,1.1-1.8c0.3-0.6,0.6-1.1,0.8-1.7
		c0.1-0.3,0.1-0.7,0.2-1c0.1-0.3,0.2-0.6,0.3-0.9c0.1-0.4,0.2-0.8,0.3-1.2c0.1-0.5,0.3-1.1,0.4-1.6c0.1-0.4,0-0.9,0.1-1.2
		c0.3-0.5-0.2-1.2,0.3-1.7c0,0,0-0.3-0.1-0.4c-0.1-0.1-0.3,0-0.4,0c-0.5,0.5-1.1,0.5-1.6,0.8c-0.6,0.3-1.2,0-1.8,0
		c-0.4,0-0.8-0.3-1.1-0.5c-0.2-0.1-0.4-0.2-0.5-0.2c-0.3-0.1-0.7-0.2-0.9-0.4c-0.5-0.5-1-1-1.5-1.6c-0.3-0.3-0.6-0.6-0.8-1
		c-0.2-0.3-0.4-0.7-0.6-1.1c-0.2,0.3-0.4,0.7-0.6,1.1c0,0,0,0,0,0.1c-0.8,0.8-1.6,1.6-2.4,2.3c-0.4,0.3-0.9,0.5-1.4,0.8
		c-0.7,0.3-1.4,0.3-2.1,0.2c-0.3,0-0.7-0.2-1-0.4c-0.3-0.2-0.7-0.3-1-0.5c-0.2-0.1-0.4-0.2-0.5-0.4c-0.3-0.2-0.6-0.5-0.9-0.8
		c-0.2-0.2-0.4-0.5-0.6-0.8c-0.2-0.4-0.5-0.7-0.7-1.1c-0.5-0.9-0.9-1.8-1.3-2.6c-0.1-0.2-0.4-0.4-0.3-0.7c0-0.2-0.1-0.5-0.2-0.7
		c-0.1-0.2-0.2-0.4-0.2-0.6c0-0.1-0.1-0.2-0.1-0.2c0-0.2,0-0.5-0.1-0.7c-0.1-0.4-0.2-0.8-0.3-1.1c0-0.1,0-0.3,0.1-0.4
		c0,0-0.1,0-0.1-0.1c-0.2,0.3-0.5,0.5-0.6,0.8c-0.3,0.6-0.4,1.3-0.7,1.9c-0.3,0.6-0.4,1.3-0.6,2c-0.1,0.3-0.3,0.7-0.5,1
		c0,0.1-0.1,0.2-0.1,0.2c0,0.5-0.1,0.9-0.4,1.2c0,0.1,0,0.2,0,0.3c0,0.3-0.1,0.6-0.3,0.9c-0.1,0.2-0.1,0.4-0.2,0.6
		c-0.3,0.4-0.1,0.9-0.5,1.3c-0.1,0.1-0.2,0.3-0.2,0.4c-0.1,0.3-0.5,0.4-0.7,0.5c-0.4,0.2-0.8-0.1-1.2-0.2c-0.6-0.2-0.8-0.6-1-1.1
		c0-0.1-0.2-0.1-0.2-0.2c-0.2-0.5-0.4-0.9-0.5-1.4c-0.1-0.3,0-0.7,0-1c0-0.3,0.2-0.6-0.1-0.8c-0.2-0.1,0.1-0.3,0.1-0.5
		c-0.1-0.4,0-0.8,0-1.3c0-0.9-0.1-1.8,0.1-2.6c0.2-0.8,0-1.5,0.2-2.2c0.2-0.6,0.2-1.2,0.2-1.8c0-0.4,0.3-0.8,0.4-1.1
		c0-0.1,0-0.3,0-0.5c0-0.3-0.1-0.6,0.2-0.9c0.2-0.1,0.2-0.5,0.2-0.8c0.1-0.6,0.2-1.2,0.3-1.8c0-0.2,0.1-0.4,0.2-0.6
		c0.2-0.8,0.4-1.6,0.4-2.4c0-0.3,0.2-0.6,0.3-0.8c0.1-0.2,0.1-0.3,0.1-0.5c0.1-0.5,0.2-0.9,0.3-1.4c0.1-0.4,0.1-0.9,0.2-1.3
		c0-0.1,0.1-0.2,0.1-0.3c0.1-0.2,0.1-0.4,0.2-0.6c0.1-0.3,0.1-0.5,0.1-0.8c0-0.2-0.1-0.6,0.2-0.7c0,0,0,0,0-0.1
		c0.1-0.4,0.1-0.8,0.2-1.2c0-0.3-0.1-0.6,0.2-0.8c0,0,0-0.1,0-0.2c0.1-0.7,0.2-1.4,0.3-2.1c0.1-0.6,0.1-1.3,0.2-1.9
		c0.1-0.5,0.2-1.1,0.2-1.6c0-0.2-0.1-0.4-0.1-0.6c0-0.1-0.1-0.1,0-0.1c0.1-0.6-0.1-1.2-0.1-1.8c0-0.1,0-0.1-0.1-0.2
		c-0.4-0.4-0.3-0.9-0.1-1.3c0.2-0.3,0.2-0.6,0.4-0.9c0.5-0.5,1.1-0.6,1.8-0.2c0.2,0.1,0.3,0.2,0.5,0.3c0.1,0,0.1,0,0.2,0.1
		c0.3,0.4,0.5,0.8,0.8,1.2c0.1,0.2,0.2,0.4,0.2,0.6c0,0.5,0.4,1,0.1,1.6c-0.1,0.2,0.1,0.5,0.1,0.8c0,0.7,0,1.5-0.1,2.2
		c-0.1,0.6-0.3,1.1-0.4,1.7c-0.1,0.4-0.1,0.8-0.1,1.2c0,0.5,0,1-0.2,1.4c-0.2,0.6-0.3,1.3-0.4,1.9c-0.2,0.7-0.3,1.5-0.4,2.2
		c0,0.3-0.3,0.6-0.4,0.9c0,0,0,0,0,0c0,0.5-0.1,1-0.2,1.6c-0.1,0.4,0,0.9-0.2,1.3c-0.2,0.6-0.4,1.2-0.4,1.9c0,0.4-0.1,0.8-0.3,1.1
		c-0.1,0.2-0.1,0.4-0.1,0.6c-0.1,0.6-0.3,1.2-0.4,1.8c0,0.1,0,0.2,0,0.3c0,0.3,0,0.5-0.2,0.8c-0.2,0.4-0.2,0.9-0.1,1.5
		c0.2-0.3,0.4-0.6,0.5-1c0.2-0.5,0.5-0.9,0.7-1.4c0.2-0.4,0.6-0.7,0.7-1.2c0.2-0.7,0.8-1.1,1.2-1.6c0.2-0.2,1.1-0.3,1.3-0.1
		c0.3,0.2,0.5,0.4,0.8,0.5c0.6,0.3,1,0.8,1.2,1.5c0,0.1,0.1,0.3,0.2,0.4c0.1,0.4,0.2,0.8,0.3,1.2c0,0.2,0.1,0.3,0.1,0.5
		c0,0.1,0,0.2,0,0.4c-0.1,0.4-0.1,0.8,0.1,1.3c0.1,0.3-0.1,0.7,0,1.1c0.1,0.8,0.3,1.5,0.4,2.2c0.1,0.4,0.1,0.8,0.3,1.2
		c0.1,0.4,0.3,0.9,0.4,1.3c0.1,0.4,0.3,0.8,0.5,1.1c0.3,0.5,0.6,1.1,1.1,1.4c0.3,0.2,0.5,0.3,0.8,0.5c0.1,0,0.3,0,0.4-0.1
		c1-0.4,1.8-1.1,2.6-1.8c0.4-0.4,0.6-0.9,0.9-1.4c0-0.1,0.1-0.1,0.1-0.2c0.2-0.3,0.5-0.6,0.6-0.9c0.2-0.4,0.3-0.9,0.5-1.4
		c0.3-0.5,0.3-1,0.4-1.5c0.1-0.3,0.3-0.6,0.4-0.9c0-0.1,0-0.2,0-0.4c0.1-0.8,0.2-1.7,0.3-2.5c0-0.3,0-0.7,0.2-0.9
		c0.2-0.3,0.1-0.6,0.2-0.8c0.1-0.5,0.1-1,0.3-1.5c0.1-0.3,0.4-0.5,0.6-0.7c0.2-0.3,0.5-0.3,0.9-0.3c0.8-0.1,1.3,0.4,1.9,0.9
		c0.4,0.3,0.5,0.7,0.5,1.1c0,0.2,0.1,0.4,0.1,0.7c0,0.2-0.1,0.4-0.2,0.6c0,0.1-0.1,0.1-0.1,0.1c-0.1,0.5-0.1,1-0.2,1.5
		c0,0.2-0.1,0.3-0.2,0.4c0,0,0,0.1-0.1,0.1c-0.1,0.8-0.2,1.6-0.3,2.4c-0.1,0.8-0.2,1.5-0.2,2.3c0,0.5,0,1.1,0.1,1.6
		c0.2,0.9,0.4,1.8,0.9,2.6c0.4,0.8,1.1,1,1.9,1.1c0.6,0,1.1-0.5,1.5-0.8c0.7-0.5,1.2-1.2,1.6-2c0.3-0.5,0.7-1.1,0.7-1.8
		c0-0.4,0.3-0.8,0.4-1.2c0-0.1,0-0.2,0-0.3c0-0.7,0-1.3,0.1-2c0.1-0.8,0.2-1.7,0.2-2.5c0-0.2,0.1-0.4,0.1-0.6
		C295,164.5,295,164.5,295,164.4z"/>
	<path d="M355.6,177.4c-0.3,0.1-0.5,0.2-0.7,0.3c-0.3,0.1-0.5,0.4-0.7,0.5c-0.2,0.1-0.4,0.1-0.5,0.2c-0.5,0-0.9,0.4-1.4,0.4
		c-0.4,0-0.8,0.4-1.3,0.4c-0.1,0-0.2,0-0.3,0c-0.1,0-0.1-0.1-0.2,0c-0.8,0.5-1.6,0.2-2.4,0.2c-0.5,0-1.1-0.2-1.6-0.5
		c-0.5-0.2-0.8-0.5-1.1-0.8c-0.1-0.1-0.3-0.1-0.4-0.2c-0.5-0.4-0.9-1-1-1.7c-0.1-0.4,0-0.9-0.2-1.2c-0.2-0.4-0.2-0.8-0.1-1.2
		c0.1-0.9,0.4-1.7,1.1-2.2c0.1-0.1,0.4,0,0.6,0c0.1,0,0.2-0.1,0.1-0.1c0.4,0.1,0.7,0.2,1,0.3c0.1,0.3,0,0.7,0.2,0.9
		c0.5,0.4,0.3,0.9,0.5,1.3c0.2,0.4,0.5,0.4,0.9,0.6c0.6,0.3,1.1,0.1,1.7,0.1c0.4-0.1,0.8-0.1,1.2-0.2c0.2-0.1,0.5-0.2,0.7-0.3
		c0,0,0.1-0.1,0.1-0.1c0.4,0.1,0.7-0.2,1.1-0.3c0.3-0.1,0.6-0.3,0.6-0.5c0-0.2-0.3-0.5-0.5-0.6c-0.3-0.2-0.7-0.4-1.1-0.5
		c-0.6-0.2-1.2-0.4-1.9-0.7c-0.3-0.1-0.6-0.4-1-0.6c-0.3-0.2-0.7-0.3-1-0.5c-0.1-0.1-0.2-0.2-0.3-0.3c-0.3-0.3-0.7-0.5-1-0.8
		c-0.5-0.4-1-0.9-1.4-1.4c-0.3-0.4-0.6-0.9-0.7-1.4c-0.2-0.6-0.2-1.3-0.2-1.9c0-0.1,0.1-0.3,0.1-0.4c0-0.1,0.1-0.1,0.1-0.2
		c-0.1-0.9,0.1-1.4,0.6-2.2c0.2-0.4,0.4-0.6,0.8-0.7c0.3-0.1,0.6-0.4,0.9-0.5c0.2-0.1,0.4-0.1,0.6-0.1c0.4-0.1,2-0.2,2.5-0.1
		c0.8,0,1.8,0.4,2.5,0.7c0.6,0.2,1,0.7,1.5,1.2c0.5,0.5,1,1.1,1.4,1.7c0,0.1,0.2,0.1,0.2,0.1c0.4,0.8,0.9,1.6,0.8,2.5
		c-0.1,0.1-0.3,0.1-0.5,0.2c0.1,0.1,0.2,0.2,0.2,0.2c-0.2,0.2-0.4,0.4-0.6,0.5c-0.2,0.2-0.5,0.4-0.8,0.1c-0.2-0.2-0.4-0.3-0.7-0.3
		c-0.4,0-0.5-0.3-0.7-0.5c-0.2-0.3-0.5-0.5-0.8-0.7c-0.1-0.1-0.3-0.1-0.4-0.3c-0.4-0.5-0.9-0.6-1.3-0.9c-0.4-0.3-0.9-0.1-1.3-0.4
		c-0.3-0.2-0.6,0.3-1,0.4c-0.1,0-0.3,0.2-0.1,0.4c0.3,0.2,0.5,0.5,0.8,0.8c0.1,0.1,0.1,0.1,0.2,0.1c0.4-0.1,0.6,0.2,0.9,0.5
		c0.4,0.4,0.9,0.5,1.4,0.8c0.6,0.3,1.2,0.7,1.8,1c0.3,0.2,0.6,0.3,0.8,0.5c0.8,0.5,1.4,1,2,1.8c0.5,0.6,0.9,1.2,1.2,1.9
		c0.2,0.4,0.5,1,0.1,1.5c0,0,0,0.1,0,0.2c0.1,0.4-0.1,0.8-0.3,1.2c-0.1,0.2-0.1,0.4-0.2,0.6c-0.3,0.6-0.6,1.1-1.1,1.5
		C355.6,177.3,355.6,177.4,355.6,177.4z"/>
	<path d="M303.8,169.3c0,0,1.2-0.2,1.2,0.5c0,0.1,0,0.1,0,0.2c0.2,0.1,0.4,0.3,0.4,0.3c-0.1,0.7-0.5,1.2-0.9,1.7
		c0,0.1,0,0.2-0.1,0.2c0,0-0.1,0.1-0.1,0.1c0,0.2,0.2,0.4,0.1,0.6c-0.1,0.5,0.1,1,0.3,1.5c0.1,0.2,0.2,0.4,0.6,0.5
		c0.3,0.1,0.5,0.4,0.9,0.4c0.3,0,0.6,0.1,0.9,0.1c0.2,0,0.3,0,0.5-0.1c0.2,0,0.5-0.1,0.7-0.2c0.4-0.1,0.8-0.3,1.2-0.4
		c0.2-0.1,0.4-0.3,0.5-0.4c0.1-0.1,0.2-0.2,0.2-0.2c0.3,0,0.4-0.2,0.4-0.5c0-0.3-0.1-0.4-0.3-0.6c-0.3-0.3-0.6-0.7-0.9-0.9
		c-0.7-0.5-1.2-1.3-2.1-1.5c-0.1,0-0.2-0.1-0.2-0.2c-0.4-0.5-1.1-0.7-1.6-1c-0.3-0.2-0.7-0.3-0.9-0.7c-0.2-0.3-0.5-0.4-0.8-0.6
		c-0.1-0.1-0.2-0.2-0.3-0.3c-0.3-0.2-0.6-0.4-0.8-0.7c-0.5-0.4-0.8-0.9-0.9-1.5c-0.1-0.3-0.3-0.6-0.4-0.8c-0.1-0.4-0.1-0.9,0-1.3
		c0-0.4,0.1-0.8,0.2-1.2c0.1-0.4,0.3-0.7,0.6-1c0.4-0.4,0.9-0.8,1.3-1.1c0.3-0.2,0.8-0.2,1.2-0.4c0.4-0.1,0.8-0.2,1.3-0.3
		c0.1,0,0.2,0,0.4,0c0.2,0,0.4-0.1,0.7-0.1c0.1,0,0.2,0,0.3,0c0.7,0.1,1.3,0.3,2,0.4c0.1,0,0.1,0.1,0.2,0.1c0.1,0.1,0.1,0.2,0.1,0.2
		c0.7,0.1,1.3,0.8,1.5,1.4c0.2,0.5,0.2,0.6,0.4,1.1c0.1,0.3,0.1,0.7,0.2,1c0,0.2-0.1,0.4-0.1,0.6c0.1,0-0.4,1-0.6,1.5
		c0,0.1-0.1,0.2-0.2,0.3c-0.1,0.1-0.2,0.3-0.3,0.4c-0.5,0-1.1,0.2-1.4-0.3c-0.3-0.6-1-1.2-0.4-2.1c-0.3-0.3-0.7-0.4-1.1-0.2
		c0,0-0.1,0-0.1,0c-0.4,0.1-0.8,0.2-1.2,0.2c-0.2,0-0.3,0.1-0.5,0.1c0,0-0.1,0.2,0,0.3c0.3,0.4,0.8,0.6,1.1,0.9
		c0.5,0.6,1.2,0.9,1.9,1.3c0.8,0.5,1.5,1.1,2.2,1.6c0.8,0.5,1.4,1.3,1.9,2c0.5,0.6,0.8,1.3,1.2,2c0.1,0.3,0.3,0.5,0.2,0.9
		c0,0.4,0.1,0.7,0.1,1.1c0,0.2-0.1,0.3-0.1,0.5c0,0.1,0,0.3,0,0.5c0,0.2-0.1,0.4-0.2,0.6c0,0.1-0.1,0.2-0.1,0.2
		c0.1,0.4-0.2,0.8-0.4,0.9c-0.4,0.3-0.6,0.8-1,1c-0.2,0.1-0.2,0.4-0.5,0.3c0,0-0.1,0.1-0.1,0.1c-0.4,0.7-1.1,0.8-1.8,1.1
		c-0.7,0.3-1.4,0.5-2.2,0.6c-0.5,0.1-1.1,0-1.6,0c-0.5,0-1-0.1-1.4-0.3c-0.3-0.2-0.6-0.3-0.9-0.5c-0.7-0.4-1.4-0.8-1.9-1.6
		c-0.3-0.5-0.6-1-0.7-1.6c-0.2-0.7-0.9-2.7-0.6-3c0.1-0.1,0.2-1.3,0.3-1.7c0-0.2,0.2-0.3,0.3-0.5c0.4-0.5,0.8-1.1,1.2-1.5
		C303.2,169.1,303.9,169.2,303.8,169.3z"/>
	<path d="M336.2,175.6c0.1,0,0.2-0.1,0.3-0.1c0.5,0,1,0.1,1.5,0.1c0.4,0,0.9-0.1,1.3-0.2c0,0,0.1-0.1,0.1-0.1c0.5,0.3,1-0.1,1.6,0
		c0.2,0,0.7,0.4,0.9,0.4c0,0-0.2,1.2-0.2,1.2c-0.1,0.1-0.2,0.3-0.3,0.4c0,0.1-0.2,0.1-0.2,0.1c-0.2,0.3-0.4,0.3-0.7,0.3
		c-0.2,0-0.4,0.2-0.4,0.3c-0.1,0.2-0.2,0.3-0.5,0.3c-0.5,0-0.9,0.2-1.3,0.5c-0.3,0.2-0.6,0.3-0.9,0.3c-0.5,0-1-0.1-1.6-0.1
		c-0.2,0-0.4,0.1-0.6,0.1c-0.7,0.2-1.2-0.2-1.8-0.5c-0.5-0.2-0.9-0.4-1.4-0.5c0,0-0.1,0-0.1-0.1c-0.3-0.3-0.6-0.7-1-1
		c-0.3-0.3-0.6-0.5-0.9-0.8c-0.3-0.3-0.5-0.7-0.7-1.1c-0.2-0.4-0.5-0.9-0.7-1.4c-0.1-0.2-0.2-0.5-0.2-0.7c-0.1-0.4-0.1-0.9-0.3-1.2
		c-0.2-0.3,0-0.6-0.1-0.9c0-0.3-0.2-0.5-0.1-0.8c0-0.6-0.1-1.2,0.2-1.8c0-0.1,0-0.2,0-0.3c0.1-0.5,0.3-0.9,0.4-1.4
		c0.2-0.7,0.7-1.4,0.9-2.1c0.2-0.5,0.5-1,0.7-1.4c0.6-0.8,1.2-1.5,2-2.1c0.7-0.5,1.5-1,2.3-1.3c0.4-0.1,0.8-0.2,1.2-0.3
		c0.4-0.1,0.8-0.3,1.1-0.3c0.3,0,0.6,0.1,0.9,0.1c0.1,0,0.1,0.1,0.2,0.1c0.5-0.1,0.9,0.2,1.2,0.4c0.3,0.3,1,0.5,1,1.1
		c0.3,0,0.3,0.2,0.4,0.4c0.2,0.3,0.4,0.7,0.6,1c0.3,0.4,0.2,0.9,0.3,1.3c0,0.1,0.1,0.2,0.1,0.4c-0.2,0.1-0.2,0.3-0.1,0.5
		c0.1,0.3-0.1,0.7-0.1,1c-0.2-0.1-0.3-0.1-0.5-0.2c0,0.1,0,0.2,0,0.3c0,0.4-0.2,0.4-0.5,0.3c-0.3-0.2-0.7-0.3-1.1-0.5
		c-0.3-0.2-0.5-0.5-0.7-0.7c-0.4-0.5-0.9-1-1.5-1c-0.3,0-0.6,0.2-0.9,0.3c-0.3,0.1-0.6,0.3-0.9,0.4c-0.3,0.1-0.5,0.3-0.8,0.6
		c-0.3,0.3-0.6,0.4-0.9,0.7c-0.1,0.1-0.1,0.2-0.2,0.3c-0.2,0.4-0.5,0.7-0.6,1.1c-0.2,0.3-0.3,0.7-0.4,1.1c-0.1,0.4-0.2,0.8-0.3,1.1
		c0,0.1,0,0.2,0,0.2c0,0.3,0,0.7,0.1,1c0.1,0.7,0,1.3,0.4,2c0.2,0.5,0.4,1,0.8,1.3c0.4,0.3,0.7,0.7,1.1,0.9c0.1,0.1,0.4,0.1,0.5,0.2
		c0.3,0.1,0.7,0.1,1,0.2C335.8,175.5,336,175.6,336.2,175.6z"/>
	<path d="M325.3,172.7c0.1,0.2,0.2,0.4,0.3,0.6c0.2,0.3,0.5,0.6,0.4,1.1c-0.1,0.1,0.2,0.4,0.2,0.6c0,0.1,0,0.1-0.1,0.2
		c-0.1,0.2-0.4,0.4-0.1,0.7c0,0-0.2,0.4-0.4,0.4c-0.3,0.1-0.5,0.2-0.5,0.6c0,0.4-0.4,0.4-0.7,0.5c-0.2,0.1-0.3,0.2-0.5,0.2
		c-0.5,0.1-0.9,0.3-1.4,0.3c-0.4,0-0.8-0.1-1.2-0.2c-0.4-0.1-0.7-0.3-1-0.5c-0.3-0.2-0.6-0.3-0.9-0.6c-0.4-0.3-0.7-0.7-1.1-1
		c-0.3-0.3-0.5-0.6-0.7-1c-0.2-0.3-0.3-0.7-0.5-1c-0.1-0.2-0.2-0.4-0.3-0.7c0-0.1-0.1-0.1-0.1-0.2c0-0.2-0.1-0.5-0.1-0.7
		c-0.1-0.9-0.1-1.7-0.3-2.6c0-0.3,0-0.5,0.1-0.7c0-0.1,0-0.2,0-0.3c0-0.3,0-0.6,0-1c0-0.2,0.1-0.3,0.1-0.5c0.1-0.5,0.1-1,0.2-1.5
		c0-0.2,0.1-0.4,0.2-0.5c0-0.1,0-0.1,0.1-0.2c0.1-0.4,0.1-0.8,0.2-1.2c0-0.2,0.2-0.4,0.4-0.5c0.2-0.1,0.2-0.5,0.6-0.3
		c0.2,0.1,0.5,0,0.7-0.2c0.2-0.1,0.3,0,0.5,0c0.7,0.2,1.1,0.7,1.4,1.3c0.1,0.1,0.1,0.2,0.2,0.3c0.3,0.2,0.3,0.5,0.3,0.7
		c0,0.3,0,0.5-0.1,0.8c-0.1,0.4-0.2,0.8-0.3,1.1c0,0.1-0.1,0.2-0.1,0.3c-0.1,0.9-0.2,1.8-0.2,2.7c0,0.7,0.1,1.3,0.4,2
		c0.1,0.3,0.4,0.4,0.3,0.8c0,0.1,0.3,0.2,0.5,0.4c0.5,0.3,1,0.5,1.6,0.4c0.4-0.1,0.8-0.2,1.1-0.4
		C324.9,172.9,325.1,172.7,325.3,172.7z"/>
	<path d="M322.5,159.1c0-0.1,0-0.1-0.1-0.2c-0.1,0.2-0.2,0.4-0.4,0.5c-0.3,0.1-0.5,0.1-0.8-0.1c-0.1-0.1-0.3-0.1-0.5-0.2
		c-0.1,0-0.2-0.1-0.3-0.1c-0.3-0.3-0.5-0.7-0.7-1c-0.2-0.5-0.5-1-0.6-1.5c-0.1-0.4-0.1-0.8-0.1-1.1c0-0.2,0.1-0.4,0.2-0.5
		c0.1-0.1,0.1-0.3,0.3-0.3c0.2-0.1,0.3-0.5,0.7-0.2c0.1,0.1,0.3,0,0.4,0c0.5-0.1,0.8,0.1,1.1,0.5c0.1,0.2,0.2,0.4,0.3,0.5
		c0.3,0.3,0.3,0.6,0.4,1c0.1,0.5,0.2,1.1,0.3,1.7c0,0.1,0.1,0.1,0.1,0.2c0,0.1,0.1,0.3,0,0.4C322.8,158.5,322.7,158.7,322.5,159.1z"
		/>
	<g>
		<path d="M238.3,164c0.1,0.1,0.3,0.3,0.7,0.5c0.1-1.4,0.2-2.6,0.3-3.7c-0.1,0-0.1,0-0.2,0C238.6,161.7,238.3,162.7,238.3,164z"/>
		<path d="M264,148.6c0.2-0.6,0.3-1.9,0.4-2.5c0.1-0.5,0.2-1,0-1.4c0,0,0-0.1,0-0.1c0.1-0.9-0.9-3.2-1.5-4c-2.1-2.6-4.1-3-4.6-3.3
			c-0.4-0.3-1-0.4-1.4-0.6c-0.3-0.2-0.7-0.2-0.9-0.3c-0.3-0.1-0.7-0.3-1.1-0.4c-0.5-0.1-0.9-0.2-1.4-0.3c-0.6-0.1-1.2-0.2-1.8-0.2
			c-0.9,0-1.7,0.1-2.6,0.2c-0.2,0-0.5,0.1-0.8,0.2c0,0-0.2-0.1-0.3,0c-0.6,0.2-1.2,0.2-1.8,0.5c-0.5,0.2-1.1,0.3-1.6,0.4
			c-0.7,0.2-1.3,0.5-1.9,0.7c-0.5,0.1-1,0.4-1.4,0.8c-0.3,0.2-0.7,0.3-1,0.5c-0.7,0.6-1.3,1.3-2,1.9c-0.1,0.1-0.3,0.2-0.4,0.3
			c-0.2,0.3-0.3,0.6-0.4,0.9c-0.1,0.3-0.2,0.6-0.2,0.9c-0.1,0.7-0.2,1.4-0.2,2.1c0,0.4,0.1,0.9,0.4,1.2c0.4,0.4,0.9,0.8,1.2,1.3
			c0.1,0.1,0.4,0.3,0.6,0.2c0.3-0.1,0.4-0.7,0.9-0.6c0,0,0-0.1,0-0.1c0.1-0.3,0.1-0.5,0.2-0.8c0.1-0.3,0.2-0.6,0.4-0.9
			c0.3-0.5,0.7-1,1.1-1.3c0.6-0.5,1.1-1,1.9-1.2c0.4-0.1,0.9-0.4,1.3-0.5c0.5-0.2,0.9-0.4,1.4-0.6c0.4-0.2,0.8-0.4,1.3-0.4
			c0.7,0,1.5-0.3,2.2-0.4c0.4-0.1,0.9,0,1.4-0.1c0.9-0.2,1.7-0.2,2.6,0.1c0.1,0,0.3,0,0.4-0.1c0.1,0,0.2,0,0.2,0
			c0.3,0.1,0.5,0.2,0.8,0.3c0.9,0.2,1.7,0.7,2.4,1.3c0.3,0.2,0.5,0.4,0.7,0.7c0.6,1.1,1.1,2.2,0.9,3.4c-0.2,0.9-0.4,1.9-0.7,2.8
			c-0.1,0.5-0.4,1-0.6,1.4c-0.1,0.2-0.3,0.2-0.3,0.4c-0.1,0.3-0.2,0.5-0.3,0.8c-0.2,0.4-0.5,0.7-0.7,1.1c-0.2,0.4-0.4,0.9-0.7,1.2
			c-0.4,0.3-0.6,0.7-0.8,1c0,0,0,0.1-0.1,0.1c-0.4,0.4-0.7,0.8-1.1,1.2c-0.5,0.5-0.9,1-1.4,1.4c-0.4,0.4-0.8,0.7-1.2,1
			c-0.2,0.2-0.5,0.3-0.5,0.5c-0.1,0.3-0.5,0.1-0.5,0.5c-0.1,0.2-0.6,0.3-0.9,0.5c-0.2,0.1-0.4,0.3-0.6,0.4c-0.6,0.4-1.1,0.9-1.7,1.3
			c-0.1,0.1-0.2,0.1-0.3,0.2c-0.6,0.3-1.3,0.7-2,0.9c-0.4,0.2-0.8,0.6-1.3,0.5c0,0-0.1,0.1-0.1,0.1c-0.2,0.1-0.5,0.1-0.6,0.2
			c0-1.6,0.1-3.1,0.1-4.6c0,0,0,0.1,0.1,0.2c0-0.4,0-0.8,0-1.1c0-0.6-0.1-1.1-0.1-1.7c0-0.8,0-1.6,0-2.4c0-0.5-0.1-0.9-0.2-1.4
			c-0.1-0.3-0.2-0.6-0.2-0.9c-0.1-0.6-0.1-1.2-0.1-1.8c0-0.2-0.1-0.6-0.2-0.7c-0.5-0.2-0.5-0.7-0.8-1c-0.2,0-0.4-0.1-0.7-0.1
			c-0.2,0-0.4-0.1-0.6,0c-0.5,0.2-0.6,0.8-0.6,1.2c-0.1,1.3,0,2.7,0,4c0,0.8,0,1.5,0,2.3c0,0.1-0.1,0.1-0.1,0.2
			c-0.3,0.3-0.7,0.4-1.1,0.4c-0.2,0-0.4,0.2-0.7,0.4c-0.1,0.1-0.2,0.1-0.3,0.2c-0.2,0.1-0.5,0.2-0.6,0.6c-0.2,0.5-0.5,0.9-0.7,1.4
			c-0.3,0.5-0.7,1-0.9,1.6c-0.2,0.4-0.2,0.9-0.2,1.4c0,0.9-0.3,1.7,0.1,2.6c0.3,0.7,0.4,1.6,0.9,2.2c0.2,0.2,0.3,0.4,0.4,0.6
			c0.4,0.8,1.1,1.3,1.8,1.7c0.1,0,0.2,0.1,0.2,0.2c0,0.3-0.1,0.6-0.1,0.9c-0.1,0.8-0.1,1.6-0.2,2.4c-0.1,0.9-0.2,1.8-0.3,2.8
			c0,0.5-0.1,1,0,1.5c0.1,0.6,0.3,1.2,0.6,1.8c0.1,0.3,0.4,0.4,0.6,0.7c0.2,0.2,0.3,0.5,0.5,0.7c0.1,0.1,0.3,0.2,0.4,0.2
			c0.3,0,0.6-0.1,0.9-0.2c0,0,0-0.2,0.1-0.3c0.5-0.3,0.5-0.8,0.6-1.2c0.1-0.7,0.1-1.5,0.2-2.2c0.1-1.6,0.2-3.3,0.3-4.9
			c0-0.5,0.2-1,0.1-1.5c-0.1-0.4,0.2-0.6,0.4-0.7c0.3-0.2,0.7-0.2,1.1-0.3c0.8-0.2,1.5-0.3,2.2-0.7c0.5-0.3,1.1-0.4,1.7-0.6
			c0.2-0.1,0.4-0.2,0.6-0.3c0.3-0.2,0.6-0.5,0.9-0.6c0.5-0.3,1.1-0.5,1.6-0.8c0.7-0.5,1.4-1.1,2.1-1.6c0.4-0.3,0.8-0.6,1.1-1
			c0.3-0.3,0.5-0.5,0.8-0.8c0.2-0.3,0.6-0.4,0.8-0.7c0.2-0.2,0.5-0.4,0.6-0.6c0.2-0.5,0.7-0.8,1-1.2c0.2-0.2,0.3-0.4,0.5-0.7
			C257.7,159.4,262.2,154.8,264,148.6z M239,164.5c-0.3-0.3-0.6-0.4-0.7-0.5c0-1.2,0.3-2.3,0.8-3.2c0.1,0,0.1,0,0.2,0
			C239.2,161.9,239.1,163.1,239,164.5z"/>
	</g>
</g>
</svg>
