<?xml version="1.0" encoding="utf-8"?>
<!-- Generator: Adobe Illustrator 17.1.0, SVG Export Plug-In . SVG Version: 6.00 Build 0)  -->
<!DOCTYPE svg PUBLIC "-//W3C//DTD SVG 1.1//EN" "http://www.w3.org/Graphics/SVG/1.1/DTD/svg11.dtd">
<svg version="1.1" id="Layer_1" xmlns="http://www.w3.org/2000/svg" xmlns:xlink="http://www.w3.org/1999/xlink" x="0px" y="0px"
	 viewBox="-2 0 973.8 453.6"  xml:space="preserve">
<polyline fill="#FFFFFF" stroke="#CCCBCB" stroke-width="4" stroke-miterlimit="10" points="318.8,0 319.1,358.7 159.7,451.2 
	0,359.3 0,0.5 "/>
<g>
	<path fill="#4E9934" d="M148.3,105.3c-27.6-85-69.5-71.2-87.9-65.9c-18.8,5.3-21.7,2.9-21.7,2.9c28.7,93.2,103.4,65.9,103.4,65.9
		s-41-2.4-64.3-43L148.3,105.3z"/>
	<path fill="#100C08" d="M160.4,106c0.5-3.2,0.5-39.6,32.8-66.4c0,0,21-17.7,22.2,0c1.2,17.7-2.4,6.8-22,22.7S168.4,106,168.4,106
		H160.4L160.4,106z"/>
</g>
<polygon fill="#4E9934" points="289.8,337.2 160.3,412.2 30.4,337.2 30.4,187.6 160.1,112.6 289.8,187.4 "/>
<g>
	<g>
		<path fill="#FFFFFF" d="M67.1,214.9c0.2,4.8-2.7,8-7.5,8c-3.9,0-7-3.2-7-8s3.2-8,7.3-8C64,206.8,67.1,210.1,67.1,214.9z M53.8,312
			v-77.1H66V312H53.8L53.8,312z"/>
		<path fill="#FFFFFF" d="M77.1,299.3c2.7,1.7,7.5,3.9,12.5,3.9c7,0,11.4-4.3,11.4-11.1c0-6-2-9.9-9.9-15c-10.1-6.5-15.5-13-15.5-22
			c0-12.5,9.4-21.5,21.2-21.5c6.1,0,10.6,2,13.8,3.9l-3.4,9.4c-2.7-1.9-6.1-3.4-10.2-3.4c-6.7,0-10.1,4.8-10.1,9.7
			c0,5.3,1.9,8.2,9.6,13.5c8.9,5.8,16,12.6,16,23.6c0,15.5-10.4,22.9-23,22.9c-5.8,0-11.9-1.7-15.4-4.4L77.1,299.3z"/>
		<path fill="#FFFFFF" d="M154.1,312l-0.7-8.2h-0.5c-3.4,6-8.7,9.4-15.2,9.4c-10.4,0-18.3-8.7-18.3-22c0-19.5,15.5-28,32.8-28.2
			v-2.4c0-10.4-2.6-17.6-12.3-17.6c-4.8,0-9,1.7-12.6,3.9l-2.7-8.5c3.2-2.4,10.4-4.9,18.1-4.9c15.5,0,22.2,10.2,22.2,27.6v33.3
			c0,6,0,12.6,0.7,17.6h-11.1v0H154.1z M152.4,272c-6.3,0-21.2,1.2-21.2,17.9c0,10.1,4.9,13.8,9.6,13.8c5.5,0,10.1-3.9,11.6-11.6
			c0.3-1.5,0.3-2.9,0.3-4.3V272H152.4L152.4,272z"/>
		<path fill="#FFFFFF" d="M208,312l-0.7-8.2h-0.5c-3.4,6-8.7,9.4-15.2,9.4c-10.4,0-18.3-8.7-18.3-22c0-19.5,15.5-28,32.8-28.2v-2.4
			c0-10.4-2.6-17.6-12.3-17.6c-4.8,0-9,1.7-12.6,3.9l-2.7-8.5c3.2-2.4,10.4-4.9,18.1-4.9c15.5,0,22.2,10.2,22.2,27.6v33.3
			c0,6,0,12.6,0.7,17.6h-11.1C208,311.8,208,312,208,312z M206.3,272c-6.3,0-21.2,1.2-21.2,17.9c0,10.1,4.9,13.8,9.6,13.8
			c5.5,0,10.1-3.9,11.6-11.6c0.3-1.5,0.3-2.9,0.3-4.3V272H206.3L206.3,272z"/>
		<path fill="#FFFFFF" d="M269.3,310.1c-2.7,1.7-7.3,2.7-12.6,2.7c-16.9,0-28.3-13.7-28.3-39.1c0-22.2,11.1-40.3,30.5-40.3
			c4.1,0,8.5,1.2,10.8,2.4l-2.4,10.1c-1.7-0.7-4.8-2-8.7-2c-12.3,0-17.9,14.7-17.9,29.9c0,18.1,6.8,28.8,18.3,28.8
			c3.4,0,6.1-0.7,8.9-2L269.3,310.1z"/>
	</g>
</g>
<g>
	<path fill="#4E9934" d="M792.1,302.4c-0.7,0-1.4,0.2-1.9,0c-0.9-0.3-1.7,0-2.6,0c-1.2,0-2.2-0.2-3.2-0.5c-1.2-0.5-2.4-0.5-3.2-1.7
		c-0.3-0.5-0.9-1-1.2-1.5c-0.2-0.3-0.5-0.7-0.7-1.2c-0.2-0.3-0.5-0.9-0.7-1.2c-0.3-0.7-0.7-1.5-1.2-2.2c-0.3-0.5-0.3-0.9,0.2-1
		c0.5-0.3,1.2-0.5,1.7-0.7c0.9-0.3,1.9-0.5,2.7-1s1.9-0.9,2.7-1.4c0.5-0.3,1.2-0.5,1.4-1.2c0.2-0.5,0.3-1,0.5-1.5
		c0-0.2,0.3-0.5,0.2-0.5c-0.7-0.5,0-1.2-0.3-1.7c-0.3-0.5-0.5-1.4-0.7-2c-0.2-0.3-1.5-1.5-1.9-1.5h-0.2c-1,0.3-2.2,0.7-3.2,1.4
		c-0.9,0.5-1.7,0.9-2.7,1.4c-0.9,0.5-1.9,0.9-2.9,1.4c-0.7,0.3-1.5,0.9-2.4,1h0.2c-0.9,0.3-1.7,0.9-2.6,1.2c-0.7,0.3-1.2,0.9-2,0.7
		c0-0.7,0-1.2,0-1.7c0.2-2,0.2-3.8,0.3-5.8c0-0.9,0.2-1.5,0.3-2.4c0-0.7,0.2-1.4,0.2-2.2c0.2-1.4,0.3-2.7,0.9-3.9
		c0.3-1,0.5-2.2,0.7-3.2c0.2-0.7,0-1.4,0.2-2c0-0.5,0.2-1,0-1.5c-0.2-0.7-0.5-1.4-0.9-1.9c-0.3-0.5-1-0.7-1.4-1.4l-0.2-0.2
		c-0.5,0-1.2-0.3-1.7,0.3c-0.3,0.5-0.7,0.9-1,1.4c-0.2,0.2-0.2,0.5-0.3,0.9c-0.2,0.7-0.5,1.4-0.7,2.2c-0.2,0.9-0.5,1.5-0.7,2.4
		c-0.2,0.9-0.3,1.5-0.5,2.4c-0.3,1-0.5,2-0.9,2.9c0,0,0,0,0,0.2c-0.5,0.7-0.9,1.4-1.4,1.9c-0.5,0.3-0.9,0.7-1.4,0.9
		c-0.5,0.3-1.4,0.3-2,0.7c-0.5,0.2-1.2,0.3-1.4,1c-0.2,0-0.3,0-0.3,0.2c-0.5,0.5-0.9,1-1.4,1.4c-0.9,0.7-1.2,1.9-2.2,2.4
		c-0.2,0.2-0.3,0.7-0.5,0.9c-0.3,0.3-0.7,0.9-0.9,1.2c0,0,0,0-0.2-0.2c0,0.2,0,0.3,0,0.5c0,0,0,0-0.2,0v-0.2c-0.7,0.9-1.2,1.9-2,3.1
		c-0.2-0.3-0.5-0.5-0.7-0.9c-0.5-1-1.2-2-2-2.9c-1-1-2.2-1.5-3.4-2.2c-0.9-0.5-1.7-0.2-2.6,0.3c-0.5,0.2-0.9,0.7-1.2,1
		c-0.3,0.3-0.7,0.5-1,0.9c-0.5-1-1-2-1.5-2.9c-0.5-0.7-1.2-1.4-1.9-2c-0.9-0.9-1.7-1.7-2.7-2.2c-1.4-0.9-2.7-1.4-4.1-1.2
		c-1,0-2.2,0.2-3.2,0.5c-1,0.3-2.2,0.5-3.2,0.9c-0.3,0.2-0.7,0.3-1,0.5c-0.9,0.5-1.7,0.9-2.6,1.4c-1.2,0.7-2,1.7-3.1,2.6
		c-0.2,0.2-0.3,0.2-0.3,0.2c-0.3,0.7-0.9,1.4-1.2,2c-0.5,0.9-0.9,1.7-1.4,2.6c-0.2-0.3-0.3-0.7-0.5-1c-0.2-0.5-0.3-1-0.7-1.5
		c-0.3-0.7-1-1.2-1.4-1.9c-0.5-0.7-0.9-1.5-1.5-2c-0.9-0.9-1.9-1.5-2.9-2c-0.7-0.3-1.4-0.5-2-0.5s-1.4,0.2-2,0.3
		c-0.2,0.3-0.2,0.9-0.3,1c-0.5,0.2-0.3,0.5-0.3,0.7c0,0.5,0,1,0,1.4c0,0.5,0.3,1.2,0.7,1.7c0.2-0.3,0.2-0.3,0.3-0.5
		c0.2,1.5,1.2,2,2,2.4c0.9,0.2,1.2,0.9,1.9,1.4c0.3,0.2,0.7,0.5,1,0.9c0.5,1,1.2,2,1.5,3.1c0.3,1.2,0.5,2.6,0.7,3.6
		c0.2,1.4,0,2.9-0.7,3.9c-0.3,1-0.9,2-1.7,2.9c-0.2,0.2-0.3,0.5-0.5,0.7c-0.5,0.3-0.9,0.9-1.4,1.2c-0.7,0.3-1.5,0.3-2.2,0.7
		c-0.7,0.3-1.4-0.3-2.2,0c-0.7,0.2-1.2-0.2-1.7-0.5c-1.7-0.7-2.7-1.9-3.4-3.4c-0.5-1.2-0.7-2.7-0.9-3.9c-0.2-1.2-0.2-2.9,0.2-4.3
		c0.2-0.7,0-1.5,0-2.2c0-0.5,0-1-0.2-1.5c0-0.3-0.2-0.7-0.2-1c0-0.2,0.2-0.3,0-0.5c-0.2-0.5-0.5-1-0.9-1.5c-0.5-0.5-1-1-1.7-1.7
		c-0.3-0.3-1-0.5-1.4-0.3c-0.7,0.2-0.9,0.7-1.4,1.2c-0.3,0.5-0.5,1.2-0.5,1.9c-0.2,0.5,0,1-0.2,1.5c0,0.5-0.2,1-0.3,1.4
		c-0.2,0.3,0.3,0.7-0.2,1c0,0,0,0.2,0,0.3c-0.2,0.7-0.3,1.4-0.7,1.9c-0.2,0.3-0.2,0.7-0.3,1.2l0,0c-0.5,0.9-1,1.7-1.4,2.6
		c-0.7,1.7-1.7,3.2-3.1,4.4c-0.9,0.7-1.7,1.4-2.7,1.7c-0.7,0.2-1.4,0.3-2,0.5c-0.5,0.2-1.2,0.3-1.7,0.3c0-0.2,0.2-0.3,0-0.3
		c-0.2-0.2-0.3-0.2-0.3-0.2c-0.3-0.7-0.7-1.4-0.5-2.2c0.2-1,0.3-2,0.5-3.1c0.3-1.2,0.5-2.6,0.9-3.6c0.2-0.9,0.5-1.5,0.7-2.4
		c0.3-1.2,0.7-2.4,0.7-3.4c0-0.2,0-0.3,0-0.3c0.2-0.9,0.5-1.9,0.3-2.7c-0.2-1.2,0-2.6-1-3.4c-0.3-0.3-0.3-0.9-0.7-1.4
		c-0.9-1-1.9-1.5-2.9-1c-0.3,0.2-0.7,0.3-0.9,0.7c-0.3,0.5-0.3,1.2-0.5,1.9c-0.2,0.7-0.3,1.4-0.3,1.9c0,0.3,0,0.5-0.2,0.9
		c-0.2,0.5-0.2,0.9-0.3,1.4c-0.3,1-0.5,2-0.9,3.1s-0.7,2-0.9,3.1c-0.3,1.4-0.7,2.9-0.9,4.3c-0.2,1,0,2,0,3.1
		c-0.2,1.7,0.2,3.2,0.7,4.6c0.5,1.5,1.5,3.1,2.6,4.1c0.9,1,2.2,1.5,3.2,2c0.9,0.5,1.9,0.7,3.1,0.7c1.2-0.2,2.6-0.2,3.6-0.7
		c0,0,0,0,0.2,0c1.2-0.7,2.4-1.4,3.4-2.2c0.7-0.5,1.7-0.9,1.9-1.9c0-0.2,0.3-0.3,0.5-0.5c0.5-0.7,1.2-1.5,1.7-2.2
		c0.2,0.2,0.5,0.3,0.5,0.5c0.7,1.5,1.9,2.7,2.9,3.9c0.7,0.9,1.5,1.4,2.4,2c0.2,0.2,0.5,0.5,0.7,0.5c0.7,0.3,1.4,0.5,2.2,0.7
		c1.4,0.5,2.7,1,4.1,1c0.9,0,1.9,0.2,2.7-0.2s1.9-0.9,2.7-1.4c1.9-1.2,3.6-2.6,4.6-4.6c0.5-0.9,0.9-1.7,1.4-2.6
		c0.2,0.2,0.2,0.3,0.3,0.5c0.5,0.7,1,1.5,1.5,2.2c0.5,0.5,1,1,1.5,1.5c0.9,0.7,1.9,1.4,2.7,2c0.5,0.3,1.2,0.3,1.5,0.7
		c0.5,0.5,1.4,0.7,2,0.9c1.5,0.3,3.1,0.7,4.4,0.3c0.9-0.2,1.7-0.5,2.4-0.9c0.9-0.3,1.7-0.9,2.6-1.4s1.5-1.4,2.4-2
		c0.7-0.7,1.2-1.5,1.7-2.4c0.5-0.9,1-1.7,1.5-2.6s0.9-1.9,1.4-2.7c0.2-0.3,0.2-0.7,0.3-1c0.2-0.7,0.3-1.5,0.7-2.2
		c0.3-1,0.9-2.2,1.4-3.2c0.3-0.7,0.7-1.2,1.2-1.9c0.3,0.5,0.5,0.7,0.7,1c0.3,1,0.7,2.2,0.9,3.2c0.2,0.7,0.5,1.4,0,2.2
		c-0.2,0.3-0.3,0.9-0.3,1.4c-0.2,2.2,0.2,4.3,0.9,6.3c0.2,0.3,0.3,0.7,0.3,1.2c0.2,1,0.7,1.7,1.7,1.9c0.2,0,0.2,0.3,0.3,0.5
		c0.9,0.5,1.5,1,2.6,0.3c0.7-0.3,1.4-1,1.4-1.9s0-1.5,0-2.4c0-0.7,0.2-1.5,0.2-2.2c0-0.5-0.3-1.2-0.2-1.7c0.2-0.5-0.3-1,0-1.7
		c0.3-0.7,0.5-1.5,0.9-2.4c0.5-1,1-2.2,1.5-3.2c0.3-0.5,0.9-1,0.9-1.7c0-0.5,0.5-0.9,0.9-1.4c0.3-0.7,0.9-1.2,1.2-1.9s1-1,1-1.9
		c0,0,0,0,0.2-0.2c0.3-0.2,0.7-0.3,1-0.5c0.9-0.5,1.5-1.2,2.7-1.2c0.7,0,0.7,0,0.7,0.7c0,0.3,0,0.9,0,1.2c0,0.9,0,1.9,0,2.7
		s0,1.9,0,2.7s-0.3,1.7,0,2.4c0,0.2,0,0.3-0.2,0.3c0,0.2-0.2,0.3-0.2,0.5c0,2.2,0,4.3-0.2,6.5c0,0.2-0.2,0.5-0.2,0.7
		c0.2,0.7,0.2,1.4,0.3,2c0.2,1,0.7,2,1.4,2.9c0.3,0.5,0.9,0.9,1.4,1.2c0.7,0.5,1.9,0.5,2.2-0.2c0.5-0.7,0.7-1.5,1-2.4l-0.2-0.3
		c0.3-0.3,0.2-0.7,0-1.2c-0.2-0.5-0.3-1-0.3-1.5c0-1.5,0.2-3.1,0.2-4.4c0-0.3,0-0.5,0-0.9c0.2,0,0.3,0,0.3,0
		c0.5,0.5,0.9,0.3,1.5,0.2c0.7-0.2,1.5,0,2.4,0l0.2,0.2c0.7,0.5,1,1.2,1.4,1.9c1,1.7,2.2,3.4,3.2,4.9c0.7,1.2,1.7,2,2.7,3.1
		c0.5,0.5,1.4,0.9,1.9,1.4c1.2,1.2,2.7,1.5,4.1,1.9c0.9,0.2,1.9,0,2.9,0c0.9,0,1.7,0,2.4-0.2c0.2,0,0.3,0,0.5-0.2
		c0.5-0.3,1-0.7,1.7-0.9c0.5-0.2,0.9-0.7,0.7-1c-0.3-0.3,0.2-0.3,0.2-0.7c0.7-0.2,0.5-0.7,0.5-1.2c0-0.2,0.2-0.3,0.2-0.5
		c0,0,0-0.2,0-0.3c-0.2-0.5-0.2-1.2-0.3-1.7C793.4,302.9,792.4,302.3,792.1,302.4z M736.4,290.3c-0.2,0.2-0.3,0.3-0.3,0.5
		c-0.2,1-0.9,1.9-1,2.7c-0.2,0.9-0.9,1.4-1,2.2c-0.2,0.7-0.7,1.2-1,1.7c-0.3,0.3-0.5,0.9-0.9,1.2c-0.5,0.5-0.9,1.2-1.4,1.7
		c-0.3,0.3-0.5,0.7-1,0.9c-0.5,0.3-1,0.5-1.5,0.7c-0.5,0.2-1,0.5-1.7,0.7c-0.7,0.2-1.4,0-2,0c-0.3,0-0.7-0.2-1.2-0.2
		c-1-0.3-1.9-0.7-2.9-1.2c-0.5-0.3-0.9-0.9-1.2-1.2c-0.5-0.3-0.9-0.7-1.2-1.4c-0.5-1.2-1-2.4-0.9-3.4c-0.2-1.4,0.3-2.6,0.9-3.4
		c0.3-0.7,0.5-1.5,0.9-2.2c0.2-0.5,0.7-0.9,1-1.2c0.7-0.7,1.5-1.4,2.2-2c0.5-0.3,1.2-0.7,1.7-1c0.3-0.2,0.9-0.3,1.4-0.7
		c1.2-0.5,2.6-0.9,3.8-0.9c0.7,0,1.2,0,1.7,0.2c1,0.2,1.5,1,2,1.7c0.9,0.9,1.5,1.7,2.2,2.6c0.3,0.3,0.5,0.7,1,0.7
		C736.9,288.8,736.8,290,736.4,290.3z"/>
	<path fill="#4E9934" d="M945.2,299.2L945.2,299.2L945.2,299.2z"/>
	<path fill="#4E9934" d="M965.6,279.6c0.3,0,0.7-0.5,0.7-0.9c0-0.9,0.3-1.7-0.5-2.4c0,0-0.2-0.2-0.2-0.3c0.2-0.7-0.3-0.9-0.7-1.2
		c-0.3-0.2-0.7-0.3-1-0.5l-0.2-0.2c-1.2,0-2.2-0.2-3.4,0c-1.2,0-2.4,0.2-3.4,0.2c-0.3,0-0.5-0.2-0.9-0.2c-0.3,0-0.7,0.2-1,0.2
		c-0.2,0-0.3,0-0.3,0c-1.4-0.5-2.9-0.2-4.1-0.3c-1,0-1.9,0-2.7-0.2c0-0.5,0.2-1,0.2-1.4c0-0.5,0-0.9,0-1.4c0.2-0.9,0.3-1.7,0.5-2.6
		c0-0.9,0.2-1.9,0.3-2.7c0.2-0.9,0-1.7-0.7-2.4c0,0-0.2-0.2-0.2-0.3c-0.2-0.3-0.2-0.9-0.3-1.2c-0.2-0.3-0.5-0.7-0.9-0.7
		c-0.5,0-0.9-0.3-1.4-0.2c-0.7,0.2-1,0.5-1.4,1c-0.5,0.9-1,1.5-1.4,2.4c-0.5,0.9-1,1.7-1.4,2.7c-0.3,0.5-0.5,1-0.9,1.5v0.2
		c-0.9,0.5-0.9,1.5-1.4,2.4c-0.2,0.3-0.3,0.9-0.5,1.2c-0.3,0.7-0.5,1.5-0.7,2c-0.5,0-0.9,0-1,0c-0.2,0-0.3,0-0.3,0
		c-1.2,0-2.2-0.2-3.4,0c-0.5,0-1,0.3-1.4,0.7c-0.7,0.5-0.7,1.5-0.9,2.2c-0.2,0.7-0.3,1.5,0.3,2l0.2,0.2c-0.2,0.7,0.3,1,0.7,1.4
		c0.9,1.2,2,1.5,3.4,1.5c0.3,0,0.3,0.2,0.3,0.5c0,0.3-0.2,0.9-0.2,1.2c0,1-0.2,2-0.2,3.1c0,0.3,0,0.5,0,0.9c0,0.5,0,1.2,0.2,1.7
		c0,0.9,0,1.5,0.2,2.4c0.2,1.2,0.5,2.2-0.3,3.2c-0.2,0.3-0.5,0.5-0.7,0.9c-0.2,0.3-0.3,0.7-0.7,1s-0.7,0.7-0.7,1
		c-0.3,0.5-0.7,1-1.2,1.4c-0.7,0.5-1.4,1-2.2,1c0.2,0,0.2,0,0.3,0.2c-0.9,0-1.5,0.2-2,0c-1-0.3-1.5-1.4-2.2-2.2
		c-0.2-0.2-0.3-0.3-0.3-0.7c-0.2-0.3-0.2-0.9-0.3-1.2c-0.2-0.5-0.3-1-0.5-1.5v-0.2c0-0.3,0.2-0.9,0.2-1.2c0-0.3-0.2-0.9-0.2-1.2
		c0.2-0.9,0.3-1.5,0.5-2.4c0.2-0.7,0-1.5,0.2-2.4c0.2-0.9,0.3-1.7,0.5-2.7c0.2-0.9,0-1.5,0.3-2.4c0.3-1,0.3-1.9,0-2.7
		c-0.3-1-0.7-1.9-1-2.7c-0.2-0.5-0.3-1-1-1c-0.2,0-0.2-0.2-0.3-0.3c-0.5-0.5-1.4-0.3-2,0.2c-1.4,1-1.4,2.6-1.7,3.9
		c0,0.3,0,0.7-0.2,0.9c-0.2,0.7-0.3,1.5-0.5,2.2c-0.2,1.4-0.3,2.9-0.7,4.1c-0.2,0.9-0.3,1.9-0.5,2.7c-0.2,0.9-0.5,2.2-1.2,3.2
		c-0.5,0.9-0.9,1.9-1.4,2.7c-0.3,0.5-0.7,1.2-1.2,1.7c-0.5,0.7-1.2,1.2-2,1.5c-0.7,0.2-1.5,0.5-2.2,0.7c-1.4,0.2-2.7,0-3.9-0.3
		c-0.9-0.2-1.4-0.7-1.4-1.7s0-1.9,0.5-2.9c0.3-0.5,0.2-1.4,0.3-1.9c0.2-0.9,0.5-1.5,0.7-2.4c0.3-1,0.5-2,0.7-3.1c0-0.2,0-0.2,0-0.3
		c0.3-0.9,0.7-1.5,0.9-2.4c0.2-0.7,0.2-1.5,0.2-2.2c0-0.9-0.2-1.9-0.2-2.7c0-0.5-0.2-1-0.3-1.4c-0.3-0.7-0.7-1.5-1-2.2
		c-0.3-0.5-0.7-1.2-1.2-1.5c-0.5-0.3-1.2-0.5-1.9-0.9c-1.5-0.7-2.9-1-4.4-1c-2-0.2-4.1-0.3-6.1,0.2c-1,0.2-2,0.3-2.9,1
		c-0.3,0.3-0.7,0.5-1.2,0.9c-0.5-1-1.7-1-2.6-1.2c-0.7-0.2-1.4,0.3-2,0.2c-1.2-0.2-2.2,0.9-3.4,0.7c-0.5,0.7-1.4,0.9-2,1.2
		c-0.9,0.5-1.7,1-2.6,1.5s-1.7,1-2.4,1.9l0,0c-0.9,0.5-1.5,1.2-2,2c-0.5,0.7-1.2,1.4-1.7,2c-0.2,0.2-0.5,0.5-0.5,0.7
		c0,0.7-0.7,1-0.9,1.5c-0.3,0.9-0.7,1.5-1,2.4c-0.2,0.5-0.2,1.2-0.3,1.7c-0.2,0.7-0.3,1.5-0.5,2.2c-0.2,0.5,0,1.2-0.2,1.5
		c-0.3,0.7,0,1.4,0.2,1.9c0.3,1.4,0.9,2.6,1.4,3.6c0.5,1.5,1.5,2.7,2.6,3.8c1,1,2,1.9,3.2,2.7c0.5,0.3,1.2,0.7,1.7,0.9
		c0.2,0.2,0.5,0.2,0.9,0.3c0.2,0.2,0.5,0.2,0.7,0.3c0.9,0.2,1.5,0.5,2.4,0.7c0.5,0.2,1,0.3,1.5,0.3c0.7,0,1.4-0.2,2-0.2
		c1,0,1.9,0,2.9,0c0.9-0.2,1.7-0.3,2.6-0.7c0.7-0.3,1.4-1,1.9-1.5c0.2-0.2,0.2-0.7,0.3-1c0.2-0.3,0.5-0.5,0.7-0.9
		c0.2-0.5,0.3-1.2,0.5-1.7c0.3-1.5,0.9-2.9,0.9-4.3c0-1.2,0-2.4,0-3.6s0-2.2,0-3.4c0-0.9-0.3-1.7,0-2.6c0.2-0.3-0.2-0.9-0.2-1.2
		c0-0.5,0.2-1,0.2-1.5c0-0.7-0.3-1.2,0-1.9c0.3-0.5,0.3-1.2,0.5-1.9c0,0,0.2,0,0.2-0.2c0.3-0.2,0.7-0.3,1-0.5c0.5-0.2,1-0.3,1.5-0.3
		c1.5,0.2,2.9-0.2,4.3,0.3c0.2,0.2,0.5,0.2,0.7,0.2c1,0.2,1.4,0.9,1,1.7c-0.3,0.7-0.7,1.5-0.7,2.4c-0.2,0.9-0.9,1.4-0.7,2.4
		c0,0.2-0.2,0.3-0.2,0.5c-0.2,0.7-0.3,1.4-0.7,2c-0.2,0.7-0.2,1.4-0.5,1.9c-0.2,0.3-0.2,0.9-0.3,1.4c-0.2,0.9-0.3,1.7-0.3,2.6
		c0,1.4,0.2,2.9,0.3,4.1l0.2,0.2c0.3,0.7,0.7,1.5,1,2.2c0.7,1.2,1.2,2.7,3.1,2.9c0,0,0.2,0,0.2,0.2c0.3,0.7,1,0.9,1.5,1
		c1,0.3,2,0.9,3.1,1c1,0.2,2,0.3,3.2,0.2c0.2,0,0.3,0,0.5,0c0.7-0.2,1.4-0.2,2-0.3c0.7-0.2,1.4-0.5,2-0.7c0,0,0-0.2,0.2-0.3
		c0.3-0.2,0.7-0.3,1-0.7c0.5-0.3,1.2-0.9,1.7-1.4c0.2-0.2,0.3-0.5,0.5-0.7c0.3-0.5,1-0.7,1-1.4c0-0.2,0.3-0.5,0.5-0.7
		c0.5,0.9,0.9,1.5,1.4,2.2c0.3,0.5,0.5,1.2,1,1.5c1,0.9,1.9,1.7,3.1,2.2c1,0.5,2.2,1.2,3.4,1.4c1.4,0.2,2.4,0,3.4-0.7
		c0.7-0.3,1.2-0.7,1.9-1.2c0.5-0.3,1-0.7,1.4-1c0.7-0.9,1.5-1.5,1.9-2.6c0.2-0.3,0.3-0.5,0.5-0.9c0.2-0.2,0.2-0.3,0.3-0.3
		c0.2,0,0.5,0.2,0.7,0.3c0.2,0.2,0.2,0.3,0.3,0.5c0.9,0.7,1.5,1.5,2.4,2.2c0.5,0.5,1.2,0.7,1.9,1c0.7,0.5,1.4,1,2,1.4
		c0.9,0.3,1.9,0.5,2.7,0.7c0.9,0.2,1.9,0.2,2.7,0.3s1.5-0.2,2.4,0l0,0c0.5-0.2,1-0.5,1.7-0.7c0.7-0.2,1.4-0.3,2-0.7
		c0.2,0,0.2-0.5,0.3-0.7c0.2-0.2,0.3-0.3,0.5-0.7c0.2-0.3,0.3-0.5,0.3-0.9c0.2-0.3,0.2-0.5,0.3-0.9c0.2-0.2,0.2-0.3,0.3-0.5
		s0.2-0.3,0.3-0.5c0.2-0.7,0.5-1.4,0.3-1.7c-0.3-0.5,0-1-0.2-1.4l0.2,0.2c0,0,0.2,0,0.2-0.2c-0.3-0.7-0.5-1.4-1-2.2
		c-0.2,0.3-0.3,0.5-0.5,0.7c0-0.2-0.2-0.3-0.2-0.5c-0.2,0.2-0.2,0.2-0.3,0.3v-0.2c-0.2,0-0.3,0-0.5,0.2c-0.5,0.2-1,0.5-1.4,0.9
		c-0.2,0-0.2,0.3-0.3,0.3c-1,0.2-1.9,0.9-3.1,0.9c-1,0-2,0.2-3.1,0c-0.9-0.2-1.7-0.5-2.4-0.7c-0.3,0-0.7,0-0.9-0.2
		c-0.5-0.3-1-0.7-1.5-0.9l0,0c-0.3-0.5-0.9-1-1.2-1.5c-0.3-0.5-0.5-1-0.7-1.5c-0.5-1.4-1-2.7-0.2-4.1c0.3-0.5,0.3-1.2,0.5-1.9h0.2
		c0.2-0.9,0.3-1.5,0.5-2.4c0.2-0.3,0.3-0.9,0.3-1.2c0.3-1,0.5-1.9,0.7-2.9c0.2-0.5,0.2-0.9,0.3-1.2c0.2-0.2,0.3-0.3,0.7-0.3
		c0.5-0.2,1.2,0,1.7-0.2c1.7-0.3,3.4,0.2,4.9-0.3c0.3,0.7,0.9,0,1.2,0c1.2,0.2,2.6,0,3.6-0.2c0.5,0,1.2-0.2,1.7-0.2
		c0.3,0,0.7,0,1.2,0c0.7-0.2,1.5,0,2.4-0.2c0.3,0,0.9-0.3,1.2-0.5c0.3-0.2,1-0.7,1-1C965.1,279.6,965.1,279.6,965.6,279.6z
		 M888.8,294.9c-0.3,0.7,0,1.4-0.3,2c-0.2,0.5-0.3,1-0.5,1.5c-0.3,0.5-0.7,1.2-1,1.7c-0.5,0.7-1.4,0.7-2.2,0.7c-0.3,0-0.7-0.2-0.9,0
		c-0.5,0.3-0.9,0-1.4,0c-0.7,0-1.4,0.3-2-0.2c-0.2,0-0.3,0-0.5,0c-0.5-0.2-1.2-0.3-1.7-0.7c-0.3-0.3-1-0.3-1.4-0.5
		c-0.7-0.3-1.4-0.9-1.9-1.4c-0.5-0.5-1-2-0.9-2.7c0-1.9,0.9-3.4,1.7-4.9l0.2-0.2c0.3-0.5,0.5-1,0.9-1.4c0.5-0.3,0.9-1,1.4-1.4
		c0.5-0.5,1.2-1,1.7-1.4c0.9-0.7,1.7-1.2,2.6-1.7c0.9-0.3,1.7-0.9,2.7-1.2c0.5-0.2,1-0.3,1.5-0.3c0.2,0,0.5-0.2,0.7-0.2
		c0.5,0,1.2,0.7,0.9,1c-0.3,0.7,0,1,0,1.5c0,1.7,0,3.4,0,5.1c0,0.2,0,0.2,0,0.3c0.3,0.9,0.2,1.7,0.2,2.6
		C888.8,293.7,889,294.4,888.8,294.9z"/>
	<path fill="#4E9934" d="M958,298.7L958,298.7L958,298.7L958,298.7z"/>
	<path fill="#4E9934" d="M657.2,302.4c-0.2-0.2-0.5-0.3-0.7-0.7c-0.5-1-1-2-1.2-3.2c-0.3-1.4-0.3-2.7-0.5-3.8c0-1,0.2-2,0.2-2.9
		s0.2-1.7,0.3-2.6c0.2-1.2,0.2-2.6,0.5-3.6c0.2-0.7,0.3-1.5-0.2-2.4c-0.2-0.2-0.2-0.7-0.3-1.2c-0.5-1-0.9-2.4-2-3.1
		c-0.7-0.3-2.2-0.3-2.7,0.3c-0.5,0.9-0.7,1.7-0.9,2.6c-0.2,0.7-0.2,1.4-0.3,2c-0.2,1.2-0.5,2.4-0.9,3.4c-0.2,0.9-0.2,1.7-0.3,2.4
		c-0.2,0.9-0.3,1.5-0.5,2.4c0,0.2-0.2,0.3-0.2,0.5c-0.3,0.7-0.7,1.5-1,2.2c-0.3,0.7-0.9,1.4-1.2,2c-0.5,0.7-1.2,1.2-1.7,1.7
		c-0.3,0.3-0.7,0.5-0.9,0.9c-0.3,0.2-0.7,0.3-0.9,0.5c-0.5,0.3-1,0.7-1.5,0.9c-1,0.3-1.9,0.5-2.9,0.9c-0.3,0-0.9,0.2-0.9-0.5
		c0-0.9-0.2-1.5-0.2-2.4c0-0.7,0-1.2,0.2-1.9c0.2-1.2,0.3-2.4,0.5-3.4c0.2-0.9,0.3-1.7,0.5-2.6c0.3-1,0.2-2,0.3-3.1
		c0-0.3,0-0.9,0.2-1.2c0-0.7,0.2-1.2,0.2-1.9c0-0.7-0.2-1.4-0.3-1.9c-0.2-0.7-0.2-1.4-0.3-2c0-0.3-0.2-0.7-0.3-1
		c-0.3-0.9-0.9-1.7-1.4-2.6c-0.5-0.9-1-1.7-1.7-2.2c-1-0.7-2-0.9-3.4-0.7c-1,0.2-2,0.3-2.9,0.9c-0.7,0.5-1.5,1-2,1.7
		c-0.5,0.5-1.2,1.2-1.7,1.7c-0.7,0.5-1,1.4-1.5,2c-0.5,0.7-0.9,1.4-1.2,2c-0.2-0.2-0.3-0.3-0.5-0.5c-0.5-0.7-0.9-1.4-1.5-1.9
		c-0.5-0.5-1-0.7-1.5-0.9c-1-0.3-2.2-0.7-3.4-0.9c-0.5-0.2-1.2,0-1.7,0c-1,0-2,0.3-2.9,0.7c-0.5,0.2-0.9,0.5-1.4,0.7
		c-0.5,0.2-1,0.3-1.5,0.7c-1,0.9-2.2,1.7-3.2,2.7c-0.9,0.9-1.5,1.9-2.2,2.7c-0.5,0.7-0.9,1.5-1.4,2.2c-0.3,0.7-0.5,1.4-0.9,1.9
		c-0.2,0.5-0.5,1-0.5,1.5c-0.2,0.9-0.3,1.7-0.5,2.6s-0.2,1.7-0.3,2.6c0,1.2,0,2.4,0,3.4c0,0.3,0.2,0.5,0.2,0.9
		c0.2,0.5,0.2,1,0.3,1.4c0.2,0.7,0.3,1.5,0.7,2.2c0.5,0.9,1,1.9,1.7,2.6c0.7,0.9,1.4,1.7,2.2,2.6c0.7,0.7,1.5,1,2.4,1.5
		c1.2,0.9,2.6,1,3.6,1c0.9,0,1.9-0.5,2.7-1c0.9-0.5,1.4-1,2.2-1.5c1.4-1,2.4-2.2,3.4-3.4c0.7-0.7,1.2-1.4,1.7-2.2
		c0.3-0.5,0.5-1,0.7-1.5c0.2-0.3,0.5-0.7,0.7-1.2c0.2-0.5,0.3-1,0.7-1.5c0.2-0.5,0.3-1,0.7-1.5c0.7-1,0.7-2,0.9-3.1
		c0-0.2,0-0.2,0-0.3c0.2,0.2,0.2,0.2,0.2,0.2c0.2-0.5,0.2-1,0.3-1.5c0.2-0.5,0.5-1.2,0.9-1.7c0.2-0.3,0.3-0.7,0.3-0.9s0-0.3,0-0.3
		c0-0.2,0-0.3,0.2-0.3c0.2-0.2,0.3-0.3,0.3-0.5c0.2-1.2,0.9-2,1.4-2.9c0.7-1,1.4-1.9,2.2-2.7c0.3-0.5,0.9-0.9,1.2-1.2
		c0.3-0.5,1.2-0.7,1.9-1c0.2,0.7,0.2,1.2,0.2,1.7c0.2,1.4,0,2.9-0.3,4.1c-0.2,1-0.5,2-0.7,3.1c-0.2,0.9-0.3,1.7-0.5,2.6
		c-0.2,1.2-0.3,2.2-0.3,3.4c0,1,0,2,0.2,3.2c0.3,1.5,0.3,3.1,1.4,4.3c0.2,0.3,0.5,0.7,0.7,1c0.5,1.5,1.9,2.4,3.1,3.1
		c0.9,0.5,1.9,0.5,2.7,0.5c1.4,0.2,2.7-0.3,3.9-0.7c1.5-0.5,3.2-1.2,4.3-2.4c1-0.9,1.9-2,2.7-3.1c0.2-0.3,0.3-0.7,0.5-0.9
		c0.2-0.2,0.5-0.2,0.5,0c0.9,1.4,1.7,2.7,2.7,3.9c0.2,0.2,0.5,0.2,0.9,0.3v-0.2c0.5,0.3,0.9,0.7,1.4,1c0.9,0.7,1.5,0.9,2.4,0.2
		c0.3-0.2,0.7-0.2,0.9-0.3c0.3-0.3,0.5-0.9,0.7-1.4c0-0.2,0.2-0.3,0.2-0.5c-0.2-0.5-0.2-1-0.5-1.5
		C658.1,303.4,657.6,302.9,657.2,302.4z M619.3,290.6c-0.7,1-0.7,2.2-1.4,3.4c-0.7,1.4-1.4,2.7-2,3.9c-0.3,0.5-0.7,1.2-1,1.7
		c-0.3,0.3-0.7,0.7-1,1s-0.5,0.7-0.7,1c-0.2,0.5-1,0.5-1,1.2c0,0.2-0.3,0.2-0.7,0.3c-0.7,0.3-1.2,0.9-1.9,1.2
		c-0.2,0.2-0.3,0-0.5,0.2c-0.9,0.5-1.9,0.3-2.9,0c-0.2,0-0.3-0.5-0.7-0.5c-0.7-0.2-0.5-0.9-0.9-1.2c-0.2-0.5-0.2-1-0.3-1.5
		c0-0.3,0-0.7,0-1c0-1.4,0.3-2.6,0.7-3.6c0.2-0.5,0.3-1.2,0.5-1.7c0.2-0.5,0.7-1.2,0.9-1.7c0.2-0.5,0.5-0.9,0.7-1.4
		c0.3-0.5,0.9-1.2,1.2-1.7c0.2-0.2,0.3-0.3,0.5-0.5c0.7-0.9,1.7-1.4,2.6-1.9c0.9-0.5,1.9-1,2.9-1.4c0.5-0.2,1-0.2,1.5-0.2
		c0.9,0.2,1.7,0.5,2.6,0.9c0.5,0.2,1,0.5,1.5,0.9C619.7,288.8,619.7,289.8,619.3,290.6z"/>
	<path fill="#4E9934" d="M859.6,277c-0.3-0.3-0.3-0.7-0.5-1.2c0-0.2,0.2-0.3,0.2-0.5c-0.2,0-0.3,0-0.3-0.2c-0.3-0.7-0.9-0.5-1.4-0.5
		c-0.9-0.2-1.4,0.3-2,0.5c-1.4,0.3-2.7,0.5-3.9,0.7c-0.3,0-0.9,0-1.2,0c-0.9,0.2-1.9,0.5-2.7,0.5c-1.5,0.2-3.1,0-4.4,0
		c-0.5,0-1,0.2-1.5,0.2c0.2-1.2,0.2-2.2,0.3-3.2c0-1,0.2-2.2,0.2-3.2c0-0.9,0-1.7,0.2-2.6c0-1.9,0.3-3.6,0.2-5.5c0-0.9-0.3-2-1-2.7
		c-0.2-0.3-0.5-0.5-0.7-0.9c-0.2-0.3-0.2-0.9-0.7-0.9c0,0-0.2,0-0.2-0.2c-0.2-0.2-0.5-0.3-0.7-0.3c-0.5,0-1.2,0.2-1.7,0.3l0,0
		c-0.3,0.7-0.7,1.4-0.9,2c-0.3,1-0.7,2-0.9,3.1c-0.2,0.9-0.3,1.9-0.5,2.7c-0.2,1.2-0.5,2.4-0.9,3.4c-0.3,1.5-0.9,3.1-1.2,4.6
		c-0.2,1.2-0.3,2.6-0.5,3.8c-0.9,0-1.5-0.2-2.4-0.2c-1.5,0-2.4,0.2-2.6,2c0,0.2-0.3,0.5-0.2,0.7c0,0.3,0.2,0.9,0.2,1.2
		c0,0.2,0,0.3,0,0.5c0.7,1,1.4,1.9,1.9,2.7c0.3,0,0.5,0,0.7,0c0.3,0.2,0.7,0.3,0.9,0.7c0.2,0.2,0.3,0.3,0.3,0.5c0,0.5,0,1,0,1.4
		c0,1.7,0,3.4,0,4.9c0,0.2,0.2,0.3,0.2,0.5c-0.2,0.3-0.5,0.7-0.7,1.2c-0.5,1-1.2,1.9-2,2.7c-0.3,0.3-0.9,0.7-1.2,1.2
		c-0.9,0.9-1.9,1.4-2.7,2c-0.3,0.2-0.7,0.3-0.9,0.5c-0.3,0.2-0.7,0.3-1,0.5c-0.7,0.2-1.4,0.2-2,0.3c-0.3,0.2-0.5,0-0.7,0
		c-0.2,0-0.5,0.2-0.7,0.2c-0.5,0-0.9-0.2-1.4-0.3c-0.5-0.2-1.2-0.2-1.7-0.2c-0.3,0-0.5-0.2-0.7-0.3c-0.3-0.3-0.9-0.9-1-1.4
		c-0.3-0.7-0.5-1.4-0.5-2s0-1.4,0.2-2c0.2-0.9,0.2-1.5,0.3-2.4c0.2-1,0.3-2,0.5-2.9v-0.2c0.3-0.7,0.5-1.4,0.7-2.2
		c0.2-0.5,0.2-1,0.3-1.7c0-0.3,0.2-0.7,0.3-0.9c0.3-0.7,0.7-1.5,0.5-2.4c-0.2-1-0.5-1.9-0.9-2.7c-0.5-1.2-1.4-2.2-2.6-2.7
		c-0.7-0.3-2,0.2-2.2,0.9c-0.3,1-0.7,2-1.2,3.1c-0.2,0.3-0.2,0.7-0.3,1c-0.2,0.5-0.3,1-0.3,1.5c-0.2,0.9-0.5,1.5-0.7,2.4
		c-0.2,0.7-0.3,1.5-0.5,2.2c-0.2,1.4-0.5,2.6-0.7,3.8c-0.2,1-0.2,2-0.2,3.1c0.2,1.4,0.2,2.9,0.5,4.1c0.3,1.2,0.9,2.2,1.4,3.2
		c0.3,0.7,0.7,1.5,1.5,1.9c0.3,0.2,0.5,0.3,0.7,0.7c0.2,0.5,0.9,0.5,0.9,1c0,0.2,0.3,0.2,0.5,0.3c0.9,0.5,1.4,1.2,2.2,1.5
		c0.5,0.2,1,0.3,1.4,0.7c0.5,0.5,1.2,0.5,1.9,0.5c1.4,0.2,2.6,0.2,3.8,0c0.5,0,0.9-0.2,1.4-0.3c0.3,0,0.5-0.2,0.9-0.3
		c0.2,0,0.3,0,0.5,0c0.9-0.3,1.7-0.7,2.6-1.2c0.5-0.3,1-0.7,1.5-1c0.7-0.5,1.2-1,1.7-1.7c0.5-0.5,1.2-1,1.7-1.5
		c0.3-0.3,0.9-0.9,1.4-1.2c0.5,0.7,0.9,1.4,1.2,1.9c0.2,0.3,0.5,0.9,0.9,1c0.5,0.2,0.9,0.5,1.2,0.7c0.2,0.2,0.3,0.3,0.5,0.5
		c1,0.9,2,1.9,3.4,2.2c1.4,0.3,2.6,0.7,3.8,0.9c0.9,0,1.5-0.3,2.4-0.5c0.7-0.2,1.2-0.5,1.7-0.9c0.5-0.3,1-0.7,1.4-1.2
		c0.2-0.2,0.3-0.3,0.3-0.5c0.2-0.3,0-0.9,0.3-1c0.9-0.7,0.3-1.9,1-2.6c-0.3-0.5-0.3-0.9-0.3-1.4c0-0.7-0.5-1.4-0.9-2l-0.2-0.2
		c-0.2,0-0.3,0.2-0.5,0.2c0-0.2,0-0.5,0-0.9c-0.3,0.2-0.9,0.2-1.2,0.3h-0.2v0.2c-0.2,0-0.5,0-0.7,0c-0.2,0.2-0.5,0.5-0.7,0.7
		c-0.2,0.2-0.5,0.3-0.7,0.5c-0.5,0.2-1,0.5-1.5,0.5c-0.9,0.2-1.9,0.3-2.7,0.2c-0.7,0-1.5-0.2-2-0.7c-0.7-0.5-1.2-1.4-1.7-2
		c-0.3-0.5-0.5-1-0.5-1.7c-0.2-0.9-0.3-1.5-0.3-2.4s0.3-1.5,0.7-2.2c0.2-0.3,0.3-0.7,0.5-0.9c0.2-0.5,0.2-0.9,0.3-1.4
		c0.3-1,0.5-2,0.7-3.1c0-0.3,0-0.9,0.2-1c0.2-0.3,0.5-0.5,1-0.2l0,0c0.9-0.2,1.9-0.3,2.7-0.5c1.2-0.2,2.6,0,3.6-0.2
		c1.2-0.3,2.4-0.2,3.4-0.3c0.9-0.2,1.7-0.2,2.4-0.3c0.7-0.2,1.2-0.3,1.9-0.5c0.7-0.2,1.2-0.5,1.9-0.7c0.3-0.2,0.7-0.3,1-0.5
		c0.3-0.3,0.9-0.5,1-1c0.3-0.3,0.3-1,0.5-1.5c0-0.2,0-0.7-0.2-1C859.5,277.8,860,277.5,859.6,277z"/>
	<path fill="#4E9934" d="M601.1,266.2c0.3-1.4,0.9-2.7,1.2-3.9s0.9-2.7,1.2-4.1c0.2-1.2,0.7-2.4,0-3.4c-0.2-0.3-0.5-0.9-0.5-1.2
		c0-0.5-0.7-0.7-0.7-1c0-0.5-0.2-0.7-0.7-0.9c-0.3-0.2-0.7-0.3-1-0.7c-0.7-0.5-1.7-0.2-2,0.5c-0.3,0.9-0.9,1.5-1.2,2.4
		c-0.2,0.5-0.2,1.2-0.3,1.7c-0.2,0.5-0.2,1-0.3,1.4c-0.3,0.9-0.7,1.7-1,2.7c-0.5,1.2-1,2.2-1.4,3.4c-0.2,0.7-0.3,1.4-0.5,1.9
		c-0.2,0.3-0.3,0.7-0.5,1.2c-0.2,0.5-0.3,1-0.3,1.5c-0.2,0.3-0.7,0.7-0.3,1.2h-0.2c-0.2,0.2-0.2,0.5-0.3,0.7c-0.3,0.7-0.5,1.4-0.9,2
		c-0.2,0.3-0.5,0.7-0.9,1c-0.5,0.5-1.2,1-1.7,1.5c-0.3,0.3-0.9,0.5-1.4,0.9c-0.7,0.5-1.5,1.2-2.2,1.5c-0.9,0.5-1.9,1.2-2.9,1.5
		c-1.2,0.3-2.4,0.7-3.4,0.9c-1,0.2-2-0.2-3.1-0.2s-1.7-0.5-2.4-1.5c-0.5-0.7-0.9-1.5-0.9-2.4s-0.3-1.7-0.5-2.7
		c0-0.3,0.2-0.9,0.2-1.4c-0.2-0.7,0-1.4,0-2.2c0.2-1.5,0.2-3.1,0.3-4.3c0-0.2,0.2-0.5,0-0.7c-0.2-0.3,0.2-0.3,0.2-0.3
		c0-0.3,0-0.5,0-0.9c0-0.7,0.2-1.4,0-2.2c0-0.7-0.3-1.4-0.5-2s-0.5-1.4-0.9-1.9c-0.5-0.7-1.4-1.2-1.9-1.9c-0.7-0.7-2-0.7-2.6,0
		c-0.5,0.7-0.7,1.4-0.7,2c0,0.3-0.2,0.9-0.2,1.2c0,0.5,0.2,1,0.2,1.5c0,1.4-0.2,2.7-0.2,3.9c0,1.2-0.2,2.4,0,3.4c0,2,0,4.1,0.2,6.1
		c0.3,2.2,0.9,4.1,1.9,6.1c1,1.7,2,3.2,3.4,4.3c0.9,0.7,1.7,1.2,2.7,1.5c0.7,0.3,1.4,0.3,2.2,0.5c0.7,0.2,1.2,0.3,1.9,0.3
		c0.7,0,1.4,0,2-0.2c0.3,0,0.9,0,1.2,0c0.9-0.2,1.5-0.5,2.4-0.9c0.7-0.2,1.4-0.5,2.2-0.9c0,0.2,0.2,0.3,0.2,0.3
		c-0.5,0.5-0.2,1.2-0.9,1.9c-0.3,0.3-0.5,1.2-0.7,1.7c-0.2,0.3-0.2,0.5-0.2,0.9c-0.3,1.2-0.9,2.4-1.2,3.4c-0.2,0.7-0.2,1.4-0.3,2
		c-0.2,0.7-0.3,1.5-0.5,2.2c-0.2,0.7-0.2,1.2-0.3,1.9c-0.2,0.9-0.3,1.7-0.5,2.6c0,0.5,0,0.9-0.2,1.4c-0.2,0.9-0.3,1.7-0.5,2.4
		c0,1.4,0,2.6,0,3.8c0,0.2,0,0.5,0.2,0.7c0.3,0.7,0.9,1.4,1.4,2c0.2,0.3,0.3,0.7,0.7,0.9c0.5,0.3,1.2,0.3,1.9,0.5
		c0.3,0,0.7,0.2,0.9,0.2c0.5-0.2,0.9-0.5,1.2-0.9c0.3-0.3,0.7-0.7,0.5-1.2c0-0.2,0-0.3,0.2-0.3c0.5-0.9,0.5-1.9,0.3-2.9
		c0-0.3-0.3-0.9-0.2-0.9c0.5-0.2-0.3-0.7,0.2-1c-0.5-0.5,0-1.2,0-1.7c0-0.5,0.2-1.2,0.2-1.7c0-0.5,0-1.2,0.2-1.7
		c0.2-1.2,0.5-2.2,0.9-3.4c0-0.2,0-0.2,0-0.3c0.2-0.5,0.3-1,0.5-1.5c0.2-0.7,0.3-1.4,0.7-2c0.2-0.7,0.5-1.4,0.7-2.2
		c0.2-0.7,0.3-1.5,0.7-2.2c0.2-0.3,0.3-0.7,0.3-1c0.3-0.9,0.7-1.5,1-2.4c0.3-0.7,0.5-1.4,0.9-2c0.2-0.7,0.5-1.4,0.7-1.9
		c0.2-0.3,0.2-0.7,0.3-1c0.2-0.5,0.5-0.9,0.9-1.4c0.3-1.2,0.7-2.4,1.2-3.4c0.2-0.3,0.3-0.9,0.5-1.2c0.2-0.3,0.3-0.7,0.3-1.2
		c0-0.2,0-0.5,0.2-0.7c0.5-1,1.2-2,1.7-3.1C600.6,268.5,600.7,267.4,601.1,266.2z"/>
	<path fill="#4E9934" d="M971.6,302.9c0-0.2,0-0.5-0.2-0.7c-0.5-0.9-1-1.7-1.9-2.2c-0.2-0.2-0.3-0.3-0.5-0.5
		c-0.3-0.2-0.7-0.5-0.9-0.5c-0.5,0-1.2,0.2-1.5,0.7c-0.5,0.7-1.5,1.2-1.5,2.4c0,0.9-0.2,1.7,0,2.6c0.2,0.3,0.2,0.7,0.3,1
		c0.2,0.3,0.5,0.9,0.9,1.2c0.3,0.3,0.9,0.9,1.4,1s1,0.2,1.7,0.2c1.4,0.3,2.4-0.5,2.4-1.7C971.6,305.2,971.6,304.1,971.6,302.9z"/>
	<path d="M562.3,302.9c0-0.2,0-0.5-0.2-0.7c-0.5-0.9-1-1.7-1.9-2.2c-0.2-0.2-0.3-0.3-0.5-0.5c-0.3-0.2-0.7-0.5-0.9-0.5
		c-0.5,0-1.2,0.2-1.5,0.7c-0.5,0.7-1.5,1.2-1.5,2.4c0,0.9-0.2,1.7,0,2.6c0.2,0.3,0.2,0.7,0.3,1c0.2,0.3,0.5,0.9,0.9,1.2
		c0.3,0.3,0.9,0.9,1.4,1c0.5,0.2,1,0.2,1.7,0.2c1.4,0.3,2.4-0.5,2.4-1.7C562.3,305.2,562.3,304.1,562.3,302.9z"/>
	<path fill="#4E9934" d="M818.3,270c0.3,0.2,0.9,0.3,1.2,0c0.2-0.2,0.5-0.3,0.9-0.3c0.2,0,0.5,0,0.7,0l-0.2-0.2
		c0.3-0.5,0.7-1.2,0.9-1.7c0.2,0,0.2,0,0.3,0c-0.2-0.3-0.5-0.7-0.7-1l-0.2-0.2c-0.2-0.9-0.5-1.7-1.2-2.4c-0.3-0.3-0.9-0.9-1.2-1
		c-0.9-0.5-1.4,0.2-2,0.5c-0.9,0.5-1,1-1,1.9c0,0.3-0.2,0.9-0.2,1.2c0,0.5,0,1,0.2,1.5C816.6,269,817.3,269.7,818.3,270z"/>
	<path d="M448.2,284.7c0.3-0.2,0.7-0.3,0.2-0.7c-0.2-0.2,0.2-0.5,0.2-0.9c0-0.7,0-1.5,0.2-2.2c0.2-1.2,0.9-2,1.7-2.6
		c0.7-0.3,1.5-0.3,2.2,0.2c0.7,0.3,1.2,1,1.7,1.5c0.2,0.2,0.3,0.2,0.5,0.3c0.2,0.2,0.5,0.3,0.5,0.5c0,1.7,0.2,3.4,0,4.9
		c-0.2,1.4-0.2,2.7-0.5,3.9c-0.2,1.2-0.3,2.2-0.3,3.4c0,0.7-0.3,1.4-0.3,1.9c0,0.3,0.2,0.9,0.2,1.2v0.2c0,0.2,0,0.3,0,0.5
		c-0.2,0.3-0.3,0.7-0.3,1c0,1.2,0,2.4-0.2,3.4c-0.3,1.7-0.3,3.4-0.3,5.1c0,0.3-0.2,0.5-0.3,0.7c0,0.3,0.2,0.7,0.2,1
		c-0.2,0.7-0.3,1.5-0.3,2.2c-0.2,1.2-0.2,2.4-0.5,3.4c-0.3,0.9-0.2,1.7-0.2,2.4c-0.2,0.5-0.3,1.2-0.5,1.7c0,0.3-0.2,0.5-0.2,0.9
		c-0.2,1-0.5,2-0.7,3.1c-0.2,0.9-0.7,1.5-0.9,2.4c-0.2,0.3-0.3,0.7-0.3,1.2c-0.2,1.4-0.9,2.4-1.5,3.4c-0.3,0.7-0.7,1.4-1,2
		c0,0.2,0,0.2-0.2,0.3c-0.7,0.5-0.9,1.2-1.2,1.7c-0.3,0.7-0.7,1.5-1.2,2c-0.7,0.9-1.4,1.4-2,2.2c-0.5,0.5-0.7,1.2-1.2,1.7
		c-0.3,0.3-0.7,0.5-1,0.9c-0.2,0.2-0.3,0.2-0.5,0.3c-0.5,0.5-0.9,1-1.7,1c-0.5,0-1,0.5-1.5,0.9c-0.2,0-0.3,0-0.5,0
		c-0.5,0-1,0-1.5,0.2c-0.5,0.2-1,0.3-1.5,0.5c-0.2,0-0.2-0.2-0.3-0.2c-0.2-0.2-0.5-0.2-0.7-0.3c-1.4-0.2-2.7-0.3-3.6-1.5
		c0,0-0.2,0-0.2-0.2c-0.5-0.2-0.9-0.5-1.2-0.9c-0.3-0.5-0.9-0.7-1.4-1.2c-1-1-1.9-2-2.4-3.2c-0.2-0.5-0.5-0.9-0.7-1.4
		c0-0.2,0.2-0.9,0.3-1c0.2-0.9,1-2.6,1.2-2.4c0-0.3,1.4,0,1.4,0.7c0.3,0.5,0.7,0.7,1,1.2c0-0.2,0.2-0.3,0.2-0.3
		c0.7,0.7,1.2,1.4,1.7,1.9c0.9,0.7,1.5,1.5,2.7,1.5c0.3,0,0.9,0.3,1,0.2c0.5-0.2,0.9,0,1.2-0.2c0.3-0.2,0.9-0.3,1.2-0.5
		c0.5-0.3,1.2-0.7,1.7-1.2c0.7-0.7,1.4-1.4,1.9-2.2c0.9-1,1.4-2.2,2.2-3.1s1.4-2,1.9-3.1c0.5-1,1-1.9,1.4-2.9
		c0.2-0.5,0.2-1.2,0.3-1.7c0.2-0.5,0.3-1,0.5-1.5c0.2-0.7,0.3-1.4,0.5-2c0.2-0.9,0.5-1.9,0.7-2.7c0.2-0.7,0-1.5,0.2-2
		c0.5-0.9-0.3-2,0.5-2.9c0,0,0-0.5-0.2-0.7s-0.5,0-0.7,0c-0.9,0.9-1.9,0.9-2.7,1.4c-1,0.5-2,0-3.1,0c-0.7,0-1.4-0.5-1.9-0.9
		c-0.3-0.2-0.7-0.3-0.9-0.3c-0.5-0.2-1.2-0.3-1.5-0.7c-0.9-0.9-1.7-1.7-2.6-2.7c-0.5-0.5-1-1-1.4-1.7c-0.3-0.5-0.7-1.2-1-1.9
		c-0.3,0.5-0.7,1.2-1,1.9c0,0,0,0,0,0.2c-1.4,1.4-2.7,2.7-3.9,3.8c-0.7,0.5-1.5,0.9-2.4,1.4c-1.2,0.5-2.4,0.5-3.4,0.3
		c-0.5,0-1.2-0.3-1.7-0.7c-0.5-0.3-1.2-0.5-1.7-0.9c-0.3-0.2-0.7-0.3-0.9-0.7c-0.5-0.3-1-0.9-1.5-1.4c-0.3-0.3-0.7-0.9-1-1.4
		c-0.3-0.7-0.9-1.2-1.2-1.9c-0.9-1.5-1.5-3.1-2.2-4.3c-0.2-0.3-0.7-0.7-0.5-1.2c0-0.3-0.2-0.9-0.3-1.2c-0.2-0.3-0.3-0.7-0.3-1
		c0-0.2-0.2-0.3-0.2-0.3c0-0.3,0-0.9-0.2-1.2c-0.2-0.7-0.3-1.4-0.5-1.9c0-0.2,0-0.5,0.2-0.7c0,0-0.2,0-0.2-0.2
		c-0.3,0.5-0.9,0.9-1,1.4c-0.5,1-0.7,2.2-1.2,3.2c-0.5,1-0.7,2.2-1,3.4c-0.2,0.5-0.5,1.2-0.9,1.7c0,0.2-0.2,0.3-0.2,0.3
		c0,0.9-0.2,1.5-0.7,2c0,0.2,0,0.3,0,0.5c0,0.5-0.2,1-0.5,1.5c-0.2,0.3-0.2,0.7-0.3,1c-0.5,0.7-0.2,1.5-0.9,2.2
		c-0.2,0.2-0.3,0.5-0.3,0.7c-0.2,0.5-0.9,0.7-1.2,0.9c-0.7,0.3-1.4-0.2-2-0.3c-1-0.3-1.4-1-1.7-1.9c0-0.2-0.3-0.2-0.3-0.3
		c-0.3-0.9-0.7-1.5-0.9-2.4c-0.2-0.5,0-1.2,0-1.7c0-0.5,0.3-1-0.2-1.4c-0.3-0.2,0.2-0.5,0.2-0.9c-0.2-0.7,0-1.4,0-2.2
		c0-1.5-0.2-3.1,0.2-4.3c0.3-1.4,0-2.6,0.3-3.6c0.3-1,0.3-2,0.3-3.1c0-0.7,0.5-1.4,0.7-1.9c0-0.2,0-0.5,0-0.9c0-0.5-0.2-1,0.3-1.5
		c0.3-0.2,0.3-0.9,0.3-1.4c0.2-1,0.3-2,0.5-3.1c0-0.3,0.2-0.7,0.3-1c0.3-1.4,0.7-2.7,0.7-3.9c0-0.5,0.3-1,0.5-1.4
		c0.2-0.3,0.2-0.5,0.2-0.9c0.2-0.9,0.3-1.5,0.5-2.4c0.2-0.7,0.2-1.5,0.3-2.2c0-0.2,0.2-0.3,0.2-0.5c0.2-0.3,0.2-0.7,0.3-1
		c0.2-0.5,0.2-0.9,0.2-1.4c0-0.3-0.2-1,0.3-1.2c0,0,0,0,0-0.2c0.2-0.7,0.2-1.4,0.3-2c0-0.5-0.2-1,0.3-1.4c0,0,0-0.2,0-0.3
		c0.2-1.2,0.3-2.4,0.5-3.4c0.2-1,0.2-2.2,0.3-3.2c0.2-0.9,0.3-1.9,0.3-2.7c0-0.3-0.2-0.7-0.2-1c0-0.2-0.2-0.2,0-0.2
		c0.2-1-0.2-2-0.2-3.1c0-0.2,0-0.2-0.2-0.3c-0.7-0.7-0.5-1.5-0.2-2.2c0.3-0.5,0.3-1,0.7-1.5c0.9-0.9,1.9-1,3.1-0.3
		c0.3,0.2,0.5,0.3,0.9,0.5c0.2,0,0.2,0,0.3,0.2c0.5,0.7,0.9,1.4,1.4,2c0.2,0.3,0.3,0.7,0.3,1c0,0.9,0.7,1.7,0.2,2.7
		c-0.2,0.3,0.2,0.9,0.2,1.4c0,1.2,0,2.6-0.2,3.6c-0.2,1-0.5,1.9-0.7,2.9c-0.2,0.7-0.2,1.4-0.2,2c0,0.9,0,1.7-0.3,2.4
		c-0.3,1-0.5,2.2-0.7,3.2c-0.3,1.2-0.5,2.6-0.7,3.6c0,0.5-0.5,1-0.7,1.5l0,0c0,0.9-0.2,1.7-0.3,2.7c-0.2,0.7,0,1.5-0.3,2.2
		c-0.3,1-0.7,2-0.7,3.2c0,0.7-0.2,1.4-0.5,1.9c-0.2,0.3-0.2,0.7-0.2,1c-0.2,1-0.5,2-0.7,3.1c0,0.2,0,0.3,0,0.5c0,0.5,0,0.9-0.3,1.4
		c-0.3,0.7-0.3,1.5-0.2,2.6c0.3-0.5,0.7-1,0.9-1.7c0.3-0.9,0.9-1.5,1.2-2.4c0.3-0.7,1-1.2,1.2-2c0.3-1.2,1.4-1.9,2-2.7
		c0.3-0.3,1.9-0.5,2.2-0.2c0.5,0.3,0.9,0.7,1.4,0.9c1,0.5,1.7,1.4,2,2.6c0,0.2,0.2,0.5,0.3,0.7c0.2,0.7,0.3,1.4,0.5,2
		c0,0.3,0.2,0.5,0.2,0.9c0,0.2,0,0.3,0,0.7c-0.2,0.7-0.2,1.4,0.2,2.2c0.2,0.5-0.2,1.2,0,1.9c0.2,1.4,0.5,2.6,0.7,3.6
		c0.2,0.7,0.2,1.4,0.5,2c0.2,0.7,0.5,1.5,0.7,2.2c0.2,0.7,0.5,1.4,0.9,1.9c0.5,0.9,1,1.9,1.9,2.4c0.5,0.3,0.9,0.5,1.4,0.9
		c0.2,0,0.5,0,0.7-0.2c1.7-0.7,3.1-1.9,4.3-3.1c0.7-0.7,1-1.5,1.5-2.4c0-0.2,0.2-0.2,0.2-0.3c0.3-0.5,0.9-1,1-1.5
		c0.3-0.7,0.5-1.5,0.9-2.4c0.5-0.9,0.5-1.7,0.7-2.6c0.2-0.5,0.5-1,0.7-1.5c0-0.2,0-0.3,0-0.7c0.2-1.4,0.3-2.9,0.5-4.1
		c0-0.5,0-1.2,0.3-1.5c0.3-0.5,0.2-1,0.3-1.4c0.2-0.9,0.2-1.7,0.5-2.6c0.2-0.5,0.7-0.9,1-1.2c0.3-0.5,0.9-0.5,1.5-0.5
		c1.4-0.2,2.2,0.7,3.2,1.5c0.7,0.5,0.9,1.2,0.9,1.9c0,0.3,0.2,0.7,0.2,1.2c0,0.3-0.2,0.7-0.3,1c0,0.2-0.2,0.2-0.2,0.2
		c-0.2,0.9-0.2,1.7-0.3,2.6c0,0.3-0.2,0.5-0.3,0.7c0,0,0,0.2-0.2,0.2c-0.2,1.4-0.3,2.7-0.5,3.9c-0.2,1.2-0.3,2.6-0.3,3.8
		c0,0.9,0,1.9,0.2,2.7c0.3,1.5,0.7,3.1,1.5,4.3c0.7,1.4,1.9,1.7,3.2,1.9c1,0,1.9-0.9,2.6-1.4c1.2-0.9,2-2,2.7-3.4
		c0.5-0.9,1.2-1.9,1.2-3.1c0-0.7,0.5-1.4,0.7-2c0-0.2,0-0.3,0-0.5c0-1.2,0-2.2,0.2-3.4c0.2-1.4,0.3-2.9,0.3-4.1c0-0.3,0.2-0.7,0.2-1
		C448.2,284.8,448.2,284.8,448.2,284.7z"/>
	<path d="M549.2,306.3c-0.5,0.2-0.9,0.3-1.2,0.5c-0.5,0.2-0.9,0.7-1.2,0.9s-0.7,0.2-0.9,0.3c-0.9,0-1.5,0.7-2.4,0.7
		c-0.7,0-1.4,0.7-2.2,0.7c-0.2,0-0.3,0-0.5,0c-0.2,0-0.2-0.2-0.3,0c-1.4,0.9-2.7,0.3-3.9,0.3c-0.9,0-1.9-0.3-2.7-0.9
		c-0.9-0.3-1.4-0.9-1.9-1.4c-0.2-0.2-0.5-0.2-0.7-0.3c-0.9-0.7-1.5-1.7-1.7-2.9c-0.2-0.7,0-1.5-0.3-2c-0.3-0.7-0.3-1.4-0.2-2
		c0.2-1.5,0.7-2.9,1.9-3.6c0.2-0.2,0.7,0,1,0c0.2,0,0.3-0.2,0.2-0.2c0.7,0.2,1.2,0.3,1.7,0.5c0.2,0.5,0,1.2,0.3,1.5
		c0.9,0.7,0.5,1.5,0.9,2.2c0.3,0.7,0.9,0.7,1.5,1c1,0.5,1.9,0.2,2.9,0.2c0.7-0.2,1.4-0.2,2-0.3c0.3-0.2,0.9-0.3,1.2-0.5l0.2-0.2
		c0.7,0.2,1.2-0.3,1.9-0.5c0.5-0.2,1-0.5,1-0.9c0-0.3-0.5-0.9-0.9-1c-0.5-0.3-1.2-0.7-1.9-0.9c-1-0.3-2-0.7-3.2-1.2
		c-0.5-0.2-1-0.7-1.7-1c-0.5-0.3-1.2-0.5-1.7-0.9c-0.2-0.2-0.3-0.3-0.5-0.5c-0.5-0.5-1.2-0.9-1.7-1.4c-0.9-0.7-1.7-1.5-2.4-2.4
		c-0.5-0.7-1-1.5-1.2-2.4c-0.3-1-0.3-2.2-0.3-3.2c0-0.2,0.2-0.5,0.2-0.7s0.2-0.2,0.2-0.3c-0.2-1.5,0.2-2.4,1-3.6
		c0.3-0.7,0.7-1,1.4-1.2c0.5-0.2,1-0.7,1.5-0.9c0.3-0.2,0.7-0.2,1-0.2c0.7-0.2,3.4-0.3,4.1-0.2c1.4,0,3.1,0.7,4.1,1.2
		c1,0.3,1.7,1.2,2.6,2c0.9,0.9,1.7,1.9,2.4,2.9c0,0.2,0.3,0.2,0.3,0.2c0.7,1.4,1.5,2.7,1.4,4.1c-0.2,0.2-0.5,0.2-0.9,0.3
		c0.2,0.2,0.3,0.3,0.3,0.3c-0.3,0.3-0.7,0.7-1,0.9c-0.3,0.3-0.9,0.7-1.4,0.2c-0.3-0.3-0.7-0.5-1.2-0.5c-0.7,0-0.9-0.5-1.2-0.9
		c-0.3-0.5-0.9-0.9-1.4-1.2c-0.2-0.2-0.5-0.2-0.7-0.5c-0.7-0.9-1.5-1-2.2-1.5c-0.7-0.5-1.5-0.2-2.2-0.7c-0.5-0.3-1,0.5-1.7,0.7
		c-0.2,0-0.5,0.3-0.2,0.7c0.5,0.3,0.9,0.9,1.4,1.4c0.2,0.2,0.2,0.2,0.3,0.2c0.7-0.2,1,0.3,1.5,0.9c0.7,0.7,1.5,0.9,2.4,1.4
		c1,0.5,2,1.2,3.1,1.7c0.5,0.3,1,0.5,1.4,0.9c1.4,0.9,2.4,1.7,3.4,3.1c0.9,1,1.5,2,2,3.2c0.3,0.7,0.9,1.7,0.2,2.6c0,0,0,0.2,0,0.3
		c0.2,0.7-0.2,1.4-0.5,2c-0.2,0.3-0.2,0.7-0.3,1c-0.5,1-1,1.9-1.9,2.6C549.2,306.2,549.2,306.3,549.2,306.3z"/>
	<path d="M462.8,292.9c0,0,2-0.3,2,0.9c0,0.2,0,0.2,0,0.3c0.3,0.2,0.7,0.5,0.7,0.5c-0.2,1.2-0.9,2-1.5,2.9c0,0.2,0,0.3-0.2,0.3
		l-0.2,0.2c0,0.3,0.3,0.7,0.2,1c-0.2,0.9,0.2,1.7,0.5,2.6c0.2,0.3,0.3,0.7,1,0.9c0.5,0.2,0.9,0.7,1.5,0.7c0.5,0,1,0.2,1.5,0.2
		c0.3,0,0.5,0,0.9-0.2c0.3,0,0.9-0.2,1.2-0.3c0.7-0.2,1.4-0.5,2-0.7c0.3-0.2,0.7-0.5,0.9-0.7c0.2-0.2,0.3-0.3,0.3-0.3
		c0.5,0,0.7-0.3,0.7-0.9c0-0.5-0.2-0.7-0.5-1c-0.5-0.5-1-1.2-1.5-1.5c-1.2-0.9-2-2.2-3.4-2.6c-0.2,0-0.3-0.2-0.3-0.3
		c-0.7-0.9-1.9-1.2-2.7-1.7c-0.5-0.3-1.2-0.5-1.5-1.2c-0.3-0.5-0.9-0.7-1.4-1c-0.2-0.2-0.3-0.3-0.5-0.5c-0.5-0.3-1-0.7-1.4-1.2
		c-0.9-0.7-1.4-1.5-1.5-2.6c-0.2-0.5-0.5-1-0.7-1.4c-0.2-0.7-0.2-1.5,0-2.2c0-0.7,0.2-1.4,0.3-2c0.2-0.7,0.5-1.2,1-1.7
		c0.7-0.7,1.5-1.4,2.2-1.9c0.5-0.3,1.4-0.3,2-0.7c0.7-0.2,1.4-0.3,2.2-0.5c0.2,0,0.3,0,0.7,0c0.3,0,0.7-0.2,1.2-0.2
		c0.2,0,0.3,0,0.5,0c1.2,0.2,2.2,0.5,3.4,0.7c0.2,0,0.2,0.2,0.3,0.2c0.2,0.2,0.2,0.3,0.2,0.3c1.2,0.2,2.2,1.4,2.6,2.4
		c0.3,0.9,0.3,1,0.7,1.9c0.2,0.5,0.2,1.2,0.3,1.7c0,0.3-0.2,0.7-0.2,1c0.2,0-0.7,1.7-1,2.6c0,0.2-0.2,0.3-0.3,0.5
		c-0.2,0.2-0.3,0.5-0.5,0.7c-0.9,0-1.9,0.3-2.4-0.5c-0.5-1-1.7-2-0.7-3.4c-0.5-0.5-1.2-0.7-1.9-0.3h-0.2c-0.7,0.2-1.4,0.3-2,0.3
		c-0.3,0-0.5,0.2-0.9,0.2c0,0-0.2,0.3,0,0.5c0.5,0.7,1.4,1,1.9,1.5c0.9,1,2,1.5,3.2,2.2c1.4,0.9,2.6,1.9,3.6,2.7
		c1.4,0.9,2.4,2.2,3.2,3.4c0.9,1,1.4,2.2,2,3.4c0.2,0.5,0.5,0.9,0.3,1.5c0,0.7,0.2,1.2,0.2,1.9c0,0.3-0.2,0.5-0.2,0.9
		c0,0.2,0,0.5,0,0.9c0,0.3-0.2,0.7-0.3,1c0,0.2-0.2,0.3-0.2,0.3c0.2,0.7-0.3,1.4-0.7,1.5c-0.7,0.5-1,1.4-1.7,1.7
		c-0.3,0.2-0.3,0.7-0.9,0.5l-0.2,0.2c-0.7,1.2-1.9,1.4-3.1,1.9c-1.2,0.5-2.4,0.9-3.6,1c-0.9,0.2-1.9,0-2.7,0s-1.7-0.2-2.4-0.5
		c-0.5-0.3-1-0.5-1.5-0.9c-1.2-0.7-2.4-1.4-3.2-2.7c-0.5-0.9-1-1.7-1.2-2.7c-0.3-1.2-1.5-4.4-1-4.9c0.2-0.2,0.3-2.2,0.5-2.9
		c0-0.3,0.3-0.5,0.5-0.9c0.7-0.9,1.4-1.9,2-2.6C461.8,292.5,463,292.7,462.8,292.9z"/>
	<path d="M516.8,303.3c0.2,0,0.3-0.2,0.5-0.2c0.9,0,1.7,0.2,2.6,0.2c0.7,0,1.5-0.2,2.2-0.3l0.2-0.2c0.9,0.5,1.7-0.2,2.7,0
		c0.3,0,1.2,0.7,1.5,0.7l-0.3,2c-0.2,0.2-0.3,0.5-0.5,0.7c0,0.2-0.3,0.2-0.3,0.2c-0.3,0.5-0.7,0.5-1.2,0.5c-0.3,0-0.7,0.3-0.7,0.5
		c-0.2,0.3-0.3,0.5-0.9,0.5c-0.9,0-1.5,0.3-2.2,0.9c-0.5,0.3-1,0.5-1.5,0.5c-0.9,0-1.7-0.2-2.7-0.2c-0.3,0-0.7,0.2-1,0.2
		c-1.2,0.3-2-0.3-3.1-0.9c-0.9-0.3-1.5-0.7-2.4-0.9c0,0-0.2,0-0.2-0.2c-0.5-0.5-1-1.2-1.7-1.7c-0.5-0.5-1-0.9-1.5-1.4
		c-0.5-0.5-0.9-1.2-1.2-1.9c-0.3-0.7-0.9-1.5-1.2-2.4c-0.2-0.3-0.3-0.9-0.3-1.2c-0.2-0.7-0.2-1.5-0.5-2c-0.3-0.5,0-1-0.2-1.5
		c0-0.5-0.3-0.9-0.2-1.4c0-1-0.2-2,0.3-3.1c0-0.2,0-0.3,0-0.5c0.2-0.9,0.5-1.5,0.7-2.4c0.3-1.2,1.2-2.4,1.5-3.4
		c0.3-0.9,0.9-1.7,1.2-2.4c1-1.4,2-2.6,3.4-3.4c1.2-0.9,2.6-1.7,3.8-2.2c0.7-0.2,1.4-0.3,2-0.5c0.7-0.2,1.4-0.5,1.9-0.5
		c0.5,0,1,0.2,1.5,0.2c0.2,0,0.2,0.2,0.3,0.2c0.9-0.2,1.5,0.3,2,0.7c0.5,0.5,1.7,0.9,1.7,1.9c0.5,0,0.5,0.3,0.7,0.7
		c0.3,0.5,0.7,1.2,1,1.7c0.5,0.7,0.3,1.5,0.5,2.2c0,0.2,0.2,0.3,0.2,0.7c-0.3,0.2-0.3,0.5-0.2,0.9c0.2,0.5-0.2,1.2-0.2,1.7
		c-0.3-0.2-0.5-0.2-0.9-0.3c0,0.2,0,0.3,0,0.5c0,0.7-0.3,0.7-0.9,0.5c-0.5-0.3-1.2-0.5-1.9-0.9c-0.5-0.3-0.9-0.9-1.2-1.2
		c-0.7-0.9-1.5-1.7-2.6-1.7c-0.5,0-1,0.3-1.5,0.5c-0.5,0.2-1,0.5-1.5,0.7c-0.5,0.2-0.9,0.5-1.4,1c-0.5,0.5-1,0.7-1.5,1.2
		c-0.2,0.2-0.2,0.3-0.3,0.5c-0.3,0.7-0.9,1.2-1,1.9c-0.3,0.5-0.5,1.2-0.7,1.9s-0.3,1.4-0.5,1.9c0,0.2,0,0.3,0,0.3
		c0,0.5,0,1.2,0.2,1.7c0.2,1.2,0,2.2,0.7,3.4c0.3,0.9,0.7,1.7,1.4,2.2c0.7,0.5,1.2,1.2,1.9,1.5c0.2,0.2,0.7,0.2,0.9,0.3
		c0.5,0.2,1.2,0.2,1.7,0.3C516.1,303.1,516.4,303.3,516.8,303.3z"/>
	<path d="M498.7,298.5c0.2,0.3,0.3,0.7,0.5,1c0.3,0.5,0.9,1,0.7,1.9c-0.2,0.2,0.3,0.7,0.3,1c0,0.2,0,0.2-0.2,0.3
		c-0.2,0.3-0.7,0.7-0.2,1.2c0,0-0.3,0.7-0.7,0.7c-0.5,0.2-0.9,0.3-0.9,1c0,0.7-0.7,0.7-1.2,0.9c-0.3,0.2-0.5,0.3-0.9,0.3
		c-0.9,0.2-1.5,0.5-2.4,0.5c-0.7,0-1.4-0.2-2-0.3c-0.7-0.2-1.2-0.5-1.7-0.9c-0.5-0.3-1-0.5-1.5-1c-0.7-0.5-1.2-1.2-1.9-1.7
		c-0.5-0.5-0.9-1-1.2-1.7c-0.3-0.5-0.5-1.2-0.9-1.7c-0.2-0.3-0.3-0.7-0.5-1.2c0-0.2-0.2-0.2-0.2-0.3c0-0.3-0.2-0.9-0.2-1.2
		c-0.2-1.5-0.2-2.9-0.5-4.3c0-0.5,0-0.9,0.2-1.2c0-0.2,0-0.3,0-0.5c0-0.5,0-1,0-1.7c0-0.3,0.2-0.5,0.2-0.9c0.2-0.9,0.2-1.7,0.3-2.6
		c0-0.3,0.2-0.7,0.3-0.9c0-0.2,0-0.2,0.2-0.3c0.2-0.7,0.2-1.4,0.3-2c0-0.3,0.3-0.7,0.7-0.9c0.3-0.2,0.3-0.9,1-0.5
		c0.3,0.2,0.9,0,1.2-0.3c0.3-0.2,0.5,0,0.9,0c1.2,0.3,1.9,1.2,2.4,2.2c0.2,0.2,0.2,0.3,0.3,0.5c0.5,0.3,0.5,0.9,0.5,1.2
		c0,0.5,0,0.9-0.2,1.4c-0.2,0.7-0.3,1.4-0.5,1.9c0,0.2-0.2,0.3-0.2,0.5c-0.2,1.5-0.3,3.1-0.3,4.4c0,1.2,0.2,2.2,0.7,3.4
		c0.2,0.5,0.7,0.7,0.5,1.4c0,0.2,0.5,0.3,0.9,0.7c0.9,0.5,1.7,0.9,2.7,0.7c0.7-0.2,1.4-0.3,1.9-0.7
		C498,298.8,498.3,298.5,498.7,298.5z"/>
	<path d="M494.1,275.8c0-0.2,0-0.2-0.2-0.3c-0.2,0.3-0.3,0.7-0.7,0.9c-0.5,0.2-0.9,0.2-1.4-0.2c-0.2-0.2-0.5-0.2-0.9-0.3
		c-0.2,0-0.3-0.2-0.5-0.2c-0.5-0.5-0.9-1.2-1.2-1.7c-0.3-0.9-0.9-1.7-1-2.6c-0.2-0.7-0.2-1.4-0.2-1.9c0-0.3,0.2-0.7,0.3-0.9
		c0.2-0.2,0.2-0.5,0.5-0.5c0.3-0.2,0.5-0.9,1.2-0.3c0.2,0.2,0.5,0,0.7,0c0.9-0.2,1.4,0.2,1.9,0.9c0.2,0.3,0.3,0.7,0.5,0.9
		c0.5,0.5,0.5,1,0.7,1.7c0.2,0.9,0.3,1.9,0.5,2.9c0,0.2,0.2,0.2,0.2,0.3c0,0.2,0.2,0.5,0,0.7C494.6,274.9,494.4,275.1,494.1,275.8z"
		/>
	<g>
		<path d="M353.8,284c0.2,0.2,0.5,0.5,1.2,0.9c0.2-2.4,0.3-4.3,0.5-6.1c-0.2,0-0.2,0-0.3,0C354.3,280.2,353.8,281.9,353.8,284z"/>
		<path d="M396.6,258.4c0.3-1,0.5-3.2,0.7-4.1c0.2-0.9,0.3-1.7,0-2.4v-0.2c0.2-1.5-1.5-5.3-2.6-6.7c-3.4-4.3-6.8-4.9-7.7-5.5
			c-0.7-0.5-1.7-0.7-2.4-1c-0.5-0.3-1.2-0.3-1.5-0.5c-0.5-0.2-1.2-0.5-1.9-0.7c-0.9-0.2-1.5-0.3-2.4-0.5c-1-0.2-2-0.3-3.1-0.3
			c-1.5,0-2.9,0.2-4.3,0.3c-0.3,0-0.9,0.2-1.4,0.3c0,0-0.3-0.2-0.5,0c-1,0.3-2,0.3-3.1,0.9c-0.9,0.3-1.9,0.5-2.7,0.7
			c-1.2,0.3-2.2,0.9-3.2,1.2c-0.9,0.2-1.7,0.7-2.4,1.4c-0.5,0.3-1.2,0.5-1.7,0.9c-1.2,1-2.2,2.2-3.4,3.2c-0.2,0.2-0.5,0.3-0.7,0.5
			c-0.3,0.5-0.5,1-0.7,1.5c-0.2,0.5-0.3,1-0.3,1.5c-0.2,1.2-0.3,2.4-0.3,3.4c0,0.7,0.2,1.5,0.7,2c0.7,0.7,1.5,1.4,2,2.2
			c0.2,0.2,0.7,0.5,1,0.3c0.5-0.2,0.7-1.2,1.5-1v-0.2c0.2-0.5,0.2-0.9,0.3-1.4c0.2-0.5,0.3-1,0.7-1.5c0.5-0.9,1.2-1.7,1.9-2.2
			c1-0.9,1.9-1.7,3.2-2c0.7-0.2,1.5-0.7,2.2-0.9c0.9-0.3,1.5-0.7,2.4-1c0.7-0.3,1.4-0.7,2.2-0.7c1.2,0,2.6-0.5,3.6-0.7
			c0.7-0.2,1.5,0,2.4-0.2c1.5-0.3,2.9-0.3,4.3,0.2c0.2,0,0.5,0,0.7-0.2c0.2,0,0.3,0,0.3,0c0.5,0.2,0.9,0.3,1.4,0.5
			c1.5,0.3,2.9,1.2,3.9,2.2c0.5,0.3,0.9,0.7,1.2,1.2c1,1.9,1.9,3.6,1.5,5.6c-0.3,1.5-0.7,3.2-1.2,4.6c-0.2,0.9-0.7,1.7-1,2.4
			c-0.2,0.3-0.5,0.3-0.5,0.7c-0.2,0.5-0.3,0.9-0.5,1.4c-0.3,0.7-0.9,1.2-1.2,1.9c-0.3,0.7-0.7,1.5-1.2,2c-0.7,0.5-1,1.2-1.4,1.7
			c0,0,0,0.2-0.2,0.2c-0.7,0.7-1.2,1.4-1.9,2c-0.9,0.9-1.5,1.7-2.4,2.4c-0.7,0.7-1.4,1.2-2,1.7c-0.3,0.3-0.9,0.5-0.9,0.9
			c-0.2,0.5-0.9,0.2-0.9,0.9c-0.2,0.3-1,0.5-1.5,0.9c-0.3,0.2-0.7,0.5-1,0.7c-1,0.7-1.9,1.5-2.9,2.2c-0.2,0.2-0.3,0.2-0.5,0.3
			c-1,0.5-2.2,1.2-3.4,1.5c-0.7,0.3-1.4,1-2.2,0.9l-0.2,0.2c-0.3,0.2-0.9,0.2-1,0.3c0-2.7,0.2-5.1,0.2-7.7c0,0,0,0.2,0.2,0.3
			c0-0.7,0-1.4,0-1.9c0-1-0.2-1.9-0.2-2.9c0-1.4,0-2.7,0-3.9c0-0.9-0.2-1.5-0.3-2.4c-0.2-0.5-0.3-1-0.3-1.5c-0.2-1-0.2-2-0.2-3.1
			c0-0.3-0.2-1-0.3-1.2c-0.9-0.3-0.9-1.2-1.4-1.7c-0.3,0-0.7-0.2-1.2-0.2c-0.3,0-0.7-0.2-1,0c-0.9,0.3-1,1.4-1,2
			c-0.2,2.2,0,4.4,0,6.7c0,1.4,0,2.6,0,3.8c0,0.2-0.2,0.2-0.2,0.3c-0.5,0.5-1.2,0.7-1.9,0.7c-0.3,0-0.7,0.3-1.2,0.7
			c-0.2,0.2-0.3,0.2-0.5,0.3c-0.3,0.2-0.9,0.3-1,1c-0.3,0.9-0.9,1.5-1.2,2.4c-0.5,0.9-1.2,1.7-1.5,2.7c-0.3,0.7-0.3,1.5-0.3,2.4
			c0,1.5-0.5,2.9,0.2,4.3c0.5,1.2,0.7,2.7,1.5,3.6c0.3,0.3,0.5,0.7,0.7,1c0.7,1.4,1.9,2.2,3.1,2.9c0.2,0,0.3,0.2,0.3,0.3
			c0,0.5-0.2,1-0.2,1.5c-0.2,1.4-0.2,2.7-0.3,3.9c-0.2,1.5-0.3,3.1-0.5,4.6c0,0.9-0.2,1.7,0,2.6c0.2,1,0.5,2,1,3.1
			c0.2,0.5,0.7,0.7,1,1.2c0.3,0.3,0.5,0.9,0.9,1.2c0.2,0.2,0.5,0.3,0.7,0.3c0.5,0,1-0.2,1.5-0.3c0,0,0-0.3,0.2-0.5
			c0.9-0.5,0.9-1.4,1-2c0.2-1.2,0.2-2.6,0.3-3.6c0.2-2.7,0.3-5.5,0.5-8.2c0-0.9,0.3-1.7,0.2-2.6c-0.2-0.7,0.3-1,0.7-1.2
			c0.5-0.3,1.2-0.3,1.9-0.5c1.4-0.3,2.6-0.5,3.6-1.2c0.9-0.5,1.9-0.7,2.9-1c0.3-0.2,0.7-0.3,1-0.5c0.5-0.3,1-0.9,1.5-1
			c0.9-0.5,1.9-0.9,2.7-1.4c1.2-0.9,2.4-1.9,3.4-2.7c0.7-0.5,1.4-1,1.9-1.7c0.5-0.5,0.9-0.9,1.4-1.4c0.3-0.5,1-0.7,1.4-1.2
			c0.3-0.3,0.9-0.7,1-1c0.3-0.9,1.2-1.4,1.7-2c0.3-0.3,0.5-0.7,0.9-1.2C386,276.3,393.6,268.6,396.6,258.4z M355,284.8
			c-0.5-0.5-1-0.7-1.2-0.9c0-2,0.5-3.8,1.4-5.3c0.2,0,0.2,0,0.3,0C355.3,280.6,355.2,282.5,355,284.8z"/>
	</g>
</g>
</svg>
