<?xml version="1.0" encoding="utf-8"?>
<!-- Generator: Adobe Illustrator 16.0.3, SVG Export Plug-In . SVG Version: 6.00 Build 0)  -->
<!DOCTYPE svg PUBLIC "-//W3C//DTD SVG 1.1//EN" "http://www.w3.org/Graphics/SVG/1.1/DTD/svg11.dtd">
<svg version="1.1"
	 id="svg2" xmlns:dc="http://purl.org/dc/elements/1.1/" xmlns:cc="http://creativecommons.org/ns#" xmlns:rdf="http://www.w3.org/1999/02/22-rdf-syntax-ns#" xmlns:svg="http://www.w3.org/2000/svg"
	 xmlns="http://www.w3.org/2000/svg" xmlns:xlink="http://www.w3.org/1999/xlink" x="0px" y="0px"
	 viewBox="583.53 82.45 304.005 117.601" enable-background="new 583.53 82.45 304.005 117.601"
	 xml:space="preserve">
<g>
	<path id="path78" fill="#49A338" d="M619.968,105.164c-8.504-26.307-21.48-21.995-27.192-20.367
		c-5.712,1.626-6.658,0.906-6.658,0.906c8.844,28.805,31.943,20.4,31.943,20.4s-12.676-0.728-19.85-13.324L619.968,105.164"/>
	<path id="path80" fill="#140E0C" d="M623.731,105.386c0.194-0.976,0.194-12.295,10.147-20.491c0,0,6.531-5.5,6.831,0
		c0.299,5.5-0.759,2.144-6.809,7.022s-7.718,13.469-7.718,13.469H623.731"/>
	<path id="path82" fill="#49A338" d="M663.769,176.873l-40.093,23.179l-40.119-23.132l-0.026-46.31l40.093-23.179l40.118,23.131
		L663.769,176.873"/>
	<g id="g84" transform="scale(10,10)">
		<g enable-background="new    ">
			<path fill="#FFFFFF" d="M59.255,14.111c-0.066,0-0.121-0.025-0.165-0.074c-0.044-0.049-0.067-0.113-0.067-0.192
				c0-0.079,0.023-0.143,0.069-0.192c0.046-0.049,0.102-0.074,0.168-0.074c0.072,0,0.131,0.025,0.178,0.074
				c0.046,0.049,0.069,0.113,0.069,0.192c0,0.079-0.023,0.143-0.069,0.192c-0.046,0.049-0.105,0.074-0.178,0.074H59.255z
				 M59.077,16.907V14.52h0.38v2.386H59.077z"/>
		</g>
		<g enable-background="new    ">
			<path fill="#FFFFFF" d="M59.797,16.512c0.049,0.033,0.108,0.062,0.177,0.086c0.069,0.025,0.138,0.037,0.207,0.037
				c0.108,0,0.194-0.031,0.256-0.094c0.062-0.062,0.094-0.146,0.094-0.251c0-0.095-0.021-0.177-0.064-0.246
				c-0.043-0.069-0.123-0.143-0.242-0.222c-0.161-0.105-0.281-0.211-0.36-0.318c-0.079-0.107-0.118-0.228-0.118-0.362
				c0-0.191,0.062-0.348,0.187-0.473c0.125-0.125,0.281-0.187,0.468-0.187c0.085,0,0.163,0.012,0.234,0.035
				c0.071,0.023,0.136,0.053,0.195,0.089l-0.104,0.286c-0.102-0.069-0.207-0.104-0.316-0.104c-0.099,0-0.175,0.03-0.229,0.089
				s-0.081,0.13-0.081,0.212c0,0.082,0.02,0.151,0.059,0.207c0.039,0.056,0.118,0.125,0.237,0.207
				c0.154,0.099,0.275,0.205,0.362,0.32c0.087,0.115,0.131,0.25,0.131,0.404c0,0.23-0.067,0.406-0.202,0.528
				c-0.135,0.122-0.306,0.182-0.513,0.182c-0.089,0-0.177-0.012-0.264-0.037c-0.087-0.025-0.157-0.058-0.209-0.101L59.797,16.512z"
				/>
		</g>
		<g enable-background="new    ">
			<path fill="#FFFFFF" d="M62.499,16.364c0,0.125,0.002,0.229,0.005,0.313c0.003,0.084,0.01,0.16,0.02,0.229h-0.345l-0.025-0.251
				h-0.015c-0.053,0.092-0.12,0.164-0.202,0.215c-0.082,0.051-0.173,0.076-0.271,0.076c-0.161,0-0.296-0.063-0.404-0.19
				c-0.108-0.126-0.163-0.29-0.163-0.491c0-0.283,0.102-0.501,0.306-0.656c0.092-0.069,0.199-0.122,0.32-0.158
				c0.122-0.036,0.251-0.054,0.39-0.054v-0.074c0-0.174-0.028-0.308-0.084-0.402c-0.056-0.094-0.155-0.14-0.296-0.14
				c-0.138,0-0.27,0.041-0.394,0.123l-0.084-0.266c0.056-0.043,0.136-0.08,0.239-0.111c0.104-0.031,0.209-0.047,0.318-0.047
				c0.233,0,0.406,0.073,0.518,0.219c0.112,0.146,0.168,0.357,0.168,0.634V16.364z M62.124,15.674c-0.069,0-0.138,0.006-0.207,0.017
				c-0.069,0.012-0.138,0.035-0.207,0.071c-0.069,0.036-0.127,0.092-0.173,0.168c-0.046,0.076-0.069,0.174-0.069,0.296
				c0,0.141,0.03,0.247,0.089,0.318c0.059,0.071,0.126,0.106,0.202,0.106c0.085,0,0.161-0.031,0.227-0.094
				c0.066-0.062,0.108-0.151,0.128-0.266c0.007-0.03,0.01-0.074,0.01-0.133V15.674z"/>
		</g>
		<g enable-background="new    ">
			<path fill="#FFFFFF" d="M64.17,16.364c0,0.125,0.002,0.229,0.005,0.313c0.003,0.084,0.01,0.16,0.02,0.229H63.85l-0.025-0.251
				H63.81c-0.053,0.092-0.12,0.164-0.202,0.215c-0.082,0.051-0.173,0.076-0.271,0.076c-0.161,0-0.296-0.063-0.404-0.19
				c-0.108-0.126-0.163-0.29-0.163-0.491c0-0.283,0.102-0.501,0.306-0.656c0.092-0.069,0.199-0.122,0.32-0.158
				c0.122-0.036,0.251-0.054,0.39-0.054v-0.074c0-0.174-0.028-0.308-0.084-0.402c-0.056-0.094-0.155-0.14-0.296-0.14
				c-0.138,0-0.27,0.041-0.394,0.123l-0.084-0.266c0.056-0.043,0.136-0.08,0.239-0.111c0.104-0.031,0.209-0.047,0.318-0.047
				c0.233,0,0.406,0.073,0.518,0.219c0.112,0.146,0.168,0.357,0.168,0.634V16.364z M63.796,15.674c-0.069,0-0.138,0.006-0.207,0.017
				c-0.069,0.012-0.138,0.035-0.207,0.071c-0.069,0.036-0.127,0.092-0.173,0.168c-0.046,0.076-0.069,0.174-0.069,0.296
				c0,0.141,0.03,0.247,0.089,0.318c0.059,0.071,0.126,0.106,0.202,0.106c0.085,0,0.161-0.031,0.227-0.094
				c0.066-0.062,0.108-0.151,0.128-0.266c0.007-0.03,0.01-0.074,0.01-0.133V15.674z"/>
		</g>
		<g enable-background="new    ">
			<path fill="#FFFFFF" d="M65.743,16.848c-0.046,0.026-0.104,0.048-0.173,0.064c-0.069,0.016-0.143,0.025-0.222,0.025
				c-0.266,0-0.478-0.105-0.636-0.316c-0.158-0.21-0.237-0.508-0.237-0.892c0-0.171,0.021-0.332,0.064-0.483
				c0.043-0.151,0.104-0.283,0.185-0.397c0.08-0.113,0.18-0.202,0.298-0.266c0.118-0.064,0.25-0.096,0.394-0.096
				c0.062,0,0.125,0.007,0.187,0.022c0.062,0.015,0.112,0.032,0.148,0.052l-0.074,0.311c-0.033-0.016-0.072-0.031-0.118-0.044
				c-0.046-0.013-0.097-0.02-0.153-0.02c-0.178,0-0.314,0.09-0.409,0.269c-0.095,0.179-0.143,0.397-0.143,0.653
				c0,0.279,0.05,0.498,0.15,0.656c0.1,0.158,0.237,0.237,0.412,0.237c0.089,0,0.181-0.021,0.276-0.064L65.743,16.848z"/>
		</g>
	</g>
	<path id="path90" fill="#49A338" d="M806.173,162.224l-0.109,0.158c-0.049,0.335-0.268,0.611-0.349,0.907
		c-0.077,0.287-0.285,0.485-0.345,0.772c-0.045,0.211-0.24,0.392-0.371,0.583c-0.092,0.136-0.185,0.274-0.284,0.403
		c-0.146,0.19-0.295,0.377-0.452,0.557c-0.095,0.109-0.196,0.223-0.317,0.295c-0.167,0.1-0.353,0.166-0.533,0.239
		c-0.185,0.075-0.368,0.172-0.561,0.201c-0.226,0.035-0.462,0.016-0.691,0.002c-0.128-0.007-0.258-0.038-0.378-0.083
		c-0.322-0.123-0.649-0.235-0.953-0.395c-0.165-0.087-0.278-0.271-0.426-0.396c-0.152-0.13-0.31-0.249-0.389-0.445
		c-0.158-0.397-0.349-0.785-0.279-1.201c-0.034-0.461,0.107-0.85,0.271-1.236c0.109-0.255,0.183-0.526,0.31-0.771
		c0.078-0.152,0.217-0.28,0.346-0.4c0.25-0.232,0.503-0.465,0.772-0.672c0.175-0.134,0.383-0.226,0.579-0.33
		c0.143-0.075,0.288-0.143,0.437-0.206c0.422-0.183,0.849-0.307,1.326-0.295c0.202,0.005,0.404,0,0.601,0.045
		c0.325,0.075,0.499,0.353,0.709,0.572c0.268,0.283,0.53,0.573,0.769,0.879c0.098,0.124,0.184,0.216,0.338,0.259
		C806.308,161.696,806.287,162.096,806.173,162.224L806.173,162.224z M825.42,166.337c-0.214,0.009-0.443,0.066-0.635,0.004
		c-0.299-0.098-0.584,0.006-0.875-0.016c-0.378-0.029-0.741-0.06-1.099-0.195c-0.386-0.145-0.813-0.2-1.085-0.563
		c-0.138-0.181-0.285-0.355-0.417-0.541c-0.086-0.122-0.151-0.258-0.224-0.388c-0.078-0.141-0.157-0.282-0.232-0.426
		c-0.13-0.246-0.243-0.501-0.391-0.737c-0.092-0.145-0.096-0.297,0.061-0.374c0.19-0.091,0.388-0.168,0.584-0.245
		c0.307-0.118,0.634-0.195,0.918-0.353c0.31-0.171,0.631-0.316,0.942-0.48c0.166-0.088,0.396-0.165,0.452-0.415
		c0.041-0.185,0.119-0.364,0.186-0.542l0.086-0.165c-0.206-0.146-0.008-0.381-0.143-0.569c-0.137-0.188-0.161-0.454-0.235-0.686
		l-0.614-0.524l-0.044,0.011c-0.364,0.143-0.758,0.236-1.08,0.441c-0.29,0.184-0.603,0.296-0.901,0.449
		c-0.316,0.16-0.657,0.272-0.972,0.438c-0.257,0.136-0.503,0.285-0.797,0.333l-0.048,0.004c-0.292,0.14-0.582,0.287-0.88,0.417
		c-0.22,0.095-0.403,0.301-0.706,0.231c0-0.201-0.008-0.402,0.001-0.603c0.03-0.67,0.062-1.34,0.102-2.01
		c0.016-0.261,0.063-0.521,0.091-0.781c0.027-0.241,0.058-0.482,0.074-0.724c0.031-0.473,0.132-0.929,0.265-1.384
		c0.103-0.355,0.175-0.721,0.233-1.087c0.038-0.234,0.022-0.477,0.035-0.715c0.009-0.177,0.063-0.364,0.025-0.531
		c-0.052-0.228-0.148-0.451-0.266-0.654c-0.107-0.186-0.351-0.255-0.46-0.454l-0.046-0.045c-0.2-0.01-0.421-0.09-0.58,0.094
		c-0.126,0.146-0.229,0.313-0.329,0.479l-0.1,0.264c-0.076,0.24-0.148,0.481-0.223,0.721c-0.085,0.271-0.179,0.54-0.254,0.813
		c-0.072,0.26-0.119,0.528-0.19,0.788c-0.093,0.337-0.196,0.671-0.295,1.006l-0.024,0.037c-0.165,0.209-0.261,0.454-0.488,0.639
		c-0.146,0.119-0.313,0.219-0.464,0.313c-0.195,0.121-0.458,0.124-0.675,0.216c-0.179,0.076-0.403,0.125-0.441,0.336l-0.123,0.03
		c-0.158,0.153-0.304,0.321-0.469,0.467c-0.277,0.248-0.384,0.643-0.742,0.824l-0.164,0.3c-0.092,0.137-0.202,0.262-0.305,0.39
		l-0.032-0.041v0.197h-0.034l-0.016-0.036c-0.212,0.315-0.428,0.64-0.685,1.024c-0.086-0.114-0.163-0.199-0.221-0.296
		c-0.2-0.34-0.396-0.678-0.668-0.974c-0.322-0.353-0.729-0.546-1.143-0.745c-0.313-0.15-0.602-0.044-0.873,0.103
		c-0.149,0.08-0.266,0.222-0.396,0.338c-0.107,0.097-0.214,0.195-0.341,0.313c-0.199-0.365-0.324-0.697-0.539-0.955
		c-0.188-0.228-0.402-0.453-0.613-0.664c-0.283-0.284-0.552-0.557-0.895-0.769c-0.445-0.274-0.907-0.459-1.443-0.429
		c-0.374,0.02-0.737,0.054-1.095,0.185c-0.351,0.126-0.723,0.192-1.079,0.301c-0.118,0.036-0.219,0.127-0.33,0.188
		c-0.283,0.151-0.576,0.287-0.854,0.451c-0.388,0.229-0.697,0.556-1.025,0.86l-0.114,0.084c-0.142,0.232-0.283,0.465-0.411,0.705
		c-0.15,0.276-0.289,0.559-0.453,0.877c-0.055-0.092-0.138-0.205-0.195-0.329c-0.077-0.167-0.111-0.359-0.207-0.514
		c-0.139-0.222-0.318-0.418-0.477-0.63c-0.176-0.236-0.313-0.515-0.529-0.707c-0.302-0.267-0.646-0.495-0.999-0.693
		c-0.205-0.115-0.458-0.182-0.694-0.195c-0.229-0.014-0.463,0.068-0.694,0.106l-0.097,0.325c-0.18,0.042-0.125,0.195-0.119,0.256
		c0.018,0.164-0.015,0.325-0.005,0.48c0.012,0.191,0.12,0.375,0.201,0.602l0.109-0.201c0.047,0.494,0.379,0.695,0.719,0.8
		c0.273,0.085,0.398,0.308,0.611,0.439c0.125,0.077,0.255,0.182,0.325,0.307c0.188,0.334,0.391,0.67,0.497,1.033
		c0.12,0.406,0.152,0.839,0.204,1.262c0.057,0.483-0.021,0.958-0.203,1.4c-0.144,0.35-0.286,0.713-0.591,0.974l-0.196,0.23
		c-0.151,0.138-0.297,0.301-0.475,0.386c-0.233,0.11-0.503,0.139-0.745,0.229c-0.254,0.095-0.485-0.094-0.74-0.019
		c-0.208,0.061-0.385-0.083-0.579-0.154c-0.571-0.208-0.934-0.629-1.147-1.141c-0.179-0.431-0.252-0.921-0.295-1.391
		c-0.044-0.489-0.049-0.986,0.072-1.479c0.061-0.245,0.016-0.518,0.011-0.776c-0.004-0.18-0.014-0.36-0.037-0.537l-0.085-0.318
		l0.018-0.168c-0.083-0.18-0.172-0.365-0.297-0.516c-0.165-0.202-0.373-0.367-0.552-0.558c-0.13-0.139-0.318-0.154-0.488-0.091
		c-0.219,0.083-0.314,0.249-0.434,0.426c-0.132,0.195-0.15,0.409-0.198,0.619c-0.036,0.167-0.024,0.344-0.047,0.514
		c-0.021,0.162-0.029,0.334-0.101,0.473c-0.056,0.112,0.099,0.26-0.074,0.336l0.015,0.124c-0.063,0.221-0.138,0.44-0.206,0.66
		c-0.039,0.126-0.076,0.253-0.114,0.38l-0.014,0.02c-0.149,0.289-0.327,0.569-0.443,0.871c-0.228,0.595-0.574,1.106-1.024,1.549
		c-0.261,0.256-0.568,0.46-0.909,0.595c-0.216,0.083-0.442,0.133-0.667,0.192c-0.188,0.049-0.377,0.087-0.576,0.134l0.027-0.127
		l-0.116-0.076c-0.132-0.228-0.221-0.477-0.189-0.738c0.041-0.354,0.111-0.706,0.185-1.055c0.088-0.42,0.196-0.837,0.29-1.256
		c0.062-0.269,0.164-0.524,0.226-0.795c0.091-0.404,0.244-0.792,0.255-1.214l0.024-0.138c0.052-0.299,0.186-0.612,0.134-0.894
		c-0.071-0.404-0.019-0.86-0.347-1.2c-0.119-0.121-0.127-0.305-0.254-0.452c-0.28-0.325-0.607-0.518-0.991-0.329l-0.288,0.232
		c-0.094,0.196-0.144,0.415-0.194,0.628c-0.054,0.217-0.089,0.44-0.128,0.66l-0.043,0.292c-0.034,0.159-0.078,0.316-0.121,0.474
		c-0.092,0.353-0.185,0.704-0.281,1.055c-0.095,0.349-0.211,0.691-0.288,1.044c-0.106,0.486-0.208,0.978-0.271,1.471
		c-0.043,0.337,0.005,0.687-0.026,1.026c-0.05,0.554,0.054,1.095,0.22,1.603c0.177,0.534,0.493,1.024,0.882,1.441
		c0.305,0.327,0.721,0.504,1.111,0.707c0.31,0.163,0.636,0.245,1.012,0.214c0.426-0.035,0.842-0.069,1.239-0.234l0.037-0.006
		c0.38-0.251,0.79-0.467,1.125-0.766c0.219-0.195,0.57-0.288,0.624-0.655l0.146-0.182c0.2-0.259,0.397-0.519,0.591-0.773
		l0.196,0.188c0.22,0.53,0.63,0.924,0.973,1.361c0.211,0.269,0.535,0.448,0.808,0.667l0.231,0.182
		c0.238,0.094,0.486,0.164,0.729,0.249c0.464,0.161,0.927,0.336,1.428,0.334c0.305-0.001,0.625,0.042,0.91-0.037
		c0.315-0.087,0.612-0.272,0.895-0.45c0.657-0.411,1.255-0.892,1.621-1.6c0.149-0.288,0.29-0.58,0.44-0.884l0.13,0.194
		c0.171,0.248,0.33,0.505,0.519,0.739c0.152,0.186,0.329,0.359,0.517,0.509c0.299,0.237,0.608,0.461,0.929,0.667
		c0.156,0.1,0.385,0.107,0.509,0.23c0.2,0.197,0.447,0.259,0.688,0.315c0.511,0.12,1.022,0.206,1.563,0.143
		c0.309-0.038,0.564-0.173,0.835-0.276c0.309-0.118,0.594-0.301,0.88-0.48c0.305-0.19,0.54-0.446,0.808-0.665
		c0.246-0.201,0.397-0.525,0.576-0.805c0.183-0.286,0.355-0.58,0.515-0.878c0.163-0.308,0.308-0.624,0.454-0.939
		c0.051-0.111,0.086-0.23,0.122-0.347c0.077-0.252,0.133-0.514,0.228-0.759c0.145-0.372,0.299-0.739,0.475-1.096
		c0.104-0.211,0.258-0.399,0.412-0.63c0.098,0.147,0.189,0.238,0.225,0.349c0.115,0.366,0.204,0.74,0.315,1.106
		c0.076,0.251,0.153,0.489,0.015,0.748c-0.07,0.133-0.116,0.29-0.127,0.44c-0.057,0.744,0.037,1.47,0.279,2.176
		c0.043,0.125,0.104,0.247,0.124,0.375c0.062,0.372,0.224,0.562,0.563,0.649l0.13,0.149c0.268,0.172,0.519,0.324,0.865,0.116
		c0.229-0.138,0.461-0.372,0.456-0.647c-0.006-0.274-0.021-0.548-0.016-0.82c0.003-0.248,0.047-0.494,0.043-0.74
		c-0.003-0.199-0.108-0.41-0.067-0.593c0.047-0.199-0.123-0.362,0-0.576c0.138-0.234,0.156-0.534,0.264-0.789
		c0.156-0.369,0.349-0.72,0.521-1.082c0.093-0.196,0.271-0.333,0.305-0.579c0.021-0.155,0.198-0.285,0.294-0.434
		c0.137-0.209,0.269-0.42,0.392-0.636c0.118-0.208,0.357-0.348,0.35-0.626l0.035-0.035c0.116-0.064,0.233-0.126,0.352-0.189
		c0.29-0.154,0.54-0.389,0.907-0.385c0.235,0.002,0.236-0.028,0.237,0.224c0.001,0.141,0,0.282,0,0.424c0,0.304,0,0.607,0,0.911
		s-0.022,0.609,0.008,0.91c0.027,0.277-0.114,0.547-0.012,0.825l-0.029,0.133l-0.035,0.188c-0.012,0.739-0.017,1.479-0.03,2.218
		l-0.07,0.212c0.03,0.236,0.079,0.47,0.127,0.704c0.072,0.353,0.211,0.68,0.44,0.957c0.132,0.159,0.301,0.285,0.454,0.423
		c0.209,0.188,0.624,0.173,0.768-0.061c0.151-0.244,0.253-0.518,0.367-0.783l-0.052-0.1c0.114-0.136,0.085-0.259,0.017-0.413
		c-0.064-0.151-0.096-0.329-0.094-0.494c0.011-0.528,0.043-1.054,0.064-1.582l0.001-0.275l0.115,0.016
		c0.165,0.163,0.316,0.13,0.531,0.062c0.239-0.078,0.522-0.026,0.787-0.026l0.067,0.054c0.22,0.167,0.32,0.417,0.46,0.639
		c0.361,0.58,0.741,1.147,1.09,1.735c0.238,0.403,0.591,0.693,0.909,1.019c0.179,0.181,0.438,0.279,0.611,0.434
		c0.428,0.38,0.934,0.51,1.451,0.614c0.307,0.062,0.635,0.02,0.954,0.014c0.274-0.005,0.549-0.025,0.823-0.043l0.146-0.049
		c0.186-0.096,0.362-0.212,0.556-0.289c0.147-0.057,0.298-0.236,0.201-0.345c-0.109-0.126,0.066-0.144,0.031-0.216
		c0.248-0.038,0.178-0.229,0.191-0.385l0.079-0.194l0.001-0.095c-0.039-0.199-0.065-0.402-0.125-0.594
		C825.895,166.593,825.581,166.332,825.42,166.337"/>
	<path id="path92" fill="#49A338" d="M878.378,165.256L878.378,165.256"/>
	<path id="path94" fill="#49A338" d="M858.926,163.761c-0.092,0.228-0.008,0.456-0.095,0.672c-0.069,0.176-0.096,0.374-0.179,0.544
		c-0.098,0.197-0.212,0.396-0.361,0.556c-0.194,0.21-0.479,0.225-0.75,0.245l-0.305,0.01c-0.166,0.119-0.303,0.006-0.449-0.012
		c-0.225-0.029-0.469,0.095-0.68-0.084l-0.164-0.01c-0.194-0.034-0.376-0.089-0.547-0.21c-0.135-0.095-0.34-0.089-0.484-0.178
		c-0.225-0.138-0.434-0.305-0.63-0.482c-0.166-0.15-0.325-0.71-0.291-0.944c-0.022-0.65,0.293-1.184,0.58-1.726l0.057-0.064
		c0.1-0.157,0.163-0.367,0.304-0.463c0.189-0.13,0.282-0.332,0.46-0.463c0.201-0.148,0.379-0.33,0.577-0.482
		c0.276-0.211,0.558-0.407,0.88-0.563c0.298-0.143,0.58-0.316,0.897-0.416c0.173-0.055,0.348-0.1,0.522-0.142l0.261-0.032
		c0.174,0.013,0.378,0.224,0.3,0.356c-0.125,0.208,0.009,0.367,0.007,0.546c-0.001,0.605,0.007,1.209,0.009,1.814l-0.016,0.086
		c0.089,0.291,0.054,0.583,0.041,0.88C858.862,163.389,858.987,163.607,858.926,163.761L858.926,163.761z M885.447,158.471
		l0.236-0.265c0.01-0.265,0.088-0.557-0.153-0.778l-0.056-0.099c0.083-0.239-0.112-0.296-0.25-0.387l-0.317-0.185l-0.081-0.058
		c-0.385-0.013-0.77-0.031-1.155-0.024c-0.394,0.008-0.784,0.046-1.179,0.064l-0.291-0.033c-0.125,0.006-0.247,0.038-0.371,0.054
		l-0.131-0.008c-0.48-0.179-0.979-0.075-1.469-0.103c-0.319-0.018-0.638-0.024-0.923-0.035c0.026-0.196,0.048-0.324,0.059-0.453
		c0.012-0.145,0-0.292,0.023-0.435c0.048-0.296,0.137-0.588,0.161-0.884c0.028-0.313,0.048-0.624,0.094-0.935
		c0.042-0.276-0.024-0.555-0.221-0.781l-0.057-0.091c-0.046-0.133-0.066-0.28-0.139-0.395l-0.285-0.251
		c-0.152-0.007-0.269-0.121-0.448-0.077c-0.223,0.054-0.354,0.146-0.46,0.342c-0.146,0.27-0.334,0.519-0.489,0.785
		c-0.171,0.296-0.323,0.601-0.486,0.902c-0.094,0.172-0.188,0.344-0.281,0.516l-0.007,0.045c-0.29,0.177-0.262,0.54-0.454,0.784
		c-0.076,0.096-0.09,0.271-0.174,0.411c-0.138,0.231-0.188,0.514-0.251,0.699c-0.168,0.009-0.264,0.011-0.361,0.02l-0.14,0.027
		c-0.378-0.007-0.757-0.039-1.133-0.018c-0.153,0.009-0.333,0.097-0.446,0.204c-0.205,0.196-0.222,0.499-0.277,0.755
		c-0.048,0.223-0.121,0.514,0.141,0.705l0.03,0.083c-0.045,0.227,0.12,0.329,0.239,0.482c0.297,0.388,0.689,0.511,1.146,0.521
		c0.114,0.003,0.141,0.042,0.119,0.157c-0.025,0.13-0.05,0.261-0.06,0.394c-0.026,0.335-0.045,0.671-0.065,1.007l-0.001,0.264
		c0.01,0.2,0.021,0.399,0.033,0.598c0.018,0.269,0.011,0.542,0.061,0.805c0.072,0.377,0.164,0.744-0.114,1.08
		c-0.086,0.104-0.197,0.198-0.246,0.316c-0.058,0.139-0.125,0.25-0.24,0.348l-0.259,0.322c-0.108,0.189-0.241,0.351-0.394,0.484
		c-0.206,0.18-0.435,0.355-0.773,0.371l0.139,0.046c-0.269,0-0.503,0.055-0.693-0.011c-0.361-0.125-0.538-0.471-0.736-0.775
		l-0.111-0.212c-0.04-0.13-0.061-0.267-0.094-0.399c-0.047-0.176-0.101-0.35-0.146-0.526l0.019-0.06
		c0.021-0.141,0.058-0.282,0.057-0.424c-0.001-0.128-0.079-0.261-0.063-0.384c0.036-0.276,0.124-0.543,0.162-0.82
		c0.038-0.259,0.027-0.524,0.059-0.784c0.038-0.301,0.101-0.599,0.146-0.9c0.039-0.261,0.021-0.542,0.111-0.783
		c0.12-0.317,0.104-0.612,0.005-0.915c-0.106-0.32-0.222-0.637-0.353-0.949c-0.063-0.147-0.116-0.326-0.333-0.346l-0.108-0.111
		c-0.189-0.192-0.459-0.139-0.684,0.034c-0.474,0.362-0.463,0.892-0.553,1.392l-0.032,0.308c-0.046,0.249-0.11,0.497-0.148,0.747
		c-0.075,0.479-0.132,0.96-0.209,1.438c-0.05,0.312-0.142,0.619-0.184,0.931c-0.043,0.314-0.19,0.774-0.383,1.12
		c-0.171,0.309-0.316,0.631-0.487,0.939c-0.111,0.198-0.229,0.398-0.38,0.566c-0.195,0.216-0.415,0.417-0.705,0.509
		c-0.25,0.079-0.499,0.183-0.757,0.219c-0.456,0.066-0.909-0.007-1.357-0.111c-0.308-0.071-0.443-0.243-0.44-0.549
		c0.002-0.326,0.025-0.643,0.173-0.953c0.092-0.192,0.065-0.438,0.116-0.652c0.065-0.268,0.164-0.525,0.234-0.791
		c0.089-0.341,0.162-0.687,0.242-1.029l0.014-0.094c0.09-0.271,0.204-0.538,0.267-0.815c0.056-0.245,0.073-0.504,0.072-0.756
		c-0.001-0.304-0.03-0.609-0.068-0.91c-0.022-0.165-0.074-0.33-0.138-0.484c-0.108-0.258-0.222-0.519-0.365-0.758
		c-0.113-0.189-0.251-0.38-0.424-0.509c-0.178-0.133-0.408-0.194-0.617-0.28c-0.491-0.201-1.006-0.341-1.531-0.37
		c-0.711-0.038-1.425-0.104-2.14,0.04c-0.353,0.07-0.7,0.11-0.988,0.354c-0.12,0.103-0.255,0.186-0.385,0.279
		c-0.197-0.36-0.56-0.352-0.865-0.404c-0.217-0.038-0.461,0.091-0.688,0.072c-0.401-0.031-0.728,0.274-1.126,0.211
		c-0.165,0.252-0.47,0.27-0.698,0.415c-0.279,0.177-0.558,0.355-0.837,0.532c-0.288,0.184-0.59,0.35-0.801,0.633l-0.012,0.021
		c-0.276,0.188-0.519,0.403-0.71,0.687c-0.171,0.253-0.397,0.472-0.6,0.705l-0.192,0.22c0.011,0.237-0.205,0.335-0.271,0.521
		c-0.099,0.275-0.228,0.54-0.317,0.817c-0.063,0.191-0.079,0.396-0.121,0.595c-0.054,0.248-0.119,0.494-0.17,0.743
		c-0.034,0.167,0.015,0.395-0.033,0.494c-0.12,0.255,0.017,0.463,0.06,0.654c0.096,0.442,0.306,0.859,0.453,1.29
		c0.177,0.515,0.507,0.931,0.876,1.305c0.327,0.331,0.708,0.612,1.08,0.894c0.169,0.127,0.377,0.204,0.567,0.297l0.265,0.099
		l0.256,0.1c0.261,0.076,0.522,0.149,0.786,0.216c0.161,0.042,0.326,0.094,0.49,0.098c0.225,0.005,0.451-0.04,0.676-0.049
		c0.319-0.013,0.643,0.019,0.955-0.026c0.294-0.043,0.596-0.126,0.86-0.259c0.243-0.123,0.455-0.321,0.655-0.514l0.116-0.325
		l0.202-0.265c0.076-0.185,0.125-0.381,0.182-0.575c0.144-0.496,0.299-0.989,0.282-1.518c-0.012-0.416-0.001-0.833-0.001-1.251
		c0-0.386-0.021-0.772,0.005-1.158c0.02-0.287-0.115-0.563-0.022-0.858c0.038-0.123-0.054-0.281-0.054-0.424
		c0-0.173,0.047-0.345,0.05-0.519c0.004-0.208-0.103-0.405,0.01-0.628c0.098-0.195,0.115-0.429,0.173-0.645l0.052-0.035
		c0.118-0.063,0.23-0.143,0.355-0.181c0.176-0.055,0.365-0.119,0.543-0.107c0.489,0.03,0.991-0.084,1.471,0.101l0.23,0.08
		c0.337,0.036,0.457,0.268,0.324,0.585c-0.105,0.256-0.221,0.524-0.248,0.795c-0.03,0.28-0.297,0.484-0.214,0.788l-0.071,0.165
		c-0.071,0.222-0.134,0.447-0.209,0.668c-0.072,0.211-0.062,0.441-0.18,0.648c-0.078,0.133-0.08,0.315-0.103,0.476
		c-0.039,0.292-0.098,0.587-0.093,0.88c0.008,0.476,0.058,0.953,0.093,1.428l0.045,0.081c0.116,0.255,0.212,0.521,0.349,0.765
		c0.24,0.425,0.424,0.92,1.017,0.986l0.051,0.034c0.104,0.215,0.324,0.269,0.514,0.346c0.344,0.14,0.694,0.284,1.056,0.356
		c0.349,0.068,0.713,0.119,1.074,0.036l0.168-0.009c0.228-0.031,0.461-0.044,0.683-0.103c0.228-0.06,0.442-0.166,0.679-0.259
		l0.028-0.091c0.12-0.081,0.258-0.136,0.374-0.221c0.197-0.143,0.389-0.294,0.571-0.456l0.152-0.24
		c0.104-0.162,0.322-0.232,0.348-0.467l0.2-0.236c0.161,0.272,0.305,0.516,0.449,0.76c0.108,0.182,0.185,0.403,0.336,0.535
		c0.322,0.28,0.657,0.573,1.038,0.75c0.374,0.172,0.737,0.381,1.17,0.451c0.437,0.069,0.804-0.021,1.173-0.221
		c0.215-0.116,0.43-0.228,0.617-0.39c0.146-0.126,0.352-0.203,0.458-0.353c0.211-0.295,0.521-0.517,0.645-0.88l0.196-0.268
		l0.102-0.134l0.211,0.117l0.109,0.186c0.268,0.255,0.531,0.516,0.818,0.746c0.187,0.148,0.419,0.238,0.62,0.368
		c0.231,0.151,0.434,0.362,0.684,0.466c0.287,0.12,0.61,0.166,0.923,0.216c0.301,0.05,0.608,0.056,0.912,0.095
		c0.263,0.033,0.525-0.08,0.786,0.005l0.021-0.01c0.185-0.074,0.368-0.155,0.557-0.22c0.225-0.077,0.459-0.125,0.677-0.214
		l0.134-0.224l0.173-0.213l0.135-0.299c0.042-0.099,0.081-0.197,0.129-0.313l0.109-0.165l0.088-0.163
		c0.049-0.203,0.183-0.463,0.104-0.595c-0.107-0.18,0.014-0.321-0.048-0.466l0.051,0.07l0.081-0.04
		c-0.098-0.235-0.196-0.47-0.32-0.77c-0.08,0.129-0.115,0.184-0.153,0.248l-0.083-0.179l-0.13,0.118l-0.023-0.064l-0.148,0.053
		c-0.164,0.086-0.327,0.175-0.486,0.27l-0.106,0.108c-0.355,0.068-0.659,0.304-1.038,0.293c-0.351-0.01-0.706,0.031-1.052-0.01
		c-0.28-0.034-0.548-0.159-0.823-0.239l-0.287-0.07c-0.183-0.091-0.355-0.203-0.519-0.299l-0.008,0.003
		c-0.125-0.172-0.268-0.344-0.381-0.532c-0.097-0.158-0.168-0.331-0.236-0.504c-0.191-0.475-0.32-0.945-0.035-1.443
		c0.102-0.177,0.108-0.405,0.16-0.608l0.044,0.009c0.068-0.259,0.131-0.52,0.199-0.779c0.038-0.144,0.089-0.282,0.128-0.425
		c0.088-0.319,0.169-0.638,0.255-0.956c0.04-0.145,0.071-0.296,0.137-0.43l0.206-0.139c0.194-0.034,0.398-0.019,0.591-0.06
		c0.564-0.12,1.149,0.056,1.706-0.127c0.116,0.231,0.285,0.009,0.428,0.025c0.413,0.05,0.84-0.006,1.262-0.031
		c0.193-0.011,0.385-0.061,0.578-0.063c0.136-0.001,0.258,0.015,0.401-0.018c0.253-0.058,0.527-0.005,0.786-0.041
		c0.141-0.019,0.262-0.142,0.401-0.191c0.132-0.047,0.349-0.221,0.334-0.333C885.319,158.5,885.309,158.481,885.447,158.471"/>
	<path id="path96" fill="#49A338" d="M882.81,165.075l0.028,0.075l0.015-0.005L882.81,165.075"/>
	<path id="path98" fill="#49A338" d="M765.678,162.328c-0.21,0.362-0.257,0.775-0.459,1.133c-0.255,0.452-0.477,0.924-0.718,1.383
		c-0.104,0.196-0.211,0.391-0.339,0.571c-0.092,0.127-0.229,0.222-0.331,0.344c-0.094,0.11-0.181,0.228-0.245,0.355
		c-0.081,0.164-0.327,0.19-0.33,0.422l-0.212,0.111c-0.212,0.138-0.417,0.282-0.629,0.419l-0.171,0.057
		c-0.316,0.187-0.639,0.103-0.955,0.015l-0.204-0.2c-0.232-0.057-0.195-0.28-0.271-0.42c-0.081-0.148-0.081-0.345-0.103-0.522
		c-0.015-0.121-0.001-0.245-0.004-0.369c-0.008-0.439,0.125-0.855,0.221-1.276c0.044-0.196,0.091-0.395,0.17-0.579
		c0.085-0.2,0.206-0.384,0.313-0.574c0.083-0.149,0.159-0.3,0.254-0.44c0.13-0.192,0.273-0.375,0.415-0.56l0.146-0.16
		c0.221-0.315,0.563-0.455,0.873-0.651c0.307-0.195,0.621-0.355,0.967-0.45c0.156-0.042,0.336-0.071,0.491-0.039
		c0.292,0.062,0.577,0.159,0.858,0.264c0.17,0.065,0.325,0.17,0.5,0.264C765.843,161.728,765.829,162.067,765.678,162.328
		L765.678,162.328z M778.777,166.36l-0.229-0.216c-0.146-0.355-0.328-0.691-0.407-1.08c-0.093-0.447-0.134-0.898-0.163-1.347
		c-0.021-0.33,0.05-0.667,0.084-0.999c0.028-0.281,0.048-0.565,0.098-0.844c0.077-0.42,0.072-0.847,0.167-1.27
		c0.054-0.24,0.11-0.546-0.081-0.818c-0.046-0.066-0.047-0.253-0.116-0.375c-0.198-0.358-0.26-0.792-0.68-1.019
		c-0.243-0.132-0.775-0.104-0.914,0.144c-0.151,0.272-0.24,0.573-0.295,0.882c-0.04,0.23-0.055,0.465-0.102,0.694
		c-0.081,0.402-0.186,0.8-0.265,1.202c-0.053,0.274-0.066,0.555-0.117,0.829c-0.051,0.27-0.124,0.535-0.193,0.801l-0.085,0.181
		c-0.14,0.237-0.239,0.501-0.355,0.745c-0.115,0.24-0.271,0.449-0.409,0.662c-0.147,0.228-0.377,0.401-0.576,0.594l-0.313,0.267
		l-0.311,0.165c-0.18,0.104-0.346,0.241-0.538,0.311c-0.319,0.116-0.651,0.199-0.982,0.277c-0.119,0.028-0.266,0.053-0.266-0.167
		c-0.001-0.265-0.05-0.53-0.051-0.795c-0.002-0.211,0.027-0.422,0.058-0.632c0.057-0.396,0.116-0.792,0.193-1.187
		c0.057-0.282,0.089-0.567,0.173-0.85c0.099-0.332,0.08-0.698,0.112-1.049c0.011-0.133,0.024-0.264,0.036-0.396
		c0.019-0.206,0.057-0.411,0.05-0.616c-0.008-0.22-0.055-0.438-0.086-0.656c-0.034-0.23-0.058-0.462-0.104-0.69
		c-0.023-0.112-0.085-0.22-0.137-0.325c-0.142-0.285-0.27-0.58-0.438-0.849c-0.169-0.269-0.335-0.581-0.587-0.745
		c-0.318-0.208-0.708-0.315-1.123-0.236c-0.343,0.065-0.699,0.114-0.981,0.305c-0.244,0.167-0.496,0.328-0.713,0.549
		c-0.191,0.195-0.375,0.414-0.584,0.575c-0.248,0.191-0.345,0.463-0.525,0.686c-0.165,0.205-0.273,0.456-0.413,0.699l-0.146-0.194
		c-0.17-0.224-0.31-0.458-0.536-0.652c-0.171-0.147-0.354-0.235-0.54-0.305c-0.362-0.137-0.746-0.233-1.127-0.31
		c-0.184-0.037-0.385,0.021-0.578,0.015c-0.354-0.009-0.68,0.099-1.002,0.215c-0.164,0.06-0.309,0.166-0.465,0.244
		c-0.172,0.083-0.369,0.13-0.514,0.245c-0.372,0.292-0.739,0.595-1.069,0.932c-0.274,0.283-0.507,0.61-0.732,0.937
		c-0.169,0.242-0.301,0.511-0.435,0.776c-0.107,0.213-0.195,0.438-0.285,0.66c-0.07,0.171-0.146,0.343-0.192,0.521
		c-0.076,0.28-0.143,0.563-0.191,0.85c-0.048,0.282-0.085,0.568-0.097,0.854c-0.016,0.406-0.007,0.814-0.001,1.222l0.062,0.297
		c0.041,0.164,0.084,0.326,0.128,0.489c0.067,0.244,0.104,0.504,0.213,0.726c0.156,0.313,0.35,0.611,0.562,0.889
		c0.23,0.303,0.479,0.599,0.763,0.849c0.236,0.208,0.542,0.336,0.805,0.518c0.385,0.267,0.838,0.333,1.271,0.331
		c0.3,0,0.616-0.179,0.895-0.331c0.266-0.146,0.486-0.369,0.737-0.545c0.458-0.32,0.811-0.748,1.176-1.159
		c0.202-0.229,0.384-0.479,0.552-0.732c0.104-0.159,0.16-0.348,0.252-0.516c0.072-0.13,0.177-0.244,0.245-0.376
		c0.082-0.161,0.14-0.335,0.21-0.502c0.067-0.166,0.11-0.349,0.21-0.494c0.217-0.32,0.259-0.676,0.266-1.045v-0.1l0.071,0.063
		c0.029-0.17,0.036-0.349,0.093-0.51c0.067-0.195,0.179-0.376,0.269-0.564l0.14-0.313l0.025-0.13l0.039-0.137l0.116-0.145
		c0.033-0.377,0.261-0.667,0.451-0.965c0.214-0.333,0.481-0.635,0.729-0.946c0.123-0.151,0.276-0.272,0.401-0.427
		c0.13-0.161,0.393-0.215,0.627-0.33c0.031,0.208,0.063,0.384,0.085,0.562c0.061,0.479-0.018,0.95-0.11,1.416
		c-0.067,0.341-0.175,0.674-0.251,1.014c-0.065,0.289-0.121,0.58-0.16,0.874c-0.049,0.38-0.088,0.761-0.11,1.144
		c-0.02,0.359-0.015,0.715,0.057,1.076c0.102,0.515,0.111,1.05,0.473,1.481c0.083,0.1,0.16,0.214,0.208,0.333
		c0.202,0.495,0.609,0.807,1.035,1.055c0.263,0.154,0.619,0.164,0.938,0.201c0.474,0.056,0.914-0.103,1.355-0.257
		c0.535-0.189,1.066-0.39,1.484-0.781c0.337-0.314,0.634-0.669,0.943-1.011l0.201-0.289l0.172-0.003
		c0.311,0.458,0.603,0.927,0.918,1.382l0.281,0.096l0.024-0.071c0.149,0.109,0.31,0.205,0.442,0.33
		c0.262,0.248,0.524,0.264,0.816,0.064l0.285-0.14c0.099-0.138,0.148-0.31,0.219-0.469l0.066-0.159
		c-0.043-0.175-0.084-0.357-0.168-0.514C779.085,166.776,778.932,166.567,778.777,166.36"/>
	<path id="path100" fill="#49A338" d="M848.789,157.624c-0.089-0.111-0.136-0.258-0.184-0.396l0.054-0.154l-0.143-0.039
		c-0.103-0.228-0.307-0.155-0.479-0.183c-0.264-0.042-0.463,0.132-0.693,0.186c-0.459,0.105-0.932,0.146-1.398,0.207
		c-0.129,0.016-0.263-0.009-0.389,0.011c-0.31,0.05-0.614,0.147-0.923,0.166c-0.523,0.03-1.05,0.01-1.575,0.019
		c-0.165,0.002-0.328,0.028-0.526,0.047c0.04-0.381,0.085-0.729,0.111-1.079c0.027-0.374,0.038-0.748,0.053-1.123
		c0.013-0.295,0.021-0.589,0.032-0.884c0.025-0.629,0.099-1.26,0.054-1.884c-0.022-0.314-0.122-0.669-0.371-0.931l-0.212-0.3
		c-0.044-0.141-0.051-0.282-0.248-0.276l-0.073-0.042l-0.248-0.138c-0.196,0.01-0.389,0.066-0.582,0.105l-0.026,0.025
		c-0.099,0.221-0.214,0.438-0.289,0.667c-0.111,0.34-0.202,0.688-0.287,1.035c-0.075,0.304-0.129,0.611-0.195,0.917
		c-0.085,0.388-0.165,0.778-0.26,1.164c-0.13,0.535-0.294,1.063-0.402,1.603c-0.086,0.42-0.11,0.853-0.164,1.299
		c-0.285-0.018-0.539-0.055-0.79-0.044c-0.505,0.023-0.802,0.031-0.881,0.716l-0.083,0.23c0.01,0.144,0.058,0.285,0.085,0.427
		l0.017,0.164c0.217,0.322,0.442,0.64,0.638,0.92l0.203,0.005l0.291,0.206l0.094,0.164c0.013,0.161,0.003,0.325,0.004,0.486
		c0.005,0.567,0.011,1.133,0.021,1.701l0.055,0.159c-0.075,0.139-0.192,0.257-0.255,0.401c-0.156,0.357-0.402,0.64-0.666,0.922
		c-0.127,0.135-0.267,0.255-0.387,0.389c-0.269,0.3-0.617,0.48-0.933,0.71l-0.31,0.191c-0.107,0.061-0.214,0.14-0.331,0.168
		c-0.226,0.057-0.472,0.05-0.683,0.134l-0.243-0.006l-0.243,0.051c-0.159-0.014-0.313-0.061-0.472-0.086
		c-0.188-0.031-0.382-0.044-0.569-0.084l-0.248-0.13c-0.13-0.135-0.272-0.273-0.35-0.438c-0.099-0.211-0.17-0.448-0.195-0.679
		c-0.024-0.228,0.017-0.464,0.041-0.695c0.03-0.272,0.067-0.545,0.114-0.813c0.057-0.335,0.126-0.667,0.192-1l0.025-0.065
		c0.086-0.242,0.184-0.481,0.256-0.727c0.053-0.182,0.066-0.373,0.106-0.557l0.099-0.304c0.136-0.256,0.223-0.532,0.173-0.811
		c-0.057-0.319-0.163-0.633-0.281-0.934c-0.164-0.417-0.437-0.748-0.859-0.935c-0.207-0.092-0.691,0.064-0.768,0.264
		c-0.131,0.346-0.256,0.695-0.381,1.045c-0.039,0.111-0.066,0.226-0.099,0.34c-0.048,0.17-0.09,0.341-0.141,0.511
		c-0.078,0.263-0.17,0.521-0.241,0.786c-0.066,0.253-0.123,0.509-0.17,0.767c-0.078,0.442-0.156,0.886-0.211,1.333
		c-0.043,0.337-0.085,0.684-0.065,1.021c0.029,0.487,0.075,0.981,0.189,1.454c0.095,0.388,0.266,0.769,0.466,1.115
		c0.13,0.224,0.222,0.502,0.5,0.624l0.219,0.209c0.049,0.17,0.29,0.16,0.295,0.361l0.193,0.101c0.262,0.153,0.452,0.409,0.763,0.495
		c0.17,0.046,0.344,0.125,0.481,0.232c0.197,0.152,0.425,0.184,0.646,0.2c0.442,0.031,0.889,0.029,1.334,0.022
		c0.147-0.002,0.295-0.058,0.44-0.096l0.263-0.089l0.166-0.009c0.29-0.123,0.582-0.243,0.86-0.385
		c0.179-0.09,0.349-0.205,0.504-0.332c0.211-0.171,0.405-0.364,0.604-0.549c0.194-0.179,0.384-0.361,0.576-0.541
		c0.143-0.134,0.288-0.266,0.446-0.413c0.15,0.231,0.279,0.442,0.42,0.646c0.083,0.116,0.163,0.277,0.279,0.317
		c0.161,0.055,0.274,0.145,0.384,0.259l0.146,0.162c0.356,0.29,0.696,0.616,1.153,0.74c0.434,0.117,0.877,0.23,1.323,0.268
		c0.262,0.022,0.541-0.089,0.803-0.174c0.209-0.067,0.41-0.169,0.598-0.285c0.168-0.104,0.317-0.244,0.469-0.375l0.122-0.166
		c0.044-0.12,0.027-0.295,0.107-0.363c0.275-0.232,0.14-0.616,0.354-0.86c-0.111-0.145-0.09-0.308-0.105-0.479
		c-0.022-0.229-0.172-0.448-0.271-0.669l-0.085-0.051l-0.169,0.047l0.022-0.262c-0.135,0.032-0.276,0.068-0.418,0.102l-0.081,0.005
		l0.028,0.083h-0.203l-0.241,0.211l-0.231,0.182c-0.163,0.079-0.334,0.167-0.511,0.195c-0.308,0.05-0.625,0.09-0.933,0.069
		c-0.244-0.018-0.521-0.08-0.711-0.219c-0.235-0.174-0.418-0.434-0.582-0.684c-0.104-0.157-0.15-0.361-0.188-0.551
		c-0.052-0.266-0.114-0.542-0.092-0.807c0.021-0.261,0.136-0.517,0.221-0.771l0.146-0.315c0.051-0.145,0.086-0.295,0.124-0.444
		c0.089-0.355,0.179-0.708,0.257-1.065c0.026-0.121-0.019-0.272,0.038-0.369c0.058-0.095,0.194-0.194,0.325-0.044l0.02-0.011
		c0.311-0.055,0.617-0.121,0.93-0.16c0.422-0.053,0.846,0.026,1.272-0.073c0.384-0.09,0.793-0.07,1.188-0.112
		c0.276-0.03,0.551-0.08,0.821-0.133c0.209-0.041,0.415-0.092,0.619-0.155c0.214-0.065,0.425-0.144,0.635-0.223
		c0.124-0.047,0.254-0.09,0.361-0.163c0.135-0.092,0.282-0.193,0.369-0.327c0.091-0.143,0.116-0.328,0.184-0.54
		c-0.008-0.069-0.014-0.205-0.043-0.337C848.751,157.909,848.912,157.78,848.789,157.624"/>
	<path id="path102" fill="#49A338" d="M759.424,153.889c0.139-0.461,0.289-0.919,0.421-1.381c0.136-0.472,0.281-0.945,0.375-1.426
		c0.079-0.402,0.214-0.817,0.009-1.229c-0.066-0.134-0.163-0.27-0.174-0.41c-0.012-0.185-0.238-0.241-0.225-0.369
		c0.023-0.198-0.085-0.225-0.211-0.284c-0.119-0.058-0.231-0.131-0.343-0.205c-0.224-0.147-0.549-0.072-0.679,0.179
		c-0.137,0.263-0.272,0.529-0.375,0.806c-0.066,0.178-0.067,0.379-0.104,0.568c-0.031,0.16-0.058,0.324-0.111,0.476
		c-0.109,0.301-0.232,0.598-0.355,0.894c-0.161,0.39-0.335,0.774-0.487,1.167c-0.083,0.211-0.128,0.435-0.199,0.65
		c-0.042,0.13-0.108,0.251-0.149,0.381c-0.054,0.171-0.09,0.349-0.139,0.522c-0.038,0.135-0.205,0.231-0.121,0.404l-0.055,0.029
		l-0.108,0.236c-0.099,0.23-0.184,0.467-0.3,0.688c-0.068,0.133-0.173,0.25-0.279,0.357c-0.185,0.188-0.376,0.37-0.578,0.539
		c-0.135,0.111-0.295,0.191-0.438,0.292c-0.255,0.179-0.495,0.377-0.758,0.541c-0.309,0.191-0.618,0.397-0.957,0.516
		c-0.392,0.139-0.811,0.229-1.224,0.267c-0.333,0.03-0.674-0.065-1.013-0.08c-0.364-0.015-0.603-0.2-0.781-0.498
		c-0.152-0.252-0.284-0.504-0.304-0.815c-0.019-0.301-0.116-0.596-0.149-0.897c-0.015-0.142,0.08-0.296,0.057-0.434
		c-0.043-0.25-0.027-0.486,0.004-0.737c0.062-0.505,0.072-1.015,0.104-1.524l0.013-0.229l0.071-0.102l-0.019-0.272
		c-0.001-0.241,0.028-0.483,0.002-0.721c-0.024-0.225-0.091-0.449-0.168-0.663c-0.076-0.213-0.155-0.44-0.294-0.612
		c-0.186-0.23-0.436-0.405-0.644-0.618c-0.221-0.224-0.691-0.24-0.873,0.005c-0.149,0.201-0.229,0.432-0.206,0.7
		c0.013,0.14-0.077,0.287-0.075,0.429c0.001,0.164,0.081,0.329,0.078,0.492c-0.011,0.454-0.052,0.907-0.069,1.361
		c-0.016,0.41-0.037,0.82-0.021,1.229c0.026,0.714-0.019,1.425,0.065,2.145c0.089,0.757,0.268,1.467,0.633,2.118
		c0.318,0.567,0.716,1.1,1.229,1.514c0.268,0.216,0.589,0.376,0.905,0.519c0.229,0.103,0.488,0.135,0.734,0.195
		c0.21,0.05,0.419,0.122,0.632,0.136c0.233,0.015,0.471-0.025,0.706-0.039c0.13-0.007,0.267,0.016,0.386-0.018
		c0.271-0.076,0.537-0.176,0.802-0.271c0.238-0.085,0.475-0.175,0.743-0.275l0.058,0.13c-0.197,0.152-0.085,0.426-0.262,0.611
		c-0.133,0.138-0.145,0.393-0.207,0.597l-0.078,0.293c-0.132,0.4-0.277,0.795-0.396,1.199c-0.061,0.215-0.066,0.446-0.111,0.667
		c-0.052,0.254-0.125,0.502-0.181,0.755c-0.047,0.206-0.083,0.415-0.119,0.624c-0.051,0.29-0.103,0.579-0.146,0.87
		c-0.022,0.155-0.019,0.313-0.046,0.469c-0.048,0.277-0.142,0.55-0.16,0.829c-0.027,0.435-0.011,0.874-0.008,1.312l0.057,0.244
		c0.143,0.239,0.299,0.47,0.452,0.703l0.223,0.292c0.201,0.091,0.425,0.131,0.642,0.185l0.305,0.045
		c0.148-0.059,0.294-0.156,0.407-0.271c0.105-0.104,0.213-0.233,0.149-0.416l0.04-0.144c0.158-0.315,0.19-0.646,0.123-0.988
		l-0.083-0.3c0.167-0.085-0.089-0.249,0.067-0.317c-0.17-0.194,0.01-0.393-0.004-0.591c-0.014-0.192,0.034-0.39,0.055-0.585
		c0.021-0.191,0.026-0.385,0.067-0.573c0.083-0.387,0.186-0.77,0.278-1.156l0.01-0.094c0.063-0.18,0.136-0.355,0.193-0.536
		c0.075-0.232,0.136-0.471,0.21-0.705c0.08-0.243,0.179-0.479,0.257-0.723c0.08-0.255,0.141-0.515,0.22-0.77
		c0.035-0.114,0.09-0.222,0.134-0.333c0.107-0.271,0.215-0.542,0.318-0.815c0.09-0.239,0.178-0.478,0.262-0.719
		c0.076-0.22,0.146-0.441,0.219-0.663c0.038-0.121,0.063-0.25,0.117-0.364c0.077-0.164,0.2-0.309,0.26-0.478
		c0.144-0.407,0.258-0.825,0.393-1.235c0.047-0.141,0.124-0.272,0.181-0.411c0.051-0.126,0.095-0.255,0.135-0.385l0.062-0.256
		c0.186-0.354,0.416-0.69,0.567-1.057C759.223,154.695,759.305,154.284,759.424,153.889"/>
	<path id="path104" fill="#49A338" d="M887.528,166.575l-0.05-0.213c-0.188-0.277-0.351-0.576-0.646-0.765l-0.185-0.158l-0.31-0.158
		c-0.187,0.028-0.423,0.079-0.526,0.209c-0.191,0.241-0.514,0.386-0.513,0.799c0,0.28-0.061,0.563,0.015,0.844
		c0.031,0.12,0.067,0.242,0.125,0.351c0.074,0.143,0.153,0.289,0.261,0.405c0.132,0.143,0.279,0.293,0.452,0.373
		c0.162,0.074,0.369,0.045,0.55,0.085c0.434,0.092,0.802-0.155,0.824-0.593C887.545,167.366,887.528,166.976,887.528,166.575"/>
	<path id="path106" fill="#49A338" d="M834.527,155.192c0.138,0.04,0.267,0.114,0.402-0.025l0.268-0.121l0.25-0.005l-0.055-0.066
		c0.104-0.188,0.206-0.375,0.31-0.562l0.105,0.002c-0.072-0.122-0.146-0.245-0.219-0.369l-0.036-0.083
		c-0.045-0.314-0.175-0.589-0.389-0.816c-0.128-0.136-0.271-0.266-0.431-0.359c-0.275-0.16-0.453,0.06-0.679,0.183
		c-0.292,0.16-0.354,0.365-0.319,0.66c0.014,0.132-0.035,0.271-0.033,0.406c0.004,0.171-0.02,0.373,0.061,0.507
		C833.937,154.84,834.178,155.09,834.527,155.192"/>
	<path id="path108" fill="#140E0C" d="M745.91,166.362c-0.188-0.277-0.352-0.576-0.646-0.765l-0.185-0.158l-0.311-0.159
		c-0.187,0.029-0.422,0.08-0.526,0.21c-0.191,0.241-0.514,0.386-0.512,0.799c0,0.28-0.061,0.563,0.015,0.844
		c0.031,0.12,0.067,0.243,0.125,0.351c0.073,0.143,0.152,0.289,0.26,0.405c0.133,0.143,0.28,0.293,0.452,0.373
		c0.163,0.074,0.369,0.045,0.551,0.085c0.434,0.092,0.801-0.155,0.823-0.593c0.021-0.389,0.004-0.778,0.004-1.18L745.91,166.362"/>
	<path id="path110" fill="#140E0C" d="M708.776,158.877l-0.177-0.119c-0.179-0.184-0.31-0.401-0.557-0.529
		c-0.262-0.134-0.557-0.136-0.761-0.04c-0.323,0.151-0.542,0.471-0.6,0.85c-0.038,0.24-0.031,0.487-0.054,0.73l-0.061,0.277
		c0.136,0.147,0.018,0.18-0.072,0.238l0.067,0.041c-0.024,0.115-0.062,0.228-0.073,0.344c-0.053,0.475-0.106,0.951-0.143,1.428
		c-0.029,0.378-0.035,0.759-0.052,1.139l-0.01,0.19c-0.071,0.224-0.204,0.442-0.218,0.668c-0.022,0.394-0.239,0.715-0.401,1.025
		c-0.219,0.417-0.506,0.83-0.903,1.131c-0.269,0.203-0.515,0.473-0.878,0.463c-0.452-0.011-0.826-0.169-1.082-0.605
		c-0.28-0.477-0.398-0.997-0.518-1.516c-0.07-0.304-0.067-0.631-0.052-0.946c0.023-0.439,0.091-0.875,0.137-1.313
		c0.05-0.47,0.097-0.939,0.146-1.409l0.031-0.082l0.106-0.259c0.042-0.296,0.068-0.595,0.104-0.892l0.04-0.085
		c0.035-0.12,0.092-0.24,0.092-0.361c0-0.13-0.083-0.26-0.082-0.389c0.004-0.275-0.098-0.467-0.304-0.656
		c-0.312-0.286-0.599-0.563-1.071-0.532c-0.202,0.014-0.375,0.026-0.503,0.2c-0.107,0.145-0.267,0.27-0.318,0.432
		c-0.088,0.273-0.088,0.575-0.162,0.854c-0.043,0.156-0.03,0.319-0.119,0.475c-0.085,0.148-0.09,0.348-0.11,0.526
		c-0.054,0.485-0.099,0.97-0.146,1.455l-0.021,0.212c-0.064,0.167-0.169,0.322-0.214,0.495c-0.075,0.292-0.089,0.594-0.237,0.873
		c-0.133,0.248-0.182,0.539-0.301,0.794c-0.088,0.189-0.23,0.351-0.35,0.525l-0.074,0.103c-0.161,0.274-0.275,0.593-0.49,0.815
		c-0.424,0.438-0.905,0.819-1.478,1.058l-0.235,0.036c-0.165-0.072-0.326-0.164-0.471-0.27c-0.289-0.21-0.458-0.521-0.624-0.825
		c-0.113-0.205-0.188-0.434-0.27-0.655c-0.093-0.245-0.186-0.49-0.259-0.74c-0.064-0.218-0.107-0.441-0.15-0.664
		c-0.082-0.431-0.174-0.861-0.229-1.296c-0.025-0.199,0.092-0.435,0.023-0.605c-0.1-0.253-0.066-0.479-0.032-0.721l-0.013-0.212
		l-0.08-0.296c-0.051-0.224-0.093-0.45-0.146-0.673l-0.092-0.222c-0.091-0.389-0.307-0.674-0.665-0.856
		c-0.159-0.082-0.304-0.19-0.454-0.287c-0.143-0.092-0.678-0.063-0.771,0.07c-0.223,0.315-0.564,0.532-0.671,0.95
		c-0.062,0.238-0.277,0.435-0.406,0.662c-0.146,0.258-0.268,0.529-0.406,0.792c-0.099,0.185-0.208,0.365-0.312,0.549
		c-0.006-0.293-0.039-0.606,0.083-0.836c0.089-0.17,0.089-0.313,0.105-0.475l0.008-0.191c0.075-0.342,0.155-0.684,0.232-1.026
		c0.025-0.111-0.004-0.213,0.079-0.34c0.111-0.171,0.141-0.415,0.153-0.63c0.022-0.383,0.094-0.741,0.234-1.102
		c0.092-0.233,0.04-0.521,0.117-0.764c0.095-0.296,0.159-0.585,0.138-0.894l0.005-0.024c0.076-0.167,0.201-0.331,0.22-0.505
		c0.048-0.43,0.119-0.848,0.23-1.27c0.096-0.365,0.103-0.752,0.246-1.12c0.094-0.242,0.081-0.526,0.107-0.792
		c0.023-0.235,0.015-0.475,0.058-0.706c0.06-0.326,0.184-0.641,0.223-0.968c0.05-0.416,0.05-0.838,0.051-1.257
		c0.001-0.156-0.119-0.34-0.068-0.462c0.14-0.339-0.088-0.625-0.079-0.94c0.003-0.115-0.055-0.243-0.116-0.348
		c-0.14-0.245-0.298-0.48-0.452-0.716l-0.097-0.047l-0.286-0.154c-0.402-0.23-0.748-0.183-1.015,0.119
		c-0.122,0.136-0.164,0.341-0.25,0.51c-0.138,0.269-0.168,0.526,0.038,0.777l0.031,0.106c-0.01,0.345,0.132,0.684,0.053,1.032
		l0.025,0.086l0.052,0.321c-0.031,0.315-0.087,0.627-0.127,0.941c-0.048,0.369-0.088,0.739-0.134,1.108
		c-0.049,0.397-0.103,0.793-0.154,1.19l-0.016,0.114c-0.197,0.116-0.106,0.306-0.129,0.466c-0.03,0.227-0.063,0.452-0.097,0.677
		l-0.014,0.041c-0.212,0.08-0.101,0.264-0.127,0.401c-0.027,0.15-0.041,0.302-0.071,0.452c-0.023,0.124-0.059,0.245-0.095,0.365
		l-0.071,0.176c-0.038,0.249-0.061,0.499-0.099,0.746c-0.042,0.263-0.094,0.524-0.146,0.785l-0.076,0.281
		c-0.052,0.161-0.146,0.32-0.152,0.481c-0.018,0.48-0.134,0.938-0.248,1.4c-0.027,0.115-0.075,0.225-0.093,0.341
		c-0.055,0.35-0.096,0.701-0.15,1.051c-0.024,0.154-0.017,0.364-0.111,0.446c-0.189,0.165-0.094,0.349-0.122,0.522l-0.018,0.26
		c-0.065,0.22-0.186,0.432-0.213,0.655c-0.046,0.351-0.031,0.699-0.133,1.056c-0.114,0.406-0.022,0.849-0.139,1.286
		c-0.125,0.471-0.069,0.993-0.069,1.493c0,0.246-0.054,0.504-0.007,0.73c0.026,0.127-0.12,0.2-0.034,0.282
		c0.159,0.15,0.065,0.314,0.055,0.477c-0.011,0.19-0.041,0.387-0.001,0.569c0.058,0.265,0.172,0.517,0.263,0.78l0.143,0.09
		c0.104,0.303,0.235,0.524,0.591,0.638c0.233,0.074,0.419,0.234,0.678,0.112c0.156-0.074,0.342-0.094,0.42-0.285l0.144-0.241
		c0.218-0.199,0.107-0.514,0.276-0.734l0.128-0.349c0.095-0.155,0.189-0.301,0.167-0.495l0.014-0.163
		c0.172-0.208,0.223-0.45,0.227-0.71l0.054-0.139c0.093-0.191,0.218-0.374,0.271-0.575c0.099-0.378,0.15-0.765,0.325-1.128
		c0.174-0.359,0.268-0.755,0.43-1.122c0.074-0.166,0.225-0.297,0.341-0.445l0.063,0.034l-0.037,0.241
		c0.049,0.22,0.124,0.435,0.177,0.655c0.029,0.126,0.029,0.26,0.051,0.39l0.057,0.139c0.046,0.124,0.091,0.248,0.134,0.373
		c0.047,0.143,0.13,0.287,0.129,0.429c-0.003,0.188,0.131,0.276,0.201,0.411c0.258,0.506,0.496,1.023,0.761,1.526
		c0.114,0.217,0.273,0.412,0.416,0.615c0.105,0.149,0.2,0.309,0.326,0.438c0.155,0.16,0.337,0.296,0.511,0.438l0.304,0.216
		c0.188,0.106,0.382,0.206,0.578,0.296c0.189,0.085,0.38,0.204,0.578,0.221c0.399,0.034,0.813,0.046,1.189-0.136
		c0.28-0.136,0.583-0.252,0.813-0.449c0.492-0.417,0.921-0.903,1.391-1.344l0.026-0.029c0.112-0.204,0.226-0.409,0.337-0.609
		c0.106,0.223,0.193,0.45,0.321,0.651c0.129,0.201,0.293,0.382,0.454,0.56c0.282,0.307,0.56,0.623,0.87,0.9
		c0.135,0.12,0.349,0.151,0.526,0.226l0.316,0.143c0.22,0.096,0.44,0.271,0.659,0.269c0.339-0.004,0.678,0.166,1.029-0.02
		c0.309-0.163,0.684-0.193,0.943-0.468l0.202-0.016l0.057,0.21c-0.277,0.28-0.009,0.654-0.184,0.966
		c-0.103,0.186-0.04,0.458-0.084,0.685c-0.06,0.313-0.152,0.62-0.229,0.931c-0.057,0.226-0.1,0.458-0.161,0.683
		c-0.049,0.18-0.126,0.354-0.172,0.535c-0.047,0.19-0.036,0.399-0.109,0.576c-0.139,0.332-0.315,0.648-0.482,0.966
		c-0.188,0.359-0.357,0.721-0.634,1.035c-0.284,0.321-0.481,0.717-0.741,1.061c-0.198,0.263-0.422,0.508-0.657,0.736
		c-0.165,0.16-0.367,0.288-0.562,0.413c-0.125,0.08-0.263,0.15-0.405,0.19c-0.125,0.036-0.258-0.036-0.401,0.04
		c-0.082,0.044-0.235-0.071-0.357-0.078c-0.397-0.019-0.665-0.265-0.929-0.512c-0.196-0.183-0.367-0.392-0.58-0.62l-0.057,0.143
		c-0.122-0.14-0.221-0.252-0.347-0.397c0.015-0.213-0.449-0.323-0.466-0.227c-0.057-0.051-0.331,0.494-0.397,0.803l-0.089,0.342
		c0.061,0.164,0.146,0.318,0.226,0.473c0.214,0.421,0.497,0.792,0.831,1.123c0.139,0.138,0.313,0.245,0.434,0.396
		c0.11,0.14,0.215,0.259,0.394,0.295l0.058,0.032c0.338,0.371,0.786,0.456,1.255,0.494l0.231,0.089l0.119,0.046
		c0.17-0.048,0.335-0.123,0.509-0.158c0.169-0.034,0.345-0.031,0.519-0.04l0.168,0.009c0.177-0.092,0.341-0.273,0.52-0.288
		c0.29-0.021,0.421-0.215,0.6-0.374l0.188-0.105c0.119-0.089,0.249-0.171,0.339-0.284c0.146-0.18,0.245-0.396,0.396-0.57
		c0.22-0.251,0.492-0.46,0.7-0.723c0.166-0.209,0.276-0.466,0.397-0.708c0.106-0.209,0.173-0.44,0.376-0.585l0.054-0.093
		c0.106-0.221,0.206-0.447,0.32-0.666c0.196-0.379,0.459-0.729,0.499-1.178c0.011-0.128,0.06-0.257,0.104-0.381
		c0.102-0.275,0.231-0.541,0.313-0.821c0.102-0.345,0.167-0.7,0.248-1.05l0.062-0.269c0.056-0.195,0.136-0.385,0.171-0.583
		c0.049-0.27-0.004-0.54,0.084-0.823c0.116-0.376,0.105-0.79,0.162-1.186c0.036-0.248,0.105-0.49,0.137-0.738
		c0.014-0.119-0.024-0.244-0.038-0.365l0.087-0.252c0.001-0.595,0.036-1.185,0.139-1.775c0.067-0.395,0.034-0.807,0.061-1.209
		c0.009-0.12,0.065-0.237,0.099-0.356l-0.007-0.196l0.013-0.068c-0.018-0.132-0.068-0.267-0.053-0.396
		c0.024-0.223,0.115-0.438,0.13-0.659c0.023-0.388,0.058-0.765,0.127-1.151c0.08-0.444,0.104-0.905,0.151-1.36
		c0.061-0.563,0.02-1.136,0.008-1.707L708.776,158.877"/>
	<path id="path112" fill="#140E0C" d="M742.332,164.819c-0.195-0.374-0.44-0.736-0.719-1.079c-0.338-0.419-0.732-0.727-1.164-1.012
		c-0.151-0.099-0.314-0.179-0.473-0.266c-0.352-0.194-0.701-0.391-1.058-0.579c-0.275-0.145-0.579-0.23-0.813-0.461
		c-0.132-0.128-0.242-0.344-0.499-0.267l-0.102-0.079c-0.157-0.148-0.309-0.305-0.474-0.445c-0.147-0.125-0.005-0.248,0.047-0.251
		c0.186-0.014,0.412-0.302,0.558-0.212c0.241,0.149,0.524,0.025,0.771,0.224c0.236,0.19,0.569,0.263,0.776,0.521l0.203,0.147
		c0.153,0.129,0.33,0.243,0.449,0.399c0.111,0.145,0.177,0.297,0.4,0.311c0.137,0.009,0.296,0.064,0.395,0.155
		c0.194,0.179,0.33,0.055,0.471-0.049c0.115-0.085,0.211-0.194,0.327-0.304l-0.113-0.111l0.277-0.134
		c0.078-0.531-0.226-0.969-0.438-1.453l-0.12-0.042c-0.192-0.39-0.486-0.703-0.789-1.002c-0.256-0.254-0.52-0.554-0.841-0.679
		c-0.411-0.159-0.979-0.374-1.454-0.393c-0.31-0.013-1.218-0.002-1.465,0.076c-0.116,0.038-0.255,0.024-0.361,0.078
		c-0.173,0.087-0.313,0.251-0.491,0.313c-0.229,0.078-0.36,0.206-0.479,0.414c-0.288,0.5-0.414,0.781-0.337,1.284l-0.033,0.103
		l-0.075,0.258c0.032,0.367,0.041,0.746,0.138,1.099c0.08,0.286,0.238,0.569,0.422,0.806c0.23,0.297,0.512,0.558,0.79,0.813
		c0.183,0.167,0.402,0.292,0.603,0.44l0.195,0.174c0.189,0.109,0.391,0.198,0.582,0.305c0.187,0.105,0.356,0.244,0.55,0.327
		c0.35,0.153,0.714,0.271,1.068,0.412c0.219,0.087,0.443,0.171,0.64,0.297c0.13,0.083,0.289,0.231,0.299,0.361
		c0.011,0.134-0.137,0.26-0.325,0.313c-0.202,0.058-0.371,0.227-0.608,0.18l-0.057,0.035c-0.13,0.063-0.255,0.15-0.393,0.18
		c-0.223,0.046-0.453,0.06-0.679,0.091c-0.313,0.042-0.63,0.109-0.964-0.041c-0.202-0.09-0.376-0.139-0.505-0.345
		c-0.146-0.235-0.026-0.545-0.291-0.757c-0.119-0.096-0.09-0.375-0.119-0.525c-0.202-0.056-0.368-0.104-0.577-0.161l-0.08,0.035
		l-0.325,0.027c-0.426,0.312-0.588,0.774-0.643,1.274c-0.026,0.237-0.05,0.47,0.08,0.716c0.106,0.202,0.086,0.472,0.115,0.714
		c0.049,0.398,0.242,0.713,0.555,0.957l0.246,0.133c0.221,0.148,0.386,0.35,0.655,0.458c0.304,0.121,0.617,0.259,0.921,0.265
		c0.464,0.009,0.954,0.137,1.4-0.125l0.107,0.023l0.174,0.001c0.276-0.006,0.523-0.199,0.762-0.215
		c0.313-0.022,0.537-0.236,0.833-0.25l0.315-0.088c0.15-0.083,0.278-0.203,0.428-0.285c0.114-0.064,0.248-0.094,0.418-0.155
		l0.046-0.118c0.341-0.188,0.505-0.511,0.662-0.84l0.107-0.329c0.071-0.219,0.228-0.417,0.151-0.67v-0.118
		C742.602,165.388,742.452,165.047,742.332,164.819"/>
	<path id="path114" fill="#140E0C" d="M717.651,165.313c0.02-0.2-0.045-0.358-0.128-0.51c-0.211-0.384-0.413-0.777-0.675-1.126
		c-0.322-0.429-0.675-0.841-1.12-1.158c-0.424-0.301-0.834-0.62-1.268-0.91c-0.355-0.237-0.756-0.422-1.066-0.748
		c-0.181-0.188-0.471-0.282-0.641-0.508l0.016-0.178l0.293-0.039c0.235,0.018,0.477-0.071,0.716-0.118l0.065-0.022
		c0.224-0.12,0.509-0.064,0.655,0.11c-0.326,0.491,0.051,0.854,0.236,1.209c0.161,0.311,0.529,0.164,0.792,0.185l0.15-0.234
		l0.124-0.174c0.076-0.284,0.368-0.869,0.321-0.865c0.027-0.113,0.091-0.226,0.069-0.32c-0.035-0.163-0.05-0.43-0.115-0.585
		c-0.109-0.264-0.108-0.34-0.211-0.606c-0.126-0.335-0.443-0.732-0.857-0.81l-0.084-0.101l-0.099-0.079
		c-0.377-0.084-0.754-0.164-1.133-0.239l-0.188,0.009c-0.127,0.014-0.255,0.036-0.382,0.046l-0.212-0.005
		c-0.242,0.055-0.481,0.119-0.721,0.184c-0.227,0.061-0.477,0.086-0.673,0.202c-0.281,0.165-0.545,0.378-0.775,0.61
		c-0.147,0.151-0.247,0.365-0.322,0.567c-0.077,0.21-0.117,0.44-0.138,0.664c-0.021,0.252-0.028,0.513,0.011,0.761
		c0.024,0.169,0.175,0.317,0.206,0.486c0.066,0.357,0.24,0.643,0.504,0.877c0.154,0.139,0.327,0.259,0.487,0.394l0.158,0.174
		c0.156,0.117,0.366,0.19,0.471,0.34c0.144,0.206,0.367,0.25,0.546,0.38c0.291,0.211,0.67,0.292,0.903,0.593l0.137,0.116
		c0.502,0.146,0.769,0.611,1.187,0.875c0.206,0.13,0.35,0.356,0.54,0.515c0.121,0.103,0.147,0.21,0.154,0.356
		c0.011,0.192-0.056,0.274-0.247,0.285l-0.143,0.135c-0.103,0.083-0.198,0.182-0.316,0.234c-0.218,0.098-0.447,0.171-0.675,0.244
		c-0.134,0.042-0.273,0.065-0.411,0.094l-0.282,0.042c-0.181-0.011-0.357-0.059-0.537-0.066c-0.22-0.01-0.362-0.208-0.532-0.239
		c-0.208-0.036-0.301-0.2-0.336-0.295c-0.1-0.268-0.213-0.546-0.17-0.855c0.015-0.106-0.053-0.223-0.074-0.336l0.073-0.066
		l0.032-0.133c0.227-0.304,0.466-0.597,0.52-0.992l-0.201-0.193l-0.007-0.097c-0.009-0.403-0.718-0.264-0.703-0.285
		c0.057-0.08-0.325-0.115-0.488,0.044c-0.271,0.262-0.484,0.585-0.718,0.885l-0.19,0.283c-0.054,0.235-0.111,0.915-0.162,0.964
		c-0.179,0.175,0.208,1.351,0.324,1.749c0.099,0.343,0.23,0.646,0.418,0.939c0.264,0.414,0.672,0.653,1.075,0.897
		c0.173,0.104,0.365,0.171,0.543,0.268c0.234,0.127,0.546,0.164,0.822,0.157c0.3-0.007,0.594,0.049,0.909-0.015
		c0.429-0.086,0.842-0.199,1.242-0.361c0.376-0.153,0.791-0.256,1.032-0.637l0.052-0.066c0.166,0.085,0.189-0.091,0.279-0.147
		c0.231-0.144,0.297-0.435,0.553-0.58c0.095-0.054,0.3-0.256,0.232-0.491l0.054-0.136c0.038-0.122,0.081-0.243,0.103-0.368
		l-0.008-0.262l0.08-0.29C717.717,165.73,717.632,165.518,717.651,165.313"/>
	<path id="path116" fill="#140E0C" d="M732.054,166.565l-0.039,0.046c-0.247,0.038-0.495,0.092-0.743,0.101
		c-0.291,0.009-0.583-0.029-0.875-0.035l-0.149,0.054c-0.136-0.042-0.235-0.083-0.34-0.104c-0.2-0.04-0.403-0.063-0.603-0.105
		l-0.311-0.108c-0.223-0.17-0.431-0.359-0.638-0.546c-0.232-0.21-0.335-0.486-0.468-0.766c-0.187-0.39-0.139-0.775-0.204-1.159
		c-0.032-0.193-0.034-0.391-0.047-0.587l0.009-0.141c0.058-0.221,0.114-0.441,0.181-0.659c0.064-0.211,0.119-0.428,0.213-0.625
		c0.102-0.215,0.241-0.413,0.363-0.619l0.106-0.183c0.17-0.136,0.371-0.239,0.525-0.392c0.136-0.135,0.275-0.252,0.445-0.335
		c0.168-0.08,0.335-0.162,0.507-0.232c0.175-0.072,0.356-0.188,0.534-0.184c0.394,0.009,0.651,0.286,0.891,0.569
		c0.123,0.145,0.231,0.316,0.384,0.417c0.182,0.121,0.406,0.172,0.607,0.266c0.188,0.087,0.284,0.042,0.304-0.161l0.018-0.167
		l0.285,0.114c0.026-0.203,0.097-0.404,0.061-0.584c-0.026-0.139-0.063-0.232,0.061-0.304l-0.085-0.228
		c-0.014-0.26,0.028-0.521-0.144-0.757c-0.127-0.175-0.215-0.379-0.334-0.562c-0.056-0.087-0.067-0.231-0.221-0.224
		c-0.01-0.368-0.369-0.456-0.57-0.65c-0.149-0.143-0.397-0.313-0.678-0.235l-0.117-0.049c-0.182-0.029-0.366-0.088-0.544-0.069
		c-0.224,0.022-0.438,0.112-0.659,0.167c-0.227,0.056-0.463,0.081-0.68,0.163c-0.479,0.181-0.929,0.45-1.319,0.766
		c-0.429,0.346-0.803,0.777-1.129,1.225c-0.173,0.236-0.334,0.502-0.432,0.813c-0.128,0.41-0.388,0.781-0.507,1.207
		c-0.074,0.262-0.163,0.52-0.238,0.781l-0.003,0.173c-0.163,0.328-0.099,0.683-0.127,1.025c-0.012,0.15,0.066,0.305,0.085,0.46
		c0.023,0.172-0.05,0.336,0.038,0.526c0.101,0.216,0.104,0.479,0.156,0.72c0.03,0.138,0.059,0.28,0.118,0.406
		c0.125,0.268,0.267,0.527,0.41,0.786c0.12,0.215,0.229,0.441,0.384,0.627c0.142,0.17,0.347,0.287,0.509,0.441
		c0.19,0.18,0.365,0.377,0.548,0.565l0.081,0.035c0.27,0.103,0.548,0.188,0.808,0.313c0.335,0.16,0.646,0.376,1.049,0.276
		c0.116-0.029,0.236-0.061,0.354-0.059c0.3,0.003,0.602,0.054,0.897,0.034c0.185-0.013,0.388-0.086,0.533-0.196
		c0.235-0.178,0.483-0.276,0.771-0.27c0.152,0.002,0.229-0.058,0.295-0.196l0.241-0.181c0.165-0.029,0.323-0.04,0.424-0.2
		l0.114-0.06l0.195-0.24l0.105-0.664l-0.51-0.237C732.651,166.503,732.352,166.732,732.054,166.565"/>
	<path id="path118" fill="#140E0C" d="M724.168,165.419c-0.066-0.099-0.108-0.215-0.177-0.358c-0.125-0.012-0.224,0.068-0.353,0.17
		c-0.176,0.14-0.428,0.207-0.656,0.253c-0.335,0.066-0.652-0.022-0.938-0.214l-0.307-0.216c0.016-0.202-0.12-0.304-0.193-0.45
		c-0.177-0.35-0.248-0.739-0.237-1.124c0.014-0.51,0.088-1.019,0.14-1.527l0.049-0.156c0.063-0.219,0.133-0.436,0.183-0.658
		c0.032-0.145,0.033-0.296,0.047-0.443c0.016-0.164,0.024-0.323-0.147-0.428l-0.135-0.174c-0.198-0.329-0.407-0.644-0.823-0.73
		c-0.089-0.019-0.156-0.079-0.27-0.008l-0.397,0.087c-0.219-0.102-0.237,0.117-0.35,0.17l-0.21,0.266
		c-0.058,0.219-0.072,0.449-0.106,0.674l-0.031,0.11l-0.107,0.303c-0.049,0.295-0.081,0.591-0.121,0.887l-0.049,0.274
		c-0.009,0.184-0.005,0.369-0.005,0.552l0.002,0.177c-0.049,0.132-0.064,0.244-0.036,0.401c0.087,0.49,0.109,0.993,0.159,1.489
		c0.013,0.135,0.028,0.269,0.049,0.401l0.038,0.103c0.051,0.129,0.096,0.26,0.153,0.385c0.088,0.193,0.172,0.39,0.283,0.57
		c0.12,0.193,0.255,0.38,0.407,0.547c0.194,0.212,0.401,0.415,0.622,0.6c0.153,0.128,0.336,0.225,0.512,0.325
		c0.194,0.108,0.388,0.225,0.597,0.296c0.215,0.075,0.45,0.145,0.673,0.133c0.27-0.015,0.538-0.113,0.805-0.187l0.275-0.131
		c0.161-0.072,0.389-0.078,0.412-0.307c0.021-0.2,0.14-0.255,0.298-0.324l0.202-0.252c-0.174-0.16-0.001-0.267,0.048-0.391
		l0.029-0.112c-0.038-0.115-0.154-0.25-0.125-0.335C724.479,165.779,724.299,165.615,724.168,165.419"/>
	<path id="path120" fill="#140E0C" d="M720.829,156.44c0.108,0.214,0.268,0.401,0.412,0.595l0.148,0.081l0.276,0.12
		c0.143,0.144,0.299,0.139,0.449,0.061l0.207-0.26l0.053,0.143c0.086-0.191,0.16-0.327,0.205-0.47l-0.016-0.24l-0.06-0.095
		c-0.053-0.317-0.085-0.639-0.151-0.953c-0.04-0.196-0.071-0.404-0.231-0.559l-0.19-0.285c-0.142-0.262-0.316-0.347-0.609-0.3
		l-0.238-0.015c-0.208-0.164-0.279,0.059-0.395,0.131l-0.152,0.198l-0.134,0.315c-0.001,0.22,0.007,0.45,0.069,0.66
		C720.563,155.868,720.687,156.161,720.829,156.44"/>
	<path id="path122" fill="#140E0C" d="M674.267,160.31c-0.201-0.154-0.33-0.254-0.4-0.306c-0.004-0.703,0.162-1.308,0.469-1.869
		l0.112,0.019C674.39,158.84,674.332,159.527,674.267,160.31L674.267,160.31z M688.9,149.745c0.028-0.28,0.109-0.558-0.011-0.835
		l0.014-0.082c0.039-0.547-0.521-1.867-0.858-2.295c-1.187-1.501-2.355-1.714-2.678-1.922c-0.229-0.15-0.58-0.231-0.819-0.366
		c-0.155-0.089-0.379-0.11-0.542-0.182c-0.196-0.085-0.399-0.159-0.605-0.212c-0.271-0.071-0.546-0.128-0.821-0.17
		c-0.342-0.05-0.687-0.11-1.029-0.107c-0.493,0.004-0.987,0.052-1.479,0.096c-0.137,0.013-0.268,0.071-0.455,0.124l-0.168-0.018
		c-0.33,0.114-0.678,0.141-1.009,0.29c-0.281,0.125-0.622,0.167-0.935,0.24c-0.396,0.094-0.734,0.305-1.117,0.408
		c-0.307,0.083-0.579,0.242-0.834,0.442c-0.164,0.129-0.406,0.163-0.562,0.299c-0.397,0.351-0.764,0.736-1.146,1.105l-0.22,0.176
		c-0.097,0.159-0.175,0.333-0.24,0.507c-0.059,0.16-0.104,0.329-0.127,0.497c-0.057,0.402-0.13,0.806-0.13,1.21
		c0,0.23,0.061,0.537,0.216,0.674c0.258,0.227,0.506,0.438,0.68,0.742l0.332,0.13c0.199-0.067,0.244-0.406,0.546-0.341l0.017-0.046
		c0.042-0.15,0.074-0.304,0.127-0.45c0.061-0.17,0.11-0.354,0.213-0.496c0.196-0.271,0.396-0.555,0.651-0.763
		c0.335-0.272,0.662-0.569,1.088-0.712c0.256-0.086,0.499-0.206,0.748-0.312c0.269-0.114,0.533-0.239,0.809-0.336
		c0.249-0.088,0.459-0.236,0.763-0.243c0.425-0.009,0.845-0.186,1.273-0.257c0.258-0.044,0.531,0.009,0.789-0.036
		c0.499-0.086,0.984-0.095,1.473,0.061l0.252-0.035l0.128-0.012c0.161,0.059,0.316,0.144,0.481,0.188
		c0.516,0.144,0.955,0.429,1.385,0.73c0.15,0.105,0.31,0.232,0.396,0.389c0.34,0.606,0.618,1.25,0.505,1.963
		c-0.088,0.541-0.25,1.074-0.406,1.602c-0.084,0.283-0.218,0.553-0.345,0.821l-0.196,0.231c-0.074,0.145-0.102,0.315-0.181,0.456
		c-0.126,0.224-0.285,0.43-0.417,0.651c-0.134,0.224-0.204,0.513-0.389,0.669c-0.212,0.176-0.331,0.397-0.489,0.601l-0.037,0.083
		c-0.215,0.234-0.432,0.466-0.65,0.698c-0.264,0.28-0.523,0.566-0.8,0.833c-0.22,0.214-0.464,0.404-0.697,0.605
		c-0.106,0.091-0.269,0.165-0.307,0.279c-0.054,0.165-0.264,0.081-0.314,0.285c-0.031,0.125-0.324,0.179-0.493,0.276
		c-0.115,0.065-0.221,0.148-0.327,0.227c-0.33,0.244-0.657,0.491-0.987,0.735l-0.182,0.111c-0.374,0.183-0.74,0.385-1.126,0.538
		c-0.246,0.096-0.442,0.34-0.749,0.275l-0.054,0.056c-0.139,0.042-0.28,0.08-0.372,0.105c0.018-0.898,0.034-1.794,0.052-2.671
		l0.057,0.098c0.005-0.239,0.018-0.445,0.011-0.65c-0.011-0.332-0.043-0.663-0.05-0.994c-0.009-0.457,0.009-0.915-0.005-1.372
		c-0.009-0.264-0.05-0.528-0.094-0.789c-0.028-0.176-0.109-0.345-0.13-0.522c-0.037-0.34-0.037-0.684-0.075-1.023
		c-0.015-0.137-0.051-0.344-0.14-0.387c-0.269-0.127-0.284-0.407-0.473-0.599c-0.104-0.015-0.24-0.039-0.376-0.05
		c-0.119-0.01-0.253-0.039-0.354,0.002c-0.307,0.123-0.333,0.449-0.343,0.691c-0.032,0.771,0.005,1.545,0.007,2.317
		c0.002,0.444-0.01,0.887-0.021,1.331l-0.07,0.113c-0.17,0.15-0.411,0.211-0.615,0.246c-0.134,0.024-0.251,0.14-0.376,0.215
		l-0.179,0.105c-0.138,0.085-0.278,0.139-0.35,0.327c-0.108,0.281-0.279,0.54-0.427,0.806c-0.169,0.304-0.377,0.591-0.501,0.91
		c-0.094,0.243-0.104,0.524-0.112,0.789c-0.017,0.5-0.163,1.005,0.055,1.499c0.188,0.424,0.209,0.914,0.523,1.288
		c0.089,0.104,0.189,0.205,0.244,0.326c0.214,0.477,0.608,0.741,1.053,0.962l0.117,0.127c-0.005,0.168-0.04,0.334-0.054,0.501
		c-0.04,0.458-0.07,0.919-0.111,1.376c-0.049,0.534-0.112,1.063-0.156,1.597c-0.025,0.296-0.071,0.604-0.022,0.891
		c0.063,0.359,0.191,0.711,0.334,1.048c0.063,0.148,0.239,0.245,0.353,0.376c0.104,0.12,0.181,0.266,0.291,0.379l0.245,0.09
		c0.174-0.02,0.342-0.078,0.54-0.126l0.055-0.154c0.277-0.15,0.284-0.44,0.325-0.679c0.072-0.414,0.075-0.839,0.1-1.26
		c0.057-0.945,0.106-1.891,0.165-2.836c0.019-0.294,0.106-0.594,0.068-0.879c-0.031-0.236,0.103-0.325,0.23-0.385
		c0.19-0.09,0.414-0.105,0.619-0.162c0.436-0.122,0.882-0.188,1.292-0.415c0.293-0.163,0.64-0.225,0.959-0.343
		c0.118-0.042,0.231-0.106,0.339-0.175c0.181-0.118,0.347-0.26,0.534-0.366c0.299-0.17,0.628-0.292,0.909-0.484
		c0.423-0.286,0.821-0.61,1.22-0.93c0.222-0.177,0.432-0.37,0.634-0.571c0.149-0.149,0.316-0.276,0.455-0.44
		c0.132-0.155,0.321-0.259,0.48-0.391c0.13-0.11,0.296-0.206,0.368-0.347c0.143-0.284,0.382-0.461,0.599-0.668
		c0.109-0.104,0.19-0.236,0.306-0.385c0.036,0.089,2.663-2.538,3.703-6.126C688.783,150.833,688.865,150.079,688.9,149.745"/>
</g>
</svg>
