<?xml version="1.0" encoding="UTF-8" standalone="no"?>
<!-- Generator: Adobe Illustrator 16.0.3, SVG Export Plug-In . SVG Version: 6.00 Build 0)  -->

<svg
   xmlns:dc="http://purl.org/dc/elements/1.1/"
   xmlns:cc="http://creativecommons.org/ns#"
   xmlns:rdf="http://www.w3.org/1999/02/22-rdf-syntax-ns#"
   xmlns:svg="http://www.w3.org/2000/svg"
   xmlns="http://www.w3.org/2000/svg"
   xmlns:sodipodi="http://sodipodi.sourceforge.net/DTD/sodipodi-0.dtd"
   xmlns:inkscape="http://www.inkscape.org/namespaces/inkscape"
   version="1.1"
   id="svg2"
   x="0px"
   y="0px"
   viewBox="583.53 82.45 80.5 117.6"
   enable-background="new 583.53 82.45 304.005 117.601"
   xml:space="preserve"
   inkscape:version="0.48.5 r10040"
   width="100%"
   height="100%"
   sodipodi:docname="isaac-logo-strap-print.svg"><metadata
   id="metadata3165"><rdf:RDF><cc:Work
       rdf:about=""><dc:format>image/svg+xml</dc:format><dc:type
         rdf:resource="http://purl.org/dc/dcmitype/StillImage" /><dc:title></dc:title></cc:Work></rdf:RDF></metadata><defs
   id="defs3163">
	
	
	
	
	
	
	
	
	
	
	
	
	
	
	
	
	
	
	
	
	
</defs><sodipodi:namedview
   pagecolor="#ffffff"
   bordercolor="#666666"
   borderopacity="1"
   objecttolerance="10"
   gridtolerance="10"
   guidetolerance="10"
   inkscape:pageopacity="0"
   inkscape:pageshadow="2"
   inkscape:window-width="2560"
   inkscape:window-height="1377"
   id="namedview3161"
   showgrid="false"
   inkscape:zoom="3.763096"
   inkscape:cx="61.11586"
   inkscape:cy="50.36363"
   inkscape:window-x="-8"
   inkscape:window-y="-8"
   inkscape:window-maximized="1"
   inkscape:current-layer="svg2" />
<g
   id="g3200"
   transform="translate(0.26573864,-0.001)"><path
     id="path78"
     d="m 619.968,105.164 c -8.504,-26.307 -21.48,-21.995 -27.192,-20.367 -5.712,1.626 -6.658,0.906 -6.658,0.906 8.844,28.805 31.943,20.4 31.943,20.4 0,0 -12.676,-0.728 -19.85,-13.324 l 21.757,12.385"
     inkscape:connector-curvature="0"
     style="fill:#49a338" /><path
     id="path80"
     d="m 623.731,105.386 c 0.194,-0.976 0.194,-12.295 10.147,-20.491 0,0 6.531,-5.5 6.831,0 0.299,5.5 -0.759,2.144 -6.809,7.022 -6.05,4.878 -7.718,13.469 -7.718,13.469 h -2.451"
     inkscape:connector-curvature="0"
     style="fill:#140e0c" /><path
     id="path82"
     d="m 663.769,176.873 -40.093,23.179 -40.119,-23.132 -0.026,-46.31 40.093,-23.179 40.118,23.131 0.027,46.311"
     inkscape:connector-curvature="0"
     style="fill:#49a338" /><g
     id="g84"
     transform="scale(10,10)">
		<g
   enable-background="new    "
   id="g3124">
			<path
   d="m 59.255,14.111 c -0.066,0 -0.121,-0.025 -0.165,-0.074 -0.044,-0.049 -0.067,-0.113 -0.067,-0.192 0,-0.079 0.023,-0.143 0.069,-0.192 0.046,-0.049 0.102,-0.074 0.168,-0.074 0.072,0 0.131,0.025 0.178,0.074 0.046,0.049 0.069,0.113 0.069,0.192 0,0.079 -0.023,0.143 -0.069,0.192 -0.046,0.049 -0.105,0.074 -0.178,0.074 h -0.005 z m -0.178,2.796 V 14.52 h 0.38 v 2.386 h -0.38 z"
   id="path3126"
   inkscape:connector-curvature="0"
   style="fill:#ffffff" />
		</g>
		<g
   enable-background="new    "
   id="g3128">
			<path
   d="m 59.797,16.512 c 0.049,0.033 0.108,0.062 0.177,0.086 0.069,0.025 0.138,0.037 0.207,0.037 0.108,0 0.194,-0.031 0.256,-0.094 0.062,-0.062 0.094,-0.146 0.094,-0.251 0,-0.095 -0.021,-0.177 -0.064,-0.246 -0.043,-0.069 -0.123,-0.143 -0.242,-0.222 -0.161,-0.105 -0.281,-0.211 -0.36,-0.318 -0.079,-0.107 -0.118,-0.228 -0.118,-0.362 0,-0.191 0.062,-0.348 0.187,-0.473 0.125,-0.125 0.281,-0.187 0.468,-0.187 0.085,0 0.163,0.012 0.234,0.035 0.071,0.023 0.136,0.053 0.195,0.089 l -0.104,0.286 c -0.102,-0.069 -0.207,-0.104 -0.316,-0.104 -0.099,0 -0.175,0.03 -0.229,0.089 -0.054,0.059 -0.081,0.13 -0.081,0.212 0,0.082 0.02,0.151 0.059,0.207 0.039,0.056 0.118,0.125 0.237,0.207 0.154,0.099 0.275,0.205 0.362,0.32 0.087,0.115 0.131,0.25 0.131,0.404 0,0.23 -0.067,0.406 -0.202,0.528 -0.135,0.122 -0.306,0.182 -0.513,0.182 -0.089,0 -0.177,-0.012 -0.264,-0.037 -0.087,-0.025 -0.157,-0.058 -0.209,-0.101 l 0.095,-0.287 z"
   id="path3130"
   inkscape:connector-curvature="0"
   style="fill:#ffffff" />
		</g>
		<g
   enable-background="new    "
   id="g3132">
			<path
   d="m 62.499,16.364 c 0,0.125 0.002,0.229 0.005,0.313 0.003,0.084 0.01,0.16 0.02,0.229 h -0.345 l -0.025,-0.251 h -0.015 c -0.053,0.092 -0.12,0.164 -0.202,0.215 -0.082,0.051 -0.173,0.076 -0.271,0.076 -0.161,0 -0.296,-0.063 -0.404,-0.19 -0.108,-0.126 -0.163,-0.29 -0.163,-0.491 0,-0.283 0.102,-0.501 0.306,-0.656 0.092,-0.069 0.199,-0.122 0.32,-0.158 0.122,-0.036 0.251,-0.054 0.39,-0.054 v -0.074 c 0,-0.174 -0.028,-0.308 -0.084,-0.402 -0.056,-0.094 -0.155,-0.14 -0.296,-0.14 -0.138,0 -0.27,0.041 -0.394,0.123 l -0.084,-0.266 c 0.056,-0.043 0.136,-0.08 0.239,-0.111 0.104,-0.031 0.209,-0.047 0.318,-0.047 0.233,0 0.406,0.073 0.518,0.219 0.112,0.146 0.168,0.357 0.168,0.634 v 1.031 z m -0.375,-0.69 c -0.069,0 -0.138,0.006 -0.207,0.017 -0.069,0.012 -0.138,0.035 -0.207,0.071 -0.069,0.036 -0.127,0.092 -0.173,0.168 -0.046,0.076 -0.069,0.174 -0.069,0.296 0,0.141 0.03,0.247 0.089,0.318 0.059,0.071 0.126,0.106 0.202,0.106 0.085,0 0.161,-0.031 0.227,-0.094 0.066,-0.062 0.108,-0.151 0.128,-0.266 0.007,-0.03 0.01,-0.074 0.01,-0.133 v -0.483 z"
   id="path3134"
   inkscape:connector-curvature="0"
   style="fill:#ffffff" />
		</g>
		<g
   enable-background="new    "
   id="g3136">
			<path
   d="m 64.17,16.364 c 0,0.125 0.002,0.229 0.005,0.313 0.003,0.084 0.01,0.16 0.02,0.229 H 63.85 L 63.825,16.655 H 63.81 c -0.053,0.092 -0.12,0.164 -0.202,0.215 -0.082,0.051 -0.173,0.076 -0.271,0.076 -0.161,0 -0.296,-0.063 -0.404,-0.19 -0.108,-0.126 -0.163,-0.29 -0.163,-0.491 0,-0.283 0.102,-0.501 0.306,-0.656 0.092,-0.069 0.199,-0.122 0.32,-0.158 0.122,-0.036 0.251,-0.054 0.39,-0.054 v -0.074 c 0,-0.174 -0.028,-0.308 -0.084,-0.402 -0.056,-0.094 -0.155,-0.14 -0.296,-0.14 -0.138,0 -0.27,0.041 -0.394,0.123 l -0.084,-0.266 c 0.056,-0.043 0.136,-0.08 0.239,-0.111 0.104,-0.031 0.209,-0.047 0.318,-0.047 0.233,0 0.406,0.073 0.518,0.219 0.112,0.146 0.168,0.357 0.168,0.634 v 1.031 z m -0.374,-0.69 c -0.069,0 -0.138,0.006 -0.207,0.017 -0.069,0.012 -0.138,0.035 -0.207,0.071 -0.069,0.036 -0.127,0.092 -0.173,0.168 -0.046,0.076 -0.069,0.174 -0.069,0.296 0,0.141 0.03,0.247 0.089,0.318 0.059,0.071 0.126,0.106 0.202,0.106 0.085,0 0.161,-0.031 0.227,-0.094 0.066,-0.062 0.108,-0.151 0.128,-0.266 0.007,-0.03 0.01,-0.074 0.01,-0.133 v -0.483 z"
   id="path3138"
   inkscape:connector-curvature="0"
   style="fill:#ffffff" />
		</g>
		<g
   enable-background="new    "
   id="g3140">
			<path
   d="m 65.743,16.848 c -0.046,0.026 -0.104,0.048 -0.173,0.064 -0.069,0.016 -0.143,0.025 -0.222,0.025 -0.266,0 -0.478,-0.105 -0.636,-0.316 -0.158,-0.21 -0.237,-0.508 -0.237,-0.892 0,-0.171 0.021,-0.332 0.064,-0.483 0.043,-0.151 0.104,-0.283 0.185,-0.397 0.08,-0.113 0.18,-0.202 0.298,-0.266 0.118,-0.064 0.25,-0.096 0.394,-0.096 0.062,0 0.125,0.007 0.187,0.022 0.062,0.015 0.112,0.032 0.148,0.052 l -0.074,0.311 c -0.033,-0.016 -0.072,-0.031 -0.118,-0.044 -0.046,-0.013 -0.097,-0.02 -0.153,-0.02 -0.178,0 -0.314,0.09 -0.409,0.269 -0.095,0.179 -0.143,0.397 -0.143,0.653 0,0.279 0.05,0.498 0.15,0.656 0.1,0.158 0.237,0.237 0.412,0.237 0.089,0 0.181,-0.021 0.276,-0.064 l 0.051,0.289 z"
   id="path3142"
   inkscape:connector-curvature="0"
   style="fill:#ffffff" />
		</g>
	</g></g>
</svg>