<?xml version="1.0" encoding="utf-8"?>
<!-- Generator: Adobe Illustrator 17.1.0, SVG Export Plug-In . SVG Version: 6.00 Build 0)  -->
<!DOCTYPE svg PUBLIC "-//W3C//DTD SVG 1.1//EN" "http://www.w3.org/Graphics/SVG/1.1/DTD/svg11.dtd">
<svg version="1.1" id="Layer_1" xmlns="http://www.w3.org/2000/svg" xmlns:xlink="http://www.w3.org/1999/xlink" x="0px" y="0px"
	 viewBox="150.1 0 228.4 322.2" enable-background="new 150.1 0 228.4 322.2" xml:space="preserve">
<polyline fill="#FFFFFF" stroke="#CCCBCB" stroke-miterlimit="10" points="378,0 378,255.7 264.3,321.6 150.6,256 150.6,0 "/>
<g>
	<path fill="#4E9934" d="M256.3,75c-19.7-60.6-49.5-50.7-62.8-46.9c-13.3,3.8-15.4,2.1-15.4,2.1c20.6,66.4,73.8,47.1,73.8,47.1
		s-29.2-1.7-45.9-30.7L256.3,75z"/>
	<path fill="#100C08" d="M264.9,75.5c0.4-2.3,0.4-28.2,23.4-47.3c0,0,15-12.6,15.8,0s-1.7,4.9-15.7,16.2
		c-14,11.3-17.8,31.1-17.8,31.1H264.9L264.9,75.5L264.9,75.5z"/>
</g>
<polygon fill="#4E9934" points="357.1,240.3 264.7,293.7 172.2,240.3 172.2,133.7 264.5,80.3 357.1,133.5 "/>
<g>
	<g>
		<path fill="#FFFFFF" d="M198.4,153.1c0.1,3.4-1.9,5.7-5.4,5.7c-2.8,0-5-2.3-5-5.7c0-3.4,2.3-5.7,5.2-5.7
			C196.2,147.4,198.4,149.7,198.4,153.1z M188.9,222.3v-55h8.8v55H188.9L188.9,222.3z"/>
		<path fill="#FFFFFF" d="M205.6,213.3c1.9,1.2,5.4,2.8,8.9,2.8c5,0,8.1-3,8.1-7.9c0-4.3-1.5-7.1-7.1-10.7
			c-7.2-4.6-11.1-9.2-11.1-15.7c0-8.9,6.7-15.3,15.1-15.3c4.4,0,7.5,1.5,9.9,2.8L227,176c-1.9-1.3-4.4-2.4-7.3-2.4
			c-4.7,0-7.2,3.4-7.2,6.9c0,3.8,1.3,5.8,6.8,9.6c6.3,4.1,11.4,9,11.4,16.8c0,11.1-7.4,16.3-16.4,16.3c-4.1,0-8.5-1.2-10.8-3.2
			L205.6,213.3z"/>
		<path fill="#FFFFFF" d="M260.3,222.3l-0.5-5.8h-0.4c-2.4,4.3-6.2,6.7-10.9,6.7c-7.4,0-13-6.2-13-15.7c0-13.9,11.1-19.9,23.4-20.1
			v-1.7c0-7.4-1.8-12.5-8.8-12.5c-3.4,0-6.4,1.2-9,2.8l-1.9-6.1c2.3-1.7,7.4-3.5,12.9-3.5c11.1,0,15.8,7.3,15.8,19.7v23.7
			c0,4.3,0,9,0.5,12.5h-7.9v0H260.3z M259.2,193.9c-4.5,0-15.1,0.9-15.1,12.8c0,7.2,3.5,9.9,6.8,9.9c3.9,0,7.2-2.8,8.3-8.3
			c0.2-1.1,0.2-2.1,0.2-3v-11.3H259.2L259.2,193.9z"/>
		<path fill="#FFFFFF" d="M298.8,222.3l-0.5-5.8H298c-2.4,4.3-6.2,6.7-10.9,6.7c-7.4,0-13-6.2-13-15.7c0-13.9,11.1-19.9,23.4-20.1
			v-1.7c0-7.4-1.8-12.5-8.8-12.5c-3.4,0-6.4,1.2-9,2.8l-1.9-6.1c2.3-1.7,7.4-3.5,12.9-3.5c11.1,0,15.8,7.3,15.8,19.7v23.7
			c0,4.3,0,9,0.5,12.5H299v0H298.8z M297.6,193.9c-4.5,0-15.1,0.9-15.1,12.8c0,7.2,3.5,9.9,6.8,9.9c3.9,0,7.2-2.8,8.3-8.3
			c0.2-1.1,0.2-2.1,0.2-3v-11.3H297.6L297.6,193.9z"/>
		<path fill="#FFFFFF" d="M342.5,221c-1.9,1.2-5.2,1.9-9,1.9c-12,0-20.2-9.7-20.2-27.9c0-15.8,7.9-28.7,21.8-28.7
			c2.9,0,6.1,0.9,7.7,1.7l-1.7,7.2c-1.2-0.5-3.4-1.5-6.2-1.5c-8.8,0-12.8,10.5-12.8,21.3c0,12.9,4.9,20.6,13,20.6
			c2.4,0,4.4-0.5,6.3-1.5L342.5,221z"/>
	</g>
</g>
</svg>
