<?xml version="1.0" encoding="utf-8"?>
<!-- Generator: Adobe Illustrator 17.1.0, SVG Export Plug-In . SVG Version: 6.00 Build 0)  -->
<!DOCTYPE svg PUBLIC "-//W3C//DTD SVG 1.1//EN" "http://www.w3.org/Graphics/SVG/1.1/DTD/svg11.dtd">
<svg version="1.1" id="Layer_1" xmlns="http://www.w3.org/2000/svg" xmlns:xlink="http://www.w3.org/1999/xlink" x="0px" y="0px"
	 viewBox="76.7 103 107.4 124.1" enable-background="new 76.7 103 107.4 124.1" xml:space="preserve">
<polygon stroke="#000000" stroke-miterlimit="10" points="183.7,195.8 130.4,226.5 77.2,195.8 77.2,134.3 130.4,103.6 183.7,134.3 
	"/>
<path fill="#FFFFFF" d="M169.4,182.7c-2.2-5.4-14.2-10.2-25-12.1c-0.9-1.2-1.7-2.4-2.6-3.7c-8.1-11.8-10-27.9-10.4-36.3
	c0-1.8,0-3.2,0-4.3c0-0.9-0.1-2.7-1.9-2.9c-0.6-0.1-1.2,0.1-1.7,0.5c-0.8,0.7-0.8,1.5-0.8,2.5c0,1.1,0,2.6,0.1,4.3
	c-0.2,8.5-1.8,24.4-9.7,36.3c-0.8,1.2-1.7,2.4-2.5,3.6c-12.5,2.1-23,7.1-25,12.1c-0.7,1.8-0.5,3.7,0.7,5.2c1.4,1.8,3.1,2.9,5.1,3.1
	c5.7,0.7,13-4.9,21.6-16.5c3.3-0.5,6.5-0.7,9.6-0.6c1.2,0,3.1,0,4.3,0c3.3-0.1,7,0.1,10.8,0.7c7.6,10.1,14.2,15.6,19.6,16.3
	c2.9,0.3,5.4-0.8,7.2-3.1C169.9,186.1,170.1,184.4,169.4,182.7z M96.2,186.7c-0.9-0.1-1.6-0.6-2.3-1.4c-0.3-0.4-0.3-0.6-0.1-1.1
	c1.1-2.6,7.8-6.4,17.2-8.6C105,183,99.5,187.1,96.2,186.7z M131.1,169.5c-1.1,0-3,0.1-4.1,0c-2.1,0-4.2,0-6.4,0.2
	c0.1-0.2,0.2-0.3,0.3-0.5c3.9-5.8,6.8-13,8.5-21.5c1.9,8.5,4.9,15.7,8.8,21.5c0.1,0.2,0.2,0.3,0.4,0.5
	C136,169.5,133.5,169.5,131.1,169.5z M165.4,185.1c-0.8,1.2-1.9,1.6-3.3,1.4h0c-3.3-0.4-8.1-4.2-13.6-10.7c9.4,2.3,16,6.1,17,8.5
	C165.6,184.6,165.6,184.8,165.4,185.1z"/>
</svg>
