<?xml version="1.0" encoding="utf-8"?>
<!-- Generator: Adobe Illustrator 16.0.3, SVG Export Plug-In . SVG Version: 6.00 Build 0)  -->
<!DOCTYPE svg PUBLIC "-//W3C//DTD SVG 1.1//EN" "http://www.w3.org/Graphics/SVG/1.1/DTD/svg11.dtd">
<svg version="1.1" id="Layer_1" xmlns="http://www.w3.org/2000/svg" xmlns:xlink="http://www.w3.org/1999/xlink" x="0px" y="0px"
	 viewBox="3 40.838 606.871 700.324" enable-background="new 3 40.838 606.871 700.324" xml:space="preserve">
<polygon stroke="#000000" stroke-miterlimit="10" points="609.871,566.223 306.15,741.162 3,566.223 3,215.776 306.15,40.838 
	609.871,215.776 "/>
<g>
	<path fill="#FFFFFF" stroke="#FFFFFF" stroke-width="0.1508" stroke-miterlimit="2.6131" d="M185.929,585.9h176.942l74.405-79.232
		V399.817h-26.359v84.886h-76.382v73.327H212.288V399.817h-26.359V585.9L185.929,585.9z M437.26,370.044V196.1H185.929v173.944
		h26.376v-146.09h198.629v146.09H437.26z"/>
	<rect x="437.775" y="311.421" fill="#FFFFFF" width="59.293" height="14.597"/>
	<polygon fill="#FFFFFF" stroke="#FFFFFF" stroke-width="0.1006" stroke-miterlimit="2.6131" points="437.26,282.855 
		508.234,282.855 508.234,483.911 437.26,483.911 437.26,399.817 437.342,399.817 437.342,471.633 438.592,471.633 463.848,471.633 
		463.848,370.044 463.799,370.044 437.342,370.044 437.26,370.044 	"/>
	
		<rect x="212.288" y="282.855" fill="#FFFFFF" stroke="#FFFFFF" stroke-width="0.1006" stroke-miterlimit="2.6131" width="198.629" height="87.188"/>
	<polygon fill="#FFFFFF" stroke="#FFFFFF" stroke-width="0.1006" stroke-miterlimit="2.6131" points="104.638,282.855 
		185.929,282.855 185.929,370.044 185.844,370.044 161.996,370.044 159.365,370.044 159.365,471.633 184.586,471.633 
		185.844,471.633 185.844,399.817 185.929,399.817 185.929,483.911 104.638,483.911 	"/>
</g>
</svg>
