<?xml version="1.0" encoding="UTF-8" standalone="no"?>
<!-- Generator: Adobe Illustrator 17.1.0, SVG Export Plug-In . SVG Version: 6.00 Build 0)  -->

<svg
   xmlns:dc="http://purl.org/dc/elements/1.1/"
   xmlns:cc="http://creativecommons.org/ns#"
   xmlns:rdf="http://www.w3.org/1999/02/22-rdf-syntax-ns#"
   xmlns:svg="http://www.w3.org/2000/svg"
   xmlns="http://www.w3.org/2000/svg"
   xmlns:sodipodi="http://sodipodi.sourceforge.net/DTD/sodipodi-0.dtd"
   xmlns:inkscape="http://www.inkscape.org/namespaces/inkscape"
   version="1.1"
   id="Layer_1"
   x="0px"
   y="0px"
   viewBox="150.1 0 184.9 213.39999"
   enable-background="new 150.1 0 228.4 322.2"
   xml:space="preserve"
   inkscape:version="0.91 r13725"
   sodipodi:docname="teacher_forum_hexagon.svg"
   width="184.89999"
   height="213.39999"><metadata
     id="metadata31"><rdf:RDF><cc:Work
         rdf:about=""><dc:format>image/svg+xml</dc:format><dc:type
           rdf:resource="http://purl.org/dc/dcmitype/StillImage" /><dc:title></dc:title></cc:Work></rdf:RDF></metadata><defs
     id="defs29" /><sodipodi:namedview
     pagecolor="#ffffff"
     bordercolor="#666666"
     borderopacity="1"
     objecttolerance="10"
     gridtolerance="10"
     guidetolerance="10"
     inkscape:pageopacity="0"
     inkscape:pageshadow="2"
     inkscape:window-width="1133"
     inkscape:window-height="1011"
     id="namedview27"
     showgrid="false"
     fit-margin-top="0"
     fit-margin-left="0"
     fit-margin-right="0"
     fit-margin-bottom="0"
     inkscape:zoom="2.9298571"
     inkscape:cx="99.321987"
     inkscape:cy="88.303381"
     inkscape:window-x="0"
     inkscape:window-y="0"
     inkscape:window-maximized="0"
     inkscape:current-layer="Layer_1" /><polygon
     points="357.1,240.3 264.7,293.7 172.2,240.3 172.2,133.7 264.5,80.3 357.1,133.5 "
     id="polygon11"
     style="fill:#509e2e"
     transform="translate(-22.099994,-80.3)" /><path
     style="fill:#ffffff;fill-opacity:1;stroke:none"
     d="m 186.14593,165.84954 c -0.4695,-0.75966 2.49497,-4.72981 6.5877,-8.82254 10.01413,-10.01413 10.83014,-13.66115 4.52655,-20.2307 -2.67015,-2.78281 -6.62068,-8.46906 -8.77894,-12.63611 -3.5046,-6.76645 -3.92483,-8.97553 -3.93074,-20.66303 -0.006,-12.299979 0.27159,-13.583415 4.62194,-21.351818 5.77462,-10.311707 9.96884,-14.880973 19.00896,-20.7087 10.15876,-6.548875 18.76481,-9.207053 32.20479,-9.947207 23.85236,-1.313574 42.91059,7.768181 56.02998,26.699775 11.9265,17.210229 8.93475,43.47461 -6.78882,59.59859 -13.02135,13.35294 -25.37559,18.20187 -47.47336,18.63289 -8.46961,0.16521 -16.21825,0.94599 -17.2192,1.73507 -6.23778,4.91747 -36.76275,10.9721 -38.78886,7.69378 z m 44.46028,-38.73717 c 7.54017,-5.4634 8.78886,-8.76586 9.45835,-25.01484 l 0.62845,-15.25316 -10.85537,0.40556 -10.85537,0.40556 0,9.642751 0,9.642759 4.60208,0.44099 c 4.23424,0.40574 4.52941,0.73605 3.69293,4.1326 -0.50003,2.0304 -2.72593,5.5808 -4.94646,7.88981 -3.85618,4.00984 -5.17133,8.67274 -3.04565,10.79843 1.40484,1.40483 7.36095,-0.22109 11.32104,-3.09046 l 0,0 z m 29.402,2.04674 c 9.85953,-4.20109 13.36651,-12.2818 13.37905,-30.827721 l 0.008,-11.364671 -10.33152,0 -10.33151,0 0,10.331523 0,10.331519 4.1326,0 c 3.18987,0 4.13261,0.61757 4.13261,2.70714 0,1.48893 -1.85967,4.82519 -4.13261,7.41392 -2.7018,3.07719 -4.1326,6.19385 -4.1326,9.00192 0,4.81177 0.91832,5.11546 7.27631,2.40637 z"
     id="path3764"
     inkscape:connector-curvature="0" /></svg>